<?xml version="1.0"?>
<svg width="108.2" height="15.300000000000002" xmlns="http://www.w3.org/2000/svg" xmlns:svg="http://www.w3.org/2000/svg" version="1.1">
 <g class="layer">
  <title>Layer 1</title>
  <g id="svg_46">
   <path d="m7.41,2.37l1.29,0l0.97,0.19l0.39,0.25l0.19,0.19l-0.06,0.25l-1.03,0.56l-0.58,0.25l-0.26,0l-0.19,-0.56l-0.32,-0.25l-0.32,-0.12l-0.45,-0.06l-0.77,0l-0.9,0.31l-0.84,0.5l-0.97,0.87l-0.45,0.5l-0.58,0.87l-0.45,0.94l-0.19,0.69l-0.13,1.31l-0.06,0.25l0.45,1.5l0.58,0.81l0.45,0.37l0.64,0.37l0.97,0.31l0.71,0.12l1.8,0l0.9,-0.19l1.29,-0.5l0.9,-0.5l0.71,-0.56l0.77,-0.75l0.32,-0.81l0.13,-0.69l0.58,-1.19l0.58,-1l0.77,-0.87l0.77,-0.75l0.71,-0.56l0.64,-0.37l0.71,-0.25l0.26,-0.06l1.1,0l0.64,0.25l0.52,0.5l0.45,0.69l0.06,0.62l0.52,-0.44l0.52,-0.5l0.9,-0.62l0.58,-0.37l0.71,-0.31l0.52,-0.12l0.52,0l0.39,0.25l0.32,0.44l0.13,0.56l0,0.75l-0.13,1.25l-0.19,0.56l-0.45,1.94l-0.19,0.69l0.06,0.06l0.84,-1.25l0.84,-1.12l0.77,-1l0.52,-0.62l0.77,-0.87l0.71,-0.69l0.71,-0.44l0.64,-0.31l0.71,-0.12l0.52,0l0.45,0.37l0.19,0.44l0,1.19l-1.16,4.5l-0.19,1.37l0,0.56l0.19,0.37l0.19,0.19l0.45,0l0.84,-0.31l1.29,-0.87l0.58,-0.5l0.45,-0.31l0.32,0.06l-0.06,0.31l-0.39,0.31l0,0.37l0.45,0.37l0.64,0.31l0.9,0.25l0.9,0.12l1.8,0l1.74,-0.25l0.84,-0.31l0.45,-0.37l-0.06,-0.44l-0.58,-0.62l-1.1,-0.75l-1.16,-0.62l-0.64,-0.44l-0.9,-0.56l-0.84,-0.81l-0.26,-0.56l-0.06,-0.37l0,-0.69l0.19,-0.31l0.52,-0.44l0.97,-0.44l1.55,-0.44l1.35,-0.25l0.84,-0.12l1.87,0l0.77,0.25l0.19,0.19l-0.06,0.25l-1.1,0.62l-0.32,0.19l-0.19,0l-0.13,-0.44l-0.39,-0.12l-1.16,-0.06l-1.16,0.06l-0.97,0.19l-0.84,0.31l-0.32,0.19l-0.13,0.25l0,0.56l0.32,0.62l0.52,0.44l0.9,0.56l0.64,0.44l0.71,0.37l1.16,0.81l0.71,0.56l0.45,0.44l0.26,0.44l0,0.44l-0.26,0.37l-0.52,0.44l-0.52,0.25l-1.16,0.44l-1.61,0.31l-1.61,0.19l-1.22,0l-0.84,-0.06l-1.35,-0.37l-0.52,-0.25l-0.45,-0.25l-0.19,-0.25l-0.32,0.06l-0.9,0.56l-0.9,0.44l-0.71,0.19l-0.77,0l-0.39,-0.25l-0.32,-0.44l-0.13,-0.69l0.13,-1.19l0.52,-2l0.32,-1.12l0.39,-2l0,-0.69l-0.26,-0.37l-0.13,-0.12l-0.39,0l-0.64,0.37l-0.58,0.56l-0.58,0.69l-0.9,1.12l-0.84,1.12l-0.77,1.25l-0.64,1l-0.52,1l-0.32,0.69l-0.19,0.37l-1.03,0.5l-0.45,0.06l0.06,-0.56l0.45,-1.5l0.19,-1.25l0.19,-0.25l0.26,-1.19l0.13,-0.37l0.26,-1.5l0.13,-0.19l0,-1.19l-0.19,-0.62l-0.19,-0.25l-0.52,0l-0.52,0.31l-1.22,0.81l-0.84,0.69l-0.26,0.25l-0.13,0.94l-0.52,1.5l-0.52,1l-0.58,0.87l-0.58,0.69l-1.16,1.12l-0.77,0.44l-0.9,0.31l-0.71,0l-0.71,-0.25l-0.77,-0.5l-0.39,-0.5l-0.26,-0.62l-0.06,-0.44l-0.26,0.12l-0.32,0.31l-0.9,0.5l-1.03,0.56l-0.71,0.31l-1.22,0.37l-1.1,0.19l-0.77,0.06l-1.16,0l-1.1,-0.12l-0.9,-0.25l-0.84,-0.44l-1.03,-0.81l-0.39,-0.56l-0.26,-0.62l0,-1l0.26,-1.37l0.45,-1.12l0.52,-0.94l0.9,-1.19l1.03,-1l1.03,-0.75l1.03,-0.5l0.71,-0.25l0.71,-0.12l0.71,-0.06z" fill="#232022" id="svg_2"/>
   <path d="m50.9,0.12l0.13,0.12l-0.58,1.5l-0.45,0.94l-0.52,1.31l-0.13,0.37l4.32,0l0.06,0.25l-0.26,0.25l-0.13,0.06l-2.58,0.12l-0.26,0.06l-1.55,0.12l-0.71,2.12l-0.39,1.69l-0.19,0.62l0,1.5l0.39,0.75l0.45,0.37l0.58,0.25l0.58,0.06l0.64,-0.12l0.71,-0.37l0.84,-0.75l0.77,-0.75l0.13,0l0.26,-1l0.26,-0.56l0.52,-1l0.58,-0.94l0.52,-0.75l0.58,-0.62l0.71,-0.62l1.29,-0.81l0.84,-0.37l0.52,-0.12l1.1,0l0.97,0.31l0.52,0.25l0.39,0l0.39,-0.19l0.45,0l0,0.37l-0.58,1.5l-0.39,1.25l-0.45,1.19l-0.19,0.94l-0.19,1.19l0,1.31l0.39,0.62l0.13,0.25l0.45,0l0.77,-0.25l1.03,-0.62l0.97,-0.62l0.84,-0.69l0.26,-0.06l0.06,0.31l-0.97,1l-0.64,0.5l-1.55,0.81l-1.03,0.44l-0.26,0.06l-0.9,0l-0.64,-0.25l-0.26,-0.37l-0.13,-0.44l-0.06,-0.62l0,-0.94l0.26,-1.19l0.13,-0.56l-0.52,0.44l-0.71,0.75l-0.39,0.31l-0.32,0.5l-0.45,0.44l-1.1,0.81l-0.84,0.56l-0.84,0.31l-0.64,0.12l-0.52,-0.06l-0.45,-0.25l-0.26,-0.31l-0.13,-0.31l0,-1l0.06,-0.19l-0.26,0.12l-0.45,0.5l-0.64,0.5l-0.64,0.37l-1.1,0.44l-0.26,0.06l-1.42,0l-0.64,-0.25l-0.45,-0.37l-0.39,-0.62l-0.19,-0.69l0,-0.94l0.39,-1.56l0.26,-0.69l0.19,-0.44l0.19,-0.37l0.26,-0.94l0.45,-1.31l-2.51,0l-0.06,-0.06l0,-0.44l0.19,-0.31l0.97,0l0.32,-0.06l0.19,0.06l1.22,-0.06l0.77,-2.19l0.39,-1.31l0.19,-0.19l1.16,-0.5l0.19,-0.06z" fill="#232022" id="svg_3"/>
   <path d="m92.58,2.87l0.32,0l0.06,0.06l-0.06,0.62l-0.84,2.12l-0.39,1l-0.71,1.75l-0.39,1.06l-0.26,0.69l-0.26,1.12l0,0.62l0.19,0.56l0.26,0.25l0.52,0.06l0.58,-0.25l0.71,-0.5l0.64,-0.56l0.71,-0.69l0.45,-0.56l0.58,-0.62l0.45,-0.69l0.52,-1l0.77,-1.19l0.52,-0.69l0.58,-0.56l0.84,-0.62l1.16,-0.69l0.84,-0.31l0.26,-0.06l1.1,0l0.84,0.25l0.84,0.37l0.32,-0.12l0.26,-0.12l0.45,0l0.06,0.25l-0.39,1l-0.52,1.5l-0.52,1.44l-0.26,1.12l-0.19,1.19l0,1.25l0.32,0.5l0.19,0.25l0,0.12l0.52,0l0.84,-0.31l1.55,-0.94l0.9,-0.69l0.45,-0.31l0.19,0l-0.06,0.31l-0.45,0.5l-0.58,0.56l-0.84,0.56l-1.16,0.62l-1.16,0.5l-0.26,0.06l-0.9,0l-0.52,-0.19l-0.32,-0.37l-0.19,-0.56l0,-1.75l0.32,-1.31l0.06,-0.25l-0.52,0.44l-0.58,0.69l-0.52,0.44l-0.45,0.62l-0.64,0.56l-0.9,0.62l-0.64,0.44l-0.97,0.37l-0.64,0.12l-0.58,-0.06l-0.52,-0.37l-0.26,-0.5l0,-1.06l0.13,-0.81l-0.58,0.69l-0.84,0.81l-0.71,0.56l-0.84,0.5l-0.45,0.19l-0.71,0.12l-0.58,0l-0.71,-0.37l-0.39,-0.5l-0.06,-0.25l0,-1.31l0.45,-1.5l0.32,-0.81l0.77,-2.31l0.32,-1.19l0.32,-1.31l0.13,-0.5l0.32,-0.25l0.64,-0.25l0.71,-0.19z" fill="#232022" id="svg_4"/>
   <path d="m68.04,3.43l0.52,0l0.39,0.25l0.32,0.44l0.13,0.44l0,1.25l-0.13,0.94l-0.45,1.62l-0.19,0.81l-0.26,0.94l0.13,0l0.13,-0.37l0.45,-0.62l0.45,-0.69l1.35,-1.75l0.84,-1l0.58,-0.69l0.58,-0.56l0.64,-0.44l0.84,-0.37l0.58,-0.12l0.58,0l0.45,0.37l0.26,0.62l-0.06,1.06l-0.64,2.44l-0.32,1.31l-0.26,1.12l-0.13,0.87l0,0.62l0.19,0.37l0.19,0.19l0.45,0l0.84,-0.31l1.16,-0.75l0.39,-0.31l0.13,0l0,-0.12l0.19,-0.12l0.26,-1.44l0.39,-1.12l0.58,-1.19l0.45,-0.69l0.71,-0.75l0.45,-0.5l0.64,-0.62l0.9,-0.56l0.64,-0.31l0.71,-0.19l1.35,0l0.52,0.25l0.45,0.5l0.26,0.56l0.06,0.25l0,0.5l-0.26,0.31l-0.45,0.19l-0.64,0.12l-0.26,0l0,-0.81l-0.45,-0.62l-0.32,-0.19l-0.26,-0.06l-0.52,0l-0.71,0.25l-0.84,0.62l-0.71,0.62l-0.71,1l-0.45,0.94l-0.26,0.94l-0.06,0.69l0,0.62l0.26,0.94l0.39,0.5l0.45,0.5l0.52,0.31l0.39,0.12l1.1,0.06l0.64,-0.12l1.42,-0.56l0.71,-0.62l0.52,-0.44l0.52,-0.69l0.32,-0.69l0.13,-0.56l0.26,-0.12l0.52,0.12l0.06,0.12l-0.06,0.62l-0.39,0.62l-0.84,1l-0.71,0.62l-1.03,0.69l-1.03,0.5l-1.29,0.44l-0.71,0l-0.13,0.06l-1.1,0l-1.03,-0.5l-0.64,-0.5l-0.45,-0.69l-0.13,-0.5l-0.26,0.12l-0.71,0.62l-0.9,0.56l-1.22,0.56l-0.52,0.12l-0.77,0l-0.39,-0.25l-0.32,-0.44l-0.13,-0.44l0,-0.56l0.19,-1.25l0.52,-1.87l0.32,-1.19l0.32,-1.75l0,-0.56l-0.26,-0.5l-0.13,-0.06l-0.39,0l-0.64,0.37l-0.45,0.37l-0.52,0.62l-0.71,0.87l-0.9,1.19l-0.71,1.06l-0.77,1.25l-0.58,1l-0.52,1.06l-0.13,0.31l-0.52,0.31l-0.77,0.31l-0.26,0l0.06,-0.62l0.52,-1.75l0.13,-0.87l0.19,-0.31l0.19,-0.94l0.19,-0.62l0.06,-0.62l0.13,-0.31l0.06,-0.56l0.13,-0.19l0,-1.19l-0.19,-0.69l-0.26,-0.19l-0.45,0l-0.64,0.37l-1.1,0.75l-0.71,0.56l-0.45,0.37l-0.26,-0.06l0.06,-0.25l0.45,-0.5l0.97,-0.94l0.52,-0.31l0.52,-0.37l1.03,-0.5l0.52,-0.12z" fill="#232022" id="svg_5"/>
   <path d="m16.75,4.68l0.45,0l0.64,0.25l0.45,0.44l0.32,0.62l0.19,0.94l0,1.06l-0.26,1.06l-0.39,0.94l-0.71,1.12l-0.58,0.62l-0.77,0.56l-0.52,0.19l-0.45,-0.06l-0.9,-0.37l-0.45,-0.5l-0.32,-0.75l0,-1.31l0.19,-0.87l0.39,-1.12l0.58,-1.06l0.71,-0.87l0.45,-0.44l0.52,-0.31l0.45,-0.12z" fill="#FBFBFB" id="svg_6"/>
   <path d="m100.06,4.68l0.84,0.06l0.77,0.31l0.52,0.44l0.13,0.25l0,0.62l-0.58,1.5l-0.32,0.56l-0.52,0.62l-0.19,0.31l-0.13,0l-0.13,0.25l-0.97,1l-0.77,0.81l-0.9,0.62l-0.52,0.25l-0.26,0.06l-0.64,0l-0.32,-0.31l-0.13,-0.31l-0.06,-0.69l0.26,-1.44l0.39,-1.12l0.77,-1.44l0.77,-1.06l0.9,-0.87l0.77,-0.37l0.32,-0.06z" fill="#FBFBFB" id="svg_7"/>
   <path d="m58.25,4.68l0.52,0l0.71,0.19l0.71,0.44l0.26,0.31l0.06,0.19l0,0.56l-0.52,1.31l-0.32,0.62l-0.52,0.62l-0.39,0.5l-0.9,0.94l-0.77,0.87l-0.84,0.62l-0.77,0.44l-0.26,0.06l-0.64,0l-0.32,-0.31l-0.19,-0.5l0,-0.62l0.32,-1.56l0.52,-1.31l0.64,-1.12l0.64,-0.87l0.58,-0.62l0.64,-0.5l0.84,-0.25z" fill="#FBFBFB" id="svg_8"/>
   <path d="m44.07,11.87l0.19,0l0.13,0.31l0,0.5l-0.26,0.44l-0.58,0.56l-0.97,0.5l-0.97,0.31l-1.22,0.25l-1.61,0.19l-2.13,0l-1.22,-0.31l-1.03,-0.37l-0.64,-0.37l-0.32,0.06l-0.9,0.56l-0.97,0.44l-1.03,0.12l-0.52,-0.19l-0.32,-0.31l-0.26,-0.31l-0.06,-0.37l1.48,0l0.77,-0.19l0.77,-0.31l0.84,-0.44l0.39,0l0.71,0.31l1.03,0.37l0.97,0.19l0.64,0.06l1.03,0l2.13,-0.19l1.29,-0.25l0.84,-0.31l0.9,-0.5l0.64,-0.56l0.26,-0.19z" fill="#C3C4C4" id="svg_9"/>
   <path d="m23,5.06l0.19,0.06l0,0.75l-0.45,0.5l-1.03,0.69l-0.58,0.5l-0.32,0.62l-0.26,0.94l-0.39,1.12l-0.71,1.31l-0.52,0.75l-0.64,0.81l-0.97,0.94l-0.71,0.44l-0.64,0.31l-0.45,0.12l-0.9,0l-0.84,-0.31l-0.71,-0.5l-0.39,-0.44l0.06,-0.25l0.58,0.12l0.52,0.19l0.19,0.06l1.1,0l0.77,-0.19l0.77,-0.37l0.84,-0.75l0.71,-0.81l0.39,-0.56l0.77,-1.19l0.52,-1l0.26,-0.56l0.39,-1.31l0.19,-0.37l0.52,-0.5l0.84,-0.62l0.9,-0.5z" fill="#C3C4C4" id="svg_10"/>
   <path d="m11.6,12.12l0.26,0.06l0.32,0.5l0,0.19l-0.13,0l-0.06,0.19l-1.03,0.62l-1.03,0.5l-0.9,0.37l-1.1,0.31l-0.77,0.12l-0.84,0.06l-1.68,0l-1.42,-0.31l-0.77,-0.31l-0.77,-0.5l-0.71,-0.62l-0.32,-0.56l0.13,-0.12l0.45,0.25l0.58,0.37l0.71,0.31l1.03,0.25l1.48,0.12l1.93,0l1.1,-0.12l1.29,-0.37l0.84,-0.37l0.9,-0.56l0.52,-0.37z" fill="#C3C4C4" id="svg_11"/>
   <path d="m88.07,10.24l0.13,0l-0.06,0.81l-0.26,0.81l-0.39,0.56l-0.77,0.81l-1.03,0.75l-1.03,0.56l-0.77,0.31l-0.84,0.25l-0.32,0.06l-1.74,0l-0.64,-0.25l-0.71,-0.44l-0.19,-0.12l0,-0.12l-0.19,-0.06l-0.58,-0.81l0,-0.12l0.32,0.12l0.71,0.37l0.52,0.25l0.45,0.12l1.35,0l1.03,-0.19l1.16,-0.37l0.9,-0.44l0.9,-0.62l0.64,-0.56l0.64,-0.62l0.71,-0.87l0.06,-0.19z" fill="#C3C4C4" id="svg_12"/>
   <path d="m29.51,5.31l0.32,0l0.06,0.06l0,0.37l-0.32,0.5l-0.77,0.87l-0.84,1.06l-0.77,1l-0.64,0.94l-0.64,1l-0.77,1.31l-0.52,1.12l-0.32,0.56l-0.39,0.31l-0.77,0.37l-0.52,0.06l-0.19,-0.19l0,-0.69l0.32,-0.31l0.84,-0.44l0.52,-0.37l0.45,-0.69l0.45,-0.37l0,-0.25l-0.19,-0.06l0.06,-0.25l0.58,-1l0.58,-0.94l0.71,-1l0.45,-0.62l0.13,0l0.13,-0.25l0.58,-0.75l0.58,-0.62l0.45,-0.5l0.26,-0.19l0.19,-0.06z" fill="#C3C4C4" id="svg_13"/>
   <path d="m73.51,5.31l0.52,0l0.06,0.44l-0.19,0.31l-0.77,0.81l-0.71,0.87l-0.64,0.81l-0.9,1.25l-0.64,1l-0.39,0.62l-0.52,0.87l-0.58,1.31l-0.39,0.62l-0.9,0.5l-0.39,0.12l-0.39,0l-0.13,-0.12l0,-0.75l0.32,-0.31l1.22,-0.62l0.32,-0.37l0.26,-0.5l0.32,-0.12l0.19,-0.19l-0.06,-0.31l-0.06,-0.25l0.58,-1.06l0.84,-1.31l0.45,-0.62l0.58,-0.75l0.26,-0.37l0.13,0l0.13,-0.25l0.52,-0.69l0.45,-0.44l0.26,-0.31l0.26,-0.19z" fill="#C3C4C4" id="svg_14"/>
   <path d="m107.73,11.68l0.32,0.06l0.06,0.44l-0.52,0.62l-0.77,0.75l-0.64,0.44l-0.71,0.44l-1.42,0.62l-0.58,0.19l-0.97,0l-0.64,-0.25l-0.32,-0.25l-0.19,-0.31l-0.06,-0.44l0.32,-0.06l0.77,0.19l0.71,0l1.16,-0.31l1.03,-0.5l1.03,-0.56l0.77,-0.5l0.64,-0.56z" fill="#C3C4C4" id="svg_15"/>
   <path d="m65.85,11.68l0.19,0l0,0.44l-0.52,1l-0.71,0.62l-1.29,0.75l-1.1,0.5l-0.71,0.25l-1.03,0l-0.58,-0.25l-0.39,-0.31l-0.19,-0.5l0.06,-0.25l0.84,0.19l0.84,0l1.35,-0.37l1.61,-0.81l0.77,-0.5l0.84,-0.75z" fill="#C3C4C4" id="svg_16"/>
   <path d="m58.57,11.24l0.19,0.06l0,0.56l-0.26,0.56l-0.45,0.56l-0.52,0.5l-1.22,0.87l-0.71,0.37l-0.64,0.25l-0.64,0.12l-0.64,0l-0.58,-0.37l-0.32,-0.44l-0.06,-0.44l0.58,0.06l0.97,0l1.1,-0.31l0.9,-0.44l0.71,-0.5l0.58,-0.44l0.52,-0.44l0.45,-0.5l0.06,-0.06z" fill="#C3C4C4" id="svg_17"/>
   <path d="m100.44,11.12l0.13,0l0,0.69l-0.26,0.62l-0.58,0.62l-0.52,0.5l-1.16,0.81l-0.64,0.37l-0.9,0.31l-0.32,0.06l-0.71,0l-0.58,-0.37l-0.39,-0.5l-0.06,-0.44l0.77,0.12l0.84,0l0.71,-0.19l0.97,-0.37l1.03,-0.69l0.9,-0.69l0.45,-0.5l0.32,-0.37z" fill="#C3C4C4" id="svg_18"/>
   <path d="m6.32,3.56l1.03,0l0.32,0.25l0.06,0.56l-0.06,0.06l-1.1,0.12l-0.77,0.31l-0.71,0.44l-1.16,1.12l-0.58,0.81l-0.9,1.75l-0.13,0l-0.06,-0.37l0.13,-1l0.26,-0.75l0.45,-0.87l0.64,-0.81l0.77,-0.69l0.84,-0.56l0.97,-0.37z" fill="#C3C4C4" id="svg_19"/>
   <path d="m40.72,5.18l1.74,0l0.39,0.56l0.06,0.12l0.32,-0.06l0.9,-0.5l0.39,-0.12l0.32,0.06l0.26,0.56l-0.06,0.31l-1.03,0.56l-0.26,0.12l-0.32,0l-0.26,-0.37l0,-0.19l-0.39,-0.06l-1.03,0l-1.61,0.19l-0.84,0.19l-0.52,0l-0.26,-0.31l0,-0.37l0.52,-0.31l0.84,-0.25l0.84,-0.12z" fill="#C3C4C4" id="svg_20"/>
   <path d="m51.42,5.5l2.83,0l0,0.56l-0.19,0.25l-0.45,0.12l-4.06,0.25l-0.58,1.69l-0.52,1.94l-0.06,0.19l-0.13,0l0,-0.56l0.32,-1.56l0.26,-1l0.39,-1.19l0.19,-0.56l2,-0.12z" fill="#C3C4C4" id="svg_21"/>
   <path d="m58.37,5.25l0.77,0.06l0.45,0.25l0.13,0.19l0,0.44l-0.06,0.06l-1.16,0l-0.71,0.25l-0.64,0.56l-0.52,0.62l-0.64,0.94l-0.52,0.94l-0.39,1l-0.19,1l-0.19,-0.06l0.06,-0.94l0.19,-1.06l0.39,-1.12l0.64,-1.12l0.71,-1l0.58,-0.56l0.77,-0.37l0.32,-0.06z" fill="#C3C4C4" id="svg_22"/>
   <path d="m51.87,12.87l0.26,0.06l0.13,0.37l0,0.31l-0.64,0.56l-0.97,0.5l-0.97,0.31l-1.42,0l-0.71,-0.25l-0.52,-0.37l-0.39,-0.56l0.06,-0.19l0.39,0.06l0.58,0.19l1.1,0.06l0.97,-0.12l0.97,-0.25l0.71,-0.37l0.45,-0.31z" fill="#C3C4C4" id="svg_23"/>
   <path d="m100.12,5.25l0.58,0l0.45,0.12l0.45,0.37l0,0.56l-1.61,0l-0.52,0.25l-0.52,0.44l-0.84,1.06l-0.58,0.94l-0.52,1.06l-0.26,0.87l-0.13,0.56l-0.06,0l0,-0.81l0.19,-1.12l0.32,-1l0.71,-1.31l0.64,-0.87l0.58,-0.62l0.64,-0.37l0.45,-0.12z" fill="#C3C4C4" id="svg_24"/>
   <path d="m93.55,12.49l0.26,0.06l0.13,0.37l-0.06,0.44l-0.64,0.62l-0.97,0.69l-0.84,0.37l-0.45,0.12l-0.9,0l-0.52,-0.19l-0.52,-0.44l-0.26,-0.5l0.06,-0.06l0.58,0l0.52,0.12l0.52,0l1.03,-0.25l0.84,-0.44l1.03,-0.81l0.19,-0.12z" fill="#C3C4C4" id="svg_25"/>
   <path d="m78.02,12.49l0.32,0.06l0.32,0.56l-0.06,0.12l-0.32,0.19l-0.84,0.62l-1.16,0.62l-0.64,0.25l-0.26,0.06l-0.97,0l-0.39,-0.25l-0.52,-0.56l-0.06,-0.37l0.13,-0.06l0.39,0.12l1.03,0l1.03,-0.25l1.03,-0.5l0.97,-0.62z" fill="#C3C4C4" id="svg_26"/>
   <path d="m16.69,5.25l0.71,0l0.32,0.19l0.19,0.31l0.06,0.44l-0.06,0.06l-0.84,0l-0.64,0.31l-0.64,0.62l-0.58,0.81l-0.52,1l-0.45,1.31l-0.13,-0.06l0,-0.81l0.13,-0.81l0.32,-1l0.64,-1.19l0.71,-0.75l0.64,-0.37l0.13,-0.06z" fill="#C3C4C4" id="svg_27"/>
   <path d="m83.5,5l0.45,0.06l0.64,0.62l-0.06,0.25l-0.84,0.12l-0.71,0.37l-0.71,0.5l-0.13,0.19l-0.13,0l-0.13,0.25l-0.71,1l-0.58,0.94l-0.13,0.06l0,-0.69l0.26,-0.81l0.45,-0.87l0.64,-0.87l0.45,-0.44l0.58,0.06l0.13,-0.25l0.52,-0.5z" fill="#C3C4C4" id="svg_28"/>
   <path d="m67.14,5.06l0.26,0l0,0.62l-0.13,0.31l-0.45,0.44l-1.03,0.69l-0.84,0.69l-0.52,0.25l-0.32,-0.37l0.06,-0.31l0.9,-0.87l0.52,-0.44l0.9,-0.62l0.64,-0.37z" fill="#C3C4C4" id="svg_29"/>
   <path d="m92.26,0.18l0.58,0l0.52,0.25l0.19,0.25l0.06,0.31l-0.19,0.37l-0.45,0.37l-0.58,0.19l-0.45,0l-0.58,-0.19l-0.19,-0.31l0,-0.44l0.19,-0.31l0.52,-0.37l0.39,-0.12z" fill="#232022" id="svg_30"/>
   <path d="m10.31,3.75l0.32,0.06l0.26,0.31l0.06,0.37l-0.58,0.44l-1.35,0.56l-0.52,0.06l-0.06,-1l1.1,-0.5l0.77,-0.31z" fill="#C3C4C4" id="svg_31"/>
   <path d="m37.05,8.56l0.26,0.12l1.29,0.69l1.03,0.62l0.9,0.5l0.58,0.44l0.32,0.31l0.13,0.25l-0.06,0.12l-0.39,-0.06l-1.1,-0.62l-0.97,-0.56l-1.1,-0.75l-0.77,-0.75l0,-0.19l-0.13,0l0,-0.12z" fill="#C3C4C4" id="svg_32"/>
   <path d="m93.36,4.06l0.13,0l0,0.5l-0.32,0.94l-0.39,0.94l-1.1,2.87l-0.39,0.94l-0.39,1.19l-0.13,0.37l-0.13,-0.06l0.13,-1l0.26,-0.87l0.58,-1.56l0.19,-0.25l0.26,-0.75l0.32,-0.75l0.58,-1.69l0.32,-0.75l0.06,-0.06z" fill="#C3C4C4" id="svg_33"/>
   <path d="m87.04,6.06l0.19,0l0.06,0.44l-0.06,0.62l-0.32,0.25l-0.71,0.37l-0.52,0l-0.39,-0.12l-0.13,-0.12l0.06,-0.31l1.03,-0.62l0.77,-0.5z" fill="#C3C4C4" id="svg_34"/>
   <path d="m63.08,5.18l0.13,0l0,0.5l-0.9,2.56l-0.52,1.69l-0.19,1.12l-0.06,0.56l-0.13,0.06l0,-0.87l0.26,-1.62l0.19,-0.75l0.71,-2.19l0.52,-1.06z" fill="#C3C4C4" id="svg_35"/>
   <path d="m32.54,5.37l0.06,0l0,0.94l-0.39,1.94l-0.77,2.94l-0.13,0.62l-0.13,-0.06l0.13,-1.44l0.32,-1.37l0.52,-2.06l0.39,-1.5z" fill="#C3C4C4" id="svg_36"/>
   <path d="m51.29,1.25l0.32,0l-0.06,0.62l-0.32,0.87l-0.52,1l-0.19,0.12l-0.26,-0.06l0.06,-0.56l0.45,-1.06l0.52,-0.94z" fill="#C3C4C4" id="svg_37"/>
   <path d="m45.42,5.75l1.1,0l0.45,0.06l0.06,0.12l-0.13,0.37l-0.19,0.31l-0.26,0.19l-0.45,0l-0.39,-0.12l-0.19,-0.44l-0.06,-0.44l0.06,-0.06z" fill="#C3C4C4" id="svg_38"/>
   <path d="m104.83,5.43l0.13,0l0,0.44l-1.16,3.37l-0.32,1.12l-0.13,-0.12l0.19,-1.31l0.39,-1.19l0.45,-1.31l0.32,-0.69l0.13,-0.31z" fill="#C3C4C4" id="svg_39"/>
   <path d="m76.74,5.43l0.06,0.25l-0.13,1.06l-0.45,2l-0.71,2.75l-0.06,0l0.06,-1.19l0.97,-3.81l0.26,-1.06z" fill="#C3C4C4" id="svg_40"/>
   <path d="m93.81,1.68l0.26,0l0,0.62l-0.19,0.44l-0.19,0.25l-0.13,0l-0.06,-0.44l-0.26,-0.06l-0.13,-0.25l0.58,-0.44l0.13,-0.12z" fill="#C3C4C4" id="svg_41"/>
   <path d="m52.38,11.43l0.19,0l-0.06,1.06l-0.06,0l0,-0.87l-0.19,0.06l0.13,-0.25z" fill="#C7C8C8" id="svg_42"/>
  </g>
 </g>
</svg>