<?xml version="1.0"?>
<svg width="50" height="279.4" xmlns="http://www.w3.org/2000/svg" xmlns:svg="http://www.w3.org/2000/svg" version="1.1">
 <g class="layer">
  <title>Layer 1</title>
  <g id="svg_19">
   <g id="svg_24" opacity="0.15">
    <path d="m20.31,227.62c0.06,0 0.11,0 0.17,0c0,1.12 0,2.23 0,3.38c1.14,0 2.26,0 3.43,0c0,-1.12 0,-2.23 0,-3.38c1.19,0 2.37,0 3.6,0c0,0.06 0,0.11 0,0.17c-1.14,0 -2.26,0 -3.43,0c0,1.12 0,2.23 0,3.38c-1.19,0 -2.37,0 -3.6,0c0,1.12 0,2.23 0,3.38c-0.06,0 -0.11,0 -0.17,0c0,-1.12 0,-2.23 0,-3.38c-1.14,0 -2.26,0 -3.43,0c0,1.06 0,2.12 0,3.21c-0.06,0 -0.11,0 -0.17,0c0,-1.12 0,-2.23 0,-3.38c1.19,0 2.37,0 3.6,0c0,-1.12 0,-2.23 0,-3.38z" fill="#7f7f7f" id="svg_16" opacity="0.15"/>
    <path d="m23.9,224.23c1.19,0 2.37,0 3.6,0c0,1.12 0,2.23 0,3.38c1.19,0 2.37,0 3.6,0c0,1.12 0,2.23 0,3.38c1.19,0 2.37,0 3.6,0c0,1.12 0,2.23 0,3.38c1.19,0 2.37,0 3.6,0c0,1.17 0,2.34 0,3.55c1.19,0 2.37,0 3.6,0c0,1.12 0,2.23 0,3.38c1.14,0 2.26,0 3.43,0c0,1.12 0,2.23 0,3.38c1.19,0 2.37,0 3.6,0c0,1.23 0,2.45 0,3.72c-1.19,0 -2.37,0 -3.6,0c0,1.12 0,2.23 0,3.38c-1.14,0 -2.26,0 -3.43,0c0,1.12 0,2.23 0,3.38c-1.19,0 -2.37,0 -3.6,0c0,1.12 0,2.23 0,3.38c1.19,0 2.37,0 3.6,0c0,1.12 0,2.23 0,3.38c1.14,0 2.26,0 3.43,0c0,1.12 0,2.23 0,3.38c1.19,0 2.37,0 3.6,0c0,1.17 0,2.34 0,3.55c-1.19,0 -2.37,0 -3.6,0c0,1.17 0,2.34 0,3.55c-1.14,0 -2.26,0 -3.43,0c0,1.12 0,2.23 0,3.38c-1.19,0 -2.37,0 -3.6,0c0,1.12 0,2.23 0,3.38c-1.25,0 -2.49,0 -3.77,0c0,-1.17 0,-2.34 0,-3.55c1.19,0 2.37,0 3.6,0c0,-1.12 0,-2.23 0,-3.38c1.19,0 2.37,0 3.6,0c0,-1.12 0,-2.23 0,-3.38c1.14,0 2.26,0 3.43,0c0,-1.12 0,-2.23 0,-3.38c-1.14,0 -2.26,0 -3.43,0c0,-1.12 0,-2.23 0,-3.38c-1.19,0 -2.37,0 -3.6,0c0,-1.12 0,-2.23 0,-3.38c-1.14,0 -2.26,0 -3.43,0c0,1.12 0,2.23 0,3.38c-1.19,0 -2.37,0 -3.6,0c0,1.12 0,2.23 0,3.38c-1.14,0 -2.26,0 -3.43,0c0,1.12 0,2.23 0,3.38c-1.25,0 -2.49,0 -3.77,0c0,-1.12 0,-2.23 0,-3.38c-1.19,0 -2.37,0 -3.6,0c0,-1.12 0,-2.23 0,-3.38c-1.19,0 -2.37,0 -3.6,0c0,-1.12 0,-2.23 0,-3.38c-1.07,0 -2.15,0 -3.26,0c0,1.12 0,2.23 0,3.38c-1.19,0 -2.37,0 -3.6,0c0,1.12 0,2.23 0,3.38c-1.19,0 -2.37,0 -3.6,0c0,1.12 0,2.23 0,3.38c1.19,0 2.37,0 3.6,0c0,1.12 0,2.23 0,3.38c1.19,0 2.37,0 3.6,0c0,1.12 0,2.23 0,3.38c1.14,0 2.26,0 3.43,0c0,1.17 0,2.34 0,3.55c-1.19,0 -2.37,0 -3.6,0c0,-1.12 0,-2.23 0,-3.38c-1.19,0 -2.37,0 -3.6,0c0,-1.12 0,-2.23 0,-3.38c-1.19,0 -2.37,0 -3.6,0c0,-1.12 0,-2.23 0,-3.38c-1.19,0 -2.37,0 -3.6,0c0,-1.23 0,-2.45 0,-3.72c1.19,0 2.37,0 3.6,0c0,-1.12 0,-2.23 0,-3.38c1.19,0 2.37,0 3.6,0c0,-1.12 0,-2.23 0,-3.38c1.19,0 2.37,0 3.6,0c0,-1.12 0,-2.23 0,-3.38c-1.19,0 -2.37,0 -3.6,0c0,-1.12 0,-2.23 0,-3.38c-1.19,0 -2.37,0 -3.6,0c0,-1.12 0,-2.23 0,-3.38c-1.19,0 -2.37,0 -3.6,0c0,-1.17 0,-2.34 0,-3.55c1.19,0 2.37,0 3.6,0c0,-1.17 0,-2.34 0,-3.55c1.19,0 2.37,0 3.6,0c0,-1.12 0,-2.23 0,-3.38c1.19,0 2.37,0 3.6,0c0,-1.12 0,-2.23 0,-3.38c0.84,-0.12 1.56,-0.19 2.39,-0.18c0.34,0 0.68,0.01 1.03,0.01c0,-1.12 0,-2.23 0,-3.38c1.19,0 2.37,0 3.6,0c0,-1.12 0,-2.23 0,-3.38c1.19,0 2.37,0 3.6,0c0,-1.12 0,-2.23 0,-3.38zm0.17,3.55c0,1.12 0,2.23 0,3.38c-1.19,0 -2.37,0 -3.6,0c0,1.12 0,2.23 0,3.38c-1.19,0 -2.37,0 -3.6,0c0,1.17 0,2.34 0,3.55c-1.19,0 -2.37,0 -3.6,0c0,1.12 0,2.23 0,3.38c-1.14,0 -2.26,0 -3.43,0c0,1.12 0,2.23 0,3.38c-1.19,0 -2.37,0 -3.6,0c0,1.12 0,2.23 0,3.38c1.19,0 2.37,0 3.6,0c0,1.12 0,2.23 0,3.38c1.14,0 2.26,0 3.43,0c0,1.12 0,2.23 0,3.38c1.14,0 2.26,0 3.43,0c0,-1.12 0,-2.23 0,-3.38c1.19,0 2.37,0 3.6,0c0,-1.12 0,-2.23 0,-3.38c1.19,0 2.37,0 3.6,0c0,-1.17 0,-2.34 0,-3.55c1.19,0 2.37,0 3.6,0c0,1.17 0,2.34 0,3.55c1.19,0 2.37,0 3.6,0c0,1.12 0,2.23 0,3.38c1.19,0 2.37,0 3.6,0c0,1.12 0,2.23 0,3.38c1.14,0 2.26,0 3.43,0c0,-1.12 0,-2.23 0,-3.38c1.19,0 2.37,0 3.6,0c0,-1.12 0,-2.23 0,-3.38c1.14,0 2.26,0 3.43,0c0,-1.12 0,-2.23 0,-3.38c-1.14,0 -2.26,0 -3.43,0c0,-1.12 0,-2.23 0,-3.38c-1.19,0 -2.37,0 -3.6,0c0,-1.12 0,-2.23 0,-3.38c-1.19,0 -2.37,0 -3.6,0c0,-1.17 0,-2.34 0,-3.55c-1.19,0 -2.37,0 -3.6,0c0,-1.12 0,-2.23 0,-3.38c-1.14,0 -2.26,0 -3.43,0c0,-1.12 0,-2.23 0,-3.38c-1.14,0 -2.26,0 -3.43,0zm0,20.64c0,1.12 0,2.23 0,3.38c-1.19,0 -2.37,0 -3.6,0c0,1.12 0,2.23 0,3.38c-1.19,0 -2.37,0 -3.6,0c0,1.12 0,2.23 0,3.38c1.19,0 2.37,0 3.6,0c0,1.12 0,2.23 0,3.38c1.19,0 2.37,0 3.6,0c0,1.12 0,2.23 0,3.38c1.14,0 2.26,0 3.43,0c0,-1.12 0,-2.23 0,-3.38c1.14,0 2.26,0 3.43,0c0,-1.12 0,-2.23 0,-3.38c1.19,0 2.37,0 3.6,0c0,-1.12 0,-2.23 0,-3.38c-1.19,0 -2.37,0 -3.6,0c0,-1.12 0,-2.23 0,-3.38c-1.14,0 -2.26,0 -3.43,0c0,-1.12 0,-2.23 0,-3.38c-1.14,0 -2.26,0 -3.43,0z" fill="#7f7f7f" id="svg_2"/>
    <g id="svg_23">
     <path d="m0.42,192.27c0.84,0 1.7,0 2.57,0c0,2.29 0,4.57 0,6.94c1.14,0 2.26,0 3.43,0c0,-1.12 0,-2.23 0,-3.38c1.19,0 2.37,0 3.6,0c0,0.06 0,0.11 0,0.17c-1.14,0 -2.26,0 -3.43,0c0,1.06 0,2.12 0,3.21c1.14,0 2.26,0 3.43,0c0,0.06 0,0.11 0,0.17c-2.32,0 -4.64,0 -7.02,0c0,1.12 0,2.23 0,3.38c-0.06,0 -0.11,0 -0.17,0c0,-1.12 0,-2.23 0,-3.38c-0.73,0 -1.47,0 -2.23,0c0,-0.06 0,-0.11 0,-0.17c0.73,0 1.47,0 2.23,0c0,-1.06 0,-2.12 0,-3.21c-0.79,0 -1.59,0 -2.4,0c0,-0.06 0,-0.11 0,-0.17c0.79,0 1.59,0 2.4,0c0,-1.12 0,-2.23 0,-3.38c-0.79,0 -1.59,0 -2.4,0c0,-0.06 0,-0.11 0,-0.17z" fill="#7f7f7f" id="svg_15"/>
     <path d="m6.42,213.08c1.19,0 2.37,0 3.6,0c0,1.17 0,2.34 0,3.55c-1.14,0 -2.26,0 -3.43,0c0,1.12 0,2.23 0,3.38c-1.19,0 -2.37,0 -3.6,0c0.01,1.11 0.01,1.11 0.02,2.21c0,0.14 0,0.27 0,0.42c0,0.21 0,0.21 0,0.43c-0.02,0.33 -0.02,0.33 -0.19,0.5c-0.43,0.01 -0.86,0.02 -1.3,0.01c-0.42,0 -0.84,-0.01 -1.28,-0.01c0.06,-1.23 0.11,-2.45 0.17,-3.72c0.79,0 1.59,0 2.4,0c0,-1.12 0,-2.23 0,-3.38c1.19,0 2.37,0 3.6,0c0,-1.12 0,-2.23 0,-3.38l0,-0.01z" fill="#7f7f7f" id="svg_12"/>
     <path d="m0.42,171.63c0.84,0 1.7,0 2.57,0c0,1.17 0,2.34 0,3.55c1.19,0 2.37,0 3.6,0c0,1.12 0,2.23 0,3.38c1.14,0 2.26,0 3.43,0c0,1.12 0,2.23 0,3.38c1.19,0 2.37,0 3.6,0c0,1.17 0,2.34 0,3.55c1.19,0 2.37,0 3.6,0c0,1.17 0,2.34 0,3.55c-1.19,0 -2.37,0 -3.6,0c0,1.12 0,2.23 0,3.38c-1.19,0 -2.37,0 -3.6,0c0,1.17 0,2.34 0,3.55c-1.14,0 -2.26,0 -3.43,0c0,1.06 0,2.12 0,3.21c1.14,0 2.26,0 3.43,0c0,1.12 0,2.23 0,3.38c1.19,0 2.37,0 3.6,0c0,1.17 0,2.34 0,3.55c1.19,0 2.37,0 3.6,0c0,1.17 0,2.34 0,3.55c-1.19,0 -2.37,0 -3.6,0c0,1.12 0,2.23 0,3.38c-1.19,0 -2.37,0 -3.6,0c0,-1.17 0,-2.34 0,-3.55c1.14,0 2.26,0 3.43,0c0,-1.06 0,-2.12 0,-3.21c-1.14,0 -2.26,0 -3.43,0c0,-1.17 0,-2.34 0,-3.55c-1.19,0 -2.37,0 -3.6,0c0,-1.12 0,-2.23 0,-3.38c-1.14,0 -2.26,0 -3.43,0c0,1.12 0,2.23 0,3.38c-0.84,0 -1.7,0 -2.57,0c0,-1.17 0,-2.34 0,-3.55c0.79,0 1.59,0 2.4,0c0,-1.06 0,-2.12 0,-3.21c-0.79,0 -1.59,0 -2.4,0c0,-1.23 0,-2.45 0,-3.72c0.84,0 1.7,0 2.57,0c0,1.17 0,2.34 0,3.55c1.14,0 2.26,0 3.43,0c0,-1.17 0,-2.34 0,-3.55c1.19,0 2.37,0 3.6,0c0,-1.12 0,-2.23 0,-3.38c1.14,0 2.26,0 3.43,0c0,-1.12 0,-2.23 0,-3.38c-1.14,0 -2.26,0 -3.43,0c0,-1.12 0,-2.23 0,-3.38c-1.19,0 -2.37,0 -3.6,0c0,-1.12 0,-2.23 0,-3.38c-1.19,0 -2.37,0 -3.6,0c0,-1.17 0,-2.34 0,-3.55c-0.79,0 -1.59,0 -2.4,0c0,-1.17 0,-2.34 0,-3.55z" fill="#7f7f7f" id="svg_5"/>
     <path d="m46.19,174.67c1.19,0 2.37,0 3.6,0c0,1.17 0,2.34 0,3.55c-1.14,0 -2.26,0 -3.43,0c0,1.17 0,2.34 0,3.55c-1.14,0 -2.26,0 -3.43,0c0,1.17 0,2.34 0,3.55c-1.14,0 -2.26,0 -3.43,0c0,1.17 0,2.34 0,3.55c-1.19,0 -2.37,0 -3.6,0c0,1.17 0,2.34 0,3.55c-1.14,0 -2.26,0 -3.43,0c0,1.12 0,2.23 0,3.38c-1.14,0 -2.26,0 -3.43,0c0,1.12 0,2.23 0,3.38c1.14,0 2.26,0 3.43,0c0,1.17 0,2.34 0,3.55c1.14,0 2.26,0 3.43,0c0,1.17 0,2.34 0,3.55c1.19,0 2.37,0 3.6,0c0,1.17 0,2.34 0,3.55c1.14,0 2.26,0 3.43,0c0,1.17 0,2.34 0,3.55c1.14,0 2.26,0 3.43,0c0,1.17 0,2.34 0,3.55c1.14,0 2.26,0 3.43,0c0,1.17 0,2.34 0,3.55c-1.19,0 -2.37,0 -3.6,0c0,-1.17 0,-2.34 0,-3.55c-1.14,0 -2.26,0 -3.43,0c0,-1.12 0,-2.23 0,-3.38c-1.14,0 -2.26,0 -3.43,0c0,-1.17 0,-2.34 0,-3.55c-1.19,0 -2.37,0 -3.6,0c0,-1.17 0,-2.34 0,-3.55c-1.14,0 -2.26,0 -3.43,0c0,-1.17 0,-2.34 0,-3.55c-1.14,0 -2.26,0 -3.43,0c0,-1.17 0,-2.34 0,-3.55c-1.19,0 -2.37,0 -3.6,0c0,-1.17 0,-2.34 0,-3.55c1.19,0 2.37,0 3.6,0c0,-1.17 0,-2.34 0,-3.55c1.14,0 2.26,0 3.43,0c0,-1.17 0,-2.34 0,-3.55c1.14,0 2.26,0 3.43,0c0,-1.17 0,-2.34 0,-3.55c1.19,0 2.37,0 3.6,0c0,-1.17 0,-2.34 0,-3.55c1.14,0 2.26,0 3.43,0c0,-1.12 0,-2.23 0,-3.38c1.14,0 2.26,0 3.43,0c0,-1.17 0,-2.34 0,-3.55z" fill="#7f7f7f" id="svg_4"/>
     <g id="svg_22">
      <path d="m20.48,115.99c0.06,0 0.11,0 0.17,0c0,1.12 0,2.23 0,3.38c1.14,0 2.26,0 3.43,0c0,-1.12 0,-2.23 0,-3.38c1.19,0 2.37,0 3.6,0c0,0.06 0,0.11 0,0.17c-1.14,0 -2.26,0 -3.43,0c0,1.12 0,2.23 0,3.38c-1.19,0 -2.37,0 -3.6,0c0,1.12 0,2.23 0,3.38c-0.06,0 -0.11,0 -0.17,0c0,-1.12 0,-2.23 0,-3.38c-1.14,0 -2.26,0 -3.43,0c0,1.06 0,2.12 0,3.21c-0.06,0 -0.11,0 -0.17,0c0,-1.12 0,-2.23 0,-3.38c1.19,0 2.37,0 3.6,0c0,-1.12 0,-2.23 0,-3.38z" fill="#7f7f7f" id="svg_17"/>
      <path d="m6.42,101.6c1.19,0 2.37,0 3.6,0c0,1.17 0,2.34 0,3.55c-1.14,0 -2.26,0 -3.43,0c0,1.12 0,2.23 0,3.38c-1.19,0 -2.37,0 -3.6,0c0,1.12 0,2.23 0,3.38c-0.84,0 -1.7,0 -2.57,0c0,-1.17 0,-2.34 0,-3.55c0.79,0 1.59,0 2.4,0c0,-1.12 0,-2.23 0,-3.38c1.19,0 2.37,0 3.6,0c0,-1.12 0,-2.23 0,-3.38z" fill="#7f7f7f" id="svg_13"/>
      <path d="m24.07,112.6c1.19,0 2.37,0 3.6,0c0,1.12 0,2.23 0,3.38c1.19,0 2.37,0 3.6,0c0,1.12 0,2.23 0,3.38c1.19,0 2.37,0 3.6,0c0,1.12 0,2.23 0,3.38c1.19,0 2.37,0 3.6,0c0,1.17 0,2.34 0,3.55c1.19,0 2.37,0 3.6,0c0,1.12 0,2.23 0,3.38c1.14,0 2.26,0 3.43,0c0,1.12 0,2.23 0,3.38c1.19,0 2.37,0 3.6,0c0,1.23 0,2.45 0,3.72c-1.19,0 -2.37,0 -3.6,0c0,1.12 0,2.23 0,3.38c-1.14,0 -2.26,0 -3.43,0c0,1.12 0,2.23 0,3.38c-1.19,0 -2.37,0 -3.6,0c0,1.12 0,2.23 0,3.38c1.19,0 2.37,0 3.6,0c0,1.12 0,2.23 0,3.38c1.14,0 2.26,0 3.43,0c0,1.12 0,2.23 0,3.38c1.19,0 2.37,0 3.6,0c0,1.17 0,2.34 0,3.55c-1.19,0 -2.37,0 -3.6,0c0,1.17 0,2.34 0,3.55c-1.14,0 -2.26,0 -3.43,0c0,1.12 0,2.23 0,3.38c-1.19,0 -2.37,0 -3.6,0c0,1.12 0,2.23 0,3.38c-1.19,0 -2.37,0 -3.6,0c0,1.17 0,2.34 0,3.55c-1.19,0 -2.37,0 -3.6,0c0,1.12 0,2.23 0,3.38c-1.14,0 -2.26,0 -3.43,0c0,1.12 0,2.23 0,3.38c-1.25,0 -2.49,0 -3.77,0c0,-1.12 0,-2.23 0,-3.38c-1.19,0 -2.37,0 -3.6,0c0,-1.12 0,-2.23 0,-3.38c-1.19,0 -2.37,0 -3.6,0c0,-1.17 0,-2.34 0,-3.55c-1.14,0 -2.26,0 -3.43,0c0,-1.12 0,-2.23 0,-3.38c-1.19,0 -2.37,0 -3.6,0c0,-1.12 0,-2.23 0,-3.38c-1.19,0 -2.37,0 -3.6,0c0,-1.12 0,-2.23 0,-3.38c-1.19,0 -2.37,0 -3.6,0c0,-1.23 0,-2.45 0,-3.72c1.19,0 2.37,0 3.6,0c0,-1.12 0,-2.23 0,-3.38c1.19,0 2.37,0 3.6,0c0,-1.12 0,-2.23 0,-3.38c1.19,0 2.37,0 3.6,0c0,-1.12 0,-2.23 0,-3.38c-1.19,0 -2.37,0 -3.6,0c0,-1.12 0,-2.23 0,-3.38c-1.19,0 -2.37,0 -3.6,0c0,-1.12 0,-2.23 0,-3.38c-1.19,0 -2.37,0 -3.6,0c0,-1.17 0,-2.34 0,-3.55c1.19,0 2.37,0 3.6,0c0,-1.17 0,-2.34 0,-3.55c1.19,0 2.37,0 3.6,0c0,-1.12 0,-2.23 0,-3.38c1.19,0 2.37,0 3.6,0c0,-1.12 0,-2.23 0,-3.38c0.84,-0.12 1.56,-0.19 2.39,-0.18c0.34,0 0.68,0.01 1.03,0.01c0,-1.12 0,-2.23 0,-3.38c1.19,0 2.37,0 3.6,0c0,-1.12 0,-2.23 0,-3.38c1.19,0 2.37,0 3.6,0c0,-1.12 0,-2.23 0,-3.38zm0.17,3.55c0,1.12 0,2.23 0,3.38c-1.19,0 -2.37,0 -3.6,0c0,1.12 0,2.23 0,3.38c-1.19,0 -2.37,0 -3.6,0c0,1.17 0,2.34 0,3.55c-1.19,0 -2.37,0 -3.6,0c0,1.12 0,2.23 0,3.38c-1.14,0 -2.26,0 -3.43,0c0,1.12 0,2.23 0,3.38c-1.19,0 -2.37,0 -3.6,0c0,1.12 0,2.23 0,3.38c1.19,0 2.37,0 3.6,0c0,1.12 0,2.23 0,3.38c1.14,0 2.26,0 3.43,0c0,1.12 0,2.23 0,3.38c1.14,0 2.26,0 3.43,0c0,-1.12 0,-2.23 0,-3.38c1.19,0 2.37,0 3.6,0c0,-1.12 0,-2.23 0,-3.38c1.19,0 2.37,0 3.6,0c0,-1.17 0,-2.34 0,-3.55c1.19,0 2.37,0 3.6,0c0,1.17 0,2.34 0,3.55c1.19,0 2.37,0 3.6,0c0,1.12 0,2.23 0,3.38c1.19,0 2.37,0 3.6,0c0,1.12 0,2.23 0,3.38c1.14,0 2.26,0 3.43,0c0,-1.12 0,-2.23 0,-3.38c1.19,0 2.37,0 3.6,0c0,-1.12 0,-2.23 0,-3.38c1.14,0 2.26,0 3.43,0c0,-1.12 0,-2.23 0,-3.38c-1.14,0 -2.26,0 -3.43,0c0,-1.12 0,-2.23 0,-3.38c-1.19,0 -2.37,0 -3.6,0c0,-1.12 0,-2.23 0,-3.38c-1.19,0 -2.37,0 -3.6,0c0,-1.17 0,-2.34 0,-3.55c-1.19,0 -2.37,0 -3.6,0c0,-1.12 0,-2.23 0,-3.38c-1.14,0 -2.26,0 -3.43,0c0,-1.12 0,-2.23 0,-3.38c-1.14,0 -2.26,0 -3.43,0zm0,20.64c0,1.12 0,2.23 0,3.38c-1.19,0 -2.37,0 -3.6,0c0,1.12 0,2.23 0,3.38c-1.19,0 -2.37,0 -3.6,0c0,1.12 0,2.23 0,3.38c1.19,0 2.37,0 3.6,0c0,1.12 0,2.23 0,3.38c1.19,0 2.37,0 3.6,0c0,1.12 0,2.23 0,3.38c1.14,0 2.26,0 3.43,0c0,-1.12 0,-2.23 0,-3.38c1.14,0 2.26,0 3.43,0c0,-1.12 0,-2.23 0,-3.38c1.19,0 2.37,0 3.6,0c0,-1.12 0,-2.23 0,-3.38c-1.19,0 -2.37,0 -3.6,0c0,-1.12 0,-2.23 0,-3.38c-1.14,0 -2.26,0 -3.43,0c0,-1.12 0,-2.23 0,-3.38c-1.14,0 -2.26,0 -3.43,0zm-10.63,10.32c0,1.12 0,2.23 0,3.38c-1.19,0 -2.37,0 -3.6,0c0,1.12 0,2.23 0,3.38c-1.19,0 -2.37,0 -3.6,0c0,1.12 0,2.23 0,3.38c1.19,0 2.37,0 3.6,0c0,1.12 0,2.23 0,3.38c1.19,0 2.37,0 3.6,0c0,1.12 0,2.23 0,3.38c1.14,0 2.26,0 3.43,0c0,1.17 0,2.34 0,3.55c1.19,0 2.37,0 3.6,0c0,1.12 0,2.23 0,3.38c1.19,0 2.37,0 3.6,0c0,1.12 0,2.23 0,3.38c1.14,0 2.26,0 3.43,0c0,-1.12 0,-2.23 0,-3.38c1.14,0 2.26,0 3.43,0c0,-1.12 0,-2.23 0,-3.38c1.19,0 2.37,0 3.6,0c0,-1.17 0,-2.34 0,-3.55c1.19,0 2.37,0 3.6,0c0,-1.12 0,-2.23 0,-3.38c1.19,0 2.37,0 3.6,0c0,-1.12 0,-2.23 0,-3.38c1.14,0 2.26,0 3.43,0c0,-1.12 0,-2.23 0,-3.38c-1.14,0 -2.26,0 -3.43,0c0,-1.12 0,-2.23 0,-3.38c-1.19,0 -2.37,0 -3.6,0c0,-1.12 0,-2.23 0,-3.38c-1.14,0 -2.26,0 -3.43,0c0,1.12 0,2.23 0,3.38c-1.19,0 -2.37,0 -3.6,0c0,1.12 0,2.23 0,3.38c-1.14,0 -2.26,0 -3.43,0c0,1.12 0,2.23 0,3.38c-1.25,0 -2.49,0 -3.77,0c0,-1.12 0,-2.23 0,-3.38c-1.19,0 -2.37,0 -3.6,0c0,-1.12 0,-2.23 0,-3.38c-1.19,0 -2.37,0 -3.6,0c0,-1.12 0,-2.23 0,-3.38c-1.07,0 -2.15,0 -3.26,0z" fill="#7f7f7f" id="svg_1"/>
      <g id="svg_21">
       <path d="m0.42,60.34c0.84,0 1.7,0 2.57,0c0,1.12 0,2.23 0,3.38c1.19,0 2.37,0 3.6,0c0,1.12 0,2.23 0,3.38c1.14,0 2.26,0 3.43,0c0,1.17 0,2.34 0,3.55c-1.19,0 -2.37,0 -3.6,0c0,-1.12 0,-2.23 0,-3.38c-1.19,0 -2.37,0 -3.6,0c0,-1.12 0,-2.23 0,-3.38c-0.79,0 -1.59,0 -2.4,0c0,-1.17 0,-2.34 0,-3.55z" fill="#7f7f7f" id="svg_14"/>
       <path d="m10.02,70.66c1.19,0 2.37,0 3.6,0c0,1.12 0,2.23 0,3.38c1.19,0 2.37,0 3.6,0c0,1.17 0,2.34 0,3.55c-1.19,0 -2.37,0 -3.6,0c0,1.12 0,2.23 0,3.38c-1.19,0 -2.37,0 -3.6,0c0,-1.17 0,-2.34 0,-3.55c1.14,0 2.26,0 3.43,0c0,-1.06 0,-2.12 0,-3.21c-1.14,0 -2.26,0 -3.43,0c0,-1.17 0,-2.34 0,-3.55z" fill="#7f7f7f" id="svg_11"/>
       <path d="m10.02,91.3c1.19,0 2.37,0 3.6,0c0,1.12 0,2.23 0,3.38c1.19,0 2.37,0 3.6,0c0,1.17 0,2.34 0,3.55c-1.19,0 -2.37,0 -3.6,0c0,1.12 0,2.23 0,3.38c-1.19,0 -2.37,0 -3.6,0c0,-1.17 0,-2.34 0,-3.55c1.14,0 2.26,0 3.43,0c0,-1.06 0,-2.12 0,-3.21c-1.14,0 -2.26,0 -3.43,0c0,-1.17 0,-2.34 0,-3.55z" fill="#7f7f7f" id="svg_10"/>
       <path d="m0.42,80.98c0.84,0 1.7,0 2.57,0c0,1.12 0,2.23 0,3.38c1.14,0 2.26,0 3.43,0c0,-1.12 0,-2.23 0,-3.38c1.19,0 2.37,0 3.6,0c0,1.17 0,2.34 0,3.55c-1.14,0 -2.26,0 -3.43,0c0,1.06 0,2.12 0,3.21c1.14,0 2.26,0 3.43,0c0,1.17 0,2.34 0,3.55c-1.19,0 -2.37,0 -3.6,0c0,-1.12 0,-2.23 0,-3.38c-1.14,0 -2.26,0 -3.43,0c0,1.12 0,2.23 0,3.38c-0.84,0 -1.7,0 -2.57,0c0,-1.17 0,-2.34 0,-3.55c0.79,0 1.59,0 2.4,0c0,-1.06 0,-2.12 0,-3.21c-0.79,0 -1.59,0 -2.4,0c0,-1.17 0,-2.34 0,-3.55z" fill="#7f7f7f" id="svg_8"/>
       <path d="m2.64,41.39c1.19,0 2.37,0 3.6,0c0,1.12 0,2.23 0,3.38c1.19,0 2.37,0 3.6,0c0,1.12 0,2.23 0,3.38c1.19,0 2.37,0 3.6,0c0,1.17 0,2.34 0,3.55c1.19,0 2.37,0 3.6,0c0,1.12 0,2.23 0,3.38c1.19,0 2.37,0 3.6,0c0,1.12 0,2.23 0,3.38c1.14,0 2.26,0 3.43,0c0,1.17 0,2.34 0,3.55c-1.19,0 -2.37,0 -3.6,0c0,-1.12 0,-2.23 0,-3.38c-1.19,0 -2.37,0 -3.6,0c0,-1.12 0,-2.23 0,-3.38c-1.19,0 -2.37,0 -3.6,0c0,-1.17 0,-2.34 0,-3.55c-1.19,0 -2.37,0 -3.6,0c0,-1.12 0,-2.23 0,-3.38c-1.19,0 -2.37,0 -3.6,0c0,-1.12 0,-2.23 0,-3.38c-1.14,0 -2.26,0 -3.43,0c0,-1.17 0,-2.34 0,-3.55z" fill="#7f7f7f" id="svg_7"/>
       <path d="m46.19,63.21c1.19,0 2.37,0 3.6,0c0,1.17 0,2.34 0,3.55c-1.14,0 -2.26,0 -3.43,0c0,1.17 0,2.34 0,3.55c-1.14,0 -2.26,0 -3.43,0c0,1.17 0,2.34 0,3.55c-1.14,0 -2.26,0 -3.43,0c0,1.17 0,2.34 0,3.55c-1.19,0 -2.37,0 -3.6,0c0,1.17 0,2.34 0,3.55c-1.14,0 -2.26,0 -3.43,0c0,1.12 0,2.23 0,3.38c-1.14,0 -2.26,0 -3.43,0c0,1.17 0,2.34 0,3.55c1.14,0 2.26,0 3.43,0c0,1.12 0,2.23 0,3.38c1.14,0 2.26,0 3.43,0c0,1.17 0,2.34 0,3.55c1.19,0 2.37,0 3.6,0c0,1.17 0,2.34 0,3.55c1.14,0 2.26,0 3.43,0c0,1.17 0,2.34 0,3.55c1.14,0 2.26,0 3.43,0c0,1.17 0,2.34 0,3.55c1.14,0 2.26,0 3.43,0c0,1.17 0,2.34 0,3.55c-1.19,0 -2.37,0 -3.6,0c0,-1.17 0,-2.34 0,-3.55c-1.14,0 -2.26,0 -3.43,0c0,-1.12 0,-2.23 0,-3.38c-1.14,0 -2.26,0 -3.43,0c0,-1.17 0,-2.34 0,-3.55c-1.19,0 -2.37,0 -3.6,0c0,-1.17 0,-2.34 0,-3.55c-1.14,0 -2.26,0 -3.43,0c0,-1.17 0,-2.34 0,-3.55c-1.14,0 -2.26,0 -3.43,0c0,-1.17 0,-2.34 0,-3.55c-1.19,0 -2.37,0 -3.6,0c0,-1.17 0,-2.34 0,-3.55c1.19,0 2.37,0 3.6,0c0,-1.17 0,-2.34 0,-3.55c1.14,0 2.26,0 3.43,0c0,-1.17 0,-2.34 0,-3.55c1.14,0 2.26,0 3.43,0c0,-1.17 0,-2.34 0,-3.55c1.19,0 2.37,0 3.6,0c0,-1.17 0,-2.34 0,-3.55c1.14,0 2.26,0 3.43,0c0,-1.12 0,-2.23 0,-3.38c1.14,0 2.26,0 3.43,0c0,-1.17 0,-2.34 0,-3.55z" fill="#7f7f7f" id="svg_6"/>
       <g id="svg_20">
        <path d="m24.07,0.29c1.19,0 2.37,0 3.6,0c0,1.06 0,2.12 0,3.21c-1.14,0 -2.26,0 -3.43,0c0,1.17 0,2.34 0,3.55c-1.19,0 -2.37,0 -3.6,0c0,1.12 0,2.23 0,3.38c-1.19,0 -2.37,0 -3.6,0c0,1.12 0,2.23 0,3.38c-1.19,0 -2.37,0 -3.6,0c0,-1.12 0,-2.23 0,-3.38c1.14,0 2.26,0 3.43,0c0,-1.17 0,-2.34 0,-3.55c1.19,0 2.37,0 3.6,0c0,-1.12 0,-2.23 0,-3.38c1.19,0 2.37,0 3.6,0c0,-1.06 0,-2.12 0,-3.21z" fill="#7f7f7f" id="svg_9"/>
        <path d="m27.67,3.5c1.19,0 2.37,0 3.6,0c0,1.12 0,2.23 0,3.38c1.19,0 2.37,0 3.6,0c0,1.12 0,2.23 0,3.38c1.19,0 2.37,0 3.6,0c0,1.17 0,2.34 0,3.55c1.19,0 2.37,0 3.6,0c0,1.12 0,2.23 0,3.38c1.14,0 2.26,0 3.43,0c0,1.12 0,2.23 0,3.38c1.19,0 2.37,0 3.6,0c0,1.23 0,2.45 0,3.72c-1.19,0 -2.37,0 -3.6,0c0,1.12 0,2.23 0,3.38c-1.14,0 -2.26,0 -3.43,0c0,1.12 0,2.23 0,3.38c-1.19,0 -2.37,0 -3.6,0c0,1.12 0,2.23 0,3.38c1.19,0 2.37,0 3.6,0c0,1.12 0,2.23 0,3.38c1.14,0 2.26,0 3.43,0c0,1.17 0,2.34 0,3.55c1.19,0 2.37,0 3.6,0c0,1.17 0,2.34 0,3.55c-1.19,0 -2.37,0 -3.6,0c0,1.12 0,2.23 0,3.38c-1.14,0 -2.26,0 -3.43,0c0,1.12 0,2.23 0,3.38c-1.19,0 -2.37,0 -3.6,0c0,1.17 0,2.34 0,3.55c-1.19,0 -2.37,0 -3.6,0c0,1.12 0,2.23 0,3.38c-1.19,0 -2.37,0 -3.6,0c0,1.17 0,2.34 0,3.55c-1.14,0 -2.26,0 -3.43,0c0,1.12 0,2.23 0,3.38c-1.25,0 -2.49,0 -3.77,0c0,-1.17 0,-2.34 0,-3.55c1.19,0 2.37,0 3.6,0c0,-1.17 0,-2.34 0,-3.55c1.14,0 2.26,0 3.43,0c0,-1.12 0,-2.23 0,-3.38c1.19,0 2.37,0 3.6,0c0,-1.12 0,-2.23 0,-3.38c1.19,0 2.37,0 3.6,0c0,-1.17 0,-2.34 0,-3.55c1.19,0 2.37,0 3.6,0c0,-1.12 0,-2.23 0,-3.38c1.14,0 2.26,0 3.43,0c0,-1.12 0,-2.23 0,-3.38c-1.14,0 -2.26,0 -3.43,0c0,-1.12 0,-2.23 0,-3.38c-1.19,0 -2.37,0 -3.6,0c0,-1.17 0,-2.34 0,-3.55c-1.14,0 -2.26,0 -3.43,0c0,1.17 0,2.34 0,3.55c-1.19,0 -2.37,0 -3.6,0c0,1.12 0,2.23 0,3.38c-1.14,0 -2.26,0 -3.43,0c0,1.17 0,2.34 0,3.55c-1.25,0 -2.49,0 -3.77,0c0,-1.17 0,-2.34 0,-3.55c-1.19,0 -2.37,0 -3.6,0c0,-1.12 0,-2.23 0,-3.38c-1.19,0 -2.37,0 -3.6,0c0,-1.12 0,-2.23 0,-3.38c-1.07,0 -2.15,0 -3.26,0c0,1.12 0,2.23 0,3.38c-1.19,0 -2.37,0 -3.6,0c0,1.12 0,2.23 0,3.38c-1.25,0 -2.49,0 -3.77,0c0,-1.17 0,-2.34 0,-3.55c1.19,0 2.37,0 3.6,0c0,-1.12 0,-2.23 0,-3.38c1.19,0 2.37,0 3.6,0c0,-1.12 0,-2.23 0,-3.38c-1.25,0 -2.49,0 -3.77,0c0,-1.12 0,-2.23 0,-3.38c-1.19,0 -2.37,0 -3.6,0c0,-1.17 0,-2.34 0,-3.55c-1.14,0 -2.26,0 -3.43,0c0,-1.17 0,-2.34 0,-3.55c1.19,0 2.37,0 3.6,0c0,-1.12 0,-2.23 0,-3.38c1.19,0 2.37,0 3.6,0c0,-1.12 0,-2.23 0,-3.38c1.19,0 2.37,0 3.6,0c0,1.17 0,2.34 0,3.55c-1.14,0 -2.26,0 -3.43,0c0,1.12 0,2.23 0,3.38c-1.25,0 -2.49,0 -3.77,0c0,1.12 0,2.23 0,3.38c1.19,0 2.37,0 3.6,0c0,1.12 0,2.23 0,3.38c1.19,0 2.37,0 3.6,0c0,1.12 0,2.23 0,3.38c1.14,0 2.26,0 3.43,0c0,-1.12 0,-2.23 0,-3.38c1.19,0 2.37,0 3.6,0c0,-1.12 0,-2.23 0,-3.38c1.19,0 2.37,0 3.6,0c0,-1.17 0,-2.34 0,-3.55c1.19,0 2.37,0 3.6,0c0,1.17 0,2.34 0,3.55c1.19,0 2.37,0 3.6,0c0,1.12 0,2.23 0,3.38c1.19,0 2.37,0 3.6,0c0,1.12 0,2.23 0,3.38c1.14,0 2.26,0 3.43,0c0,-1.12 0,-2.23 0,-3.38c1.19,0 2.37,0 3.6,0c0,-1.12 0,-2.23 0,-3.38c1.14,0 2.26,0 3.43,0c0,-1.12 0,-2.23 0,-3.38c-1.14,0 -2.26,0 -3.43,0c0,-1.12 0,-2.23 0,-3.38c-1.19,0 -2.37,0 -3.6,0c0,-1.12 0,-2.23 0,-3.38c-1.19,0 -2.37,0 -3.6,0c0,-1.17 0,-2.34 0,-3.55c-1.19,0 -2.37,0 -3.6,0c0,-1.12 0,-2.23 0,-3.38c-1.14,0 -2.26,0 -3.43,0c0,-1.17 0,-2.34 0,-3.55zm-3.43,20.81c0,1.12 0,2.23 0,3.38c-1.19,0 -2.37,0 -3.6,0c0,1.12 0,2.23 0,3.38c-1.19,0 -2.37,0 -3.6,0c0,1.12 0,2.23 0,3.38c1.19,0 2.37,0 3.6,0c0,1.12 0,2.23 0,3.38c1.14,0 2.26,0 3.43,0c0,1.17 0,2.34 0,3.55c1.19,0 2.37,0 3.6,0c0,-1.17 0,-2.34 0,-3.55c1.14,0 2.26,0 3.43,0c0,-1.12 0,-2.23 0,-3.38c1.19,0 2.37,0 3.6,0c0,-1.12 0,-2.23 0,-3.38c-1.19,0 -2.37,0 -3.6,0c0,-1.12 0,-2.23 0,-3.38c-1.19,0 -2.37,0 -3.6,0c0,-1.12 0,-2.23 0,-3.38c-1.07,0 -2.15,0 -3.26,0z" fill="#7f7f7f" id="svg_3"/>
       </g>
      </g>
     </g>
    </g>
   </g>
  </g>
 </g>
</svg>