<?xml version="1.0"?>
<svg width="9" height="9" xmlns="http://www.w3.org/2000/svg" xmlns:svg="http://www.w3.org/2000/svg" version="1.1">
 <g class="layer">
  <title>Layer 1</title>
  <g id="svg_121">
   <path d="m5.05,2.02c0.07,0.03 0.11,0.09 0.17,0.15c0.03,0.02 0.03,0.02 0.07,0.05c0.06,0.06 0.06,0.08 0.06,0.16c0,0.05 0,0.05 -0.01,0.09c-0.06,-0.01 -0.11,-0.02 -0.17,-0.03c0.03,0.1 0.03,0.1 0.1,0.16c0.05,0.04 0.05,0.04 0.07,0.13c0,0.03 0,0.06 0.01,0.08c0.07,0 0.07,0 0.15,-0.03c0.04,-0.06 0.04,-0.06 0.05,-0.13c0.02,0 0.03,0 0.05,0c0,-0.03 -0.01,-0.05 -0.01,-0.08c-0.01,-0.09 0,-0.16 0.01,-0.25c-0.02,-0.01 -0.04,-0.02 -0.05,-0.04c-0.02,-0.02 -0.05,-0.03 -0.07,-0.05c-0.03,-0.02 -0.03,-0.02 -0.07,-0.05c-0.02,-0.01 -0.04,-0.03 -0.05,-0.04c0,-0.01 0,-0.02 0,-0.03c0.15,0.01 0.27,0.07 0.41,0.13c0.02,0.01 0.04,0.02 0.06,0.03c0.11,0.05 0.2,0.11 0.29,0.19c0,0.06 0,0.06 -0.02,0.15c-0.04,0.03 -0.07,0.07 -0.11,0.1c-0.08,0.07 -0.08,0.07 -0.12,0.17c0.01,0.1 0.03,0.16 0.08,0.24c0.21,-0.01 0.39,-0.08 0.59,-0.15c0.07,-0.03 0.07,-0.03 0.15,0c0.04,0.05 0.08,0.11 0.12,0.17c0.01,0.02 0.02,0.03 0.03,0.05c0.18,0.29 0.29,0.58 0.34,0.92c0,0.02 0.01,0.04 0.01,0.06c0.02,0.12 0.02,0.25 0.01,0.37c-0.07,0 -0.07,0 -0.12,-0.04c-0.05,-0.05 -0.05,-0.05 -0.15,-0.04c-0.02,0.09 -0.03,0.14 0,0.22c0.07,0.08 0.13,0.09 0.22,0.11c-0.01,0.06 -0.02,0.12 -0.02,0.18c-0.04,0.02 -0.04,0.02 -0.1,0.03c-0.01,-0.01 -0.03,-0.03 -0.04,-0.04c-0.09,-0.06 -0.17,-0.03 -0.28,-0.01c-0.06,0.02 -0.12,0.04 -0.18,0.06c-0.06,0.02 -0.13,0.03 -0.19,0.04c-0.09,0.02 -0.16,0.04 -0.24,0.1c-0.04,0.07 -0.04,0.07 -0.07,0.15c-0.01,0.03 -0.03,0.05 -0.04,0.08c-0.03,0.08 -0.05,0.14 -0.06,0.23c0.08,0.08 0.16,0.11 0.26,0.15c0.12,0.05 0.24,0.12 0.35,0.2c0,0.08 0,0.08 -0.05,0.14c-0.57,0.54 -1.34,0.85 -2.11,0.83c-0.03,0 -0.05,0 -0.08,0c-0.04,0 -0.04,0 -0.08,0c-0.16,-0.01 -0.3,-0.03 -0.45,-0.07c0,-0.03 0,-0.05 0,-0.08c0.08,-0.03 0.08,-0.03 0.17,-0.05c0,-0.01 -0.01,-0.03 -0.01,-0.04c-0.02,-0.07 -0.03,-0.13 -0.05,-0.2c-0.01,-0.03 -0.01,-0.03 -0.02,-0.07c-0.08,-0.3 -0.08,-0.3 -0.02,-0.42c0.03,-0.05 0.06,-0.1 0.09,-0.14c0.02,-0.02 0.02,-0.02 0.03,-0.05c0.02,-0.03 0.04,-0.06 0.06,-0.09c0.03,-0.04 0.06,-0.09 0.09,-0.13c0.02,-0.03 0.02,-0.03 0.04,-0.06c0.01,0 0.02,0 0.02,0c0,0.23 0,0.45 0,0.68c0.22,-0.23 0.43,-0.45 0.66,-0.68c-0.06,-0.22 -0.06,-0.22 -0.17,-0.4c-0.05,-0.02 -0.05,-0.02 -0.1,-0.03c0.01,0.09 0.01,0.09 0.06,0.16c0.02,0.02 0.02,0.02 0.03,0.04c-0.01,0.07 -0.03,0.13 -0.05,0.2c-0.05,-0.03 -0.1,-0.05 -0.15,-0.08c0,0.03 0,0.05 0,0.08c-0.01,-0.01 -0.03,-0.02 -0.04,-0.02c-0.09,-0.04 -0.13,-0.06 -0.23,-0.03c-0.33,0.03 -0.33,0.03 -0.43,-0.05c-0.1,-0.14 -0.15,-0.29 -0.18,-0.46c-0.02,0 -0.03,0 -0.05,0c0.01,0.04 0.02,0.08 0.02,0.13c-0.04,0.02 -0.08,0.03 -0.12,0.05c-0.01,0.19 -0.01,0.33 0.08,0.51c0.03,0.08 0.03,0.14 0.02,0.23c-0.04,0.11 -0.11,0.16 -0.2,0.23c-0.07,0.07 -0.12,0.14 -0.18,0.22c-0.05,0.07 -0.1,0.12 -0.16,0.18c-0.12,-0.04 -0.21,-0.11 -0.31,-0.19c-0.03,-0.02 -0.03,-0.02 -0.05,-0.04c-0.14,-0.11 -0.27,-0.23 -0.39,-0.38c-0.02,-0.02 -0.04,-0.04 -0.06,-0.07c-0.12,-0.15 -0.2,-0.31 -0.28,-0.49c-0.01,-0.02 -0.02,-0.04 -0.03,-0.06c-0.12,-0.28 -0.16,-0.55 -0.16,-0.86c0,-0.03 0,-0.06 0,-0.1c0,-0.23 0.02,-0.42 0.11,-0.62c0.01,-0.02 0.01,-0.03 0.02,-0.05c0.25,-0.57 0.66,-1.04 1.2,-1.34c0.05,-0.02 0.1,-0.04 0.15,-0.05c0.03,0.04 0.05,0.08 0.07,0.12c0.01,0.02 0.03,0.04 0.04,0.07c0.03,0.06 0.03,0.06 0.01,0.14c-0.06,0.01 -0.11,0.02 -0.17,0.03c0,0.02 0,0.03 0,0.05c-0.02,0 -0.03,0 -0.05,0c-0.03,0.1 -0.03,0.19 -0.04,0.29c-0.01,0.06 -0.01,0.06 -0.03,0.09c-0.01,0.07 -0.01,0.14 -0.01,0.22c0,0.03 0,0.03 0,0.06c0,0.05 -0.01,0.1 -0.01,0.15c0.02,-0.02 0.04,-0.04 0.06,-0.06c0.06,-0.06 0.06,-0.06 0.11,-0.06c0.01,0.1 0,0.15 -0.04,0.24c-0.04,0.09 -0.04,0.12 -0.01,0.21c0.02,0.04 0.05,0.08 0.07,0.13c0,0.02 0,0.03 0,0.05c0.02,0 0.03,0 0.05,0c0,-0.06 0,-0.12 0,-0.18c0.18,-0.06 0.18,-0.06 0.27,-0.03c0.01,-0.02 0.01,-0.03 0.02,-0.05c0.03,-0.05 0.03,-0.05 0.08,-0.1c0.08,-0.01 0.14,0 0.22,0.02c0.09,0 0.1,-0.01 0.16,-0.07c0.01,-0.01 0.03,-0.03 0.04,-0.04c0.09,-0.08 0.2,-0.06 0.31,-0.06c0.02,0 0.04,0 0.05,0c0.06,0 0.06,0 0.14,-0.01c0.05,-0.06 0.05,-0.06 0.07,-0.13c0.09,0.02 0.18,0.03 0.27,0.05c-0.03,-0.06 -0.06,-0.07 -0.12,-0.1c0,-0.02 0,-0.03 0,-0.05c0.05,-0.04 0.05,-0.04 0.12,-0.08c0.09,0.02 0.09,0.02 0.17,0.05c0,-0.01 -0.01,-0.03 -0.01,-0.04c-0.01,-0.04 -0.02,-0.08 -0.02,-0.12c0,-0.02 -0.01,-0.04 -0.01,-0.06c0,-0.02 -0.01,-0.04 -0.01,-0.06c-0.02,-0.06 -0.02,-0.06 -0.07,-0.08c-0.02,-0.01 -0.03,-0.01 -0.05,-0.02c-0.03,-0.03 -0.06,-0.07 -0.1,-0.1c-0.02,0 -0.03,0 -0.05,0c0,0.02 -0.01,0.04 -0.01,0.05c-0.02,0.07 -0.04,0.13 -0.08,0.2c-0.08,0.04 -0.16,0.05 -0.24,0.05c-0.02,-0.03 -0.02,-0.03 -0.03,-0.11c0.01,-0.11 0.04,-0.16 0.11,-0.25c-0.07,-0.03 -0.14,-0.05 -0.22,-0.08c0.08,-0.1 0.16,-0.19 0.24,-0.28c0.01,-0.02 0.03,-0.04 0.04,-0.06c0.04,-0.05 0.07,-0.07 0.13,-0.1c0.04,-0.04 0.08,-0.08 0.12,-0.13c0.09,-0.05 0.2,-0.03 0.3,-0.02zm-0.91,1.76c-0.06,0.05 -0.06,0.05 -0.05,0.13c0.06,0.03 0.06,0.03 0.12,0.05c0,-0.08 0,-0.15 0,-0.23c-0.03,0 -0.03,0 -0.07,0.05zm-0.51,0.28c-0.05,0.03 -0.1,0.05 -0.15,0.08c0.01,0.04 0.01,0.08 0.02,0.12c0,0.02 0.01,0.04 0.01,0.07c0.01,0.07 0.01,0.07 0.06,0.14c0.01,-0.05 0.03,-0.11 0.04,-0.16c0.01,-0.03 0.01,-0.06 0.02,-0.09c0.02,-0.08 0.02,-0.08 -0.01,-0.16zm0.24,0.61c-0.01,0.16 0,0.29 0.07,0.43c0.06,0.06 0.06,0.06 0.12,0.1c0.02,-0.03 0.03,-0.07 0.05,-0.1c-0.02,-0.01 -0.03,-0.03 -0.05,-0.04c-0.05,-0.06 -0.05,-0.06 -0.04,-0.16c0.01,-0.03 0.01,-0.05 0.02,-0.08c0.05,0.03 0.1,0.05 0.15,0.08c0,-0.03 0,-0.05 0,-0.08c0.06,0.03 0.06,0.03 0.12,0.05c0.01,-0.04 0.02,-0.08 0.02,-0.13c-0.22,-0.12 -0.22,-0.12 -0.46,-0.08zm1.07,1.04c-0.22,0.24 -0.42,0.49 -0.61,0.76c0.14,-0.01 0.23,-0.05 0.35,-0.12c0.13,-0.08 0.26,-0.13 0.41,-0.16c0.06,-0.01 0.06,-0.01 0.1,-0.09c0.01,-0.06 0.01,-0.06 0,-0.13c-0.05,-0.07 -0.05,-0.07 -0.11,-0.13c-0.02,-0.02 -0.04,-0.04 -0.06,-0.07c-0.04,-0.05 -0.04,-0.05 -0.07,-0.05z" fill="#CAEBFE" id="svg_1"/>
   <path d="m3.2,2.26c0.03,0.05 0.03,0.05 0.07,0.11c0.01,0.02 0.02,0.04 0.03,0.06c0.02,0.06 0.02,0.06 0,0.13c-0.06,0.01 -0.11,0.02 -0.17,0.03c0,0.02 0,0.03 0,0.05c-0.02,0 -0.03,0 -0.05,0c-0.03,0.1 -0.03,0.19 -0.04,0.29c-0.01,0.06 -0.01,0.06 -0.03,0.09c-0.01,0.07 -0.01,0.14 -0.01,0.22c0,0.03 0,0.03 0,0.06c0,0.05 -0.01,0.1 -0.01,0.15c0.02,-0.02 0.04,-0.04 0.06,-0.06c0.06,-0.06 0.06,-0.06 0.11,-0.06c0.01,0.1 0,0.15 -0.04,0.24c-0.04,0.09 -0.04,0.12 -0.01,0.21c0.02,0.04 0.05,0.08 0.07,0.13c0,0.02 0,0.03 0,0.05c0.02,0 0.03,0 0.05,0c0,-0.06 0,-0.12 0,-0.18c0.05,0 0.1,0 0.15,0c-0.01,0.41 -0.06,0.82 -0.11,1.23c-0.01,0.07 -0.02,0.13 -0.02,0.2c-0.02,0.16 -0.04,0.33 -0.06,0.49c0.05,-0.01 0.1,-0.02 0.15,-0.03c0,-0.04 0,-0.04 0,-0.08c0,-0.03 0,-0.07 0.01,-0.1c0,-0.02 0,-0.03 0,-0.05c0.01,-0.09 0.01,-0.17 0.06,-0.24c0,0.02 0,0.03 0,0.05c0.01,0.12 0.02,0.22 0.07,0.32c0.05,0.1 0.06,0.17 0.05,0.29c-0.04,0.11 -0.11,0.16 -0.2,0.23c-0.07,0.07 -0.12,0.14 -0.18,0.22c-0.05,0.07 -0.1,0.12 -0.16,0.18c-0.12,-0.04 -0.21,-0.11 -0.31,-0.19c-0.03,-0.02 -0.03,-0.02 -0.05,-0.04c-0.14,-0.11 -0.27,-0.23 -0.39,-0.38c-0.02,-0.02 -0.04,-0.04 -0.06,-0.07c-0.12,-0.15 -0.2,-0.31 -0.28,-0.49c-0.01,-0.02 -0.02,-0.04 -0.03,-0.06c-0.12,-0.28 -0.16,-0.55 -0.16,-0.86c0,-0.03 0,-0.06 0,-0.1c0,-0.23 0.02,-0.42 0.11,-0.62c0.01,-0.02 0.01,-0.03 0.02,-0.05c0.25,-0.58 0.66,-1.03 1.2,-1.34c0.02,-0.01 0.04,-0.02 0.05,-0.03c0.04,-0.02 0.04,-0.02 0.12,0.01z" fill="#CAEBFE" id="svg_2"/>
   <path d="m4.49,3.45c0.13,0.07 0.18,0.2 0.22,0.34c0.08,0.42 0.02,0.84 -0.15,1.23c-0.02,0.08 -0.02,0.12 0,0.2c0.01,0.01 0.03,0.03 0.04,0.04c0.01,0.01 0.02,0.03 0.03,0.04c-0.01,0.07 -0.03,0.13 -0.05,0.2c-0.07,-0.04 -0.07,-0.04 -0.15,-0.08c0,0.03 0,0.05 0,0.08c-0.02,-0.01 -0.02,-0.01 -0.04,-0.02c-0.09,-0.04 -0.13,-0.06 -0.23,-0.03c-0.33,0.03 -0.33,0.03 -0.43,-0.05c-0.1,-0.14 -0.15,-0.29 -0.18,-0.46c-0.02,0 -0.03,0 -0.05,0c0.01,0.04 0.02,0.08 0.02,0.13c-0.02,0 -0.04,0.01 -0.06,0.01c-0.07,0.03 -0.07,0.03 -0.09,0.11c-0.02,0.1 -0.04,0.2 -0.05,0.3c0,0.02 0,0.03 -0.01,0.05c-0.01,0.04 -0.01,0.08 -0.01,0.13c-0.07,0.01 -0.07,0.01 -0.15,0.03c0.01,-0.31 0.04,-0.62 0.08,-0.93c0.01,-0.09 0.02,-0.17 0.03,-0.26c0,-0.02 0.01,-0.04 0.01,-0.06c0.03,-0.22 0.05,-0.45 0.07,-0.67c-0.03,-0.01 -0.06,-0.02 -0.1,-0.03c0.08,-0.02 0.14,-0.03 0.22,0c0.01,-0.02 0.01,-0.02 0.02,-0.05c0.03,-0.05 0.03,-0.05 0.08,-0.1c0.08,-0.01 0.14,0 0.22,0.02c0.09,0 0.1,-0.01 0.16,-0.07c0.01,-0.01 0.03,-0.03 0.04,-0.04c0.12,-0.11 0.33,-0.08 0.48,-0.06zm-0.34,0.32c-0.06,0.05 -0.06,0.05 -0.05,0.13c0.06,0.03 0.06,0.03 0.12,0.05c0,-0.08 0,-0.15 0,-0.23c-0.03,0 -0.03,0 -0.07,0.05zm-0.51,0.28c-0.05,0.03 -0.1,0.05 -0.15,0.08c0.01,0.04 0.01,0.08 0.02,0.12c0,0.02 0.01,0.05 0.01,0.07c0.01,0.07 0.01,0.07 0.06,0.14c0.01,-0.05 0.03,-0.11 0.04,-0.16c0.01,-0.03 0.01,-0.06 0.02,-0.09c0.02,-0.08 0.02,-0.08 -0.01,-0.16zm0.24,0.61c-0.01,0.16 0,0.29 0.07,0.43c0.06,0.06 0.06,0.06 0.12,0.1c0.02,-0.03 0.03,-0.07 0.05,-0.1c-0.02,-0.01 -0.03,-0.03 -0.05,-0.04c-0.05,-0.06 -0.05,-0.06 -0.04,-0.16c0.01,-0.03 0.01,-0.05 0.02,-0.08c0.05,0.03 0.1,0.05 0.15,0.08c0,-0.03 0,-0.05 0,-0.08c0.06,0.03 0.06,0.03 0.12,0.05c0.01,-0.04 0.02,-0.08 0.02,-0.13c-0.22,-0.12 -0.22,-0.12 -0.46,-0.08z" fill="#B0B0BE" id="svg_3"/>
   <path d="m5.05,2.02c0.07,0.03 0.11,0.09 0.17,0.15c0.02,0.02 0.05,0.03 0.07,0.05c0.06,0.06 0.06,0.08 0.06,0.16c0,0.03 -0.01,0.06 -0.01,0.09c-0.06,-0.01 -0.11,-0.02 -0.17,-0.03c0.03,0.1 0.03,0.1 0.1,0.16c0.05,0.04 0.05,0.04 0.07,0.13c0,0.03 0,0.06 0.01,0.08c0.07,0 0.07,0 0.15,-0.03c0.04,-0.06 0.04,-0.06 0.05,-0.13c0.02,0 0.03,0 0.05,0c0,-0.03 -0.01,-0.05 -0.01,-0.08c-0.01,-0.09 0,-0.16 0.01,-0.25c-0.02,-0.01 -0.04,-0.02 -0.05,-0.04c-0.03,-0.02 -0.03,-0.02 -0.07,-0.05c-0.02,-0.02 -0.05,-0.03 -0.07,-0.05c-0.02,-0.01 -0.04,-0.03 -0.05,-0.04c0,-0.01 0,-0.02 0,-0.03c0.15,0.01 0.27,0.07 0.41,0.13c0.02,0.01 0.04,0.02 0.06,0.03c0.11,0.05 0.2,0.11 0.29,0.19c0,0.06 0,0.06 -0.02,0.15c-0.04,0.03 -0.07,0.06 -0.11,0.09c-0.09,0.07 -0.09,0.07 -0.12,0.18c0.01,0.07 0.02,0.14 0.03,0.2c-0.02,-0.01 -0.04,-0.03 -0.06,-0.04c-0.14,-0.06 -0.27,-0.06 -0.41,-0.02c-0.15,0.07 -0.23,0.17 -0.3,0.33c-0.06,0.17 -0.06,0.36 0.01,0.53c0.06,0.11 0.15,0.15 0.26,0.21c0.04,0.02 0.07,0.04 0.11,0.06c0.02,0.01 0.02,0.01 0.05,0.02c0.04,0.03 0.04,0.03 0.06,0.1c0.01,0.14 -0.01,0.23 -0.07,0.35c-0.07,0.06 -0.11,0.1 -0.2,0.13c-0.07,-0.06 -0.1,-0.11 -0.1,-0.2c0,-0.05 0,-0.1 0,-0.15c-0.07,0.03 -0.07,0.03 -0.15,0.05c0,-0.02 0,-0.03 0,-0.05c-0.06,0.03 -0.06,0.03 -0.12,0.05c-0.02,0.24 -0.02,0.24 0.07,0.45c0.08,0.06 0.15,0.09 0.24,0.1c-0.03,0.08 -0.07,0.13 -0.13,0.19c-0.02,0.02 -0.03,0.03 -0.05,0.05c-0.02,0.02 -0.03,0.03 -0.05,0.05c-0.03,0.03 -0.03,0.03 -0.05,0.05c-0.04,0.04 -0.09,0.09 -0.13,0.13c-0.06,-0.06 -0.07,-0.12 -0.1,-0.2c-0.05,-0.13 -0.09,-0.2 -0.21,-0.26c0,-0.01 0.01,-0.03 0.01,-0.04c0.14,-0.43 0.26,-0.93 0.08,-1.37c-0.04,-0.06 -0.07,-0.1 -0.12,-0.15c0.01,-0.02 0.02,-0.03 0.02,-0.05c0.03,-0.06 0.03,-0.06 0.05,-0.13c0.09,0.02 0.18,0.03 0.27,0.05c-0.03,-0.06 -0.06,-0.07 -0.12,-0.1c0,-0.02 0,-0.03 0,-0.05c0.05,-0.04 0.05,-0.04 0.12,-0.08c0.09,0.02 0.09,0.02 0.17,0.05c0,-0.01 -0.01,-0.03 -0.01,-0.04c-0.01,-0.04 -0.02,-0.08 -0.02,-0.12c0,-0.02 -0.01,-0.04 -0.01,-0.06c0,-0.02 -0.01,-0.04 -0.01,-0.06c-0.02,-0.06 -0.02,-0.06 -0.07,-0.08c-0.02,-0.01 -0.02,-0.01 -0.05,-0.02c-0.03,-0.03 -0.06,-0.07 -0.1,-0.1c-0.02,0 -0.03,0 -0.05,0c0,0.02 -0.01,0.04 -0.01,0.05c-0.02,0.07 -0.04,0.13 -0.08,0.2c-0.08,0.04 -0.16,0.05 -0.24,0.05c-0.02,-0.03 -0.02,-0.03 -0.03,-0.11c0.01,-0.11 0.04,-0.16 0.11,-0.25c-0.07,-0.03 -0.14,-0.05 -0.22,-0.08c0.08,-0.1 0.16,-0.19 0.24,-0.28c0.01,-0.02 0.03,-0.04 0.04,-0.06c0.04,-0.05 0.07,-0.07 0.13,-0.1c0.04,-0.04 0.08,-0.08 0.12,-0.13c0.09,-0.05 0.2,-0.03 0.3,-0.02z" fill="#CAEAFE" id="svg_4"/>
   <path d="m5.82,3.06c0.08,0.08 0.13,0.13 0.14,0.25c0,0.06 0,0.13 0,0.19c-0.1,0.04 -0.18,0.05 -0.29,0.05c0,-0.02 -0.01,-0.03 -0.01,-0.05c0,-0.02 -0.01,-0.04 -0.01,-0.06c0,-0.02 -0.01,-0.04 -0.01,-0.06c-0.01,-0.02 -0.01,-0.03 -0.02,-0.05c-0.02,-0.01 -0.05,-0.02 -0.07,-0.03c-0.08,0.06 -0.13,0.11 -0.17,0.2c-0.01,0.06 -0.01,0.06 -0.01,0.11c0,0.02 0,0.04 0,0.06c0.02,0.09 0.07,0.11 0.14,0.16c0.07,0.04 0.15,0.07 0.22,0.11c0.09,0.06 0.12,0.1 0.17,0.2c0.04,0.25 0,0.47 -0.13,0.68c-0.06,0.08 -0.1,0.12 -0.2,0.16c-0.1,0.05 -0.13,0.1 -0.19,0.2c-0.07,0.11 -0.15,0.2 -0.23,0.3c-0.06,0.07 -0.11,0.13 -0.15,0.2c-0.06,0.09 -0.13,0.17 -0.2,0.26c-0.09,0.11 -0.19,0.22 -0.28,0.34c-0.09,0.11 -0.18,0.22 -0.28,0.33c-0.09,0.1 -0.17,0.2 -0.24,0.31c-0.08,-0.02 -0.16,-0.03 -0.24,-0.05c0,-0.03 0,-0.05 0,-0.08c0.08,-0.03 0.08,-0.03 0.17,-0.05c0,-0.01 -0.01,-0.03 -0.01,-0.04c-0.02,-0.07 -0.03,-0.13 -0.05,-0.2c-0.01,-0.02 -0.01,-0.05 -0.02,-0.07c-0.08,-0.3 -0.08,-0.3 -0.02,-0.42c0.03,-0.05 0.06,-0.1 0.09,-0.14c0.02,-0.02 0.02,-0.02 0.03,-0.05c0.02,-0.03 0.04,-0.06 0.06,-0.09c0.03,-0.04 0.06,-0.09 0.09,-0.13c0.01,-0.02 0.03,-0.04 0.04,-0.06c0.01,0 0.02,0 0.02,0c0,0.23 0,0.45 0,0.68c0.05,-0.05 0.09,-0.09 0.14,-0.14c0.04,-0.05 0.09,-0.09 0.13,-0.14c0.03,-0.03 0.06,-0.06 0.09,-0.1c0.3,-0.31 0.3,-0.31 0.45,-0.45c0.06,-0.05 0.12,-0.11 0.17,-0.17c0.02,-0.02 0.04,-0.04 0.06,-0.06c0.05,-0.05 0.05,-0.05 0.07,-0.1c-0.03,0 -0.06,0 -0.09,0c-0.08,-0.01 -0.12,-0.03 -0.18,-0.09c-0.07,-0.11 -0.08,-0.18 -0.08,-0.31c0,-0.03 0,-0.05 0,-0.08c0,-0.02 0.01,-0.05 0.01,-0.07c0.07,-0.05 0.07,-0.05 0.15,-0.05c0,0.02 0,0.03 0,0.05c0.05,-0.02 0.1,-0.03 0.15,-0.05c0.02,0.11 0.03,0.22 0.05,0.33c0.12,-0.03 0.16,-0.04 0.24,-0.13c0.06,-0.13 0.07,-0.26 0.02,-0.4c-0.07,-0.04 -0.15,-0.08 -0.23,-0.12c-0.13,-0.07 -0.21,-0.13 -0.26,-0.28c-0.02,-0.21 -0.01,-0.4 0.1,-0.58c0.18,-0.21 0.42,-0.31 0.67,-0.18z" fill="#B6B8C1" id="svg_5"/>
   <path d="m5.39,5.01c0.02,0 0.03,0.01 0.05,0.01c-0.03,0.1 -0.08,0.18 -0.15,0.26c-0.03,0.04 -0.03,0.04 -0.06,0.07c-0.06,0.08 -0.13,0.15 -0.19,0.23c-0.04,0.05 -0.04,0.05 -0.07,0.1c-0.05,0.09 -0.12,0.17 -0.19,0.25c-0.1,0.11 -0.19,0.23 -0.28,0.34c-0.09,0.11 -0.18,0.22 -0.28,0.33c-0.09,0.1 -0.17,0.2 -0.24,0.31c-0.08,-0.02 -0.16,-0.03 -0.24,-0.05c0,-0.03 0,-0.05 0,-0.08c0.08,-0.03 0.08,-0.03 0.17,-0.05c0,-0.01 -0.01,-0.03 -0.01,-0.04c-0.02,-0.07 -0.03,-0.13 -0.05,-0.2c-0.01,-0.02 -0.01,-0.05 -0.02,-0.07c-0.08,-0.3 -0.08,-0.3 -0.02,-0.42c0.03,-0.05 0.06,-0.1 0.09,-0.14c0.02,-0.02 0.02,-0.02 0.03,-0.05c0.02,-0.03 0.04,-0.06 0.06,-0.09c0.03,-0.04 0.06,-0.09 0.09,-0.13c0.01,-0.02 0.03,-0.04 0.04,-0.06c0.01,0 0.02,0 0.02,0c0,0.23 0,0.45 0,0.68c0.05,-0.05 0.09,-0.09 0.14,-0.14c0.04,-0.05 0.09,-0.09 0.13,-0.14c0.03,-0.03 0.06,-0.06 0.09,-0.1c0.3,-0.31 0.3,-0.31 0.45,-0.44c0.09,-0.08 0.17,-0.17 0.24,-0.26c0.1,-0.11 0.1,-0.11 0.18,-0.12z" fill="#FE4E4E" id="svg_6"/>
   <path d="m4.22,3.7c0.1,0.03 0.1,0.03 0.14,0.06c0.16,0.29 0.08,0.64 0.01,0.95c-0.07,0.03 -0.07,0.03 -0.12,0c-0.03,-0.01 -0.03,-0.01 -0.05,-0.03c-0.12,-0.06 -0.19,-0.05 -0.31,-0.03c-0.02,-0.3 0.06,-0.55 0.2,-0.81c0.01,0.02 0.02,0.03 0.02,0.05c0.03,0.01 0.06,0.02 0.1,0.03c0.01,-0.08 0.02,-0.15 0.02,-0.23z" fill="#C9EAFE" id="svg_7"/>
   <path d="m3.64,7.18c0.07,0.04 0.12,0.08 0.17,0.15c0.04,0.14 0.02,0.26 -0.03,0.4c-0.05,0.08 -0.08,0.11 -0.16,0.14c-0.15,0.02 -0.29,0.02 -0.41,-0.08c-0.07,-0.06 -0.09,-0.1 -0.11,-0.19c-0.01,-0.15 0.01,-0.25 0.11,-0.36c0.13,-0.12 0.28,-0.12 0.44,-0.06zm-0.25,0.2c-0.05,0.08 -0.06,0.14 -0.07,0.24c0.04,0.04 0.04,0.04 0.1,0.08c0.07,-0.02 0.11,-0.03 0.16,-0.09c0.02,-0.08 0.01,-0.15 -0.01,-0.24c-0.08,-0.03 -0.11,-0.04 -0.18,0.01z" fill="#959595" id="svg_8"/>
   <path d="m2.83,6.83c0.09,0.05 0.17,0.1 0.24,0.18c0,0.05 0,0.05 0,0.12c0,0.02 0,0.04 0,0.06c0,0.02 0,0.03 0,0.05c-0.06,-0.02 -0.11,-0.03 -0.17,-0.05c0.01,0.01 0.02,0.03 0.04,0.04c0.05,0.08 0.05,0.12 0.04,0.21c-0.05,0.08 -0.09,0.12 -0.17,0.14c-0.14,0.01 -0.24,-0.02 -0.35,-0.12c-0.06,-0.07 -0.08,-0.11 -0.1,-0.2c0.01,-0.07 0.01,-0.07 0.03,-0.12c0.02,0 0.04,0.01 0.06,0.01c0.06,0.01 0.06,0.01 0.11,0.01c-0.01,-0.02 -0.02,-0.03 -0.02,-0.05c-0.01,-0.1 -0.01,-0.16 0.04,-0.24c0.09,-0.06 0.16,-0.06 0.26,-0.04zm-0.07,0.18c0.03,0.08 0.03,0.08 0.1,0.13c-0.01,-0.04 -0.02,-0.08 -0.02,-0.13c-0.02,0 -0.05,0 -0.07,0zm-0.15,0.2c-0.02,0.06 -0.02,0.06 -0.02,0.13c0.02,0.02 0.03,0.03 0.05,0.05c0.03,0 0.06,0 0.1,0c-0.01,-0.07 -0.02,-0.1 -0.07,-0.15c-0.02,-0.01 -0.03,-0.02 -0.05,-0.03z" fill="#919191" id="svg_9"/>
   <path d="m0.85,2.57c0.07,0.04 0.13,0.09 0.2,0.15c0.01,0.05 0.01,0.05 0.01,0.11c0,0.02 0,0.04 0,0.06c-0.01,0.05 -0.01,0.05 -0.06,0.1c0.05,0.03 0.1,0.05 0.15,0.08c0.01,-0.03 0.03,-0.05 0.04,-0.08c0.06,-0.08 0.06,-0.08 0.15,-0.09c0.08,0.01 0.08,0.01 0.13,0.05c0.03,0.04 0.03,0.04 0.05,0.09c0.07,-0.01 0.14,-0.02 0.22,-0.03c-0.01,0.06 -0.01,0.06 -0.02,0.13c-0.02,0 -0.03,0.01 -0.05,0.01c-0.02,0.01 -0.04,0.01 -0.07,0.02c-0.02,0.01 -0.04,0.01 -0.07,0.02c-0.06,0.02 -0.06,0.02 -0.08,0.07c0.02,0 0.04,0.01 0.06,0.01c0.06,0.01 0.06,0.01 0.11,0.04c-0.01,0.04 -0.02,0.08 -0.02,0.13c-0.17,-0.05 -0.33,-0.11 -0.49,-0.18c0.01,-0.03 0.02,-0.07 0.02,-0.1c-0.02,-0.01 -0.02,-0.01 -0.04,-0.01c-0.2,-0.06 -0.4,-0.14 -0.59,-0.22c0.01,-0.03 0.02,-0.07 0.02,-0.1c0.02,0 0.03,0 0.05,0c0,-0.02 0,-0.05 -0.01,-0.07c0.01,-0.08 0.01,-0.08 0.05,-0.14c0.09,-0.07 0.14,-0.08 0.25,-0.07zm-0.17,0.13c-0.03,0.04 -0.03,0.04 -0.05,0.1c0.02,0.07 0.04,0.09 0.09,0.13c0.06,0.02 0.11,0.03 0.18,0.02c0.04,-0.04 0.04,-0.04 0.07,-0.08c-0.03,-0.09 -0.04,-0.12 -0.12,-0.18c-0.06,0 -0.11,0 -0.17,0zm0.61,0.35c-0.02,0.04 -0.03,0.08 -0.05,0.13c0.05,0.03 0.05,0.03 0.1,0.05c0.02,-0.05 0.03,-0.1 0.05,-0.15c-0.03,-0.01 -0.06,-0.02 -0.1,-0.03z" fill="#808080" id="svg_10"/>
   <path d="m4.64,7.29c0.08,0.04 0.13,0.1 0.17,0.18c0,0.06 0.01,0.12 0.01,0.18c0,0.03 0,0.07 0,0.1c-0.01,0.11 -0.04,0.15 -0.11,0.22c-0.07,0.03 -0.12,0.03 -0.19,0.03c-0.03,0 -0.05,0 -0.08,0c-0.07,-0.01 -0.07,-0.01 -0.13,-0.06c-0.04,-0.05 -0.04,-0.05 -0.04,-0.13c0.04,-0.01 0.07,-0.01 0.11,-0.02c0.03,0 0.03,0 0.06,-0.01c0.02,0 0.03,0 0.05,0c0.02,0.02 0.03,0.03 0.05,0.05c0.01,-0.03 0.02,-0.05 0.02,-0.08c-0.01,0 -0.03,0 -0.04,0c-0.16,0.01 -0.16,0.01 -0.24,-0.04c-0.05,-0.08 -0.06,-0.14 -0.06,-0.24c0.05,-0.13 0.05,-0.13 0.12,-0.18c0.1,-0.04 0.19,-0.04 0.3,-0.02zm-0.17,0.15c-0.03,0.03 -0.03,0.03 -0.03,0.09c0,0.02 0,0.04 0,0.06c0.06,0.01 0.06,0.01 0.12,0.03c0.02,-0.06 0.02,-0.06 0.02,-0.13c-0.02,-0.02 -0.03,-0.03 -0.05,-0.05c-0.02,0 -0.05,0 -0.07,0z" fill="#8B8B8B" id="svg_11"/>
   <path d="m5.29,7.19c0.11,0.07 0.15,0.12 0.19,0.25c0.03,0.12 0.04,0.24 0,0.36c-0.1,0.1 -0.2,0.12 -0.34,0.13c-0.11,-0.04 -0.16,-0.12 -0.22,-0.23c-0.03,-0.12 -0.04,-0.23 -0.02,-0.35c0.1,-0.14 0.22,-0.18 0.39,-0.15zm-0.17,0.18c-0.03,0.1 -0.01,0.15 0.02,0.25c0.01,0.02 0.02,0.05 0.03,0.08c0.01,0.03 0.01,0.03 0.02,0.06c0.03,-0.01 0.06,-0.02 0.1,-0.03c-0.01,-0.13 -0.02,-0.24 -0.07,-0.35c-0.03,0 -0.06,0 -0.1,0z" fill="#969696" id="svg_12"/>
   <path d="m5.95,6.99c0.07,0.07 0.07,0.07 0.12,0.15c0.02,0.03 0.02,0.03 0.04,0.07c0.04,0.11 0.05,0.22 0.03,0.33c-0.05,0.06 -0.05,0.06 -0.12,0.1c-0.02,0.01 -0.04,0.02 -0.06,0.03c-0.09,0.02 -0.15,0.02 -0.23,-0.01c-0.12,-0.1 -0.2,-0.23 -0.23,-0.38c-0.01,-0.1 0.01,-0.14 0.07,-0.22c0.13,-0.1 0.23,-0.13 0.38,-0.08zm-0.22,0.15c-0.02,0.06 -0.03,0.09 0,0.16c0.01,0.02 0.02,0.04 0.03,0.06c0.01,0.02 0.02,0.04 0.03,0.06c0.04,0.06 0.07,0.08 0.13,0.1c0.02,-0.08 0.03,-0.12 0,-0.19c-0.01,-0.02 -0.03,-0.04 -0.04,-0.07c-0.01,-0.02 -0.03,-0.04 -0.04,-0.07c-0.02,-0.03 -0.02,-0.03 -0.04,-0.05c-0.02,0 -0.05,0 -0.07,0z" fill="#8E8E8E" id="svg_13"/>
   <path d="m4.32,3.45c0.09,-0.01 0.15,-0.02 0.22,0.03c0.19,0.2 0.21,0.47 0.21,0.74c-0.01,0.28 -0.07,0.54 -0.18,0.8c-0.02,0.08 -0.02,0.12 0,0.2c0.01,0.01 0.03,0.03 0.04,0.04c0.01,0.01 0.02,0.03 0.03,0.04c-0.01,0.07 -0.03,0.13 -0.05,0.2c-0.05,-0.03 -0.1,-0.05 -0.15,-0.08c0,-0.02 0,-0.04 0.01,-0.06c0,-0.08 0,-0.08 -0.06,-0.14c-0.02,-0.02 -0.03,-0.04 -0.05,-0.06c0.01,-0.12 0.07,-0.24 0.12,-0.35c0.08,-0.21 0.11,-0.41 0.11,-0.64c0,-0.02 0,-0.04 0,-0.07c0,-0.24 -0.03,-0.44 -0.2,-0.62c-0.02,-0.02 -0.03,-0.03 -0.05,-0.05z" fill="#05059A" id="svg_14"/>
   <path d="m3.54,3.75c-0.01,0.24 -0.04,0.47 -0.07,0.7c-0.02,0.16 -0.04,0.32 -0.05,0.48c-0.02,0.25 -0.06,0.49 -0.1,0.74c-0.07,0.01 -0.07,0.01 -0.15,0.03c0.01,-0.31 0.04,-0.62 0.08,-0.93c0.01,-0.09 0.02,-0.17 0.03,-0.26c0,-0.02 0.01,-0.04 0.01,-0.06c0.03,-0.22 0.05,-0.45 0.07,-0.67c-0.03,-0.01 -0.06,-0.02 -0.1,-0.03c0.1,-0.03 0.17,-0.02 0.27,0z" fill="#08099B" id="svg_15"/>
   <path d="m3.22,3.78c0.05,0 0.1,0 0.15,0c-0.01,0.41 -0.06,0.82 -0.11,1.23c-0.01,0.07 -0.02,0.13 -0.02,0.2c-0.02,0.16 -0.04,0.33 -0.06,0.49c0.02,0.01 0.03,0.02 0.05,0.03c-0.06,0 -0.13,0 -0.2,0c-0.01,-0.21 0.02,-0.42 0.04,-0.63c0,-0.04 0.01,-0.08 0.01,-0.11c0.01,-0.1 0.02,-0.2 0.03,-0.3c0.01,-0.1 0.02,-0.2 0.04,-0.31c0.02,-0.2 0.05,-0.4 0.07,-0.6z" fill="#B2B4C1" id="svg_16"/>
   <path d="m5.12,0.27c0.07,0.03 0.07,0.03 0.12,0.08c0.02,0.07 0.02,0.07 0.02,0.13c-0.06,0 -0.06,0 -0.12,0c-0.02,-0.03 -0.03,-0.05 -0.05,-0.08c-0.06,-0.01 -0.06,-0.01 -0.12,0c-0.06,0.1 -0.04,0.14 -0.02,0.25c0.05,0 0.1,0 0.15,0c0.01,-0.02 0.02,-0.03 0.02,-0.05c0.03,0 0.03,0 0.07,0c0.08,0 0.08,0 0.15,-0.05c0.07,0 0.07,0 0.15,0.01c0.04,0 0.04,0 0.08,0.01c0.02,0 0.04,0 0.06,0.01c0,-0.03 0,-0.05 0,-0.08c-0.07,-0.01 -0.14,-0.02 -0.22,-0.03c-0.01,0.02 -0.02,0.03 -0.02,0.05c-0.03,-0.02 -0.06,-0.03 -0.1,-0.05c0.04,-0.06 0.06,-0.1 0.13,-0.12c0.11,-0.01 0.22,0.02 0.31,0.08c0.06,0.12 -0.02,0.3 -0.06,0.43c0,0.02 -0.01,0.03 -0.02,0.05c-0.03,0 -0.06,0 -0.1,0c0,-0.02 0,-0.03 0,-0.05c-0.01,0 -0.03,0 -0.04,0c-0.16,0.01 -0.16,0.01 -0.24,-0.04c-0.04,-0.04 -0.04,-0.04 -0.06,-0.12c-0.01,0.01 -0.02,0.03 -0.04,0.04c-0.08,0.05 -0.16,0.06 -0.26,0.04c-0.07,-0.05 -0.07,-0.05 -0.12,-0.13c-0.02,-0.13 -0.02,-0.22 0.05,-0.33c0.09,-0.06 0.16,-0.07 0.27,-0.05zm0.27,0.38c-0.01,0.03 -0.02,0.07 -0.02,0.1c0.07,0.02 0.07,0.02 0.15,0.03c0.02,-0.02 0.05,-0.03 0.07,-0.05c0,-0.03 0,-0.05 0,-0.08c-0.06,0 -0.13,0 -0.2,0z" fill="#808080" id="svg_17"/>
   <path d="m5.56,3.25c-0.03,0.03 -0.03,0.03 -0.06,0.06c-0.11,0.12 -0.15,0.2 -0.15,0.37c0.02,0.08 0.07,0.11 0.14,0.16c0.07,0.04 0.15,0.07 0.22,0.11c0.09,0.06 0.12,0.1 0.17,0.2c0.04,0.25 0,0.47 -0.13,0.68c-0.08,0.11 -0.16,0.16 -0.28,0.2c-0.1,0 -0.1,0 -0.17,0c0.07,-0.05 0.07,-0.05 0.16,-0.09c0.13,-0.08 0.19,-0.2 0.24,-0.34c0.03,-0.17 0.04,-0.34 -0.01,-0.5c-0.07,-0.1 -0.15,-0.14 -0.26,-0.19c-0.04,-0.02 -0.08,-0.04 -0.11,-0.06c-0.03,-0.01 -0.03,-0.01 -0.05,-0.03c-0.04,-0.02 -0.04,-0.02 -0.06,-0.07c-0.02,-0.16 0,-0.27 0.1,-0.4c0.09,-0.08 0.15,-0.08 0.27,-0.08z" fill="#0A0B9C" id="svg_18"/>
   <path d="m4.24,3.68c-0.02,0.02 -0.04,0.05 -0.07,0.07c-0.21,0.26 -0.28,0.57 -0.29,0.91c0,0.02 0,0.04 0,0.06c0,0.15 0.02,0.31 0.12,0.42c0.03,0.04 0.03,0.04 0.03,0.09c-0.06,0.01 -0.06,0.01 -0.15,0c-0.08,-0.07 -0.14,-0.15 -0.17,-0.25c-0.03,-0.42 -0.02,-0.87 0.26,-1.21c0.08,-0.08 0.15,-0.09 0.26,-0.08z" fill="#06069B" id="svg_19"/>
   <path d="m6.64,7.79c0.09,0.07 0.14,0.15 0.17,0.27c0,0.11 -0.02,0.17 -0.07,0.27c-0.1,0.1 -0.19,0.13 -0.32,0.14c-0.09,0 -0.11,-0.01 -0.19,-0.06c0.01,-0.03 0.02,-0.07 0.02,-0.1c0.02,0 0.03,0.01 0.05,0.01c0.14,0.02 0.14,0.02 0.27,-0.01c0.05,-0.04 0.05,-0.04 0.1,-0.12c0,-0.1 -0.02,-0.14 -0.08,-0.22c-0.09,-0.07 -0.13,-0.07 -0.24,-0.05c-0.07,0.03 -0.07,0.03 -0.12,0.08c-0.02,0.07 -0.02,0.07 -0.02,0.13c0.06,-0.03 0.13,-0.05 0.2,-0.08c0.02,0.03 0.03,0.07 0.05,0.1c-0.03,0.02 -0.07,0.04 -0.1,0.06c-0.02,0.01 -0.04,0.02 -0.06,0.04c-0.06,0.03 -0.06,0.03 -0.11,0.02c-0.04,-0.02 -0.04,-0.02 -0.09,-0.09c-0.04,-0.12 -0.04,-0.12 0,-0.21c0.15,-0.18 0.34,-0.25 0.56,-0.15z" fill="#808080" id="svg_20"/>
   <path d="m8.12,5.5c0.17,0.03 0.33,0.06 0.49,0.13c-0.01,0.04 -0.01,0.08 -0.02,0.12c0,0.02 -0.01,0.04 -0.01,0.07c-0.02,0.07 -0.04,0.11 -0.09,0.17c-0.02,0 -0.03,0 -0.05,0c0.01,0.02 0.01,0.02 0.02,0.04c0.01,0.1 -0.02,0.16 -0.07,0.24c-0.1,0.04 -0.17,0.01 -0.27,-0.03c-0.03,-0.01 -0.05,-0.02 -0.08,-0.03c-0.06,-0.03 -0.1,-0.06 -0.14,-0.11c0.01,-0.02 0.02,-0.03 0.02,-0.05c0.09,0.01 0.15,0.03 0.23,0.07c0.08,0.04 0.08,0.04 0.14,0.03c0.02,-0.01 0.02,-0.01 0.04,-0.02c0,-0.03 0,-0.07 0,-0.1c-0.1,-0.04 -0.21,-0.08 -0.32,-0.13c0.01,-0.04 0.02,-0.08 0.02,-0.13c0.02,0.01 0.04,0.02 0.07,0.02c0.03,0.01 0.06,0.02 0.09,0.03c0.04,0.01 0.04,0.01 0.09,0.03c0.08,0.03 0.08,0.03 0.15,-0.01c0,-0.03 0,-0.07 0,-0.1c-0.1,-0.03 -0.19,-0.07 -0.29,-0.1c-0.01,-0.04 -0.02,-0.08 -0.02,-0.13z" fill="#808080" id="svg_21"/>
   <path d="m8.76,3.43c0.08,0.07 0.12,0.12 0.13,0.23c0,0.1 0,0.16 -0.05,0.25c-0.05,0.05 -0.05,0.05 -0.13,0.05c-0.01,-0.06 -0.01,-0.06 -0.02,-0.13c0.02,-0.02 0.05,-0.03 0.07,-0.05c0.01,-0.1 0.01,-0.14 -0.05,-0.23c-0.02,-0.01 -0.05,-0.02 -0.07,-0.03c0,0.04 0,0.04 -0.01,0.09c0,0.04 -0.01,0.07 -0.01,0.11c0,0.02 0,0.04 -0.01,0.06c-0.01,0.14 -0.01,0.14 -0.06,0.2c-0.07,0.05 -0.15,0.04 -0.24,0.03c-0.07,-0.06 -0.09,-0.09 -0.12,-0.18c-0.02,-0.21 -0.02,-0.21 0.03,-0.3c0.03,-0.03 0.03,-0.03 0.09,-0.08c0.02,0.01 0.05,0.02 0.07,0.03c0,0.03 0,0.07 0,0.1c-0.01,0.01 -0.02,0.02 -0.04,0.03c-0.04,0.04 -0.04,0.04 -0.04,0.12c0,0.08 0,0.08 0.06,0.15c0.03,-0.01 0.06,-0.02 0.1,-0.03c0,-0.02 0,-0.04 0,-0.06c0.01,-0.14 0.02,-0.25 0.09,-0.37c0.07,-0.04 0.12,-0.02 0.2,0z" fill="#808080" id="svg_22"/>
   <path d="m0.75,3.12c0.05,0.02 0.1,0.04 0.16,0.06c-0.01,0.04 -0.02,0.08 -0.02,0.13c-0.12,-0.03 -0.24,-0.07 -0.37,-0.1c-0.01,0.04 -0.02,0.08 -0.02,0.13c0.11,0.04 0.23,0.09 0.34,0.13c-0.01,0.03 -0.02,0.07 -0.02,0.1c-0.02,0 -0.04,-0.01 -0.05,-0.01c-0.02,0 -0.05,-0.01 -0.07,-0.01c-0.02,0 -0.05,-0.01 -0.07,-0.01c-0.07,-0.01 -0.13,-0.01 -0.19,-0.01c-0.01,0.04 -0.02,0.08 -0.02,0.13c0.11,0.03 0.23,0.05 0.34,0.08c0.01,0.04 0.02,0.08 0.02,0.13c-0.06,-0.01 -0.12,-0.02 -0.18,-0.02c-0.02,0 -0.03,0 -0.05,-0.01c-0.09,-0.01 -0.18,-0.03 -0.26,-0.05c0,-0.04 0.01,-0.09 0.01,-0.13c0,-0.02 0,-0.05 0.01,-0.07c0.01,-0.07 0.03,-0.11 0.06,-0.17c0.02,0 0.03,0 0.05,0c-0.01,-0.03 -0.01,-0.05 -0.02,-0.08c-0.01,-0.09 -0.01,-0.12 0.04,-0.2c0.1,-0.05 0.23,-0.01 0.33,0.02z" fill="#808080" id="svg_23"/>
   <path d="m0.05,3.83c0.04,0 0.08,0 0.12,0c-0.02,0.15 -0.03,0.3 -0.05,0.45c0.06,0 0.11,0 0.17,0c0.01,-0.13 0.02,-0.27 0.02,-0.4c0.04,0.01 0.08,0.02 0.12,0.03c-0.02,0.13 -0.03,0.25 -0.05,0.38c0.06,0 0.13,0 0.2,0c0.01,-0.12 0.02,-0.23 0.02,-0.35c0.04,-0.01 0.08,-0.02 0.12,-0.03c-0.02,0.17 -0.03,0.33 -0.05,0.51c-0.22,0 -0.44,0 -0.66,-0.03c0,-0.06 0,-0.12 0,-0.18c0,-0.05 0,-0.05 0,-0.1c0,-0.1 0.01,-0.18 0.03,-0.28z" fill="#808080" id="svg_24"/>
   <path d="m6.37,6.63c0.05,0.06 0.09,0.11 0.13,0.17c0.02,0.03 0.05,0.06 0.07,0.09c0.01,0.02 0.02,0.03 0.03,0.05c0.03,0.04 0.06,0.08 0.09,0.11c0.04,0.06 0.04,0.06 0.04,0.13c-0.07,0.07 -0.09,0.08 -0.2,0.08c-0.05,-0.05 -0.05,-0.05 -0.1,-0.12c-0.06,-0.09 -0.06,-0.09 -0.14,-0.15c-0.02,0.06 -0.02,0.06 -0.05,0.13c-0.05,0 -0.05,0 -0.1,-0.03c-0.03,-0.06 -0.03,-0.06 -0.05,-0.13c0.02,-0.03 0.03,-0.05 0.05,-0.08c0.01,-0.05 0.01,-0.05 0.01,-0.1c0.01,-0.07 0.01,-0.09 0.06,-0.15c0.06,-0.03 0.09,-0.02 0.15,0z" fill="#888888" id="svg_25"/>
   <path d="m1.88,7.24c0.1,0.05 0.16,0.11 0.22,0.2c0.02,0.11 0.02,0.21 -0.02,0.31c-0.05,0.08 -0.09,0.12 -0.17,0.17c-0.13,0.02 -0.25,0.02 -0.37,-0.06c-0.06,-0.05 -0.1,-0.09 -0.12,-0.17c-0.01,-0.09 -0.01,-0.09 0,-0.18c0.02,-0.02 0.03,-0.03 0.05,-0.05c0.07,0.05 0.07,0.05 0.09,0.1c0.01,0.04 0.01,0.08 0.02,0.12c0.01,0.06 0.01,0.06 0.06,0.09c0.08,0.03 0.14,0.01 0.22,-0.01c0.08,-0.06 0.1,-0.09 0.12,-0.19c0.01,-0.09 0.01,-0.09 -0.05,-0.17c-0.08,-0.05 -0.09,-0.06 -0.18,-0.05c-0.03,0.01 -0.06,0.01 -0.09,0.02c-0.02,-0.03 -0.03,-0.07 -0.05,-0.1c0.09,-0.06 0.16,-0.07 0.27,-0.05z" fill="#808080" id="svg_26"/>
   <path d="m2.78,0.47c0.06,0.05 0.06,0.05 0.1,0.1c-0.02,0.02 -0.03,0.03 -0.05,0.05c-0.05,0 -0.05,0 -0.12,-0.01c-0.08,-0.01 -0.12,-0.01 -0.2,0.02c-0.05,0.04 -0.05,0.04 -0.07,0.11c0,0.11 0.05,0.18 0.1,0.27c0.07,0.05 0.13,0.04 0.21,0.03c0.09,-0.06 0.1,-0.12 0.12,-0.23c0.03,0 0.06,0 0.1,0c0.01,0.1 0.01,0.16 -0.04,0.25c-0.09,0.09 -0.15,0.11 -0.27,0.12c-0.12,0 -0.18,-0.03 -0.27,-0.11c-0.07,-0.09 -0.09,-0.17 -0.1,-0.28c0.04,-0.13 0.08,-0.2 0.2,-0.28c0.09,-0.05 0.19,-0.04 0.29,-0.03z" fill="#808080" id="svg_27"/>
   <path d="m7.22,2.34c0.09,0.09 0.16,0.18 0.2,0.3c-0.02,0.08 -0.02,0.08 -0.05,0.13c-0.05,0 -0.1,0 -0.15,0c0,0.02 -0.01,0.04 -0.01,0.06c-0.01,0.06 -0.01,0.06 -0.04,0.09c-0.1,0.03 -0.1,0.03 -0.17,0c-0.08,-0.09 -0.14,-0.18 -0.2,-0.28c0.08,-0.09 0.16,-0.15 0.26,-0.21c0.01,-0.01 0.03,-0.02 0.04,-0.03c0.04,-0.02 0.07,-0.04 0.11,-0.07zm-0.02,0.18c-0.02,0.02 -0.03,0.03 -0.05,0.05c0.02,0.03 0.05,0.07 0.07,0.1c0.02,-0.01 0.05,-0.02 0.07,-0.03c-0.02,-0.04 -0.05,-0.08 -0.07,-0.13c-0.01,0 -0.02,0 -0.02,0zm-0.17,0.1c-0.02,0.04 -0.02,0.04 -0.05,0.08c0.02,0.03 0.05,0.07 0.07,0.1c0.02,-0.01 0.05,-0.02 0.07,-0.03c-0.03,-0.09 -0.03,-0.09 -0.1,-0.15z" fill="#808080" id="svg_28"/>
   <path d="m2.39,6.53c0.14,0.09 0.14,0.09 0.17,0.15c0,0.05 0,0.05 -0.04,0.11c-0.02,0.02 -0.04,0.04 -0.06,0.06c-0.11,0.12 -0.2,0.23 -0.29,0.36c-0.1,-0.01 -0.15,-0.08 -0.22,-0.15c0.14,-0.18 0.29,-0.36 0.44,-0.53z" fill="#919191" id="svg_29"/>
   <path d="m6.27,0.45c0.06,0.01 0.06,0.01 0.12,0.03c-0.04,0.14 -0.1,0.26 -0.16,0.39c-0.01,0.02 -0.02,0.04 -0.03,0.06c-0.03,0.05 -0.05,0.1 -0.08,0.15c-0.03,0 -0.06,0 -0.1,0c0,-0.02 0,-0.03 0,-0.05c-0.02,0 -0.04,0 -0.07,0.01c-0.08,-0.01 -0.08,-0.01 -0.14,-0.05c-0.05,-0.08 -0.06,-0.14 -0.07,-0.24c0.03,-0.08 0.06,-0.14 0.11,-0.2c0.09,-0.04 0.18,-0.03 0.28,0c0.02,0.02 0.03,0.03 0.05,0.05c0.02,-0.05 0.05,-0.1 0.07,-0.15zm-0.33,0.2c-0.05,0.07 -0.05,0.14 -0.06,0.23c0.02,0.05 0.02,0.05 0.07,0.07c0.06,0.01 0.06,0.01 0.12,-0.05c0.06,-0.07 0.06,-0.07 0.07,-0.15c0,-0.07 0,-0.07 -0.06,-0.12c-0.09,-0.01 -0.09,-0.01 -0.14,0.03z" fill="#808080" id="svg_30"/>
   <path d="m4.22,0.8c0.03,0 0.06,0 0.1,0c-0.02,0.04 -0.03,0.08 -0.05,0.13c0.02,0.01 0.05,0.01 0.07,0.02c0.09,0.03 0.11,0.05 0.15,0.13c0.02,0.12 0.02,0.2 -0.05,0.3c-0.08,0.08 -0.14,0.08 -0.25,0.08c-0.08,-0.01 -0.12,-0.05 -0.17,-0.11c-0.04,-0.09 -0.04,-0.18 -0.02,-0.28c0.05,-0.08 0.05,-0.08 0.1,-0.13c0.02,0 0.03,0 0.05,0c0.01,-0.02 0.02,-0.04 0.02,-0.06c0.03,-0.06 0.03,-0.06 0.05,-0.09zm-0.1,0.3c-0.01,0.07 -0.01,0.07 0,0.15c0.05,0.06 0.05,0.06 0.1,0.1c0.04,-0.02 0.08,-0.03 0.12,-0.05c0.03,-0.13 0.03,-0.13 -0.02,-0.25c-0.11,-0.01 -0.11,-0.01 -0.2,0.05z" fill="#808080" id="svg_31"/>
   <path d="m1.03,6.03c0.09,0.13 0.12,0.22 0.1,0.38c-0.05,0.07 -0.1,0.11 -0.17,0.15c-0.17,0.02 -0.17,0.02 -0.27,-0.06c-0.04,-0.06 -0.07,-0.1 -0.07,-0.17c-0.02,0.01 -0.02,0.01 -0.04,0.03c-0.05,0.03 -0.05,0.03 -0.15,0.03c-0.01,-0.03 -0.02,-0.07 -0.02,-0.1c0.09,-0.04 0.18,-0.08 0.28,-0.13c0.03,-0.01 0.05,-0.02 0.08,-0.04c0.04,-0.02 0.04,-0.02 0.08,-0.03c0.02,-0.01 0.05,-0.02 0.07,-0.03c0.06,-0.02 0.06,-0.02 0.13,-0.02zm-0.29,0.25c-0.01,0.03 -0.02,0.05 -0.02,0.08c0.03,0.06 0.03,0.06 0.07,0.1c0.1,-0.01 0.17,-0.02 0.24,-0.1c0.01,-0.06 0.01,-0.06 0,-0.13c-0.02,-0.02 -0.03,-0.03 -0.05,-0.05c-0.12,0 -0.15,0.03 -0.24,0.1z" fill="#808080" id="svg_32"/>
   <path d="m2.93,7.95c0.04,0.01 0.08,0.01 0.12,0.02c0.02,0 0.04,0.01 0.07,0.01c0.07,0.02 0.11,0.04 0.16,0.09c0.03,0.09 0.03,0.16 0.02,0.25c-0.08,0.14 -0.08,0.14 -0.15,0.18c-0.12,0.01 -0.19,0 -0.29,-0.08c-0.02,0.05 -0.03,0.1 -0.05,0.15c-0.04,-0.01 -0.08,-0.02 -0.12,-0.03c0.04,-0.13 0.09,-0.26 0.15,-0.39c0.01,-0.02 0.02,-0.04 0.03,-0.06c0.02,-0.05 0.04,-0.1 0.07,-0.15zm0.1,0.14c-0.06,0.04 -0.07,0.07 -0.1,0.13c-0.01,0.07 -0.01,0.07 0,0.13c0.07,0.06 0.07,0.06 0.13,0.05c0.07,-0.02 0.07,-0.02 0.11,-0.09c0.03,-0.08 0.03,-0.08 0.01,-0.15c-0.04,-0.07 -0.08,-0.09 -0.16,-0.06z" fill="#808080" id="svg_33"/>
   <path d="m7.56,6.87c0.09,0.02 0.14,0.07 0.2,0.14c0.04,0.08 0.03,0.14 0.02,0.23c-0.04,0.05 -0.09,0.09 -0.15,0.13c0.04,0.03 0.08,0.07 0.12,0.1c-0.02,0.03 -0.03,0.07 -0.05,0.1c-0.07,-0.03 -0.13,-0.07 -0.19,-0.13c-0.02,-0.02 -0.03,-0.03 -0.05,-0.05c-0.02,-0.02 -0.04,-0.03 -0.05,-0.05c-0.04,-0.04 -0.08,-0.07 -0.12,-0.11c-0.03,-0.03 -0.07,-0.06 -0.1,-0.09c0.17,-0.27 0.17,-0.27 0.36,-0.26zm-0.14,0.11c-0.02,0.04 -0.03,0.08 -0.05,0.13c0.05,0.08 0.08,0.12 0.17,0.15c0.07,0.01 0.07,0.01 0.12,-0.03c0.03,-0.04 0.03,-0.04 0.02,-0.09c-0.03,-0.07 -0.06,-0.11 -0.12,-0.15c-0.08,-0.01 -0.08,-0.01 -0.15,0z" fill="#808080" id="svg_34"/>
   <path d="m6.37,1.53c0.11,0.05 0.21,0.11 0.29,0.2c0.02,0.09 0.02,0.12 -0.03,0.2c-0.06,0.04 -0.1,0.03 -0.17,0.03c0,0.08 0,0.15 0,0.23c-0.07,0 -0.07,0 -0.12,-0.03c-0.01,-0.06 -0.01,-0.06 -0.02,-0.14c0,-0.04 0,-0.04 -0.01,-0.08c0,-0.02 0,-0.04 0,-0.06c-0.04,0.04 -0.08,0.08 -0.12,0.13c-0.06,-0.03 -0.06,-0.03 -0.12,-0.05c0.04,-0.11 0.1,-0.2 0.17,-0.29c0.01,-0.01 0.02,-0.03 0.03,-0.04c0.03,-0.03 0.06,-0.07 0.08,-0.1zm0.02,0.18c-0.01,0.03 -0.02,0.05 -0.02,0.08c0.04,0.04 0.04,0.04 0.1,0.08c0.02,-0.01 0.05,-0.02 0.07,-0.03c-0.02,-0.05 -0.02,-0.05 -0.05,-0.1c-0.05,-0.02 -0.05,-0.02 -0.1,-0.03z" fill="#808080" id="svg_35"/>
   <path d="m3.88,0.12c0.02,0 0.05,0 0.07,0c0,0.05 0,0.1 0,0.15c0.03,0 0.06,0 0.1,0c0,0.03 0,0.05 0,0.08c-0.02,0 -0.05,0 -0.07,0c0.01,0.1 0.02,0.2 0.02,0.3c0.03,0 0.06,0 0.1,0c0,0.03 0,0.07 0,0.1c-0.06,0.02 -0.06,0.02 -0.12,0.03c-0.07,-0.05 -0.07,-0.05 -0.09,-0.13c0,-0.03 -0.01,-0.06 -0.01,-0.1c0,-0.03 -0.01,-0.06 -0.01,-0.1c0,-0.03 -0.01,-0.05 -0.01,-0.08c-0.01,0.01 -0.03,0.02 -0.04,0.02c-0.05,0.03 -0.05,0.03 -0.13,0.05c0,0.13 0.01,0.25 0.02,0.38c-0.04,-0.01 -0.08,-0.02 -0.12,-0.03c-0.03,-0.15 -0.06,-0.3 -0.1,-0.45c0.17,-0.04 0.17,-0.04 0.34,-0.08c0.01,-0.04 0.02,-0.08 0.02,-0.13c0.01,-0.01 0.02,-0.02 0.02,-0.03z" fill="#808080" id="svg_36"/>
   <path d="m1.44,6.76c0.07,0.05 0.07,0.05 0.1,0.13c0.02,0.02 0.05,0.04 0.07,0.06c0.07,0.06 0.07,0.06 0.09,0.16c0,0.03 -0.01,0.06 -0.01,0.08c-0.07,0.05 -0.07,0.05 -0.15,0.05c-0.11,-0.03 -0.17,-0.08 -0.26,-0.15c0.01,0.05 0.01,0.05 0.02,0.1c0.04,0.03 0.04,0.03 0.1,0.05c0.03,0.02 0.07,0.03 0.1,0.05c-0.01,0.03 -0.02,0.05 -0.02,0.08c-0.1,0.01 -0.14,0.01 -0.23,-0.06c-0.1,-0.1 -0.1,-0.1 -0.12,-0.17c0,-0.09 0.02,-0.12 0.08,-0.19c0.02,-0.02 0.05,-0.04 0.07,-0.06c0.04,-0.03 0.04,-0.03 0.07,-0.06c0.02,-0.02 0.04,-0.03 0.06,-0.05c0.01,-0.01 0.02,-0.02 0.02,-0.03zm-0.02,0.2c-0.02,0.02 -0.03,0.03 -0.05,0.05c0.02,0.02 0.05,0.04 0.07,0.06c0.01,0.01 0.03,0.02 0.04,0.04c0.01,0.01 0.03,0.02 0.04,0.03c0.02,-0.01 0.05,-0.02 0.07,-0.03c-0.01,-0.05 -0.01,-0.05 -0.02,-0.1c-0.07,-0.06 -0.07,-0.06 -0.15,-0.05z" fill="#808080" id="svg_37"/>
   <path d="m0.73,5.07c0.03,0.11 0.06,0.21 0.05,0.33c-0.05,0.08 -0.08,0.12 -0.17,0.15c-0.08,0.01 -0.16,0.01 -0.24,0c-0.06,-0.05 -0.06,-0.05 -0.1,-0.13c-0.01,-0.08 -0.01,-0.08 0,-0.15c-0.06,0 -0.13,0 -0.2,0c0,-0.03 0,-0.07 0,-0.1c0.21,-0.05 0.44,-0.1 0.66,-0.1zm-0.32,0.15c-0.06,0.04 -0.06,0.04 -0.06,0.11c0.01,0.07 0.01,0.07 0.09,0.11c0.08,0 0.15,-0.01 0.22,-0.06c0.03,-0.05 0.03,-0.05 0.02,-0.11c-0.01,-0.03 -0.01,-0.03 -0.02,-0.06c-0.09,-0.02 -0.15,-0.03 -0.24,0z" fill="#808080" id="svg_38"/>
   <path d="m2,1.1c0.05,0.05 0.05,0.05 0.11,0.11c0.02,0.02 0.03,0.04 0.05,0.06c0.04,0.05 0.04,0.05 0.04,0.11c0.02,0.01 0.05,0.02 0.07,0.03c0,0.02 0,0.03 0,0.05c-0.03,0.01 -0.03,0.01 -0.05,0.02c-0.08,0.04 -0.11,0.09 -0.16,0.16c-0.07,0.04 -0.12,0.04 -0.2,0.03c-0.05,-0.06 -0.05,-0.06 -0.07,-0.13c0.02,-0.1 0.08,-0.17 0.15,-0.25c-0.01,-0.02 -0.02,-0.03 -0.02,-0.05c-0.07,0.04 -0.09,0.06 -0.12,0.14c0,0.02 0,0.04 -0.01,0.06c-0.03,0.01 -0.06,0.02 -0.1,0.03c-0.02,-0.08 -0.03,-0.11 0,-0.19c0.09,-0.11 0.18,-0.18 0.32,-0.16zm0,0.25c-0.05,0.06 -0.05,0.06 -0.1,0.13c0.01,0.03 0.02,0.05 0.02,0.08c0.06,-0.02 0.06,-0.02 0.12,-0.05c0.02,-0.06 0.02,-0.06 0.02,-0.13c-0.02,-0.01 -0.05,-0.02 -0.07,-0.03z" fill="#808080" id="svg_39"/>
   <path d="m0.81,5.52c0.05,0.05 0.05,0.05 0.06,0.11c0.01,0.07 0.01,0.07 0.05,0.13c0.03,0.06 0.03,0.06 0.03,0.13c-0.02,0.06 -0.02,0.06 -0.07,0.11c-0.08,0.02 -0.08,0.02 -0.17,0c-0.06,-0.07 -0.1,-0.15 -0.15,-0.23c-0.02,0.02 -0.03,0.03 -0.05,0.05c0.02,0.05 0.02,0.05 0.05,0.1c0.02,0.01 0.05,0.02 0.07,0.03c0.01,0.04 0.02,0.08 0.02,0.13c-0.05,0.01 -0.05,0.01 -0.12,0c-0.08,-0.08 -0.13,-0.14 -0.15,-0.26c0,-0.1 0,-0.1 0.03,-0.14c0.07,-0.05 0.14,-0.08 0.22,-0.1c0.02,-0.01 0.03,-0.01 0.05,-0.02c0.04,-0.01 0.08,-0.03 0.12,-0.04zm-0.12,0.18c-0.01,0.02 -0.02,0.03 -0.02,0.05c0.05,0.08 0.05,0.08 0.1,0.15c0.03,-0.02 0.06,-0.03 0.1,-0.05c-0.04,-0.09 -0.04,-0.09 -0.13,-0.15c-0.01,0 -0.03,0 -0.04,0z" fill="#808080" id="svg_40"/>
   <path d="m7.31,7.3c0.07,0.08 0.09,0.13 0.1,0.24c-0.03,0.09 -0.06,0.14 -0.13,0.2c-0.1,0.04 -0.16,0.03 -0.26,0c-0.05,-0.03 -0.05,-0.03 -0.07,-0.08c0,-0.03 0,-0.05 0,-0.08c0.05,-0.04 0.05,-0.04 0.11,-0.09c0.08,-0.06 0.08,-0.06 0.14,-0.14c-0.08,0.01 -0.08,0.01 -0.17,0.05c-0.03,0.08 -0.03,0.08 -0.05,0.15c-0.02,0.01 -0.05,0.02 -0.07,0.03c-0.02,-0.03 -0.02,-0.03 -0.03,-0.09c0.01,-0.1 0.03,-0.14 0.11,-0.21c0.12,-0.07 0.22,-0.06 0.34,0.02zm-0.14,0.25c-0.02,0.02 -0.05,0.04 -0.07,0.06c0.05,0.03 0.05,0.03 0.1,0.05c0.05,-0.03 0.05,-0.03 0.1,-0.08c0,-0.03 0,-0.07 0,-0.1c-0.06,0 -0.08,0.02 -0.13,0.06z" fill="#808080" id="svg_41"/>
   <path d="m4.61,0.92c0.06,0.01 0.06,0.01 0.12,0.03c0.04,0.05 0.04,0.05 0.07,0.12c0.01,0.02 0.02,0.04 0.03,0.06c0.01,0.02 0.01,0.03 0.02,0.05c0.02,-0.07 0.03,-0.13 0.05,-0.2c0.04,0 0.08,0 0.12,0c-0.02,0.17 -0.03,0.33 -0.05,0.51c-0.05,0 -0.1,0 -0.15,0c-0.03,-0.08 -0.06,-0.15 -0.1,-0.23c-0.05,0.05 -0.04,0.14 -0.05,0.2c-0.04,-0.01 -0.08,-0.02 -0.12,-0.03c0,-0.06 0.01,-0.11 0.01,-0.17c0,-0.03 0,-0.06 0.01,-0.09c0.01,-0.08 0.02,-0.16 0.03,-0.24z" fill="#808080" id="svg_42"/>
   <path d="m8,6.2c0.04,0.03 0.04,0.03 0.07,0.08c0,0.05 0,0.05 -0.01,0.11c0,0.02 -0.01,0.04 -0.01,0.06c-0.01,0.05 -0.02,0.11 -0.03,0.16c0.03,-0.02 0.06,-0.03 0.1,-0.05c0,-0.03 0,-0.06 0,-0.09c0,-0.09 0,-0.09 0.03,-0.14c0.03,0.02 0.06,0.03 0.1,0.05c0.02,0.2 0.02,0.2 -0.05,0.29c-0.09,0.08 -0.09,0.08 -0.16,0.09c-0.06,-0.02 -0.06,-0.02 -0.12,-0.06c-0.02,-0.01 -0.04,-0.02 -0.06,-0.04c-0.06,-0.04 -0.12,-0.07 -0.18,-0.11c0.01,-0.03 0.02,-0.05 0.02,-0.08c0.02,0 0.05,0 0.07,0c0,-0.03 0,-0.05 0.01,-0.08c0.03,-0.14 0.09,-0.22 0.24,-0.2zm-0.12,0.13c-0.06,0.07 -0.06,0.07 -0.04,0.14c0.01,0.02 0.01,0.04 0.02,0.06c0.02,0.01 0.05,0.02 0.07,0.03c0.04,-0.09 0.04,-0.09 0.04,-0.18c0,-0.01 -0.01,-0.03 -0.02,-0.04c-0.02,0 -0.05,0 -0.07,0z" fill="#808080" id="svg_43"/>
   <path d="m6.39,0.75c0.11,0 0.21,0.01 0.31,0.08c0.06,0.07 0.06,0.07 0.07,0.13c-0.01,0.09 -0.05,0.15 -0.11,0.23c-0.02,0.03 -0.04,0.05 -0.05,0.08c-0.02,0.03 -0.02,0.03 -0.04,0.06c-0.03,-0.01 -0.06,-0.02 -0.1,-0.03c0,-0.02 0,-0.03 0,-0.05c-0.02,0 -0.04,-0.01 -0.07,-0.01c-0.08,-0.02 -0.12,-0.03 -0.18,-0.09c-0.01,-0.09 -0.01,-0.09 0,-0.18c0.1,-0.07 0.18,-0.05 0.29,-0.03c0.07,0.03 0.07,0.03 0.12,0.05c-0.02,-0.05 -0.02,-0.05 -0.05,-0.1c-0.06,-0.02 -0.06,-0.02 -0.12,-0.03c-0.04,-0.01 -0.08,-0.02 -0.12,-0.03c0.02,-0.03 0.03,-0.07 0.05,-0.1zm-0.05,0.28c0,0.03 0,0.07 0,0.1c0.03,0.03 0.03,0.03 0.1,0.03c0.02,0 0.05,0 0.07,-0.01c0.02,-0.03 0.03,-0.05 0.05,-0.08c-0.08,-0.04 -0.13,-0.05 -0.22,-0.05z" fill="#808080" id="svg_44"/>
   <path d="m5.9,8.02c0.07,0.05 0.11,0.08 0.16,0.16c0.02,0.09 0.01,0.16 -0.01,0.24c-0.05,0.07 -0.07,0.07 -0.15,0.1c-0.17,0.02 -0.17,0.02 -0.27,-0.06c-0.05,-0.07 -0.05,-0.07 -0.05,-0.17c0.03,-0.01 0.03,-0.01 0.06,-0.02c0.03,-0.01 0.05,-0.02 0.08,-0.03c0.03,-0.01 0.05,-0.02 0.08,-0.03c0.07,-0.02 0.07,-0.02 0.09,-0.08c-0.06,0 -0.11,0 -0.17,0c-0.01,0.02 -0.01,0.03 -0.02,0.05c-0.03,0.05 -0.03,0.05 -0.1,0.07c-0.02,0 -0.04,0 -0.06,0.01c0.01,-0.09 0.01,-0.14 0.07,-0.21c0.09,-0.05 0.16,-0.06 0.27,-0.04zm-0.17,0.33c0.01,0.03 0.02,0.05 0.02,0.08c0.07,0.03 0.07,0.03 0.14,-0.01c0.02,-0.01 0.04,-0.03 0.06,-0.04c0,-0.03 0,-0.05 0,-0.08c-0.08,0 -0.14,0.02 -0.22,0.05z" fill="#808080" id="svg_45"/>
   <path d="m1.34,1.86c0.02,0.02 0.05,0.03 0.07,0.05c0,0.03 0,0.05 0,0.08c0.02,0 0.05,0 0.07,0c0.02,0.09 0.03,0.14 -0.01,0.22c-0.09,0.13 -0.09,0.13 -0.17,0.15c-0.1,0 -0.17,0 -0.25,-0.07c-0.06,-0.07 -0.08,-0.09 -0.09,-0.19c0.01,-0.11 0.05,-0.15 0.13,-0.23c0.09,-0.03 0.15,-0.02 0.24,0zm-0.27,0.18c0.01,0.04 0.02,0.08 0.02,0.13c0.06,-0.06 0.06,-0.06 0.12,-0.13c0,-0.03 0,-0.07 0,-0.1c-0.05,0 -0.11,0.07 -0.15,0.1zm0.27,-0.03c-0.1,0.1 -0.1,0.1 -0.12,0.23c0.09,-0.01 0.09,-0.01 0.17,-0.05c-0.01,-0.06 -0.02,-0.12 -0.02,-0.18c-0.01,0 -0.02,0 -0.02,0z" fill="#808080" id="svg_46"/>
   <path d="m6.93,1.99c0.08,0.06 0.11,0.1 0.15,0.2c0,0.11 -0.04,0.16 -0.11,0.24c-0.07,0.07 -0.17,0.06 -0.26,0.06c-0.09,-0.04 -0.12,-0.07 -0.17,-0.15c-0.01,-0.09 -0.01,-0.16 0.03,-0.25c0.1,-0.13 0.21,-0.15 0.36,-0.11zm-0.22,0.15c-0.06,0.07 -0.06,0.07 -0.05,0.14c0.02,0.06 0.02,0.06 0.05,0.08c0.06,0.01 0.06,0.01 0.12,0c0.07,-0.06 0.07,-0.06 0.12,-0.13c-0.02,-0.06 -0.02,-0.06 -0.05,-0.13c-0.09,-0.04 -0.11,-0.03 -0.19,0.03z" fill="#808080" id="svg_47"/>
   <path d="m7.76,3.35c0.05,0.12 0.07,0.25 0.05,0.38c-0.06,0.08 -0.12,0.1 -0.22,0.13c-0.09,0 -0.17,-0.01 -0.24,-0.05c-0.06,-0.1 -0.08,-0.21 -0.08,-0.33c0.07,-0.02 0.14,-0.04 0.22,-0.06c0.02,-0.01 0.04,-0.01 0.06,-0.02c0.02,-0.01 0.04,-0.01 0.06,-0.02c0.03,-0.01 0.03,-0.01 0.05,-0.02c0.05,-0.01 0.05,-0.01 0.09,-0.01zm-0.25,0.19c-0.02,0.01 -0.04,0.01 -0.07,0.02c-0.02,0.01 -0.03,0.01 -0.05,0.02c0.02,0.06 0.02,0.06 0.05,0.13c0.06,0.03 0.09,0.03 0.16,0.01c0.07,-0.04 0.09,-0.06 0.11,-0.13c-0.01,-0.03 -0.02,-0.05 -0.02,-0.08c-0.06,0 -0.11,0.02 -0.17,0.04z" fill="#808080" id="svg_48"/>
   <path d="m8.56,5.02c0.07,0.05 0.11,0.07 0.15,0.15c0,0.11 0,0.2 -0.07,0.29c-0.1,0.05 -0.16,0.04 -0.27,0.04c0.01,-0.13 0.03,-0.25 0.07,-0.38c-0.1,0.05 -0.1,0.05 -0.15,0.15c0.02,0.04 0.02,0.04 0.05,0.08c-0.01,0.07 -0.01,0.07 -0.02,0.13c-0.06,-0.04 -0.06,-0.04 -0.12,-0.1c-0.02,-0.08 -0.02,-0.15 0,-0.23c0.09,-0.15 0.21,-0.16 0.37,-0.13zm-0.02,0.13c-0.05,0.13 -0.05,0.13 -0.02,0.25c0.05,-0.03 0.05,-0.03 0.1,-0.08c0.01,-0.06 0.01,-0.06 0,-0.13c-0.02,-0.02 -0.05,-0.03 -0.07,-0.05z" fill="#808080" id="svg_49"/>
   <path d="m3.34,0.42c0.07,0.04 0.07,0.04 0.12,0.1c0.01,0.04 0.02,0.08 0.02,0.13c-0.16,0.05 -0.16,0.05 -0.32,0.1c0.02,0.03 0.05,0.05 0.07,0.08c0.05,0 0.05,0 0.1,-0.03c0.03,-0.05 0.03,-0.05 0.05,-0.1c0.03,0 0.06,0 0.1,0c-0.01,0.14 -0.01,0.14 -0.07,0.2c-0.09,0.04 -0.17,0.05 -0.27,0.03c-0.1,-0.09 -0.14,-0.14 -0.16,-0.27c0,-0.09 0.01,-0.1 0.07,-0.18c0.09,-0.07 0.17,-0.07 0.28,-0.05zm-0.22,0.13c-0.03,0.04 -0.03,0.04 -0.03,0.09c0.08,-0.02 0.16,-0.03 0.24,-0.05c0,-0.02 0,-0.03 0,-0.05c-0.11,-0.03 -0.11,-0.03 -0.22,0.01z" fill="#808080" id="svg_50"/>
   <path d="m2.54,7.76c0.08,0 0.14,0.01 0.2,0.06c0.06,0.08 0.08,0.12 0.07,0.23c-0.02,0.08 -0.06,0.14 -0.11,0.2c-0.08,0.04 -0.16,0.04 -0.24,0.03c-0.07,-0.03 -0.09,-0.06 -0.15,-0.13c-0.02,-0.08 -0.02,-0.15 0,-0.23c0.02,-0.02 0.05,-0.03 0.07,-0.05c0.1,0.05 0.19,0.1 0.29,0.15c0,-0.04 0,-0.08 0,-0.13c-0.09,-0.02 -0.09,-0.02 -0.17,-0.01c-0.01,0 -0.03,0.01 -0.05,0.01c-0.04,-0.04 -0.04,-0.04 -0.07,-0.08c0.06,-0.06 0.07,-0.06 0.15,-0.06zm-0.13,0.26c0.01,0.04 0.02,0.08 0.02,0.13c0.06,0.01 0.11,0.02 0.17,0.03c0,-0.03 0,-0.05 0,-0.08c-0.09,-0.06 -0.09,-0.06 -0.2,-0.08z" fill="#808080" id="svg_51"/>
   <path d="m7.24,1.23c0.07,0.03 0.09,0.06 0.15,0.13c0.02,0.1 0.01,0.18 -0.04,0.27c-0.01,0.01 -0.02,0.03 -0.04,0.04c-0.08,-0.04 -0.14,-0.09 -0.21,-0.14c-0.02,-0.02 -0.04,-0.03 -0.06,-0.05c-0.01,-0.01 -0.03,-0.02 -0.04,-0.04c0.01,0.05 0.02,0.1 0.02,0.15c0.03,0 0.05,0 0.08,0.01c0.09,0.02 0.09,0.02 0.12,0.07c0,0.02 0.01,0.03 0.01,0.05c-0.02,0.03 -0.02,0.03 -0.1,0.03c-0.12,-0.01 -0.16,-0.04 -0.24,-0.14c-0.03,-0.09 -0.03,-0.09 -0.02,-0.18c0.09,-0.17 0.18,-0.24 0.37,-0.2zm-0.15,0.1c0,0.02 0,0.03 0,0.05c0.08,0.09 0.08,0.09 0.2,0.13c-0.01,-0.05 -0.02,-0.1 -0.02,-0.15c-0.06,-0.01 -0.11,-0.02 -0.17,-0.03z" fill="#808080" id="svg_52"/>
   <path d="m1.05,3.4c0.03,0 0.06,0 0.1,0c-0.02,0.19 -0.02,0.19 -0.05,0.28c0.02,0 0.05,0 0.07,0c0.02,-0.08 0.03,-0.15 0.05,-0.23c0.04,0.01 0.08,0.02 0.12,0.03c-0.01,0.08 -0.02,0.15 -0.02,0.23c0.02,0.01 0.05,0.02 0.07,0.03c0,-0.03 0.01,-0.06 0.01,-0.08c0.01,-0.09 0.01,-0.09 0.04,-0.17c0.03,0.01 0.06,0.02 0.1,0.03c-0.01,0.13 -0.03,0.25 -0.07,0.38c-0.13,-0.02 -0.26,-0.05 -0.39,-0.08c-0.03,-0.01 -0.03,-0.01 -0.05,-0.01c-0.04,-0.01 -0.04,-0.01 -0.07,-0.06c0.01,-0.06 0.03,-0.11 0.05,-0.17c0.01,-0.03 0.02,-0.06 0.03,-0.09c0.01,-0.02 0.01,-0.05 0.02,-0.07z" fill="#808080" id="svg_53"/>
   <path d="m5.9,5.02c0.07,0.03 0.07,0.03 0.12,0.08c0.02,0.07 0.02,0.07 0.02,0.15c-0.04,0.08 -0.06,0.1 -0.15,0.13c-0.11,0.01 -0.19,0.01 -0.29,-0.04c-0.05,-0.06 -0.05,-0.06 -0.06,-0.14c0.02,-0.08 0.02,-0.08 0.06,-0.14c0.1,-0.06 0.18,-0.06 0.29,-0.04z" fill="#BBD9F9" id="svg_54"/>
   <path d="m7.05,2.97c0.19,0 0.37,0 0.56,0c0.02,0.13 0.02,0.13 0,0.17c-0.01,0.01 -0.03,0.03 -0.04,0.04c-0.02,0.02 -0.03,0.03 -0.05,0.05c-0.02,0.02 -0.03,0.03 -0.05,0.05c-0.02,0.02 -0.03,0.03 -0.05,0.05c-0.04,0.04 -0.08,0.08 -0.12,0.12c-0.02,-0.01 -0.05,-0.02 -0.07,-0.03c-0.02,-0.05 -0.02,-0.05 -0.02,-0.1c0.02,-0.02 0.03,-0.03 0.05,-0.05c-0.01,-0.09 -0.01,-0.09 -0.02,-0.18c-0.05,0 -0.1,0 -0.15,0c-0.01,-0.04 -0.02,-0.08 -0.02,-0.13zm0.29,0.13c0,0.02 0,0.03 0,0.05c0.05,-0.01 0.05,-0.01 0.1,-0.03c0.01,-0.02 0.02,-0.03 0.02,-0.05c-0.05,0 -0.05,0 -0.12,0.03z" fill="#808080" id="svg_55"/>
   <path d="m7.37,3.9c0.12,0.02 0.23,0.04 0.35,0.08c0.03,0.01 0.06,0.02 0.09,0.03c0.07,0.02 0.07,0.02 0.1,0.05c0,0.04 0,0.08 0,0.13c-0.15,0.08 -0.31,0.15 -0.46,0.23c-0.02,-0.02 -0.03,-0.03 -0.05,-0.05c0.01,-0.05 0.01,-0.05 0.02,-0.1c0.03,-0.01 0.06,-0.02 0.1,-0.03c-0.01,-0.06 -0.02,-0.12 -0.02,-0.18c-0.04,-0.01 -0.08,-0.02 -0.12,-0.03c0,-0.04 0,-0.08 0,-0.13zm0.24,0.2c0.01,0.03 0.02,0.05 0.02,0.08c0.02,-0.03 0.05,-0.05 0.07,-0.08c-0.03,0 -0.06,0 -0.1,0z" fill="#808080" id="svg_56"/>
   <path d="m1.56,1.46c0.03,0.01 0.05,0.01 0.08,0.02c-0.02,0.05 -0.02,0.05 -0.05,0.1c-0.04,0.01 -0.08,0.02 -0.12,0.03c-0.02,0.04 -0.02,0.04 -0.05,0.08c0.1,-0.03 0.1,-0.03 0.2,-0.08c0.07,-0.03 0.1,-0.02 0.17,0c0.05,0.08 0.05,0.08 0.05,0.15c-0.03,0.1 -0.06,0.14 -0.14,0.21c-0.07,0.01 -0.13,0.01 -0.2,0c0.01,-0.03 0.02,-0.07 0.02,-0.1c0.04,-0.01 0.04,-0.01 0.08,-0.02c0.03,-0.01 0.06,-0.02 0.09,-0.03c0.01,-0.03 0.02,-0.05 0.02,-0.08c-0.1,0.03 -0.1,0.03 -0.2,0.08c-0.06,0.03 -0.1,0.02 -0.17,0c-0.02,-0.02 -0.03,-0.03 -0.05,-0.05c0,-0.12 0.01,-0.16 0.09,-0.25c0.08,-0.05 0.08,-0.05 0.18,-0.05z" fill="#808080" id="svg_57"/>
   <path d="m2.95,1.25c0.08,0.03 0.13,0.09 0.19,0.15c0.07,0.07 0.13,0.13 0.21,0.18c0,0.02 0,0.03 0,0.05c-0.04,0.02 -0.08,0.03 -0.12,0.05c-0.02,-0.02 -0.03,-0.03 -0.05,-0.05c-0.09,0.01 -0.09,0.01 -0.17,0.03c0,0.04 0,0.08 0,0.13c-0.04,0.02 -0.08,0.03 -0.12,0.05c-0.02,-0.18 -0.03,-0.35 -0.05,-0.53c0.07,-0.05 0.07,-0.05 0.12,-0.05zm0.03,0.2c0.01,0.03 0.02,0.07 0.02,0.1c0.02,-0.02 0.03,-0.03 0.05,-0.05c-0.02,-0.02 -0.05,-0.03 -0.07,-0.05z" fill="#808080" id="svg_58"/>
   <path d="m4.46,8.25c0.07,0.05 0.07,0.05 0.12,0.13c0.02,0.09 0.02,0.17 0,0.25c-0.05,0.07 -0.08,0.09 -0.15,0.13c-0.12,0.01 -0.19,0 -0.29,-0.08c-0.06,-0.09 -0.06,-0.14 -0.05,-0.25c0.08,-0.17 0.19,-0.21 0.37,-0.18zm-0.2,0.12c-0.05,0.08 -0.05,0.12 -0.04,0.21c0.03,0.05 0.03,0.05 0.07,0.08c0.06,0.01 0.06,0.01 0.12,0c0.05,-0.04 0.05,-0.04 0.07,-0.1c-0.01,-0.08 -0.02,-0.13 -0.05,-0.2c-0.08,-0.03 -0.11,-0.04 -0.18,0.01z" fill="#808080" id="svg_59"/>
   <path d="m5.66,1.15c0,0.18 0,0.37 0,0.56c-0.04,-0.02 -0.08,-0.03 -0.12,-0.05c0,-0.04 0,-0.08 0,-0.13c-0.08,-0.02 -0.08,-0.02 -0.17,-0.03c-0.02,0.02 -0.03,0.03 -0.05,0.05c-0.08,-0.01 -0.08,-0.01 -0.15,-0.03c0.08,-0.11 0.16,-0.22 0.24,-0.32c0.02,-0.02 0.03,-0.03 0.05,-0.05c0.05,-0.03 0.05,-0.03 0.2,-0.01zm-0.15,0.15c-0.02,0.03 -0.03,0.07 -0.05,0.1c0.02,0.01 0.05,0.02 0.07,0.03c0,-0.04 0,-0.08 0,-0.13c-0.01,0 -0.02,0 -0.02,0z" fill="#808080" id="svg_60"/>
   <path d="m5.42,8.15c0.06,0.03 0.06,0.03 0.1,0.08c0,0.03 0,0.05 0,0.08c-0.05,0.02 -0.05,0.02 -0.1,0.03c-0.02,-0.02 -0.03,-0.03 -0.05,-0.05c-0.08,0 -0.08,0 -0.15,0c0,0.03 0,0.05 0,0.08c0.02,0 0.04,0 0.06,0c0.04,0 0.04,0 0.08,0.01c0.03,0 0.05,0 0.08,0.01c0.07,0.01 0.07,0.01 0.12,0.06c0,0.09 0,0.09 -0.02,0.18c-0.08,0.06 -0.11,0.06 -0.21,0.05c-0.04,0 -0.04,0 -0.07,0c-0.02,0 -0.04,0 -0.06,0c-0.02,-0.03 -0.03,-0.07 -0.05,-0.1c0.08,-0.02 0.14,-0.03 0.22,0c0.02,0 0.05,0 0.07,0c0,-0.03 0,-0.05 0,-0.08c-0.02,0 -0.02,0 -0.04,0c-0.12,0 -0.2,0 -0.3,-0.08c0,-0.08 0,-0.08 0.02,-0.18c0.1,-0.07 0.18,-0.09 0.29,-0.08z" fill="#808080" id="svg_61"/>
   <path d="m8.05,2.21c0.1,0.03 0.12,0.06 0.17,0.15c0.01,0.07 0,0.13 0,0.2c-0.03,0 -0.06,0 -0.1,0c-0.02,-0.08 -0.02,-0.08 -0.03,-0.14c-0.01,-0.03 -0.01,-0.03 -0.01,-0.06c-0.02,-0.01 -0.03,-0.02 -0.05,-0.03c0,0.02 0.01,0.03 0.01,0.05c0.02,0.1 0.02,0.18 0.01,0.28c-0.05,0.05 -0.05,0.05 -0.12,0.06c-0.1,-0.01 -0.13,-0.06 -0.2,-0.14c-0.03,-0.07 -0.03,-0.13 -0.02,-0.2c0.03,-0.02 0.06,-0.03 0.1,-0.05c0.02,0.04 0.02,0.04 0.05,0.08c-0.01,0.03 -0.02,0.07 -0.02,0.1c0.02,0.04 0.02,0.04 0.05,0.08c0.02,0 0.03,0 0.05,0c0,-0.02 -0.01,-0.03 -0.01,-0.05c-0.02,-0.1 -0.02,-0.18 -0.01,-0.28c0.07,-0.05 0.07,-0.05 0.14,-0.05z" fill="#808080" id="svg_62"/>
   <path d="m8.44,4.28c0,0.03 0,0.07 0,0.1c-0.02,0.01 -0.02,0.01 -0.05,0.03c0,0.05 0,0.1 0,0.15c0.02,0 0.03,0 0.05,0c0,-0.02 0.01,-0.03 0.01,-0.05c0.01,-0.02 0.01,-0.04 0.02,-0.06c0.01,-0.03 0.01,-0.03 0.02,-0.06c0.02,-0.05 0.02,-0.05 0.07,-0.11c0.07,-0.01 0.07,-0.01 0.15,0c0.05,0.04 0.05,0.04 0.07,0.1c0.01,0.1 0.02,0.19 -0.05,0.28c-0.06,0.02 -0.06,0.02 -0.12,0.03c0.02,-0.12 0.02,-0.12 0.05,-0.15c0,-0.04 0,-0.08 0,-0.13c-0.05,0.05 -0.07,0.1 -0.1,0.17c-0.01,0.02 -0.02,0.04 -0.03,0.06c-0.01,0.02 -0.01,0.03 -0.02,0.05c-0.16,0.01 -0.16,0.01 -0.21,-0.03c-0.06,-0.08 -0.04,-0.18 -0.03,-0.27c0.05,-0.1 0.06,-0.1 0.17,-0.1z" fill="#808080" id="svg_63"/>
   <path d="m7.51,1.53c0.05,0.01 0.05,0.01 0.1,0.03c0,0.03 0,0.05 0,0.08c0.02,0.01 0.04,0.01 0.06,0.02c0.06,0.03 0.06,0.03 0.11,0.11c0.01,0.07 0.01,0.07 0,0.15c-0.04,0.06 -0.04,0.06 -0.1,0.11c-0.02,0.02 -0.04,0.03 -0.06,0.05c-0.06,0.04 -0.11,0.07 -0.18,0.09c-0.02,-0.03 -0.03,-0.07 -0.05,-0.1c0.02,-0.01 0.03,-0.02 0.05,-0.04c0.02,-0.02 0.04,-0.03 0.06,-0.05c0.02,-0.02 0.04,-0.03 0.06,-0.05c0.05,-0.05 0.08,-0.08 0.1,-0.15c-0.02,-0.02 -0.03,-0.03 -0.05,-0.05c-0.1,0.01 -0.15,0.04 -0.23,0.12c-0.02,0.02 -0.03,0.03 -0.05,0.05c-0.01,0.01 -0.03,0.03 -0.04,0.04c-0.03,-0.02 -0.06,-0.03 -0.1,-0.05c0.03,-0.09 0.05,-0.11 0.12,-0.16c0.06,-0.05 0.11,-0.1 0.16,-0.15c0.02,-0.02 0.02,-0.02 0.04,-0.04z" fill="#808080" id="svg_64"/>
   <path d="m5.9,1.28c0.11,0.02 0.21,0.05 0.29,0.13c0.03,0.09 0.04,0.15 0,0.24c-0.07,0.06 -0.13,0.05 -0.22,0.04c-0.07,-0.03 -0.07,-0.03 -0.12,-0.05c-0.02,0.04 -0.03,0.08 -0.05,0.13c-0.04,-0.01 -0.08,-0.02 -0.12,-0.03c0.03,-0.11 0.08,-0.21 0.14,-0.31c0.02,-0.03 0.03,-0.05 0.05,-0.08c0.02,-0.03 0.02,-0.03 0.04,-0.06zm0.07,0.15c-0.02,0.03 -0.03,0.07 -0.05,0.1c0.07,0.01 0.07,0.01 0.15,0.03c0,-0.03 0,-0.05 0,-0.08c-0.03,-0.02 -0.06,-0.03 -0.1,-0.05z" fill="#808080" id="svg_65"/>
   <path d="m1.1,3.9c0,0.06 0,0.06 0,0.13c-0.02,0.02 -0.03,0.03 -0.05,0.05c0,0.03 0,0.07 0,0.1c0.07,0.04 0.14,0.03 0.22,0.03c0.02,-0.06 0.02,-0.06 0.02,-0.13c-0.03,-0.05 -0.03,-0.05 -0.07,-0.08c0.02,-0.03 0.03,-0.05 0.05,-0.08c0.06,0.01 0.09,0.02 0.14,0.07c0.04,0.08 0.04,0.12 0.03,0.21c-0.04,0.07 -0.08,0.11 -0.15,0.15c-0.11,0.01 -0.19,0.01 -0.29,-0.03c-0.05,-0.04 -0.05,-0.04 -0.1,-0.12c0,-0.08 0.01,-0.15 0.02,-0.23c0.06,-0.07 0.08,-0.08 0.17,-0.08z" fill="#808080" id="svg_66"/>
   <path d="m8.34,2.62c0.01,0.04 0.02,0.08 0.02,0.13c-0.04,0.02 -0.09,0.04 -0.13,0.06c-0.04,0.02 -0.04,0.02 -0.07,0.04c-0.06,0.03 -0.06,0.03 -0.11,0.03c0.01,0.04 0.02,0.08 0.02,0.13c0.09,0.04 0.16,0.01 0.25,-0.02c0.03,-0.01 0.05,-0.02 0.08,-0.03c0.02,-0.01 0.04,-0.02 0.06,-0.02c0.02,0.04 0.03,0.08 0.05,0.13c-0.07,0.03 -0.14,0.05 -0.2,0.08c-0.03,0.01 -0.03,0.01 -0.06,0.02c-0.02,0.01 -0.04,0.01 -0.06,0.02c-0.02,0.01 -0.03,0.01 -0.05,0.02c-0.05,0.01 -0.05,0.01 -0.12,0.01c-0.01,-0.04 -0.01,-0.04 -0.02,-0.07c-0.02,-0.08 -0.02,-0.08 -0.08,-0.16c0,-0.09 0,-0.09 0.02,-0.18c0.06,-0.04 0.1,-0.07 0.17,-0.1c0.02,-0.01 0.03,-0.02 0.05,-0.02c0.11,-0.05 0.11,-0.05 0.17,-0.05z" fill="#808080" id="svg_67"/>
   <path d="m3.61,1.05c0.05,0.03 0.05,0.03 0.07,0.08c0,0.02 0,0.03 0,0.05c-0.08,0.02 -0.11,0.03 -0.2,0c-0.02,0.02 -0.05,0.03 -0.07,0.05c0.01,0.1 0.01,0.1 0.05,0.2c0.04,0 0.08,0 0.12,0c0.01,-0.03 0.02,-0.07 0.02,-0.1c0.04,0 0.08,0 0.12,0c0,0.08 0,0.08 -0.02,0.18c-0.08,0.07 -0.13,0.08 -0.23,0.07c-0.09,-0.03 -0.12,-0.05 -0.18,-0.12c-0.03,-0.09 -0.03,-0.16 -0.02,-0.25c0.09,-0.15 0.18,-0.17 0.34,-0.15z" fill="#808080" id="svg_68"/>
   <path d="m3.66,8.17c0.03,0 0.06,0 0.1,0c-0.02,0.13 -0.03,0.27 -0.05,0.4c0.05,0 0.1,0 0.15,0c0.05,-0.08 0.06,-0.13 0.08,-0.22c0,-0.03 0.01,-0.05 0.01,-0.08c0,-0.02 0.01,-0.04 0.01,-0.06c0.03,0 0.06,0 0.1,0c0,0.07 -0.01,0.14 -0.01,0.21c0,0.03 0,0.03 0,0.06c0,0.02 0,0.04 0,0.06c0,0.02 0,0.04 0,0.05c-0.01,0.05 -0.01,0.05 -0.06,0.12c-0.02,0 -0.04,-0.01 -0.06,-0.01c-0.06,-0.01 -0.12,-0.02 -0.17,-0.02c-0.08,-0.02 -0.11,-0.02 -0.15,-0.09c-0.01,-0.15 0.02,-0.29 0.07,-0.43z" fill="#808080" id="svg_69"/>
   <path d="m2.64,1.51c0.02,0.03 0.03,0.05 0.05,0.08c-0.07,0.07 -0.13,0.07 -0.22,0.08c-0.03,0.08 -0.03,0.08 0,0.14c0.04,0.06 0.04,0.06 0.09,0.08c0.05,0.01 0.05,0.01 0.1,-0.02c0,-0.04 0,-0.08 0,-0.13c0.04,-0.01 0.08,-0.02 0.12,-0.03c0.02,0.03 0.02,0.03 0.03,0.09c-0.01,0.08 -0.01,0.08 -0.06,0.15c-0.08,0.06 -0.13,0.07 -0.22,0.07c-0.09,-0.02 -0.13,-0.07 -0.2,-0.14c-0.04,-0.08 -0.04,-0.16 -0.02,-0.25c0.09,-0.14 0.17,-0.15 0.32,-0.13z" fill="#808080" id="svg_70"/>
   <path d="m1.95,1.91c0.03,0.02 0.06,0.03 0.1,0.05c-0.04,0.07 -0.08,0.13 -0.12,0.2c0.03,-0.02 0.06,-0.03 0.1,-0.05c0.03,-0.02 0.07,-0.03 0.1,-0.05c0.02,0.03 0.03,0.07 0.05,0.1c-0.03,0.04 -0.06,0.08 -0.1,0.13c0.02,0.01 0.03,0.03 0.05,0.04c0.05,0.06 0.05,0.06 0.04,0.11c-0.02,0.05 -0.02,0.05 -0.07,0.07c-0.04,-0.04 -0.09,-0.07 -0.13,-0.11c-0.02,-0.02 -0.05,-0.04 -0.07,-0.06c-0.06,-0.05 -0.11,-0.1 -0.17,-0.16c0.03,-0.08 0.08,-0.13 0.14,-0.2c0.02,-0.02 0.03,-0.03 0.05,-0.05c0.02,-0.02 0.02,-0.02 0.04,-0.04z" fill="#808080" id="svg_71"/>
   <path d="m3.66,3.6c0.08,0.01 0.13,0.02 0.2,0.06c-0.15,0.39 -0.15,0.39 -0.29,0.48c-0.02,0 -0.03,0 -0.05,0c0,-0.05 0,-0.11 0,-0.16c0,-0.03 0,-0.06 0,-0.09c0,-0.08 0,-0.08 0.03,-0.13c-0.02,0 -0.03,0 -0.05,0c0.07,-0.15 0.07,-0.15 0.17,-0.16z" fill="#C7E8FD" id="svg_72"/>
   <path d="m3.49,4.21c0.09,0.16 0.1,0.31 0.1,0.49c0,0.02 0,0.04 0,0.06c0,0.05 0,0.1 0,0.15c-0.02,0.01 -0.05,0.02 -0.07,0.03c0.01,0.04 0.02,0.08 0.02,0.13c-0.05,0.02 -0.1,0.03 -0.15,0.05c0.01,-0.23 0.02,-0.46 0.05,-0.7c0,-0.02 0,-0.04 0.01,-0.06c0.02,-0.13 0.02,-0.13 0.04,-0.16z" fill="#C4E4FB" id="svg_73"/>
   <path d="m4.6,0.05c0.02,0 0.05,0.01 0.07,0.01c0.02,0 0.04,0 0.06,0.01c0,0.04 0,0.08 0,0.13c-0.04,0 -0.08,0 -0.12,0c0,-0.02 0,-0.03 0,-0.05c-0.09,0.03 -0.09,0.03 -0.15,0.1c0.03,0 0.06,0 0.1,0c0,0.03 0,0.05 0,0.08c-0.03,0 -0.06,0 -0.1,0c0,0.13 0,0.27 0,0.4c-0.03,0 -0.06,0 -0.1,0c0,-0.13 0,-0.27 0,-0.4c-0.03,-0.01 -0.06,-0.02 -0.1,-0.03c0,-0.02 0,-0.03 0,-0.05c0.03,0 0.06,0 0.1,0c0,-0.05 0,-0.1 0,-0.15c0.08,-0.05 0.14,-0.05 0.24,-0.04z" fill="#808080" id="svg_74"/>
   <path d="m1.51,2.41c0.03,0.02 0.06,0.03 0.1,0.05c-0.02,0.05 -0.03,0.1 -0.05,0.15c0.02,0.01 0.03,0.01 0.05,0.02c0.1,0.04 0.18,0.1 0.27,0.16c-0.01,0.03 -0.02,0.07 -0.02,0.1c-0.09,-0.01 -0.16,-0.04 -0.24,-0.09c-0.07,-0.05 -0.07,-0.05 -0.15,-0.06c-0.02,0.04 -0.02,0.04 -0.05,0.08c-0.03,-0.01 -0.06,-0.02 -0.1,-0.03c0.04,-0.15 0.11,-0.26 0.2,-0.38z" fill="#808080" id="svg_75"/>
   <path d="m4.83,8.22c0.06,0 0.06,0 0.12,0c0.07,0.07 0.07,0.13 0.09,0.22c0.01,0.03 0.01,0.06 0.02,0.09c0.01,0.03 0.01,0.03 0.01,0.07c0.02,0 0.03,0 0.05,0c0,0.03 0,0.07 0,0.1c-0.02,0.01 -0.03,0.02 -0.05,0.03c-0.02,0.06 -0.02,0.06 -0.02,0.13c-0.03,0.01 -0.06,0.02 -0.1,0.03c0,-0.05 0,-0.1 0,-0.15c-0.03,0 -0.06,0 -0.1,0c0,-0.03 0,-0.07 0,-0.1c0.02,0 0.05,0 0.07,0c-0.02,-0.09 -0.03,-0.18 -0.05,-0.28c-0.02,-0.01 -0.05,-0.02 -0.07,-0.03c0.01,-0.03 0.02,-0.07 0.02,-0.1z" fill="#808080" id="svg_76"/>
   <path d="m8.68,4.74c0.02,0 0.05,0 0.07,0c0,0.03 0,0.05 0,0.08c0.04,0 0.08,0 0.12,0c0.01,0.04 0.02,0.08 0.02,0.13c-0.02,0 -0.05,0.01 -0.07,0.01c-0.02,0.01 -0.05,0.01 -0.07,0.02c-0.01,0.02 -0.02,0.03 -0.02,0.05c-0.02,0 -0.05,0 -0.07,0c0,-0.03 0,-0.07 0,-0.1c-0.1,-0.01 -0.21,-0.02 -0.32,-0.03c0,0.03 0,0.05 0,0.08c-0.03,0 -0.06,0 -0.1,0c0,-0.06 0,-0.06 0,-0.13c0.05,-0.05 0.05,-0.05 0.13,-0.05c0.06,0 0.12,0 0.19,0.01c0.08,0.01 0.08,0.01 0.13,-0.05z" fill="#808080" id="svg_77"/>
   <path d="m1.39,6.66c0,0.03 0,0.05 0,0.08c-0.04,0.04 -0.04,0.04 -0.11,0.08c-0.03,0.02 -0.03,0.02 -0.07,0.05c-0.02,0.02 -0.05,0.03 -0.07,0.05c-0.02,0.02 -0.05,0.03 -0.07,0.05c-0.06,0.04 -0.12,0.08 -0.17,0.12c-0.03,-0.02 -0.06,-0.03 -0.1,-0.05c0.05,-0.13 0.15,-0.18 0.27,-0.26c0.02,-0.01 0.04,-0.03 0.06,-0.04c0.02,-0.01 0.04,-0.03 0.06,-0.04c0.03,-0.02 0.03,-0.02 0.05,-0.04c0.06,-0.03 0.09,-0.02 0.15,0z" fill="#808080" id="svg_78"/>
   <path d="m0.9,2.16c0.02,0.03 0.05,0.05 0.07,0.08c-0.02,0.04 -0.03,0.08 -0.05,0.13c0.01,0.01 0.03,0.02 0.05,0.03c0.02,0.01 0.04,0.03 0.06,0.04c0.02,0.01 0.04,0.03 0.06,0.04c0.05,0.04 0.09,0.07 0.13,0.12c-0.02,0.03 -0.05,0.05 -0.07,0.08c-0.14,-0.08 -0.27,-0.15 -0.41,-0.23c0.01,-0.03 0.02,-0.07 0.02,-0.1c0.02,0 0.03,0 0.05,0c0,-0.02 0.01,-0.04 0.01,-0.06c0.02,-0.07 0.02,-0.07 0.09,-0.12z" fill="#808080" id="svg_79"/>
   <path d="m5.64,3.05c0.07,-0.01 0.07,-0.01 0.15,0c0.07,0.06 0.12,0.12 0.17,0.2c0,0.06 0,0.06 0,0.13c0,0.02 0,0.05 0,0.07c0,0.03 0,0.03 0,0.05c-0.05,0.02 -0.1,0.03 -0.15,0.05c0,-0.02 -0.01,-0.04 -0.01,-0.07c0,-0.03 -0.01,-0.06 -0.01,-0.09c-0.01,-0.04 -0.01,-0.04 -0.01,-0.09c-0.02,-0.11 -0.05,-0.18 -0.14,-0.26z" fill="#0B0D9D" id="svg_80"/>
   <path d="m2.12,1.76c0.08,0.04 0.13,0.08 0.18,0.15c0.01,0.02 0.03,0.03 0.04,0.05c0.04,0.05 0.08,0.1 0.11,0.15c-0.02,0.03 -0.03,0.07 -0.05,0.1c-0.1,-0.04 -0.17,-0.12 -0.24,-0.2c-0.01,-0.01 -0.02,-0.03 -0.04,-0.04c-0.09,-0.1 -0.09,-0.1 -0.09,-0.16c0.02,-0.02 0.05,-0.03 0.07,-0.05z" fill="#808080" id="svg_81"/>
   <path d="m1.64,2.26c0.11,0.04 0.19,0.1 0.28,0.17c0.01,0.01 0.03,0.02 0.04,0.03c0.03,0.03 0.07,0.05 0.1,0.08c-0.02,0.04 -0.03,0.08 -0.05,0.13c-0.15,-0.08 -0.28,-0.19 -0.41,-0.3c0.02,-0.03 0.03,-0.07 0.05,-0.1z" fill="#808080" id="svg_82"/>
   <path d="m3.78,0.98c0.03,0 0.06,0 0.1,0c0.05,0.17 0.06,0.33 0.07,0.51c-0.04,0 -0.08,0 -0.12,0c-0.01,-0.08 -0.03,-0.16 -0.04,-0.24c0,-0.02 -0.01,-0.05 -0.01,-0.07c0,-0.02 -0.01,-0.04 -0.01,-0.07c0,-0.02 -0.01,-0.04 -0.01,-0.06c0,-0.02 0,-0.03 0,-0.05c0.01,-0.01 0.02,-0.02 0.02,-0.03z" fill="#808080" id="svg_83"/>
   <path d="m1.26,6.47c0.02,0.02 0.02,0.02 0.04,0.03c-0.03,0.08 -0.04,0.09 -0.11,0.13c-0.02,0.02 -0.02,0.02 -0.05,0.03c-0.03,0.02 -0.03,0.02 -0.05,0.03c-0.02,0.01 -0.03,0.02 -0.05,0.03c-0.04,0.03 -0.09,0.05 -0.13,0.08c-0.02,-0.02 -0.05,-0.03 -0.07,-0.05c0,-0.03 0,-0.05 0,-0.08c0.06,-0.04 0.11,-0.08 0.18,-0.12c0.02,-0.01 0.03,-0.02 0.05,-0.03c0.12,-0.08 0.12,-0.08 0.2,-0.05z" fill="#808080" id="svg_84"/>
   <path d="m7.07,6.28c0.06,0.02 0.06,0.02 0.12,0.05c0.02,0.05 0.02,0.05 0.02,0.1c-0.03,0.05 -0.03,0.05 -0.07,0.09c-0.01,0.02 -0.03,0.03 -0.04,0.05c-0.01,0.01 -0.02,0.02 -0.03,0.04c-0.06,-0.02 -0.06,-0.02 -0.12,-0.05c-0.01,-0.03 -0.02,-0.05 -0.02,-0.08c0.03,-0.05 0.03,-0.05 0.07,-0.11c0.01,-0.02 0.03,-0.04 0.04,-0.05c0.01,-0.01 0.02,-0.03 0.03,-0.04z" fill="#898989" id="svg_85"/>
   <path d="m1.66,6.28c0.1,0.04 0.15,0.11 0.22,0.2c0,0.02 0,0.03 0,0.05c-0.06,0.06 -0.08,0.08 -0.17,0.08c-0.04,-0.04 -0.04,-0.04 -0.08,-0.1c-0.01,-0.02 -0.03,-0.04 -0.04,-0.05c-0.01,-0.02 -0.02,-0.03 -0.03,-0.05c0.02,-0.08 0.02,-0.08 0.1,-0.13z" fill="#898989" id="svg_86"/>
   <path d="m1.39,5.72c0.03,0.04 0.03,0.04 0.05,0.1c0.01,0.02 0.02,0.04 0.02,0.05c0.02,0.05 0.02,0.05 0.02,0.1c-0.06,0.04 -0.09,0.05 -0.17,0.05c-0.02,-0.04 -0.04,-0.07 -0.06,-0.11c-0.02,-0.03 -0.02,-0.03 -0.03,-0.06c-0.03,-0.05 -0.03,-0.05 -0.03,-0.11c0.07,-0.05 0.11,-0.06 0.2,-0.03z" fill="#717171" id="svg_87"/>
   <path d="m7.27,6c0.05,0.02 0.1,0.03 0.15,0.05c-0.01,0.11 -0.06,0.19 -0.12,0.28c-0.09,-0.02 -0.1,-0.03 -0.17,-0.1c0.05,-0.08 0.1,-0.15 0.15,-0.23z" fill="#717171" id="svg_88"/>
   <path d="m1.54,6c0.04,0.04 0.04,0.04 0.07,0.09c0.02,0.03 0.02,0.03 0.03,0.05c0.02,0.05 0.02,0.05 0,0.11c-0.03,0.05 -0.03,0.05 -0.13,0.07c-0.05,-0.08 -0.1,-0.15 -0.15,-0.23c0.09,-0.1 0.09,-0.1 0.17,-0.1z" fill="#727272" id="svg_89"/>
   <path d="m1.27,5.42c0.05,0.09 0.07,0.15 0.07,0.25c-0.06,0.02 -0.11,0.03 -0.17,0.05c-0.02,-0.04 -0.03,-0.08 -0.05,-0.12c-0.01,-0.02 -0.02,-0.05 -0.03,-0.07c-0.02,-0.06 -0.02,-0.06 -0.02,-0.11c0.08,-0.03 0.11,-0.03 0.2,0z" fill="#727272" id="svg_90"/>
   <path d="m7.64,5.07c0.06,0.01 0.11,0.02 0.17,0.03c-0.02,0.09 -0.03,0.18 -0.05,0.28c-0.07,0.03 -0.07,0.03 -0.2,-0.03c0.02,-0.09 0.05,-0.18 0.07,-0.28z" fill="#747474" id="svg_91"/>
   <path d="m0.93,4.74c0.06,0 0.11,0 0.17,0c0.05,0.19 0.05,0.19 0.05,0.28c-0.06,0.01 -0.11,0.02 -0.17,0.03c-0.03,-0.1 -0.06,-0.19 -0.05,-0.3z" fill="#777777" id="svg_92"/>
   <path d="m4.12,0.24c0.03,0 0.06,0 0.1,0c0.03,0.1 0.03,0.2 0.03,0.31c0,0.02 0,0.04 0,0.06c0,0.05 0,0.09 0,0.14c-0.03,0 -0.06,0 -0.1,0c-0.03,-0.17 -0.03,-0.33 -0.02,-0.51z" fill="#808080" id="svg_93"/>
   <path d="m7.42,5.7c0.12,0.02 0.12,0.02 0.17,0.05c-0.02,0.11 -0.07,0.19 -0.12,0.28c-0.05,-0.02 -0.1,-0.03 -0.15,-0.05c0.01,-0.1 0.05,-0.19 0.1,-0.28z" fill="#757575" id="svg_94"/>
   <path d="m7.54,5.39c0.06,0.01 0.11,0.02 0.17,0.03c-0.01,0.04 -0.01,0.07 -0.02,0.11c0,0.02 -0.01,0.04 -0.01,0.06c-0.02,0.06 -0.04,0.09 -0.09,0.13c-0.06,-0.03 -0.06,-0.03 -0.12,-0.05c0.01,-0.1 0.03,-0.19 0.07,-0.28z" fill="#777777" id="svg_95"/>
   <path d="m1.17,5.07c0.02,0.09 0.03,0.18 0.05,0.28c-0.06,0.02 -0.11,0.03 -0.17,0.05c-0.03,-0.1 -0.06,-0.19 -0.05,-0.3c0.05,-0.03 0.05,-0.03 0.17,-0.03z" fill="#777777" id="svg_96"/>
   <path d="m7.68,4.74c0.06,0 0.11,0 0.17,0c0,0.22 0,0.22 -0.02,0.3c-0.05,0 -0.1,0 -0.15,0c-0.01,-0.01 -0.02,-0.02 -0.02,-0.03c0,-0.05 0.01,-0.09 0.01,-0.14c0,-0.03 0,-0.05 0.01,-0.08c0,-0.02 0,-0.04 0.01,-0.06z" fill="#7A7A7A" id="svg_97"/>
   <path d="m8.76,4.08c0,0.03 0,0.07 0,0.1c-0.11,0.02 -0.21,0.03 -0.33,0.03c-0.05,0 -0.05,0 -0.09,0c-0.03,0 -0.03,0 -0.07,0c0,-0.03 0,-0.07 0,-0.1c0.16,-0.03 0.32,-0.03 0.49,-0.03z" fill="#808080" id="svg_98"/>
   <path d="m4.66,8.25c0.03,0 0.06,0 0.1,0c0.03,0.16 0.03,0.32 0.02,0.48c-0.03,0 -0.06,0 -0.1,0c-0.03,-0.1 -0.03,-0.2 -0.03,-0.3c0,-0.02 0,-0.04 0,-0.05c0,-0.04 0,-0.09 0,-0.13z" fill="#808080" id="svg_99"/>
   <path d="m5.22,4.44c0,0.02 0.01,0.04 0.01,0.06c0,0.02 0.01,0.05 0.01,0.08c0.01,0.04 0.01,0.04 0.01,0.07c0.01,0.06 0.02,0.11 0.04,0.17c-0.13,-0.01 -0.13,-0.01 -0.19,-0.08c-0.03,-0.09 -0.03,-0.16 -0.03,-0.25c0.09,-0.05 0.09,-0.05 0.15,-0.05z" fill="#0C0D9E" id="svg_100"/>
   <path d="m4.61,0.24c0.04,0 0.08,0 0.12,0c-0.01,0.16 -0.02,0.32 -0.02,0.48c-0.03,0 -0.06,0 -0.1,0c0,-0.16 0,-0.32 0,-0.48z" fill="#808080" id="svg_101"/>
   <path d="m5.78,5.12c0.06,0 0.11,0 0.17,0c0.01,0.03 0.02,0.05 0.02,0.08c-0.01,0.02 -0.02,0.03 -0.02,0.05c0.03,-0.03 0.06,-0.05 0.1,-0.08c-0.02,0.12 -0.02,0.12 -0.07,0.18c-0.02,0 -0.05,0 -0.07,0c0,-0.02 0,-0.03 0,-0.05c-0.04,0 -0.08,0 -0.12,0c0,-0.06 0,-0.12 0,-0.18z" fill="#7685E2" id="svg_102"/>
   <path d="m4.22,5.27c0.02,0 0.03,0 0.05,0c0.02,0.04 0.03,0.08 0.05,0.13c-0.11,0.05 -0.21,0.06 -0.33,0.05c-0.03,0 -0.06,0 -0.09,0c-0.03,0 -0.03,0 -0.07,0c0,-0.01 0,-0.02 0,-0.03c0.02,0 0.02,0 0.04,0c0.15,-0.01 0.24,-0.04 0.35,-0.15z" fill="#16169D" id="svg_103"/>
   <path d="m5.2,7.19c0.05,0 0.05,0 0.09,0c0,0.01 0,0.02 0,0.03c-0.02,0 -0.03,0 -0.05,0c-0.02,0 -0.04,0 -0.07,0c-0.02,0 -0.04,0 -0.07,0c-0.06,0.01 -0.06,0.01 -0.09,0.06c-0.01,0.02 -0.01,0.03 -0.02,0.05c-0.02,0.02 -0.03,0.03 -0.05,0.05c-0.01,0.05 -0.01,0.05 -0.02,0.1c0,0.03 -0.01,0.06 -0.01,0.1c-0.01,0 -0.02,0 -0.02,0c-0.02,-0.23 -0.02,-0.23 0.06,-0.33c0.08,-0.06 0.14,-0.08 0.24,-0.08z" fill="#363636" id="svg_104"/>
   <path d="m3.93,6.73c0.01,0.05 0.02,0.1 0.02,0.15c-0.07,-0.01 -0.14,-0.02 -0.22,-0.03c0,-0.03 0,-0.05 0,-0.08c0.07,-0.03 0.12,-0.05 0.2,-0.05z" fill="#CCE7F9" id="svg_105"/>
   <path d="m5.68,5.22c0.01,0.02 0.02,0.03 0.02,0.05c0.02,0 0.03,0 0.05,0c0.01,-0.02 0.02,-0.03 0.02,-0.05c0,0.03 0,0.05 0,0.08c0.04,0 0.08,0 0.12,0c0,0.03 0,0.05 0,0.08c-0.07,0 -0.14,0 -0.22,0c-0.02,-0.08 -0.02,-0.08 0,-0.15z" fill="#BEDCFA" id="svg_106"/>
   <path d="m2.83,6.83c0.02,0.02 0.03,0.03 0.05,0.05c-0.03,0 -0.06,0 -0.09,-0.01c-0.08,0 -0.1,0 -0.16,0.05c-0.04,0.06 -0.05,0.11 -0.06,0.18c-0.01,0 -0.02,0 -0.02,0c-0.01,-0.16 -0.01,-0.16 0.04,-0.24c0.09,-0.06 0.15,-0.05 0.26,-0.04z" fill="#454545" id="svg_107"/>
   <path d="m4.39,8.78c-0.02,0.05 -0.03,0.1 -0.05,0.15c-0.04,0 -0.08,0 -0.12,0c0,-0.08 0,-0.08 0.03,-0.12c0.04,-0.03 0.04,-0.03 0.14,-0.03z" fill="#808080" id="svg_108"/>
   <path d="m7.07,6.28c0.06,0.02 0.06,0.02 0.12,0.05c0.02,0.05 0.02,0.05 0.02,0.1c-0.02,0.01 -0.02,0.01 -0.05,0.03c0,-0.03 0,-0.05 0,-0.08c-0.09,0.02 -0.15,0.05 -0.22,0.1c0.03,-0.07 0.07,-0.14 0.12,-0.2z" fill="#3E3E3E" id="svg_109"/>
   <path d="m1.66,6.28c0.03,0.02 0.06,0.03 0.1,0.05c0,0.03 0,0.05 0,0.08c-0.02,-0.02 -0.05,-0.03 -0.07,-0.05c-0.02,0.06 -0.02,0.11 -0.02,0.18c-0.05,-0.06 -0.05,-0.06 -0.1,-0.13c0.02,-0.08 0.02,-0.08 0.1,-0.13z" fill="#3C3C3C" id="svg_110"/>
   <path d="m4.2,4.81c0.06,0.03 0.06,0.03 0.12,0.05c-0.02,0.05 -0.03,0.1 -0.05,0.15c-0.05,-0.04 -0.05,-0.04 -0.1,-0.1c0.01,-0.06 0.01,-0.06 0.02,-0.1z" fill="#0C0C9B" id="svg_111"/>
   <path d="m0.76,6.73c0.04,0.03 0.04,0.03 0.07,0.08c0,0.02 0,0.03 0,0.05c-0.04,0.01 -0.08,0.02 -0.12,0.03c-0.02,-0.03 -0.03,-0.07 -0.05,-0.1c0.03,-0.02 0.06,-0.03 0.1,-0.05z" fill="#808080" id="svg_112"/>
   <path d="m8.81,4.06c0.04,0 0.08,0 0.12,0c0,0.04 0,0.08 0,0.13c-0.04,0 -0.08,0 -0.12,0c0,-0.04 0,-0.08 0,-0.13z" fill="#808080" id="svg_113"/>
   <path d="m4.1,0.07c0.04,0 0.08,0 0.12,0c0,0.04 0,0.08 0,0.13c-0.04,0 -0.08,0 -0.12,0c0,-0.04 0,-0.08 0,-0.13z" fill="#808080" id="svg_114"/>
   <path d="m2.39,6.53c0.05,0.03 0.1,0.07 0.15,0.1c-0.02,0 -0.05,0 -0.07,0c-0.07,0.01 -0.13,0.04 -0.2,0.08c0.03,-0.07 0.06,-0.12 0.12,-0.18z" fill="#353535" id="svg_115"/>
   <path d="m0.59,4.84c0.04,0 0.08,0 0.12,0c0,0.03 0,0.07 0,0.1c-0.04,0.01 -0.08,0.02 -0.12,0.03c0,-0.04 0,-0.08 0,-0.13z" fill="#808080" id="svg_116"/>
   <path d="m4.03,3.53c-0.04,0.11 -0.11,0.16 -0.2,0.23c0.03,-0.1 0.08,-0.23 0.2,-0.23z" fill="#8D8EB7" id="svg_117"/>
   <path d="m4.68,8.8c0.04,0 0.08,0 0.12,0c0,0.03 0,0.07 0,0.1c-0.04,0 -0.08,0 -0.12,0c0,-0.03 0,-0.07 0,-0.1z" fill="#808080" id="svg_118"/>
   <path d="m5.85,5.12c0.06,0.01 0.06,0.01 0.12,0.03c-0.02,0.05 -0.02,0.05 -0.05,0.1c-0.02,0.01 -0.05,0.02 -0.07,0.03c0,-0.05 0,-0.1 0,-0.15z" fill="#6671DD" id="svg_119"/>
   <path d="m5.66,5.12c0.02,0 0.03,0 0.05,0c0.02,0.07 0.02,0.07 0.02,0.15c-0.02,0.02 -0.03,0.03 -0.05,0.05c-0.02,0 -0.05,0 -0.07,0c0.02,-0.07 0.03,-0.13 0.05,-0.2z" fill="#8091E5" id="svg_120"/>
  </g>
 </g>
</svg>