<?xml version="1.0"?>
<svg width="147.1" height="15.41" xmlns="http://www.w3.org/2000/svg" xmlns:svg="http://www.w3.org/2000/svg" version="1.1">
 <g class="layer">
  <title>Layer 1</title>
  <g id="svg_164">
   <path d="m45.25,3.7l0.67,0l0.5,0.37l0.25,0.59l0,1.77l-0.34,1.47l-0.59,2.36l-0.08,0.15l0.17,0l0.17,-0.44l0.92,-1.33l1.34,-1.7l1.51,-1.77l0.59,-0.59l1.09,-0.59l0.59,-0.22l1.01,0l0.42,0.44l0.17,0.44l-0.08,1.25l-0.59,2.14l-0.42,1.7l-0.25,1.03l-0.08,0.59l0,0.88l0.25,0.44l0.08,0.07l0.67,0l0.84,-0.37l1.34,-0.88l0.67,-0.59l0.25,-1.62l0.67,-1.47l0.67,-1.11l0.92,-0.96l0.67,-0.66l0.17,0l0,-0.15l0.92,-0.59l0.76,-0.29l0.34,-0.07l1.09,0l0.59,0.22l0.42,0.37l0.5,0.59l0.17,0.52l0,1.11l-0.17,1.11l-0.5,1.47l-1.01,1.7l-0.67,0.74l-1.18,1.11l-0.76,0.44l-0.92,0.29l-0.67,0l-0.84,-0.29l-0.84,-0.66l-0.42,-0.74l-0.17,-0.44l-0.92,0.81l-1.01,0.66l-1.26,0.59l-0.59,0.15l-0.76,0l-0.5,-0.37l-0.25,-0.52l0,-1.4l0.25,-1.18l0.67,-2.43l0.34,-1.7l0,-0.88l-0.34,-0.44l-0.59,0.07l-0.67,0.44l-0.59,0.59l-0.92,1.11l-1.09,1.47l-0.84,1.25l-1.01,1.62l-0.76,1.62l-0.84,0.44l-0.42,0.15l-0.25,0l0.08,-0.74l0.5,-1.7l0.17,-0.96l0.17,-0.22l0.25,-1.18l0.42,-1.99l0.08,-0.07l0,-1.25l-0.25,-0.66l-0.17,-0.15l-0.67,0.07l-1.34,0.88l-0.84,0.66l-0.59,0.59l0,0.52l-0.5,1.55l-0.5,1.11l-0.84,1.25l-0.76,0.81l-0.76,0.74l-0.92,0.52l-0.92,0.29l-0.59,0l-0.84,-0.29l-0.76,-0.52l-0.42,-0.59l-0.17,-0.44l-0.08,-0.96l0.17,-1.47l0.42,-0.96l0.84,-1.55l1.09,-1.18l1.18,-1.03l0.84,-0.44l0.84,-0.22l1.09,0l0.67,0.29l0.67,0.74l0.34,0.81l0,0.22l1.26,-1.11l0.5,-0.29l0.59,-0.44l0.92,-0.44l0.34,-0.07z" fill="#221F21" id="svg_2"/>
   <path d="m104.22,3.11l0.34,0l0,0.59l-1.01,2.73l-0.92,2.21l-0.67,1.77l-0.25,0.96l0,1.03l0.34,0.59l0.34,0.15l0.5,-0.07l0.76,-0.44l0.84,-0.66l0.59,-0.59l0.84,-0.96l0.76,-0.81l0.5,-0.96l0.67,-1.11l0.59,-0.74l1.01,-0.96l0.92,-0.74l1.09,-0.66l1.26,-0.44l1.34,0.15l0.34,0.37l0,0.59l-0.59,0.88l-0.76,0.66l-0.76,0.52l-1.85,0.74l-1.34,0.37l-0.59,0.07l-0.25,0.59l-0.34,0.96l0,1.03l0.34,0.74l0.59,0.66l0.84,0.37l1.01,0l0.84,-0.29l1.26,-0.66l0.76,-0.66l0.67,-0.81l0.67,-0.88l0.5,-0.37l0.34,0.29l-0.08,0.37l-0.67,0.88l-0.76,0.81l-0.34,0.37l-1.09,0.74l-1.43,0.66l-1.18,0.37l-0.42,0.07l-1.26,-0.07l-0.92,-0.22l-0.5,-0.29l-0.42,-0.59l-0.25,-0.66l0,-0.96l-0.17,0l-0.17,0.37l-0.92,0.96l-1.01,0.88l-1.26,0.74l-0.76,0.15l-0.84,0l-0.67,-0.44l-0.25,-0.29l-0.17,-0.66l0.08,-1.47l-0.67,0.74l-0.84,0.66l-1.01,0.66l-1.09,0.52l-0.34,0.07l-0.76,0l-0.5,-0.22l-0.42,-0.59l-0.08,-0.74l0.25,-1.4l0.42,-1.55l0.17,-0.59l0.17,-1.55l0,-1.03l-0.25,-0.74l-0.08,-0.15l-0.42,0.07l-0.92,0.81l-1.01,1.25l-0.67,1.18l-0.67,1.33l-0.67,1.77l-0.34,1.11l-0.76,0.52l-0.76,0.37l-0.25,-0.07l0.42,-1.11l0.5,-1.77l0.25,-1.33l0.17,-1.77l0,-1.11l-0.08,-0.74l-0.42,-0.37l-0.42,0.22l-0.67,0.59l-0.92,1.11l-1.01,1.4l-1.18,2.14l-0.67,1.33l-0.59,1.03l-1.01,0.59l-0.34,0.07l-0.08,-0.29l0.84,-1.84l0.34,-0.88l0.42,-1.7l0.17,-0.88l0,-1.84l-0.25,-0.66l-0.34,-0.37l-0.34,-0.15l-0.5,0.07l-0.59,0.29l-0.76,0.59l-0.42,0.37l-0.17,0l0.17,-0.44l0.59,-0.81l0.76,-0.66l0.84,-0.44l0.25,-0.07l0.84,0l0.59,0.29l0.42,0.59l0.25,0.74l0,1.92l-0.17,1.11l-0.17,0.37l0.34,-0.29l0.5,-0.81l0.76,-1.03l0.67,-0.88l0.67,-0.66l0.59,-0.59l0.67,-0.59l0.59,-0.29l0.5,0l0.42,0.37l0.17,0.52l0,2.8l-0.08,0.96l0.34,-0.29l0.67,-1.11l0.92,-1.18l1.26,-1.18l0.84,-0.52l0.5,-0.15l0.59,0.07l0.5,0.59l0.08,0.22l0,1.47l-0.42,2.36l-0.5,2.29l0,1.18l0.25,0.52l0.34,0.15l0.5,-0.07l0.92,-0.52l1.26,-1.03l0.92,-0.81l0.5,-0.74l0.76,-2.14l0.59,-2.06l0.25,-0.96l0.17,-0.74l0.5,-0.37l1.18,-0.37z" fill="#221F21" id="svg_3"/>
   <path d="m135.89,0.38l0.25,0.07l-0.5,1.47l-0.5,1.03l-0.67,1.7l1.34,0l0.84,-0.07l1.34,0l0.08,0.07l0.59,0.07l0.08,-0.15l0.08,0.07l0,0.37l-0.5,0.15l-3.78,0.22l-0.42,0.07l-0.42,1.18l-0.42,1.33l-0.34,1.47l-0.17,0.52l0,1.55l0.42,0.74l0.42,0.37l0.76,0.29l0.76,0l1.01,-0.44l0.84,-0.74l0.76,-0.81l0.17,-0.07l0.25,-1.55l0.76,-1.55l0.59,-1.03l1.09,-1.11l1.09,-0.96l1.01,-0.52l0.67,-0.15l1.01,0l0.59,0.22l0.42,0.29l0.59,0.81l0.08,0.22l0,1.55l-0.25,1.11l-0.5,1.33l-0.92,1.55l-0.67,0.74l-0.76,0.74l-0.76,0.59l-0.84,0.37l-0.5,0.15l-0.67,0l-0.76,-0.29l-0.67,-0.44l-0.42,-0.44l-0.25,-0.59l-0.08,-0.59l-0.59,0.66l-0.42,0.44l-1.09,0.74l-1.26,0.52l-0.34,0.07l-1.43,0l-0.76,-0.37l-0.5,-0.59l-0.25,-0.52l-0.08,-0.37l0,-1.25l0.34,-1.33l0.42,-1.18l0.25,-0.37l0.34,-1.18l0.42,-1.11l-2.6,0l-0.08,-0.37l0.17,-0.37l1.43,-0.07l1.34,0l0.34,-0.81l0.67,-2.06l0.25,-0.74l0.67,-0.37l0.67,-0.29z" fill="#221F21" id="svg_4"/>
   <path d="m2.4,2.3l2.44,0l1.43,0.29l1.18,0.37l0.92,0.59l0.67,0.66l0.42,0.81l0,0.96l-0.25,0.74l-0.34,0.44l-0.76,0.74l-0.92,0.59l-1.43,0.66l-0.92,0.22l-0.42,0l0.25,0.37l0.84,0.81l0.59,0.59l0.76,0.52l1.26,0.81l1.18,0.52l0.92,0.15l1.01,-0.22l0.59,-0.44l0.67,-1.11l0.17,-0.37l0.42,0l-0.17,0.74l-0.25,0.66l-0.76,0.74l-0.67,0.37l-1.26,0.22l-1.09,0l-1.09,-0.37l-1.09,-0.52l-1.01,-0.59l-1.09,-0.88l-1.26,-1.11l-0.17,-0.07l-1.18,3.02l-0.34,0.81l-0.17,0.07l-0.59,0l0.08,-0.66l1.01,-3.32l0.08,-0.22l0,-0.52l-0.34,-0.37l0.08,-0.37l0.08,-0.07l0.59,0l0.34,-1.18l0.17,-0.74l0.5,-2.06l0.25,-1.55l-1.76,0l-0.84,0.22l-0.76,0.44l-0.08,-0.29l0.5,-0.52l0.92,-0.44l0.67,-0.15z" fill="#221F21" id="svg_5"/>
   <path d="m119.09,3.7l0.67,0l0.34,0.15l0.34,0.44l0.17,0.59l0,1.11l-0.17,1.11l-0.34,1.18l-0.5,2.06l1.26,-1.77l1.34,-1.77l0.84,-0.96l0.92,-0.96l0.84,-0.66l1.09,-0.44l1.01,0l0.34,0.37l0.25,0.59l-0.08,1.18l-0.76,3.02l-0.42,1.62l-0.17,1.55l0.25,0.59l0.17,0.07l0.59,0l0.84,-0.37l1.34,-0.88l0.59,-0.52l0.34,-0.22l0.25,0l-0.08,0.37l-1.43,1.25l-1.34,0.81l-1.09,0.44l-0.34,0.07l-0.76,0l-0.5,-0.37l-0.25,-0.44l0,-1.62l0.5,-1.99l0.42,-1.4l0.34,-1.77l0,-0.88l-0.34,-0.44l-0.25,-0.07l-0.67,0.29l-0.59,0.52l-1.01,1.18l-1.18,1.47l-1.34,2.06l-0.76,1.25l-0.76,1.55l-1.18,0.52l-0.25,0l0.08,-0.66l0.5,-1.77l0.17,-0.88l0.17,-0.37l0.25,-1.18l0.34,-1.4l0.08,-0.52l0.08,-0.07l0,-1.25l-0.25,-0.66l-0.42,-0.22l-0.67,0.29l-0.92,0.66l-0.67,0.44l-0.92,0.74l-0.25,0l0.17,-0.37l0.67,-0.74l0.84,-0.74l1.01,-0.66l0.92,-0.44l0.34,-0.07z" fill="#221F21" id="svg_6"/>
   <path d="m142.53,4.95l0.84,0l0.59,0.29l0.5,0.59l0.25,0.59l0.17,0.96l0,0.74l-0.25,1.18l-0.59,1.25l-0.76,1.03l-0.59,0.59l-0.84,0.52l-0.5,0.15l-1.18,-0.44l-0.42,-0.44l-0.42,-0.81l0,-1.47l0.42,-1.47l0.5,-1.11l0.59,-0.81l0.67,-0.74l0.59,-0.44l0.42,-0.15z" fill="#FBFBFB" id="svg_7"/>
   <path d="m38.02,4.95l0.84,0l0.5,0.22l0.5,0.52l0.34,0.66l0.17,0.96l0,0.96l-0.34,1.25l-0.59,1.18l-0.76,0.96l-0.59,0.59l-0.76,0.44l-0.17,0.07l-0.59,0l-1.01,-0.44l-0.5,-0.66l-0.25,-0.59l0,-1.25l0.42,-1.62l0.42,-0.88l0.5,-0.81l0.84,-0.96l0.76,-0.52l0.25,-0.07z" fill="#FBFBFB" id="svg_8"/>
   <path d="m60.62,4.95l0.92,0l0.67,0.37l0.5,0.66l0.25,0.88l0.08,1.18l-0.25,1.18l-0.5,1.18l-0.76,1.03l-0.76,0.74l-0.59,0.44l-0.34,0.15l-0.59,0l-0.76,-0.29l-0.5,-0.37l-0.5,-0.96l0,-1.47l0.42,-1.47l0.42,-0.96l0.59,-0.88l0.67,-0.74l0.67,-0.52l0.34,-0.15z" fill="#FBFBFB" id="svg_9"/>
   <path d="m19.79,3.99l1.34,0.15l0.34,0.29l0.08,0.44l-0.34,0.66l-0.5,0.59l-0.59,0.52l-0.76,0.52l-1.85,0.74l-1.26,0.37l-0.67,0.07l-0.5,1.33l-0.08,0.29l0,1.03l0.5,0.88l0.34,0.37l0.67,0.37l0.34,0.07l0.92,0l0.84,-0.29l1.26,-0.66l0.84,-0.74l0.59,-0.74l0.84,-1.03l0.17,-0.15l0.42,0.07l0.08,0.44l-0.67,0.88l-0.76,0.81l-0.5,0.52l-1.18,0.74l-1.34,0.59l-1.09,0.37l-0.92,0.07l-1.18,-0.15l-0.67,-0.22l-0.67,-0.66l-0.34,-0.81l0,-1.03l0.17,-0.66l0.42,-1.11l1.01,-1.62l0.67,-0.74l1.01,-0.96l1.26,-0.88l0.84,-0.44l0.92,-0.29z" fill="#221F21" id="svg_10"/>
   <path d="m146.23,5.03l0.42,0.37l0.25,0.59l0.08,0.52l0,1.25l-0.25,1.18l-0.5,1.33l-0.67,1.18l-0.59,0.88l-1.01,1.03l-1.01,0.88l-0.67,0.37l-1.09,0.29l-1.09,-0.07l-1.01,-0.44l-0.76,-0.59l-0.42,-0.44l-0.67,0.44l-0.76,0.52l-1.01,0.44l-0.76,0.22l-1.43,0l-0.76,-0.22l-0.76,-0.52l-0.5,-0.66l-0.34,-0.81l-0.17,-0.22l-0.67,0.59l-0.92,0.66l-1.18,0.66l-0.84,0.37l-1.01,0.15l-0.84,-0.15l-0.67,-0.52l-0.34,-0.59l0,-0.37l0.67,0.44l0.34,0.15l1.01,0l1.09,-0.37l1.18,-0.66l1.09,-0.81l0.59,-0.52l0.17,-0.29l0.17,0l0.08,-0.15l0.17,0.37l0.25,1.11l0.5,0.59l0.08,0.22l0.34,0.15l0.5,0.29l0.34,0.07l1.43,0l1.09,-0.29l1.01,-0.52l1.09,-0.88l0.34,-0.07l0.25,0.15l0.42,0.74l0.67,0.52l0.76,0.29l1.26,0l1.18,-0.52l0.34,-0.29l0.17,0l0.17,-0.29l1.01,-0.96l0.84,-1.18l-0.08,-0.07l-0.08,-0.15l0.67,-1.25l0.25,-0.74l0.17,0.15l0.42,-0.81l0.17,-0.59l0,-1.55l-0.17,-0.59z" fill="#CBCCCD" id="svg_11"/>
   <path d="m116.15,9.23l0.34,0.15l0.17,0.29l0,0.66l-0.34,0.59l-1.01,1.18l-1.01,0.96l-1.18,0.74l-1.43,0.66l-1.09,0.29l-0.42,0.07l-1.01,0l-1.26,-0.29l-0.67,-0.29l-0.25,-0.15l0,-0.15l-0.17,0l-0.59,-0.88l0,-0.15l-0.59,0.44l-0.59,0.59l-1.01,0.66l-1.01,0.44l-0.84,0.15l-0.59,-0.07l-0.84,-0.37l-0.59,-0.59l-0.34,-0.66l-0.17,-0.15l-0.84,0.66l-1.34,0.66l-0.76,0.22l-0.67,0l-0.76,-0.22l-0.5,-0.29l-0.25,-0.29l-0.17,-0.37l0,-0.37l0.67,0.37l0.67,0.15l0.67,0l1.01,-0.37l0.92,-0.52l0.84,-0.59l0.25,-0.22l0.5,-0.07l0.08,0.37l0.08,0.74l0.5,0.59l0.59,0.29l1.09,0l1.01,-0.29l0.76,-0.44l0.67,-0.52l0.59,-0.59l0.59,-0.52l0.17,0l0.17,0.22l0.25,0.74l0.67,0.66l0.67,0.29l0.67,0.15l1.43,0l1.43,-0.37l1.43,-0.66l1.01,-0.66l0.67,-0.59l0.84,-0.96l0.5,-0.74l0.34,-0.59z" fill="#CBCCCC" id="svg_12"/>
   <path d="m22.65,10.26l0.25,0l-0.08,1.47l-0.67,0.74l-0.84,0.74l-1.26,0.74l-1.43,0.59l-1.26,0.29l-0.92,0l-1.34,-0.29l-0.5,-0.22l-0.84,-0.66l-0.08,-0.22l-1.01,0.88l-1.01,0.52l-0.25,0.07l-1.01,0.07l-1.09,0l-1.26,-0.37l-1.26,-0.59l-1.01,-0.66l-0.76,-0.52l-1.09,-0.96l-0.17,0.29l-0.92,2.36l-0.34,0.44l-0.5,0.37l-0.84,0l-0.42,-0.29l-0.08,-0.52l0.08,-0.07l0.84,-0.15l0.42,-0.37l1.26,-3.17l0.42,0.15l0,0.15l0.34,0.15l1.34,1.18l1.51,0.81l1.18,0.52l0.84,0.22l1.34,0l1.01,-0.15l0.67,-0.29l0.59,-0.52l0.67,-0.88l0.25,0.22l0.42,0.66l0.59,0.44l0.84,0.29l0.42,0.07l1.34,0l1.43,-0.37l1.34,-0.59l1.01,-0.66l0.92,-0.81l0.84,-0.96l0.08,-0.15z" fill="#CBCCCD" id="svg_13"/>
   <path d="m29.04,3.7l1.01,0l0.67,0.22l0.5,0.52l0.34,0.81l0,0.59l-0.42,0.37l-0.92,0.22l-0.25,0l0,-0.81l-0.5,-0.66l-0.5,-0.22l-0.59,0l-0.59,0.22l-0.67,0.44l-0.84,0.66l-1.01,1.4l-0.42,1.03l-0.17,0.66l-0.08,1.11l0.17,0.81l0.25,0.59l0.76,0.81l0.5,0.29l0.59,0.15l1.18,0l1.01,-0.37l0.84,-0.37l1.26,-1.11l0.59,-0.81l0.42,-1.11l0.67,0.07l0.08,0.37l-0.34,0.74l-0.67,0.88l-0.76,0.74l-0.84,0.66l-1.26,0.66l-1.68,0.59l-1.51,0l-0.25,0.07l-1.09,-0.52l-0.59,-0.44l-0.5,-0.74l-0.17,-0.66l0,-1.25l0.25,-1.03l0.59,-1.4l0.76,-1.25l1.01,-1.03l0.76,-0.74l0.59,-0.44l0.84,-0.44l1.01,-0.29z" fill="#221F21" id="svg_14"/>
   <path d="m71.29,3.7l1.09,0l0.5,0.22l0.59,0.59l0.25,0.52l0,0.88l-0.42,0.29l-0.84,0.22l-0.34,0l0.08,-0.74l-0.59,-0.81l-0.42,-0.15l-0.59,0l-0.84,0.29l-1.26,1.03l-0.76,0.96l-0.59,1.03l-0.34,1.18l0,1.47l0.25,0.81l0.76,0.88l0.84,0.44l0.34,0.07l1.18,0l1.09,-0.37l0.84,-0.37l0.5,-0.52l0.42,-0.29l0.76,-0.88l0.34,-0.74l0.17,-0.52l0.08,-0.07l0.5,0l0.17,0.07l0,0.52l-0.34,0.66l-0.76,0.96l-0.76,0.74l-1.09,0.74l-1.01,0.52l-1.51,0.52l-1.93,0l-1.01,-0.44l-0.67,-0.59l-0.42,-0.66l-0.17,-0.81l0.08,-1.11l0.25,-1.03l0.5,-1.25l0.76,-1.25l0.67,-0.74l0.92,-0.96l0.67,-0.52l0.92,-0.52l1.09,-0.29z" fill="#221F21" id="svg_15"/>
   <path d="m79.94,3.03l0.17,0.29l-0.34,1.18l-0.84,2.06l-1.01,2.51l-0.5,1.4l-0.25,0.96l0,0.88l0.34,0.59l0.34,0.22l0.5,-0.07l1.09,-0.66l0.84,-0.74l0.08,-0.15l0.17,0l0.17,-0.29l0.76,-0.88l0.59,-0.59l0.17,0l-0.08,0.52l-0.76,1.03l-0.67,0.74l-1.18,1.03l-1.18,0.66l-0.76,0.15l-0.76,0l-0.76,-0.44l-0.25,-0.29l-0.17,-0.59l0.08,-1.18l0.5,-1.62l0.76,-2.14l0.59,-1.99l0.42,-1.77l0.5,-0.37l1.09,-0.37l0.34,-0.07z" fill="#221F21" id="svg_16"/>
   <path d="m64.74,6.21l0.34,0.07l0.08,0.74l-0.08,1.25l-0.34,1.4l-0.59,1.25l-0.84,1.25l-0.84,0.96l-0.84,0.81l-0.84,0.52l-1.01,0.37l-0.34,0.07l-0.67,0l-0.84,-0.22l-0.92,-0.52l-0.76,-0.74l0,-0.15l-0.5,0.22l-0.67,0.52l-1.26,0.66l-0.76,0.22l-0.42,0.07l-0.76,0l-0.76,-0.44l-0.42,-0.44l-0.08,-0.52l0.42,0.15l0.42,0.22l1.01,0l1.26,-0.44l1.01,-0.59l0.92,-0.66l0.34,-0.07l0.42,0.37l0.5,0.74l0.92,0.52l0.25,0.07l0,0.15l1.18,0l0,-0.15l1.01,-0.37l0.67,-0.44l0.92,-0.88l0.92,-1.11l0.42,-0.66l0.25,-0.22l0.17,-0.29l0.17,-0.59l0.17,0l0.5,-1.77l0.17,-1.25l0.08,-0.07z" fill="#CACBCC" id="svg_17"/>
   <path d="m44.66,4.88l0.42,0.07l0.17,0.22l0,0.66l-1.43,0.88l-0.84,0.66l-0.34,0.59l-0.5,1.62l-0.76,1.55l-0.84,1.25l-1.09,1.11l-0.76,0.66l-1.01,0.52l-0.84,0.22l-0.76,0l-0.92,-0.29l-0.76,-0.44l-0.42,-0.37l-0.34,-0.44l-0.17,-0.66l1.18,0.88l0.84,0.29l1.09,0l1.01,-0.37l0.67,-0.44l1.09,-1.03l0.84,-1.11l0.42,-0.66l0.17,0l0.17,-0.52l0.42,-0.88l0.42,-1.18l0.17,-0.81l0.76,-0.81l0.84,-0.59l1.09,-0.59z" fill="#CACBCC" id="svg_18"/>
   <path d="m5.51,3.33l0.59,0.07l0.67,0.29l0.59,0.52l0.59,1.03l0.17,0.52l-0.08,0.96l-0.42,0.88l-0.42,0.37l-0.42,0.29l-0.76,0.29l-1.09,0.29l-0.92,0.07l-0.34,-0.29l0.25,-0.81l0.76,-2.06l0.76,-2.36l0.08,-0.07z" fill="#F9F9F9" id="svg_19"/>
   <path d="m51.3,5.1l0.42,0.07l0.08,0.59l-1.09,1.25l-0.84,0.96l-1.18,1.55l-1.09,1.7l-0.84,1.55l-0.5,1.11l-0.59,0.44l-1.09,0.52l-0.5,0l-0.5,-0.29l-0.17,-0.29l0.08,-0.29l0.25,-0.15l0.76,-0.15l0.84,-0.44l0.5,-0.88l0.67,-1.4l0.76,-1.25l0.67,-0.96l0.84,-1.11l0.92,-1.25l-0.08,0l-0.17,0.07l0.17,-0.29l0.25,-0.22l0,0.15l0.59,-0.44l0.17,0l0,-0.15l0.67,-0.37z" fill="#CBCCCD" id="svg_20"/>
   <path d="m124.97,5.1l0.59,0l0.17,0.22l-0.08,0.44l-0.76,0.74l-1.01,1.18l-1.18,1.55l-1.34,1.99l-0.84,1.55l-0.59,1.18l-0.59,0.44l-1.01,0.44l-0.5,0l-0.5,-0.29l-0.08,-0.59l0.34,-0.15l0.76,-0.15l0.67,-0.37l0.17,-0.74l0.25,0l0.67,-1.18l1.09,-1.77l0.67,-1.03l0.5,-0.66l0.34,-0.29l0.34,-0.44l0.34,-0.37l0.25,-0.44l0.92,-0.96l0.42,-0.29z" fill="#CACBCC" id="svg_21"/>
   <path d="m89.27,5.84l0.42,0l0,0.81l-1.09,1.33l-1.26,1.84l-0.92,1.62l-0.92,1.84l-0.5,0.74l-0.76,0.59l-0.76,0.37l-0.59,-0.07l-0.42,-0.29l-0.08,-0.52l0.25,-0.15l0.84,-0.22l0.67,-0.44l0.17,-0.29l-0.17,0.07l0.17,-0.37l0.25,0l1.09,-1.92l0.92,-1.7l0.67,-1.11l0.25,-0.22l0.5,-0.66l0.17,-0.37l0.76,-0.59l0.34,-0.29z" fill="#C9CACB" id="svg_22"/>
   <path d="m32.65,10.04l0.34,0.15l0.17,0l0,0.15l0.17,0l0.08,0.22l0.08,-0.44l0.08,0l0,1.7l-0.08,0l-0.08,-0.66l-0.34,0.66l-0.84,1.03l-0.92,0.74l-1.18,0.74l-1.51,0.59l-0.84,0.22l-1.43,0.07l-0.92,-0.15l-1.18,-0.66l-0.59,-0.52l-0.5,-0.88l0.08,-0.22l0.5,0.52l0.92,0.59l0.59,0.22l1.18,0.07l1.01,-0.07l1.26,-0.37l1.26,-0.59l1.18,-0.81l0.59,-0.52l0.67,-0.88l-0.08,-0.37l0.34,-0.52z" fill="#CACBCC" id="svg_23"/>
   <path d="m139.42,4.8l0.25,0l0.08,0.15l0,0.88l-0.25,0.37l-0.67,0.22l-2.1,0.15l-1.85,0l-0.17,0.74l-0.59,1.84l-0.42,1.7l-0.08,1.18l-0.17,0l-0.34,-0.59l-0.08,-0.37l0,-0.88l0.17,-1.33l-0.08,0l0.08,-0.88l0.67,-2.14l0.17,-0.22l0.08,0.07l0.76,-0.15l3.28,-0.15l0.76,-0.15l0.5,-0.44z" fill="#C8C9CA" id="svg_24"/>
   <path d="m21.89,4.29l0.34,0.15l0.34,0.66l0,0.74l-0.5,0.88l-0.76,0.74l-0.67,0.59l-1.09,0.59l-1.43,0.52l-1.68,0.52l-0.34,0.96l0,0.81l0.08,0.44l-0.42,-0.22l-0.5,-0.66l-0.17,-1.33l0.17,-0.74l0.17,-0.22l0.08,0.15l0.67,-0.29l1.34,-0.37l1.93,-0.81l0.92,-0.59l0.67,-0.59l0.5,-0.74l0.25,-0.59l0.08,-0.59z" fill="#CACBCC" id="svg_25"/>
   <path d="m75.58,9.3l0.17,0l-0.08,1.11l-0.42,1.33l-0.5,0.74l-0.76,0.74l-1.18,0.81l-1.18,0.59l-1.34,0.44l-1.09,0.15l-1.34,-0.07l-1.01,-0.44l-0.84,-0.66l-0.42,-0.52l-0.25,-0.81l0.17,-0.07l0.25,0.44l0.67,0.59l1.01,0.44l0.76,0.07l0.84,0l0.76,-0.07l1.34,-0.44l1.18,-0.59l1.18,-0.81l0.76,-0.74l0.84,-1.11l0.5,-1.11z" fill="#CBCCCD" id="svg_26"/>
   <path d="m94.65,5.76l0.42,0l0.17,0.15l0,0.52l-1.26,1.47l-1.01,1.7l-0.67,1.47l-0.5,1.47l-0.34,0.88l-0.59,0.59l-0.67,0.44l-0.59,0.29l-0.59,0l-0.42,-0.29l-0.17,-0.44l0.08,-0.15l1.01,-0.29l0.67,-0.44l0.25,-0.07l-0.08,-0.37l0.25,-0.29l0.08,0.15l0.42,-1.03l0.67,-1.7l0.92,-1.92l0.5,-0.59l0.5,-0.66l0.67,-0.74l0.25,-0.15z" fill="#CACBCC" id="svg_27"/>
   <path d="m82.04,9.67l0.25,0l0.08,0.22l-0.08,0.15l0.5,-0.29l0.34,0.15l0.08,0.22l0,0.66l-0.34,0.66l-0.67,0.88l-0.76,0.81l-0.5,0.52l-0.67,0.52l-0.84,0.52l-0.92,0.37l-0.67,0.15l-0.76,-0.07l-0.67,-0.29l-0.5,-0.37l-0.42,-0.66l-0.08,-0.44l0.67,0.44l0.67,0.29l1.09,0l1.09,-0.37l0.67,-0.44l1.34,-1.18l0.34,-0.52l-0.34,0.22l0.17,-0.29l0.84,-1.11l0.25,-0.66l-0.17,-0.07z" fill="#CACBCC" id="svg_28"/>
   <path d="m114.81,4.36l0.34,0.15l0.17,0.44l0,0.74l-0.25,0.59l-0.5,0.81l-0.84,0.74l-1.09,0.66l-1.43,0.59l-1.93,0.59l-0.34,1.03l0,0.96l-0.34,-0.15l-0.34,-0.52l-0.08,-1.47l0.25,-0.29l0.17,-0.52l1.43,-0.37l1.51,-0.59l0.92,-0.44l0.92,-0.59l0.59,-0.59l0.59,-0.88l0.17,-0.37l0.08,-0.52z" fill="#CACBCC" id="svg_29"/>
   <path d="m104.98,3.18l0.34,0.07l0.25,0.29l0,0.74l-0.42,1.25l-1.43,3.54l-0.84,2.21l-0.34,1.47l-0.34,0.07l-0.25,-0.22l-0.08,-0.37l0,-0.74l0.08,-0.74l0.17,0l0.17,-0.66l1.09,-2.58l1.26,-3.39l0.34,-0.96z" fill="#CACBCC" id="svg_30"/>
   <path d="m80.53,3.11l0.34,0.15l0.17,0.29l0,0.81l-0.25,0.88l-1.26,3.17l-1.01,2.51l-0.34,1.18l-0.08,0.59l-0.34,0.07l-0.25,-0.37l0,-1.03l0.42,-1.47l1.01,-2.65l1.26,-3.1l0.34,-1.03z" fill="#CBCCCD" id="svg_31"/>
   <path d="m38.19,5.25l0.76,0.07l0.5,0.29l0.25,0.29l0.08,0.59l-0.34,-0.07l-0.34,-0.15l-0.67,0l-0.67,0.52l-0.59,0.66l-0.67,1.18l-0.34,0.96l-0.17,0.88l0,0.74l0.17,0.88l-0.34,-0.07l-0.5,-0.52l-0.17,-0.44l0,-1.92l-0.17,0.22l0.08,-0.59l0.25,-0.81l0.08,0.29l0.25,-0.22l0.76,-1.4l0.76,-0.81l0.59,-0.44l0.42,-0.15z" fill="#CACBCC" id="svg_32"/>
   <path d="m142.61,5.25l0.59,0l0.59,0.29l0.25,0.22l0.25,0.66l0,0.37l-0.59,-0.44l-0.17,-0.07l-0.67,0l-0.67,0.44l-0.76,0.88l-0.5,0.96l-0.42,1.33l-0.08,0.44l0,1.33l-0.17,0.22l0,-0.15l-0.25,-0.07l-0.5,-0.66l-0.17,0.15l0,-1.47l0.42,-1.47l0.08,0.22l0.25,0l0.25,-0.66l0.67,-1.18l0.59,-0.66l0.67,-0.52l0.34,-0.15z" fill="#CACBCC" id="svg_33"/>
   <path d="m9.29,3.92l0.5,0.37l0.59,0.88l0.17,0.52l0,1.11l-0.34,0.81l-0.67,0.81l-0.67,0.66l-1.01,0.66l-1.68,0.74l-0.42,-0.07l-0.42,-0.29l-0.17,-0.22l0.08,-0.29l1.34,-0.52l1.18,-0.59l1.01,-0.81l0.59,-0.81l0.34,-0.74l0,-1.11l-0.17,-0.59l-0.25,-0.37l0,-0.15z" fill="#CACBCC" id="svg_34"/>
   <path d="m70.54,5.03l0.59,0l0.42,0.22l0.34,0.37l0,0.37l-0.42,0.07l-0.67,0l-0.76,0.44l-0.67,0.59l-0.84,1.11l-0.42,0.88l-0.17,0.52l-0.08,0.66l0,0.66l0.08,0.74l-0.42,-0.07l-0.42,-0.52l-0.08,-0.74l0,-0.81l0.34,-1.18l0.34,-0.66l0.5,-0.81l0.59,-0.66l0.5,-0.52l0.67,-0.44l0.59,-0.22z" fill="#CACBCB" id="svg_35"/>
   <path d="m53.9,4.07l0.42,0.37l0.34,0.81l0,1.03l-1.18,4.65l-0.25,1.4l-0.08,0.15l-0.5,0l-0.25,-0.37l-0.08,-0.59l-0.08,0.74l-0.08,0l0,-0.88l0.25,-1.33l0.34,-1.18l0.25,-0.07l0.59,-1.77l0.34,-1.25l0,-1.7z" fill="#CACBCC" id="svg_36"/>
   <path d="m28.36,5.03l0.59,0l0.5,0.29l0.34,0.52l-0.17,0.22l-1.01,0l-0.76,0.44l-0.59,0.52l-0.76,0.96l-0.59,1.11l-0.25,0.96l0,1.11l0.17,0.81l-0.42,-0.37l-0.34,-0.52l-0.08,-0.29l0,-1.7l0.34,-1.11l0.67,-1.18l0.84,-0.96l0.76,-0.52l0.76,-0.29z" fill="#CBCCCD" id="svg_37"/>
   <path d="m60.79,5.25l0.59,0l0.67,0.29l0.5,0.52l0,0.59l-0.84,-0.37l-0.59,0l-0.5,0.29l-0.59,0.59l-0.67,1.03l-0.42,0.96l-0.25,0.88l-0.08,0.52l0,0.74l0.08,0.74l-0.17,0l0,-0.15l-0.17,0l-0.34,-0.52l-0.17,-0.74l0.08,-1.18l0.34,-1.18l0.59,-1.25l0.59,-0.81l0.67,-0.66l0.67,-0.29z" fill="#CACBCC" id="svg_38"/>
   <path d="m97.25,4.44l0.42,0.37l0.34,0.81l0,1.4l-0.5,2.88l-0.5,2.65l-0.17,0.22l0.34,0.15l-0.5,0.07l-0.42,-0.22l-0.25,-0.52l0,-1.18l0.59,-2.73l0.17,-0.81l0.08,0l-0.08,0.88l-0.08,0.66l0.17,-0.37l0.42,-1.84l0.08,-0.59l0,-1.47l-0.08,-0.37z" fill="#CBCCCD" id="svg_39"/>
   <path d="m130.6,11.15l0.17,0.07l0.08,0.29l0,0.81l-0.5,0.59l-0.84,0.66l-1.09,0.66l-0.84,0.44l-0.67,0.22l-0.92,0.07l-0.76,-0.22l-0.59,-0.44l-0.34,-0.59l0,-0.37l0.67,0.44l0.34,0.15l1.01,0l1.09,-0.37l1.18,-0.66l1.09,-0.81l0.59,-0.52l0.17,-0.29l0.17,0l0,-0.15z" fill="#CBCCCD" id="svg_40"/>
   <path d="m99.69,12.11l0.34,0.07l0.08,1.03l0.5,0.59l0.59,0.29l1.09,0l0.84,-0.15l-0.17,0.15l-0.84,0.22l-0.92,0l-0.5,-0.22l-0.25,0.07l0.5,0.59l-0.34,-0.15l-0.59,-0.66l-0.25,-0.59l-0.67,0.44l-0.42,0.29l-1.18,0.59l-0.76,0.22l-0.67,0l-0.76,-0.22l-0.5,-0.29l-0.25,-0.29l-0.17,-0.37l0,-0.37l0.67,0.37l0.67,0.15l0.67,0l1.01,-0.37l0.92,-0.52l0.84,-0.59l0.25,-0.22l0.25,-0.07z" fill="#CACBCC" id="svg_41"/>
   <path d="m55.92,12.18l0.42,0.22l0.42,0.66l0.42,0.37l0.67,0.37l0.25,0.15l-0.5,-0.07l-1.01,-0.52l0.25,0.44l0.67,0.52l-0.25,0l-0.67,-0.52l-0.34,-0.37l0,-0.15l-0.5,0.22l-0.67,0.52l-1.26,0.66l-0.76,0.22l-0.42,0.07l-0.76,0l-0.76,-0.44l-0.42,-0.44l-0.08,-0.52l0.42,0.15l0.42,0.22l1.01,0l1.26,-0.44l1.01,-0.59l0.92,-0.66l0.25,-0.07z" fill="#CBCCCC" id="svg_42"/>
   <path d="m64.23,4.73l0.42,0.37l0.34,0.37l0.25,0.66l0.08,1.03l-0.17,1.18l-0.25,0.88l-0.08,0l0.08,-0.66l0.08,-0.29l0.08,-1.99l-0.34,0l-0.25,1.62l-0.5,1.4l-0.17,0l-0.17,0.74l-0.25,0.37l-0.17,0l-0.17,0.44l-0.67,0.81l-0.67,0.74l-0.76,0.74l-0.67,0.44l-0.76,0.29l-0.25,0l0,0.15l-0.84,0.07l-0.34,-0.07l0,-0.15l-0.42,-0.07l-0.84,-0.52l-0.42,-0.59l0.17,-0.22l0.59,0.59l0.67,0.37l0.5,0.15l0.67,0l1.01,-0.37l0.76,-0.44l0.59,-0.52l0.59,-0.59l0.59,-0.74l0.92,-1.55l0.5,-1.47l0.17,-1.11l0,-1.47l0.08,-0.59z" fill="#F1F2F2" id="svg_43"/>
   <path d="m127.66,4.14l0.34,0.15l0.34,0.44l0.08,0.22l0,1.4l-1.34,5.31l-0.17,0.81l-0.34,0l-0.08,-0.15l0,-1.55l0.34,-1.4l0.76,-3.17l0.08,-0.52l0,-1.55z" fill="#CCCDCD" id="svg_44"/>
   <path d="m46.85,3.99l0.34,0.15l0.42,0.59l0.17,0.52l0,2.14l0,0.29l-1.18,1.55l-0.76,1.18l-0.17,0l0.25,-1.11l0.5,-2.14l0.17,-0.74l0.08,-1.77l0.08,-0.15l-0.08,-0.22l0.17,-0.29z" fill="#DDDEDE" id="svg_45"/>
   <path d="m111.78,4.95l1.01,0l0.25,0.29l-0.08,0.37l-0.59,0.66l-0.59,0.52l-1.43,0.66l-0.25,0.07l-0.76,0l-0.34,-0.15l0.17,-0.44l0.76,-0.81l0.67,-0.59l0.76,-0.44l0.42,-0.15z" fill="#F4F4F4" id="svg_46"/>
   <path d="m18.87,4.95l1.01,0l0.25,0.22l-0.08,0.44l-0.59,0.66l-0.59,0.52l-1.43,0.66l-0.25,0.07l-0.76,0l-0.25,-0.15l0.08,-0.37l0.76,-0.88l0.67,-0.59l0.76,-0.44l0.42,-0.15z" fill="#F3F4F4" id="svg_47"/>
   <path d="m118.42,4.95l0.42,0.07l0.17,0.22l-0.08,0.52l-0.84,0.66l-0.76,0.52l-1.01,0.81l-0.5,0.29l-0.5,-0.07l-0.42,-0.37l-0.08,-0.44l1.01,-0.44l0.67,-0.66l1.26,-0.74l0.67,-0.37z" fill="#CBCCCC" id="svg_48"/>
   <path d="m5.85,3.7l0.67,0.29l0.59,0.52l0.25,0.44l0.08,0.37l-0.34,-0.15l-0.59,-0.52l-0.17,0.29l-1.01,2.88l-0.42,0.59l-0.34,0.15l-0.42,0l0.08,-0.52l0.84,-2.36l0.59,-1.77l0.17,-0.22z" fill="#CBCCCC" id="svg_49"/>
   <path d="m31.64,4.29l0.42,0.37l0.42,0.74l0.17,0.59l0,0.66l-0.25,0.37l-0.59,0.44l-0.5,0.22l-1.09,0l-0.42,-0.22l-0.08,-0.66l1.26,-0.22l0.67,-0.37l0.25,-0.29l0,-0.81l-0.25,-0.81z" fill="#CACBCB" id="svg_50"/>
   <path d="m79.52,0.08l0.76,0l0.5,0.29l0.17,0.22l0,0.52l-0.42,0.44l-0.67,0.29l-0.92,0l-0.5,-0.29l-0.17,-0.44l0.25,-0.52l0.42,-0.29l0.59,-0.22z" fill="#221F21" id="svg_51"/>
   <path d="m103.47,0.6l0.84,0l0.5,0.29l0.17,0.22l0,0.44l-0.5,0.52l-0.67,0.29l-0.76,0l-0.5,-0.22l-0.25,-0.37l0.08,-0.52l0.67,-0.52l0.42,-0.15z" fill="#221F21" id="svg_52"/>
   <path d="m83.22,5.39l0.42,0.07l0.42,0.37l0.08,0.15l0,0.52l-0.34,-0.15l-0.42,0.07l-1.43,1.25l-0.59,0.07l-0.42,-0.37l-0.17,-0.22l0.08,-0.37l0.5,-0.07l1.26,-1.03l0.59,-0.29z" fill="#CBCCCD" id="svg_53"/>
   <path d="m73.81,4.29l0.42,0.37l0.42,0.74l0.08,0.37l0,0.96l-0.59,0.59l-0.76,0.37l-1.01,0l-0.34,-0.15l-0.17,-0.37l0,-0.37l1.34,-0.22l0.76,-0.44l0.17,-0.29l0,-0.74l-0.34,-0.66l0,-0.15z" fill="#CBCCCD" id="svg_54"/>
   <path d="m2.15,3.26l1.34,0l0.08,0.22l-0.34,0.66l-1.26,0.29l-1.09,0.52l-0.42,-0.07l-0.42,-0.59l0.34,-0.29l1.18,-0.59l0.59,-0.15z" fill="#C9CACB" id="svg_55"/>
   <path d="m136.48,0.45l0.34,0.15l0.25,0.15l0,0.52l-0.42,1.18l-0.84,1.77l-0.17,0.15l-0.59,0l-0.08,-0.22l0.76,-1.84l0.76,-1.84z" fill="#CBCCCD" id="svg_56"/>
   <path d="m94.81,5.1l0.17,0.07l-0.5,0.44l0.5,-0.15l0.34,0.29l0,0.52l-0.08,0l-0.17,-0.44l-0.42,0l-0.42,0.37l-0.76,0.81l-0.5,0.74l-0.17,0l-0.25,0.66l-0.67,1.4l-0.92,2.36l-0.25,0.52l-0.08,0l0,-0.52l0.42,-1.4l0.84,-1.92l0.76,-1.4l1.01,-1.25l0.76,-0.74l0.42,-0.37z" fill="#F2F2F2" id="svg_57"/>
   <path d="m89.35,5.25l0.17,0.07l-0.25,0.29l0.34,-0.07l0.17,0.15l0,0.81l-0.08,0l0,-0.66l-0.59,0.15l-0.5,0.52l-0.42,0.29l-0.25,0.52l-0.5,0.66l-0.17,0l-0.17,0.37l-1.26,2.21l-0.92,1.7l-0.34,0.52l-0.17,0l0.08,-0.44l0.76,-1.4l1.01,-1.92l0.5,-0.81l1.18,-1.55l0.76,-0.81l0.67,-0.59z" fill="#F3F4F4" id="svg_58"/>
   <path d="m44.58,4.58l0.42,0l0.34,0.37l0,0.15l-0.34,-0.15l-0.42,0.07l-1.34,0.74l-0.67,0.52l-0.5,0.59l-0.34,1.33l-0.59,1.47l-0.34,0.59l-0.08,-0.29l-0.17,0l0.76,-1.99l0.17,-0.59l0,-0.52l0.59,-0.59l0.67,-0.59l1.01,-0.66l0.59,-0.37l0.25,-0.07z" fill="#F3F3F3" id="svg_59"/>
   <path d="m19.12,5.25l0.5,0.07l-0.08,0.52l-0.25,0.37l-0.92,0.44l-1.01,0.44l-0.67,0.07l0.17,-0.29l0.84,-1.03l0.92,-0.44l0.5,-0.15z" fill="#CACBCC" id="svg_60"/>
   <path d="m130.43,5.69l0.84,0l1.18,0.07l0.25,0.29l0.08,0.29l-0.17,0.52l-0.08,-0.29l-0.34,0.15l-1.76,0l-0.34,-0.44l-0.08,-0.52l0.42,-0.07z" fill="#C8C9CA" id="svg_61"/>
   <path d="m96.75,7.53l0.08,0l-0.08,0.88l-0.08,0.66l0.17,-0.37l0.25,-1.03l0.08,0l-0.08,0.88l-0.42,1.99l-0.08,0.15l0,1.55l0.34,0.07l0.08,-0.22l0,0.44l-0.17,0.22l0.34,0.15l-0.5,0.07l-0.42,-0.22l-0.25,-0.52l0,-1.18l0.59,-2.73l0.17,-0.81z" fill="#DCDDDE" id="svg_62"/>
   <path d="m112.12,5.25l0.34,0.07l0.08,0.22l-0.42,0.74l-0.59,0.22l-0.76,0.37l-0.67,0.29l-0.5,0l0.34,-0.52l0.92,-0.88l0.42,-0.29l0.84,-0.22z" fill="#CCCDCD" id="svg_63"/>
   <path d="m120.77,4.07l0.34,0.29l0.34,0.74l0.08,0.44l0,1.18l-0.08,0.74l-0.5,0.44l-0.34,0.59l-0.08,-0.15l0.34,-1.84l0,-1.92l-0.08,-0.52z" fill="#CFD0D0" id="svg_64"/>
   <path d="m138.67,5.32l0.25,0.07l-0.42,0.15l-3.78,0.22l-0.34,0.29l-0.59,1.55l-0.5,2.14l-0.08,0l0,-0.88l-0.08,0l0.08,-0.88l0.67,-2.14l0.17,-0.22l0.08,0.07l0.76,-0.15l3.28,-0.15l0.5,-0.07z" fill="#DEDEDF" id="svg_65"/>
   <path d="m123.38,6.65l0,0.22l-0.5,0.59l-0.34,0.44l-0.34,0.29l-0.67,1.03l-1.01,1.62l-0.92,1.47l-0.25,0.44l-0.08,0l0.08,-0.59l0.76,-1.4l1.09,-1.7l0.92,-1.33l0.42,-0.52l0.42,-0.15l0.42,-0.44z" fill="#F3F3F3" id="svg_66"/>
   <path d="m140.26,7.9l0.08,0.22l-0.34,1.03l-0.08,0.37l0,0.88l0.17,0.22l0,0.22l0.17,0l0,-0.52l0.08,0l0.08,1.33l-0.17,0.22l0,-0.15l-0.25,-0.07l-0.5,-0.66l-0.17,0.15l0,-1.47l0.42,-1.47l0.08,0.22l0.25,0l0.17,-0.52z" fill="#DDDEDE" id="svg_67"/>
   <path d="m64.23,4.73l0.42,0.37l0.34,0.37l0.25,0.66l0.08,1.03l-0.17,1.18l-0.25,0.88l-0.08,0l0.08,-0.66l0.08,-0.29l0.08,-1.99l-0.34,0l-0.25,1.62l-0.5,1.4l-0.08,-0.29l0.34,-0.88l0.08,-0.81l0.08,-0.44l-0.08,-1.33l-0.08,-0.59l0,-0.22z" fill="#DEDFDF" id="svg_68"/>
   <path d="m53.48,7.31l0.08,0.29l-0.59,2.06l-0.25,1.47l0,1.03l0.17,0.15l0.17,-0.07l0.17,-0.22l-0.08,0.44l-0.5,0l-0.25,-0.37l-0.08,-0.59l-0.08,0.74l-0.08,0l0,-0.88l0.25,-1.33l0.34,-1.18l0.25,-0.07l0.5,-1.47z" fill="#DDDEDE" id="svg_69"/>
   <path d="m47.43,7.75l0.08,0.22l-0.92,1.25l-0.76,1.18l-0.17,0l0.25,-1.11l0.34,-1.4l0.17,0l0.08,0.44l0.34,-0.07l0.17,-0.22l0.25,-0.07l0.17,-0.22z" fill="#F0F0F0" id="svg_70"/>
   <path d="m99.69,12.11l0.34,0.07l0.08,1.03l0.5,0.59l0.59,0.29l1.09,0l0.84,-0.15l-0.17,0.15l-0.84,0.22l-0.92,0l-0.5,-0.22l-0.25,0.07l0.5,0.59l-0.34,-0.15l-0.59,-0.66l-0.34,-0.74l0.08,-0.29l-0.08,-0.44l-0.42,0.07l-0.76,0.52l-0.17,-0.07l0.84,-0.59l0.25,-0.22l0.25,-0.07z" fill="#DEDFDF" id="svg_71"/>
   <path d="m35.76,7.9l0.08,0.22l-0.34,0.96l-0.08,0.37l0,1.7l0.17,0l0,0.15l0.17,0l0.08,-0.44l0.08,0l0.25,1.03l0,0.22l-0.34,-0.07l-0.5,-0.52l-0.17,-0.44l0,-1.92l-0.17,0.22l0.08,-0.59l0.25,-0.81l0.08,0.29l0.25,-0.22l0.08,-0.15z" fill="#DEDFDF" id="svg_72"/>
   <path d="m91.62,4.14l0.34,0.07l0.25,0.59l0.08,0.74l0,0.88l-0.25,0.66l-0.25,0.15l-0.08,-2.21l-0.08,-0.88z" fill="#D0D1D1" id="svg_73"/>
   <path d="m16.43,8.49l0.34,0.07l-0.92,0.22l-0.25,0.81l-0.08,1.11l0.17,0.44l0.17,-0.07l0.08,-0.44l0.08,0l0.08,0.81l0.08,0.44l-0.42,-0.22l-0.5,-0.66l-0.17,-1.33l0.17,-0.74l0.17,-0.22l0.08,0.15l0.67,-0.29l0.25,-0.07z" fill="#DDDEDE" id="svg_74"/>
   <path d="m89.35,5.25l0.17,0.07l-0.25,0.29l0.34,-0.07l0.17,0.15l0,0.81l-0.08,0l0,-0.66l-0.59,0.15l-0.5,0.52l-0.42,0.29l-0.25,0.52l-0.5,0.66l-0.08,-0.15l0.08,-0.29l0,-0.22l0.76,-0.96l0.92,-0.88l0.25,-0.22z" fill="#F0F0F1" id="svg_75"/>
   <path d="m130.85,11.88l0.08,0l0.17,0.74l0.5,0.59l0.08,0.22l0.34,0.15l0.5,0.29l0.34,0.07l1.85,0l-0.25,0.15l-0.42,0.07l-1.18,0l-0.76,-0.29l-0.25,0l0.17,0.37l0.17,0.22l-0.34,-0.15l-0.5,-0.59l-0.34,-0.74l-0.17,-0.44l-0.25,0.07l0.17,-0.29l0.08,-0.44z" fill="#DEDFDF" id="svg_76"/>
   <path d="m82.04,9.67l0.25,0l0.08,0.22l-0.08,0.15l0.5,-0.29l0.34,0.15l0.08,0.22l0,0.66l-0.08,0l-0.25,-0.66l-0.34,0l-0.17,0.44l-0.59,0.81l-0.59,0.66l-0.17,0.07l0.17,-0.37l-0.08,0l-0.17,0.07l0.17,-0.29l0.84,-1.11l0.25,-0.66l-0.17,-0.07z" fill="#E0E1E1" id="svg_77"/>
   <path d="m32.65,10.04l0.34,0.15l0.17,0l0,0.15l0.17,0l0.08,0.22l0.08,-0.44l0.08,0l0,1.7l-0.08,0l-0.08,-0.66l-0.34,0.66l-0.08,-0.15l0.08,-0.66l-0.5,-0.07l-0.17,0.29l-0.42,0.37l0.17,-0.37l0.25,-0.29l-0.08,-0.37l0.34,-0.52z" fill="#DCDCDD" id="svg_78"/>
   <path d="m94.81,5.1l0.17,0.07l-0.5,0.44l0.5,-0.15l0.34,0.29l0,0.52l-0.08,0l-0.17,-0.44l-0.42,0l-0.42,0.37l-0.76,0.81l-0.5,0.74l-0.08,-0.15l0.25,-0.37l-0.08,-0.07l0,-0.22l0.84,-1.03l0.92,-0.81z" fill="#DFE0E0" id="svg_79"/>
   <path d="m23.15,12.77l0.42,0.37l0.92,0.66l0.76,0.29l1.18,0.07l1.01,-0.07l0.59,-0.07l-0.17,0.15l-1.6,0.22l-0.59,0l-0.76,-0.22l-0.5,-0.22l-0.42,-0.15l0.5,0.66l-0.34,-0.15l-0.59,-0.59l-0.42,-0.74l0,-0.22z" fill="#DEDFDF" id="svg_80"/>
   <path d="m130.43,5.69l0.84,0l1.18,0.07l0.25,0.29l0.08,0.29l-0.17,0.52l-0.08,-0.29l-0.34,0.15l-1.76,0l-0.17,-0.29l0.34,0.15l1.51,0l0.08,-0.66l-1.93,0.07l-0.17,0.29l-0.08,-0.52l0.42,-0.07z" fill="#DCDDDD" id="svg_81"/>
   <path d="m67.34,8.34l0.08,0.29l-0.17,0.96l0,0.66l0.17,0.29l0.17,0l0.17,-0.15l0.17,0.81l0,0.44l-0.42,-0.07l-0.42,-0.52l-0.08,-0.74l0,-0.81l0.34,-1.18z" fill="#DEDFDF" id="svg_82"/>
   <path d="m146.31,7.53l0.08,0.29l-0.5,1.33l-0.84,1.55l-0.17,0.07l0,-0.29l-0.17,0.07l0.17,-0.44l0.59,-1.18l0.17,-0.52l0.17,0.15l0.42,-0.81l0.08,-0.22z" fill="#DEDFDF" id="svg_83"/>
   <path d="m47.27,5.39l0.34,0.07l0.08,0.37l-0.08,1.33l-0.17,0.29l-0.42,0.07l0.08,-1.4l0.08,-0.66l0.08,-0.07z" fill="#C8C9CA" id="svg_84"/>
   <path d="m33.49,12.7l1.18,0.88l-0.17,0.07l-0.34,-0.07l0.25,0.37l0.84,0.52l0.67,0.22l1.09,0l0.92,-0.29l0.34,-0.07l-0.25,0.22l-0.92,0.29l-0.25,0.07l-0.76,0l-0.92,-0.29l-0.76,-0.44l-0.42,-0.37l-0.34,-0.44l-0.17,-0.66z" fill="#DEDFDF" id="svg_85"/>
   <path d="m55.92,12.18l0.42,0.22l0.42,0.66l0.42,0.37l0.67,0.37l0.25,0.15l-0.5,-0.07l-1.01,-0.52l0.25,0.44l0.67,0.52l-0.25,0l-0.67,-0.52l-0.34,-0.37l0,-0.15l-0.25,-0.07l0.25,-0.15l-0.17,-0.44l-0.25,-0.15l-0.59,0.29l-0.17,-0.07l0.59,-0.44l0.25,-0.07z" fill="#DEDFDF" id="svg_86"/>
   <path d="m85.74,4.44l0.25,0.07l0.5,0.96l0.25,0.74l0,0.44l-0.34,0.66l-0.17,0l-0.08,-1.7l-0.25,-0.74l-0.17,-0.44z" fill="#D0D1D2" id="svg_87"/>
   <path d="m41.8,7.31l0.08,0l-0.08,0.59l-0.67,1.77l-0.34,0.59l-0.08,-0.29l-0.17,0l0.76,-1.99l0.17,-0.29l0,0.22l0.17,0l0.17,-0.59z" fill="#DFE0E0" id="svg_88"/>
   <path d="m139.42,4.8l0.25,0l0.08,0.15l0,0.88l-0.25,0.37l-0.67,0.22l-2.1,0.15l-1.76,0l0,-0.07l2.35,-0.15l1.43,-0.15l0.76,-0.29l0.08,-0.15l0,-0.74l-0.5,0.29l-0.17,-0.07l0.5,-0.44z" fill="#DEDFDF" id="svg_89"/>
   <path d="m109.1,8.57l0.34,0.07l-0.67,0.29l-0.25,0.66l-0.08,1.11l0.17,0.15l0.25,-0.07l0.08,0.88l-0.34,-0.15l-0.34,-0.52l-0.08,-1.47l0.25,-0.29l0.17,-0.52l0.5,-0.15z" fill="#DEDFDF" id="svg_90"/>
   <path d="m102.63,9.38l0.08,0.22l-0.42,1.18l-0.08,0.52l0,1.03l0.08,0.22l0.17,0.07l0.08,-0.44l0.08,0l-0.08,0.59l-0.34,0.07l-0.25,-0.22l-0.08,-0.37l0,-0.74l0.08,-0.74l0.17,0l0.17,-0.66l0.34,-0.74z" fill="#DEDFDF" id="svg_91"/>
   <path d="m75.41,13.36l0.67,0.44l0.67,0.29l1.09,0l0.76,-0.15l-0.17,0.15l-1.34,0.29l-0.76,-0.15l-0.25,0l0.17,0.37l-0.34,-0.15l-0.42,-0.66l-0.08,-0.44z" fill="#DEDFDF" id="svg_92"/>
   <path d="m127.66,4.14l0.34,0.15l0.34,0.44l0.08,0.22l0,1.4l-0.17,-0.29l-0.08,-0.74l-0.17,-0.29l-0.17,-0.07l0,0.74l-0.08,0l-0.08,-1.55z" fill="#DEDFDF" id="svg_93"/>
   <path d="m58.27,8.27l0.08,0.29l-0.25,1.03l0,1.18l0.08,0.59l0.17,0l0.08,-0.22l0.17,0.15l0.08,0.74l-0.17,0l0,-0.15l-0.17,0l-0.34,-0.52l-0.17,-0.74l0.08,-1.18l0.34,-1.18z" fill="#DEDFDF" id="svg_94"/>
   <path d="m2.15,3.26l1.34,0l0.08,0.22l-0.34,0.66l-1.26,0.29l-1.09,0.52l-0.34,-0.07l1.34,-0.59l1.26,-0.22l0,-0.59l-0.08,-0.07l-1.26,0l0.34,-0.15z" fill="#DEDFDF" id="svg_95"/>
   <path d="m133.12,9.75l0.08,0l0,0.74l0.17,0.59l0.25,-0.22l0,1.18l-0.17,0l-0.34,-0.59l-0.08,-0.37l0,-0.88l0.08,-0.44z" fill="#DEDFDF" id="svg_96"/>
   <path d="m65.41,12.62l0.17,0.22l0.59,0.59l0.08,0.15l-0.17,0.15l0.34,0.44l0.76,0.52l-0.17,0.07l-0.67,-0.44l-0.59,-0.59l-0.34,-0.66l-0.08,-0.37l0.08,-0.07z" fill="#DEDFDF" id="svg_97"/>
   <path d="m35.76,7.9l0.08,0.22l-0.34,0.96l-0.17,0.52l-0.08,0l-0.08,-0.44l-0.17,0.22l0.08,-0.59l0.25,-0.81l0.08,0.29l0.25,-0.22l0.08,-0.15z" fill="#DEDFDF" id="svg_98"/>
   <path d="m134.47,4.36l0.08,0.15l1.09,0.07l0.17,-0.07l2.94,0l-0.08,0.22l-0.59,0l-0.08,-0.07l-1.34,0l-1.43,0.07l-0.76,-0.07l0,-0.29z" fill="#CBCCCD" id="svg_99"/>
   <path d="m81.2,1.41l0.08,0.15l-0.59,0.59l-0.42,0.22l-0.34,0.07l-0.92,0l-0.67,-0.29l0.17,-0.07l0.59,0.15l0.59,0l0.76,-0.22l0.67,-0.52l0.08,-0.07z" fill="#CDCECF" id="svg_100"/>
   <path d="m50.63,13.58l0.42,0.15l0.42,0.22l1.01,0.07l0,0.07l-0.42,0.07l-0.59,0l-0.42,-0.07l0.25,0.37l0.17,0.22l-0.34,-0.15l-0.42,-0.44l-0.08,-0.52z" fill="#DEDFDF" id="svg_101"/>
   <path d="m14.5,14.17l0.76,0.22l1.26,0.22l0.5,0.07l1.01,-0.15l0.59,-0.07l-0.25,0.15l-1.01,0.22l-0.92,0l-1.34,-0.29l-0.5,-0.22l-0.08,-0.15z" fill="#DEDFDF" id="svg_102"/>
   <path d="m61.88,5.54l0.34,0.15l0.34,0.37l0,0.59l-0.84,-0.37l-0.59,-0.07l0,-0.07l0.84,-0.07l0,-0.37l-0.08,-0.15z" fill="#DEDFDF" id="svg_103"/>
   <path d="m83.05,13.88l0.25,0.07l-0.67,0.15l0.08,0.52l0.34,0.15l0.5,0l0.92,-0.52l0.17,0.07l-0.84,0.52l-0.34,0.15l-0.59,-0.07l-0.42,-0.29l-0.08,-0.52l0.25,-0.15l0.42,-0.07z" fill="#DEDFDF" id="svg_104"/>
   <path d="m94.39,13.36l0.67,0.37l1.26,0.22l0,0.07l-1.01,0l-0.5,-0.07l0.17,0.37l0.17,0.22l-0.34,-0.15l-0.25,-0.29l-0.17,-0.37l0,-0.37z" fill="#DEDFDF" id="svg_105"/>
   <path d="m44.66,4.88l0.42,0.07l0.17,0.22l0,0.66l-0.84,0.52l-0.17,-0.07l0.59,-0.44l0.08,-0.52l-0.08,-0.15l-0.42,-0.07l0.25,-0.22z" fill="#DEDFDF" id="svg_106"/>
   <path d="m31.64,4.29l0.42,0.37l0.42,0.74l0.17,0.59l0,0.66l-0.17,0.22l-0.17,-1.33l-0.25,-0.52l-0.17,0.07l-0.25,-0.81z" fill="#DEDFDF" id="svg_107"/>
   <path d="m118.08,13.73l0.25,0.07l-0.84,0.29l0.08,0.37l0.34,0.22l0.5,-0.07l0.34,-0.15l0.25,0.07l-0.67,0.29l-0.5,0l-0.5,-0.29l-0.08,-0.59l0.34,-0.15l0.5,-0.07z" fill="#DEDFDF" id="svg_108"/>
   <path d="m116.15,9.23l0.34,0.15l0.17,0.29l0,0.66l-0.25,0.44l-0.08,-0.15l0.17,-0.88l-0.34,-0.07l-0.25,0.15l0.08,-0.37l0.17,-0.22z" fill="#DEDFDF" id="svg_109"/>
   <path d="m96.07,11.22l0.08,0l0.08,0.81l0.34,0.52l0.08,0.29l0.5,0l-0.17,0.15l-0.5,-0.07l-0.34,-0.29l-0.08,-0.15l0,-1.25z" fill="#ECEDED" id="svg_110"/>
   <path d="m44.16,5.17l0.17,0.07l-1.34,0.88l-0.76,0.66l-0.25,0.29l0.08,-0.37l0.67,-0.66l0.84,-0.59l0.59,-0.29z" fill="#DBDCDC" id="svg_111"/>
   <path d="m85.07,11.81l0.08,0.22l-0.67,1.18l-0.76,0.59l-0.42,0.07l0.42,-0.29l0.5,-0.37l0.08,-0.22l-0.17,0.07l0.17,-0.37l0.25,0l0.5,-0.88z" fill="#DEDFDF" id="svg_112"/>
   <path d="m39.12,5.47l0.34,0.15l0.25,0.29l0.08,0.59l-0.34,-0.07l-0.34,-0.15l-0.67,-0.07l0,-0.07l0.84,-0.15l0,-0.29l-0.17,-0.22z" fill="#DEDFDF" id="svg_113"/>
   <path d="m124.3,13.36l0.67,0.44l0.34,0.15l0.92,0.07l-0.25,0.15l-0.59,0l-0.76,-0.29l-0.08,0.29l-0.25,-0.44l0,-0.37z" fill="#DEDFDF" id="svg_114"/>
   <path d="m139.76,8.2l0.17,0.22l-0.34,1.25l-0.08,0.74l-0.17,0l0,-0.74l0.42,-1.47z" fill="#E5E5E5" id="svg_115"/>
   <path d="m137.66,12.18l0.42,0.15l0.42,0.81l-0.34,-0.15l-0.25,-0.44l-0.5,0l-0.42,0.37l-0.17,-0.07l0.67,-0.59l0.17,-0.07z" fill="#DEDFDF" id="svg_116"/>
   <path d="m124.97,5.1l0.59,0l0.17,0.22l-0.08,0.44l-0.17,0.07l-0.08,-0.44l-0.34,-0.07l-0.67,0.44l-0.17,0.07l0.17,-0.29l0.59,-0.44z" fill="#DEDFDF" id="svg_117"/>
   <path d="m8.71,12.77l0.5,0.07l0.34,0.07l1.34,0l0.42,-0.07l-0.25,0.22l-0.92,0.15l-0.84,-0.15l-0.59,-0.22l0,-0.07z" fill="#CECFCF" id="svg_118"/>
   <path d="m119.93,11.66l0.08,0.22l-0.59,1.18l-0.34,0.22l0,-0.52l0.17,-0.22l0.17,0l0.5,-0.88z" fill="#DCDDDE" id="svg_119"/>
   <path d="m6.77,4.29l0.42,0.37l0.25,0.66l-0.34,-0.15l-0.42,-0.44l0.08,-0.44z" fill="#DEDFDF" id="svg_120"/>
   <path d="m50.46,5.62l0.17,0.07l-0.84,0.81l-0.5,0.66l-0.08,-0.15l0.59,-0.81l-0.34,0.22l0.17,-0.29l0.25,-0.22l0,0.15l0.59,-0.44z" fill="#DEDFDF" id="svg_121"/>
   <path d="m89.35,5.54l0.34,0.07l0.08,0.07l0,0.81l-0.08,0l0,-0.66l-0.59,0.15l-0.5,0.52l0,-0.22l0.5,-0.59l0.25,-0.15z" fill="#DEDFDF" id="svg_122"/>
   <path d="m88.77,13.8l0.34,0.07l-0.34,0.15l0,0.37l0.34,0.22l0.92,-0.15l-0.25,0.22l-0.17,0.07l-0.59,0l-0.42,-0.29l-0.17,-0.44l0.08,-0.15l0.25,-0.07z" fill="#DEDFDF" id="svg_123"/>
   <path d="m106.24,12.33l0.17,0.15l0.34,0.52l0.25,0.29l-0.5,-0.15l0.17,0.44l-0.25,-0.22l-0.17,-0.44l-0.17,-0.07l0.17,-0.07l0,-0.44z" fill="#DEDFDF" id="svg_124"/>
   <path d="m146.23,5.03l0.42,0.37l0.17,0.29l-0.08,0.29l-0.08,-0.15l-0.08,1.25l-0.08,0l-0.08,-1.47l-0.17,-0.59z" fill="#DEDFDF" id="svg_125"/>
   <path d="m133.63,6.65l0.17,0l-0.08,0.52l-0.34,1.25l-0.08,0l0,-0.74l0.34,-1.03z" fill="#EFEFEF" id="svg_126"/>
   <path d="m144.04,5.98l0.17,0.22l0.08,0.59l-0.59,-0.44l-0.84,-0.15l0,-0.07l0.92,0l0.25,-0.15z" fill="#DEDFDF" id="svg_127"/>
   <path d="m117.5,5.47l0.17,0.07l-0.84,0.59l-0.67,0.52l-0.17,-0.07l0.5,-0.52l1.01,-0.59z" fill="#DEDFDF" id="svg_128"/>
   <path d="m29.12,5.17l0.34,0.15l0.34,0.52l-0.17,0.22l-1.01,-0.07l0,-0.07l0.67,0l0,-0.15l0.17,0l-0.17,-0.37l-0.17,-0.22z" fill="#DEDFDF" id="svg_129"/>
   <path d="m90.95,12.03l0.08,0.22l-0.25,0.59l-0.42,0.37l-0.34,0.15l0.25,-0.29l0.17,0l-0.08,-0.37l0.25,-0.29l0.08,0.15l0.25,-0.52z" fill="#DCDDDD" id="svg_130"/>
   <path d="m105.9,11.74l0.17,0l0.17,0.22l0,0.37l-0.17,-0.15l0,-0.22l-0.42,0.22l-0.76,0.66l0,-0.22l1.01,-0.88z" fill="#DEDFDF" id="svg_131"/>
   <path d="m123.38,6.65l0,0.22l-0.5,0.59l-0.34,0.44l-0.08,-0.15l0.08,-0.22l-0.25,0.15l0.17,-0.29l0.17,-0.15l0.5,-0.29l0.25,-0.29z" fill="#E2E2E3" id="svg_132"/>
   <path d="m64.15,5.32l0.17,0l0.08,0.22l0,1.18l-0.17,0.07l-0.08,-1.47z" fill="#EAEAEA" id="svg_133"/>
   <path d="m13.16,12.11l0.25,0.22l0.17,0.44l-0.42,-0.22l-0.17,0l-0.17,0.29l-0.25,0.15l0.17,-0.37l0.42,-0.52z" fill="#DEDFDF" id="svg_134"/>
   <path d="m6.94,9.97l0.25,0.07l-1.01,0.44l-0.42,-0.07l-0.17,-0.22l1.01,-0.07l0.34,-0.15z" fill="#DEDFDF" id="svg_135"/>
   <path d="m115.9,6.65l0,0.22l-0.42,0.15l0,0.15l-0.42,0.22l-0.17,0.22l-0.08,-0.44l1.01,-0.44l0.08,-0.07z" fill="#DEDFDF" id="svg_136"/>
   <path d="m29.71,6.8l0.08,0l0.08,0.59l1.43,0.22l0,0.07l-1.09,0l-0.42,-0.22l-0.08,-0.66z" fill="#DEDFDF" id="svg_137"/>
   <path d="m88.01,6.94l0.08,0.15l-0.67,0.88l-0.08,-0.15l0.08,-0.29l0,-0.22l0.17,-0.15l0.17,0l0.25,-0.22z" fill="#DEDFDF" id="svg_138"/>
   <path d="m69.78,5.32l0.17,0.07l-1.34,1.18l0,-0.22l0.67,-0.66l0.5,-0.37z" fill="#D7D8D8" id="svg_139"/>
   <path d="m114.72,4.88l0.08,0.29l-0.42,0.74l-0.5,0.52l0,-0.22l0.59,-0.81l0.25,-0.52z" fill="#DEDFDF" id="svg_140"/>
   <path d="m82.04,9.67l0.25,0l0.08,0.52l-0.5,0.74l-0.17,0.07l0.08,-0.37l0.34,-0.52l0.08,-0.37l-0.17,-0.07z" fill="#E5E5E6" id="svg_141"/>
   <path d="m82.3,7.16l0.17,0.07l-0.67,0.52l-0.42,0l-0.34,-0.22l0.08,-0.15l0.42,0.22l0.76,-0.44z" fill="#DEDFDF" id="svg_142"/>
   <path d="m9.63,4.44l0.17,0.07l0.25,0.44l-0.17,1.11l-0.08,0l-0.08,-1.03l-0.08,-0.59z" fill="#DEDFDF" id="svg_143"/>
   <path d="m35.34,7.98l0.17,0.29l-0.25,0.81l-0.25,0.29l0.08,-0.59l0.25,-0.81z" fill="#E2E3E3" id="svg_144"/>
   <path d="m19.54,5.32l0.08,0l-0.08,0.52l-0.25,0.37l-0.5,0.22l-0.17,-0.07l0.76,-0.59l0.17,-0.44z" fill="#DEDFDF" id="svg_145"/>
   <path d="m112.37,5.32l0.17,0.22l-0.42,0.74l-0.76,0.22l0.67,-0.59l0.17,0l0.17,-0.59z" fill="#DEDFDF" id="svg_146"/>
   <path d="m104.98,3.18l0.34,0.07l0.25,0.29l0,0.74l-0.08,0l-0.08,-0.74l-0.42,-0.15l-0.08,0.15l0.08,-0.37z" fill="#DDDEDE" id="svg_147"/>
   <path d="m13.49,13.21l0.5,0.37l0.5,0.59l-0.34,-0.15l-0.5,-0.44l0,-0.15l-0.34,0.15l0.17,-0.37z" fill="#DEDFDF" id="svg_148"/>
   <path d="m85.74,7.53l0.08,0l0,1.03l0,0.22l-0.17,0.22l-0.17,0l0.25,-1.47z" fill="#CFD0D1" id="svg_149"/>
   <path d="m60.29,5.47l0.17,0.07l-1.01,0.88l0,-0.22l0.67,-0.66l0.17,-0.07z" fill="#D7D8D8" id="svg_150"/>
   <path d="m94.81,5.1l0.17,0.07l-0.67,0.66l-0.34,0.29l-0.08,-0.22l0.92,-0.81z" fill="#EAEBEB" id="svg_151"/>
   <path d="m64.32,6.72l0.17,0.22l-0.08,0.37l-0.17,0.29l-0.08,0l0,-0.81l0.17,-0.07z" fill="#eee" id="svg_152"/>
   <path d="m18.11,5.62l0.17,0.07l-1.01,0.88l0,-0.22l0.42,-0.52l0.42,-0.22z" fill="#DEDFDF" id="svg_153"/>
   <path d="m81.2,1.41l0.08,0.15l-0.59,0.59l-0.34,0.15l0.08,-0.29l0.67,-0.52l0.08,-0.07z" fill="#D1D2D3" id="svg_154"/>
   <path d="m145.22,9.52l0.17,0l-0.34,0.88l-0.34,0.15l0.17,-0.44l0.34,-0.59z" fill="#EAEAEA" id="svg_155"/>
   <path d="m41.38,8.2l0.08,0.15l-0.42,1.03l-0.08,0l0.08,-0.66l0.17,-0.44l0.17,-0.07z" fill="#EDEDED" id="svg_156"/>
   <path d="m71.54,5.32l0.34,0.29l0,0.37l-0.42,0.07l-0.67,-0.07l0,-0.07l0.84,0l0,-0.37l-0.08,-0.22z" fill="#DEDFDF" id="svg_157"/>
   <path d="m100.27,10.93l0.08,0l-0.08,1.11l-0.08,0l-0.08,-0.66l-0.25,0.15l0.17,-0.29l0.25,-0.29z" fill="#CFCFD0" id="svg_158"/>
   <path d="m137.83,13.21l0.34,0.15l0.5,0.44l0,0.15l0.17,0l0,0.15l-0.34,-0.15l-0.67,-0.66l0,-0.07z" fill="#DEDFDF" id="svg_159"/>
   <path d="m4.17,11.44l0.59,0.44l0.42,0.44l-0.34,-0.15l-0.25,-0.15l0,-0.15l-0.25,-0.07l-0.17,-0.37z" fill="#DEDFDF" id="svg_160"/>
   <path d="m120.02,8.27l0.08,0.29l-0.08,0.74l-0.25,0.22l0.08,-0.66l0.17,-0.59z" fill="#CECFD0" id="svg_161"/>
   <path d="m52.47,9.75l0.17,0l0,0.52l-0.17,0.44l-0.08,0l0,-0.66l0.08,-0.29z" fill="#EDEEEE" id="svg_162"/>
  </g>
 </g>
</svg>