<?xml version="1.0"?>
<svg width="34" height="8" xmlns="http://www.w3.org/2000/svg" xmlns:svg="http://www.w3.org/2000/svg" version="1.1">
 <g class="layer">
  <title>Layer 1</title>
  <path d="m9.53,1.99c0.01,0 0.01,0 0.02,0c0.02,0 0.05,0 0.07,0c0.02,0 0.04,0 0.05,0c0.05,0 0.1,0 0.14,0c0.04,0 0.08,0 0.12,0c0.09,0 0.19,0 0.28,0c0.1,0 0.2,0 0.29,0c0.08,0 0.17,0 0.25,0c0.05,0 0.1,0 0.15,0c0.05,0 0.09,0 0.14,0c0.02,0 0.03,0 0.05,0c0.02,0 0.05,0 0.07,0c0.01,0 0.03,0 0.04,0c0.05,0.01 0.06,0.03 0.09,0.06c0.01,0.03 0.01,0.03 0.02,0.05c0,0.01 0.01,0.02 0.01,0.03c0.01,0.05 0.02,0.09 0.03,0.14c0,0.01 0,0.02 0.01,0.03c0,0.02 0.01,0.04 0.01,0.06c0.01,0.03 0.01,0.06 0.02,0.1c0.05,0.27 0.05,0.27 0,0.33c-0.04,0.03 -0.06,0.03 -0.11,0.02c-0.05,-0.04 -0.08,-0.1 -0.11,-0.16c-0.01,-0.02 -0.02,-0.04 -0.03,-0.06c0,-0.01 -0.01,-0.02 -0.01,-0.03c-0.06,-0.11 -0.12,-0.2 -0.25,-0.25c-0.12,-0.03 -0.25,-0.03 -0.37,-0.03c-0.02,0 -0.03,0 -0.05,0c-0.16,0 -0.16,0 -0.3,0.06c-0.04,0.07 -0.04,0.16 -0.04,0.25c0,0.01 0,0.01 0,0.03c0,0.02 0,0.04 0,0.06c0,0.03 0,0.06 0,0.09c0,0.02 0,0.04 0,0.06c0,0.01 0,0.01 0,0.03c0,0.11 0,0.11 0.04,0.21c0.12,0.04 0.3,0.01 0.41,-0.03c0.08,-0.04 0.11,-0.09 0.15,-0.16c0.02,-0.03 0.04,-0.05 0.07,-0.07c0.03,0 0.05,0 0.08,0.02c0.03,0.04 0.04,0.08 0.04,0.13c0,0.01 0,0.01 0,0.02c0,0.02 0,0.05 0,0.07c0,0.02 0,0.03 0,0.05c0,0.04 0,0.07 0,0.11c0,0.05 0,0.09 0,0.14c0,0.03 0,0.07 0,0.1c0,0.02 0,0.03 0,0.05c0,0.02 0,0.05 0,0.07c0,0.01 0,0.03 0,0.04c0,0.03 -0.01,0.05 -0.03,0.08c-0.04,0.02 -0.06,0.01 -0.1,0.01c-0.05,-0.04 -0.08,-0.09 -0.1,-0.14c-0.04,-0.07 -0.07,-0.11 -0.14,-0.14c-0.06,-0.02 -0.12,-0.02 -0.19,-0.03c-0.01,0 -0.02,0 -0.03,0c-0.06,0 -0.11,0 -0.16,0.02c-0.05,0.07 -0.04,0.17 -0.04,0.25c0,0.01 0,0.03 0,0.04c0,0.03 0,0.05 0,0.08c0,0.04 0,0.08 0,0.12c0,0.03 0,0.05 0,0.08c0,0.02 0,0.02 0,0.04c0,0.14 0,0.14 0.05,0.27c0.16,0.1 0.46,0.07 0.64,0.04c0.14,-0.03 0.25,-0.07 0.34,-0.19c0.04,-0.06 0.07,-0.12 0.1,-0.19c0.07,-0.13 0.07,-0.13 0.12,-0.16c0.04,0 0.06,-0.01 0.09,0.01c0.08,0.13 0.02,0.36 0,0.5c0,0.02 -0.01,0.05 -0.01,0.07c0,0.03 -0.01,0.07 -0.01,0.1c0,0.01 0,0.02 0,0.03c-0.01,0.04 -0.01,0.07 -0.03,0.11c-0.09,0.06 -0.23,0.05 -0.34,0.05c-0.02,0 -0.03,0 -0.05,0c-0.05,0 -0.09,0 -0.14,0c-0.05,0 -0.1,0 -0.14,0c-0.08,0 -0.16,0 -0.24,0c-0.09,0 -0.18,0 -0.28,0c-0.08,0 -0.16,0 -0.24,0c-0.05,0 -0.09,0 -0.14,0c-0.04,0 -0.09,0 -0.13,0c-0.02,0 -0.03,0 -0.05,0c-0.21,0 -0.21,0 -0.27,-0.04c-0.02,-0.03 -0.02,-0.05 -0.03,-0.08c0.02,-0.06 0.06,-0.09 0.11,-0.12c0.07,-0.05 0.09,-0.1 0.1,-0.18c0,-0.05 0.01,-0.1 0.01,-0.15c0,-0.01 0,-0.03 0,-0.04c0,-0.15 0,-0.31 0,-0.46c0,-0.01 0,-0.03 0,-0.04c0,-0.08 0,-0.16 0,-0.23c0,-0.07 0,-0.14 0,-0.21c0,-0.06 0,-0.12 0,-0.19c0,-0.04 0,-0.07 0,-0.11c0.01,-0.28 0.01,-0.28 -0.09,-0.53c-0.03,-0.02 -0.05,-0.05 -0.08,-0.07c-0.03,-0.02 -0.03,-0.04 -0.04,-0.08c0,-0.05 0,-0.07 0.04,-0.1c0.04,-0.02 0.06,-0.03 0.11,-0.03z" fill="#6A0C33" id="svg_2"/>
  <path d="m13.79,1.77c0.03,0.02 0.04,0.03 0.06,0.07c0,0.02 0,0.03 0,0.05c0,0.01 0,0.02 0,0.03c0,0.02 0,0.02 0,0.03c0,0.01 0,0.02 0,0.03c0,0.09 0,0.18 -0.01,0.26c-0.01,0.35 -0.01,0.69 -0.01,1.04c0,0.07 0,0.15 0,0.22c0,0.07 0,0.15 0,0.22c0,0.04 0,0.09 0,0.13c0,0.04 0,0.08 0,0.12c0,0.02 0,0.04 0,0.06c0,0.12 0,0.12 0.04,0.24c0.04,0.02 0.06,0.02 0.11,0.02c0.04,0 0.04,0 0.08,0c0.03,0.05 0.03,0.08 0.02,0.13c-0.03,0.09 -0.08,0.16 -0.17,0.21c-0.11,0.05 -0.24,0.06 -0.35,0.02c-0.11,-0.04 -0.17,-0.14 -0.23,-0.23c-0.02,0.01 -0.02,0.01 -0.03,0.03c-0.22,0.18 -0.43,0.25 -0.72,0.23c-0.16,-0.02 -0.29,-0.1 -0.4,-0.21c-0.01,-0.01 -0.01,-0.01 -0.02,-0.02c-0.2,-0.2 -0.24,-0.51 -0.24,-0.77c0.01,-0.28 0.07,-0.56 0.27,-0.78c0.01,-0.01 0.01,-0.02 0.02,-0.03c0.12,-0.14 0.32,-0.22 0.5,-0.24c0.22,-0.01 0.39,0.06 0.56,0.19c0.02,0.01 0.02,0.01 0.03,0.03c0.01,0.01 0.01,0.01 0.03,0.02c0,-0.08 0,-0.16 0,-0.25c0,-0.03 0,-0.06 0,-0.08c0,-0.04 0,-0.08 0,-0.12c0,-0.01 0,-0.02 0,-0.04c0,-0.07 -0.01,-0.12 -0.05,-0.17c-0.03,-0.02 -0.03,-0.02 -0.06,-0.04c-0.07,-0.03 -0.07,-0.03 -0.1,-0.06c-0.01,-0.06 -0.01,-0.06 0,-0.09c0.06,-0.06 0.13,-0.08 0.2,-0.11c0.03,-0.01 0.05,-0.02 0.08,-0.03c0.01,0 0.02,-0.01 0.04,-0.01c0.04,-0.01 0.08,-0.03 0.11,-0.05c0.07,-0.03 0.14,-0.06 0.23,-0.04zm-1.21,1.3c-0.16,0.23 -0.17,0.54 -0.12,0.81c0.03,0.14 0.09,0.3 0.21,0.39c0.11,0.07 0.22,0.08 0.35,0.06c0.11,-0.03 0.18,-0.1 0.24,-0.19c0.14,-0.27 0.13,-0.63 0.04,-0.91c-0.05,-0.12 -0.13,-0.23 -0.25,-0.28c-0.18,-0.06 -0.35,-0.01 -0.47,0.13z" fill="#6A0C33" id="svg_3"/>
  <path d="m29.04,2.73c0.15,0.11 0.22,0.28 0.25,0.46c0.01,0.07 0.01,0.14 0.01,0.21c0,0.01 0,0.02 0,0.03c0,0.19 -0.02,0.37 -0.04,0.56c-0.03,0.18 -0.03,0.18 0.02,0.36c0.03,0.04 0.07,0.06 0.12,0.09c0.03,0.02 0.05,0.03 0.07,0.06c0,0.04 0,0.04 0,0.08c-0.02,0.03 -0.04,0.04 -0.07,0.06c-0.02,0 -0.04,0 -0.07,0c-0.02,0 -0.02,0 -0.04,0c-0.01,0 -0.03,0 -0.05,0c-0.01,0 -0.02,0 -0.02,0c-0.04,0 -0.08,0 -0.12,0c-0.04,0 -0.08,0 -0.12,0c-0.03,0 -0.06,0 -0.1,0c-0.02,0 -0.05,0 -0.07,0c-0.01,0 -0.03,0 -0.04,0c-0.01,0 -0.02,0 -0.04,0c-0.04,-0.01 -0.05,-0.02 -0.08,-0.05c-0.02,-0.07 0.01,-0.15 0.03,-0.22c0.11,-0.35 0.18,-0.91 0.01,-1.24c-0.05,-0.08 -0.13,-0.13 -0.22,-0.16c-0.14,-0.01 -0.25,0.02 -0.36,0.1c-0.09,0.07 -0.15,0.17 -0.16,0.28c0,0.03 0,0.05 0,0.08c0,0.01 0,0.02 0,0.02c0,0.03 0,0.05 0,0.08c0,0.02 0,0.04 0,0.05c0,0.04 0,0.07 0,0.11c0,0.05 0,0.09 0,0.14c0,0.04 0,0.07 0,0.11c0,0.02 0,0.03 0,0.05c-0.01,0.19 -0.01,0.19 0.06,0.37c0.03,0.03 0.06,0.05 0.1,0.08c0.03,0.02 0.04,0.03 0.05,0.07c0,0.07 0,0.07 -0.03,0.1c-0.04,0.03 -0.07,0.02 -0.12,0.03c-0.01,0 -0.01,0 -0.02,0c-0.03,0 -0.05,0 -0.08,0c-0.01,0 -0.01,0 -0.03,0c-0.05,0 -0.09,0 -0.14,0c-0.05,0 -0.1,0 -0.14,0c-0.04,0 -0.07,0 -0.11,0c-0.02,0 -0.03,0 -0.05,0c-0.02,0 -0.05,0 -0.07,0c-0.01,0 -0.03,0 -0.04,0c-0.04,-0.01 -0.06,-0.02 -0.08,-0.05c-0.01,-0.03 -0.01,-0.06 0,-0.1c0.03,-0.04 0.06,-0.07 0.1,-0.1c0.06,-0.05 0.09,-0.1 0.1,-0.17c0,-0.02 0,-0.03 0,-0.05c0,-0.01 0,-0.02 0,-0.03c0,-0.01 0,-0.02 0,-0.03c0,-0.01 0,-0.02 0,-0.03c0,-0.03 0,-0.07 0,-0.1c0,-0.02 0,-0.05 0,-0.07c0,-0.05 0,-0.1 0,-0.15c0,-0.07 0,-0.13 0,-0.2c0,-0.05 0,-0.1 0,-0.15c0,-0.02 0,-0.05 0,-0.07c0,-0.03 0,-0.07 0,-0.1c0,-0.01 0,-0.02 0,-0.03c0,-0.06 -0.01,-0.09 -0.04,-0.14c-0.03,-0.02 -0.03,-0.02 -0.07,-0.04c-0.08,-0.04 -0.08,-0.04 -0.1,-0.08c0,-0.04 0,-0.07 0.03,-0.1c0.03,-0.02 0.05,-0.04 0.09,-0.05c0.01,-0.01 0.02,-0.01 0.04,-0.02c0.02,-0.01 0.02,-0.01 0.04,-0.02c0.02,-0.01 0.05,-0.02 0.07,-0.03c0.01,0 0.02,-0.01 0.04,-0.02c0.03,-0.01 0.07,-0.03 0.1,-0.05c0.04,-0.02 0.08,-0.03 0.13,-0.03c0.01,0 0.02,0 0.03,0c0.03,0.01 0.03,0.01 0.05,0.03c0.03,0.05 0.04,0.09 0.05,0.15c0,0.01 0,0.02 0.01,0.03c0.02,0.07 0.02,0.07 0.02,0.1c0.01,-0.01 0.03,-0.02 0.04,-0.03c0.01,-0.01 0.02,-0.01 0.03,-0.02c0.02,-0.01 0.04,-0.03 0.06,-0.04c0.26,-0.21 0.64,-0.31 0.95,-0.11z" fill="#6A0C33" id="svg_4"/>
  <path d="m15.1,2.64c0.03,0.02 0.04,0.04 0.06,0.07c0.01,0.13 -0.01,0.25 -0.03,0.38c-0.1,0.59 -0.1,0.59 0.06,1.14c0.06,0.06 0.13,0.1 0.22,0.1c0.12,0 0.22,-0.01 0.32,-0.09c0.12,-0.11 0.15,-0.27 0.15,-0.42c0,-0.04 0,-0.07 0,-0.11c0,-0.01 0,-0.03 0,-0.04c0,-0.03 0,-0.06 0,-0.09c0,-0.04 0,-0.09 0,-0.13c0,-0.03 0,-0.06 0,-0.08c0,-0.02 0,-0.02 0,-0.04c0,-0.17 0,-0.17 -0.07,-0.32c-0.02,-0.01 -0.04,-0.03 -0.06,-0.04c-0.04,-0.03 -0.07,-0.06 -0.09,-0.11c0,-0.04 0,-0.07 0.03,-0.1c0.03,-0.03 0.06,-0.03 0.1,-0.04c0.02,0 0.03,-0.01 0.05,-0.01c0.01,0 0.01,0 0.03,0c0.04,-0.01 0.07,-0.01 0.11,-0.02c0.01,0 0.03,0 0.04,-0.01c0.03,0 0.05,-0.01 0.08,-0.02c0.22,-0.04 0.22,-0.04 0.3,0c0.02,0.04 0.03,0.06 0.02,0.11c0,0.01 0,0.01 0,0.02c0,0.06 -0.01,0.12 -0.02,0.18c-0.02,0.14 -0.02,0.29 -0.02,0.43c0,0.01 0,0.02 0,0.03c0,0.06 0,0.11 0,0.17c0,0.06 0,0.12 0,0.18c0,0.05 0,0.09 0,0.14c0,0.02 0,0.04 0,0.06c0,0.03 0,0.06 0,0.09c0,0.01 0,0.01 0,0.03c0,0.06 0.01,0.11 0.04,0.16c0.04,0.03 0.07,0.02 0.12,0.02c0.01,0 0.03,0 0.04,0c0.01,0 0.02,0 0.03,0c0.03,0.05 0.02,0.1 0.01,0.15c-0.03,0.09 -0.09,0.15 -0.17,0.19c-0.1,0.04 -0.22,0.04 -0.33,0.02c-0.12,-0.04 -0.18,-0.13 -0.24,-0.23c-0.04,0.02 -0.07,0.04 -0.1,0.07c-0.17,0.15 -0.39,0.2 -0.62,0.19c-0.18,-0.02 -0.33,-0.08 -0.45,-0.21c-0.1,-0.14 -0.15,-0.3 -0.15,-0.47c0,-0.01 0,-0.02 0,-0.03c0,-0.03 0,-0.06 0,-0.09c0,-0.01 0,-0.02 0,-0.03c0,-0.16 0.01,-0.31 0.02,-0.46c0.01,-0.06 0.01,-0.12 0.01,-0.18c0,-0.01 0,-0.02 0,-0.02c0,-0.08 -0.03,-0.14 -0.08,-0.2c-0.02,-0.01 -0.03,-0.02 -0.05,-0.03c-0.07,-0.04 -0.07,-0.04 -0.08,-0.09c0,-0.04 0,-0.07 0.03,-0.1c0.03,-0.03 0.06,-0.03 0.1,-0.04c0.02,0 0.03,-0.01 0.05,-0.01c0.01,0 0.01,0 0.03,0c0.04,-0.01 0.07,-0.01 0.11,-0.02c0.03,-0.01 0.06,-0.01 0.08,-0.02c0.01,0 0.03,0 0.04,-0.01c0.09,-0.02 0.19,-0.03 0.28,-0.02z" fill="#6A0C33" id="svg_5"/>
  <path d="m20.63,2.81c0.16,0.16 0.24,0.35 0.24,0.57c0,0.02 0,0.04 0,0.05c0,0.01 0,0.02 0,0.03c0,0.08 0,0.16 -0.01,0.25c0,0.11 -0.01,0.21 -0.01,0.32c0,0.02 0,0.04 0,0.06c0,0.01 0,0.03 0,0.04c0,0.02 0,0.02 0,0.03c0,0.04 0.02,0.07 0.04,0.1c0.03,0.02 0.07,0.01 0.1,0.01c0.02,0 0.02,0 0.04,0c0.01,0 0.02,0 0.03,0c0.03,0.05 0.02,0.1 0.01,0.15c-0.03,0.09 -0.09,0.15 -0.17,0.19c-0.1,0.04 -0.23,0.05 -0.34,0.02c-0.02,-0.01 -0.05,-0.02 -0.07,-0.04c-0.01,-0.01 -0.02,-0.01 -0.04,-0.02c-0.04,-0.03 -0.06,-0.08 -0.08,-0.13c-0.01,-0.03 -0.01,-0.03 -0.05,-0.04c0,0.01 -0.01,0.01 -0.01,0.02c-0.06,0.11 -0.24,0.17 -0.35,0.21c-0.08,0.02 -0.16,0.02 -0.24,0.02c-0.01,0 -0.02,0 -0.04,0c-0.16,0 -0.32,-0.04 -0.43,-0.15c-0.11,-0.11 -0.13,-0.24 -0.13,-0.39c0.01,-0.16 0.09,-0.27 0.2,-0.38c0.21,-0.16 0.47,-0.21 0.72,-0.25c0.01,0 0.02,0 0.02,0c0.04,-0.01 0.08,-0.01 0.11,-0.02c0.01,0 0.03,0 0.04,-0.01c0.01,0 0.02,0 0.04,-0.01c0.03,-0.01 0.03,-0.01 0.06,-0.03c0.04,-0.12 0.02,-0.29 -0.03,-0.41c-0.05,-0.08 -0.11,-0.13 -0.2,-0.17c-0.09,-0.02 -0.18,-0.01 -0.26,0.03c-0.11,0.07 -0.15,0.19 -0.19,0.31c-0.01,0.05 -0.03,0.09 -0.08,0.12c-0.06,0.03 -0.15,0.02 -0.21,-0.01c-0.06,-0.03 -0.1,-0.09 -0.12,-0.15c-0.02,-0.11 0.01,-0.21 0.07,-0.3c0.13,-0.16 0.33,-0.23 0.53,-0.25c0.27,-0.03 0.56,0 0.77,0.18zm-0.9,1.08c-0.07,0.08 -0.09,0.15 -0.09,0.26c0.01,0.07 0.04,0.1 0.09,0.15c0.1,0.06 0.21,0.07 0.33,0.04c0.12,-0.04 0.21,-0.12 0.27,-0.22c0.06,-0.12 0.07,-0.25 0.05,-0.37c-0.01,-0.01 -0.01,-0.01 -0.01,-0.02c-0.23,-0.01 -0.46,0.01 -0.63,0.17z" fill="#6A0C33" id="svg_6"/>
  <path d="m26.6,2.92c0.24,0.25 0.29,0.56 0.28,0.89c0,0.14 -0.04,0.26 -0.1,0.38c-0.01,0.01 -0.01,0.02 -0.02,0.03c-0.12,0.21 -0.32,0.35 -0.55,0.41c-0.31,0.07 -0.62,0.05 -0.89,-0.1c-0.04,-0.02 -0.07,-0.05 -0.1,-0.08c-0.01,-0.01 -0.01,-0.01 -0.02,-0.02c-0.19,-0.15 -0.29,-0.38 -0.32,-0.61c0,-0.06 0,-0.11 0,-0.17c0,-0.01 0,-0.01 0,-0.02c0,-0.12 0.01,-0.23 0.05,-0.35c0,-0.01 0.01,-0.03 0.01,-0.04c0.09,-0.26 0.28,-0.44 0.53,-0.56c0.39,-0.16 0.84,-0.05 1.14,0.23zm-1.07,0.1c-0.16,0.19 -0.16,0.44 -0.14,0.67c0.03,0.22 0.09,0.43 0.26,0.58c0.09,0.07 0.2,0.12 0.32,0.11c0.13,-0.02 0.23,-0.07 0.31,-0.17c0.03,-0.05 0.05,-0.1 0.07,-0.16c0,-0.01 0.01,-0.01 0.01,-0.02c0.08,-0.27 0,-0.6 -0.13,-0.84c-0.07,-0.13 -0.18,-0.24 -0.33,-0.29c-0.15,-0.03 -0.28,0.01 -0.38,0.12z" fill="#6A0C33" id="svg_7"/>
  <path d="m22.99,2.8c0.1,0.09 0.15,0.19 0.16,0.33c0,0.09 -0.03,0.16 -0.09,0.22c-0.08,0.07 -0.15,0.08 -0.25,0.08c-0.04,-0.01 -0.05,-0.02 -0.08,-0.05c-0.01,-0.04 -0.02,-0.07 -0.03,-0.11c-0.04,-0.14 -0.08,-0.27 -0.21,-0.34c-0.09,-0.04 -0.18,-0.04 -0.27,-0.01c-0.13,0.05 -0.2,0.16 -0.26,0.28c-0.09,0.23 -0.06,0.49 0.04,0.72c0.08,0.15 0.2,0.25 0.37,0.3c0.16,0.05 0.33,0.03 0.48,-0.04c0.08,-0.04 0.14,-0.09 0.19,-0.16c0.01,-0.01 0.02,-0.02 0.03,-0.04c0.01,-0.01 0.02,-0.02 0.03,-0.03c0.06,-0.07 0.06,-0.07 0.1,-0.08c0.03,0.01 0.04,0.02 0.06,0.05c0.02,0.16 -0.03,0.3 -0.12,0.43c-0.03,0.04 -0.07,0.07 -0.1,0.11c-0.01,0.01 -0.01,0.01 -0.02,0.02c-0.17,0.16 -0.41,0.21 -0.64,0.21c-0.24,-0.01 -0.46,-0.09 -0.64,-0.24c-0.01,-0.01 -0.01,-0.01 -0.02,-0.02c-0.19,-0.17 -0.27,-0.45 -0.29,-0.69c-0.01,-0.31 0.09,-0.59 0.3,-0.82c0.01,-0.01 0.02,-0.02 0.03,-0.03c0.01,-0.01 0.01,-0.01 0.02,-0.02c0.31,-0.29 0.88,-0.34 1.22,-0.06z" fill="#6A0C33" id="svg_9"/>
  <path d="m18.54,2.8c0.1,0.09 0.15,0.19 0.16,0.33c0,0.09 -0.03,0.16 -0.09,0.22c-0.08,0.07 -0.15,0.08 -0.25,0.08c-0.04,-0.01 -0.05,-0.02 -0.08,-0.05c-0.01,-0.04 -0.02,-0.07 -0.03,-0.11c-0.04,-0.14 -0.08,-0.27 -0.21,-0.34c-0.09,-0.04 -0.18,-0.04 -0.27,-0.01c-0.13,0.05 -0.2,0.16 -0.26,0.28c-0.09,0.23 -0.06,0.49 0.04,0.72c0.08,0.15 0.2,0.25 0.37,0.3c0.16,0.05 0.33,0.03 0.48,-0.04c0.08,-0.04 0.14,-0.09 0.19,-0.16c0.01,-0.01 0.02,-0.02 0.03,-0.04c0.01,-0.01 0.02,-0.02 0.03,-0.03c0.06,-0.07 0.06,-0.07 0.1,-0.08c0.03,0.01 0.04,0.02 0.06,0.05c0.02,0.16 -0.03,0.3 -0.12,0.43c-0.03,0.04 -0.07,0.07 -0.1,0.11c-0.01,0.01 -0.01,0.01 -0.02,0.02c-0.17,0.16 -0.41,0.21 -0.64,0.21c-0.24,-0.01 -0.46,-0.09 -0.64,-0.24c-0.01,-0.01 -0.01,-0.01 -0.02,-0.02c-0.19,-0.17 -0.27,-0.45 -0.29,-0.69c-0.01,-0.31 0.09,-0.59 0.3,-0.82c0.01,-0.01 0.02,-0.02 0.03,-0.03c0.01,-0.01 0.01,-0.01 0.02,-0.02c0.31,-0.29 0.88,-0.34 1.22,-0.06z" fill="#6A0C33" id="svg_10"/>
  <path d="m24.25,2.63c0.04,0.02 0.04,0.02 0.06,0.06c0.01,0.04 0.01,0.07 0,0.11c0,0.01 0,0.02 0,0.04c0,0.04 0,0.08 0,0.12c0,0.06 0,0.12 -0.01,0.18c0,0.01 0,0.02 0,0.03c-0.01,0.2 -0.01,0.4 -0.01,0.6c0,0.03 0,0.05 0,0.08c0,0.04 0,0.08 0,0.13c0,0.02 0,0.03 0,0.05c-0.01,0.19 -0.01,0.19 0.07,0.36c0.02,0.02 0.05,0.04 0.08,0.06c0.04,0.03 0.05,0.04 0.07,0.08c0,0.04 0,0.07 -0.02,0.1c-0.04,0.03 -0.08,0.03 -0.12,0.03c-0.01,0 -0.02,0 -0.02,0c-0.03,0 -0.05,0 -0.08,0c-0.02,0 -0.04,0 -0.05,0c-0.04,0 -0.07,0 -0.11,0c-0.05,0 -0.1,0 -0.14,0c-0.04,0 -0.07,0 -0.11,0c-0.02,0 -0.04,0 -0.05,0c-0.02,0 -0.05,0 -0.07,0c-0.01,0 -0.03,0 -0.04,0c-0.04,-0.01 -0.06,-0.02 -0.08,-0.05c-0.01,-0.03 -0.01,-0.06 0,-0.1c0.03,-0.04 0.06,-0.07 0.1,-0.1c0.06,-0.05 0.09,-0.1 0.1,-0.17c0,-0.01 0,-0.03 0,-0.04c0,-0.01 0,-0.02 0,-0.03c0,-0.01 0,-0.02 0,-0.03c0,-0.01 0,-0.02 0,-0.03c0,-0.03 0,-0.07 0,-0.1c0,-0.01 0,-0.02 0,-0.03c0,-0.06 0,-0.12 0,-0.18c0,-0.06 0,-0.13 0,-0.19c0,-0.05 0,-0.1 0,-0.15c0,-0.02 0,-0.05 0,-0.07c0,-0.03 0,-0.06 0,-0.1c0,-0.01 0,-0.01 0,-0.03c0,-0.06 -0.01,-0.11 -0.05,-0.17c-0.03,-0.02 -0.03,-0.02 -0.06,-0.04c-0.04,-0.02 -0.07,-0.04 -0.1,-0.08c-0.01,-0.04 0,-0.06 0.02,-0.09c0.04,-0.04 0.08,-0.05 0.13,-0.07c0.07,-0.02 0.13,-0.05 0.2,-0.08c0.01,-0.01 0.02,-0.01 0.03,-0.02c0.02,-0.01 0.04,-0.02 0.07,-0.03c0.07,-0.03 0.14,-0.05 0.22,-0.03z" fill="#6A0C33" id="svg_14"/>
  <path d="m21.59,5.07c0.08,0 0.16,0 0.25,0c0,0.4 0,0.8 0,1.21c-0.08,0 -0.16,0 -0.24,0c0,-0.02 -0.01,-0.04 -0.01,-0.07c-0.01,0.01 -0.01,0.01 -0.02,0.01c-0.01,0 -0.02,0.01 -0.02,0.01c-0.01,0 -0.02,0.01 -0.02,0.01c-0.06,0.03 -0.12,0.04 -0.19,0.04c-0.01,0 -0.02,0 -0.03,0c-0.07,0 -0.13,-0.01 -0.19,-0.05c-0.01,-0.01 -0.02,-0.01 -0.04,-0.02c-0.11,-0.09 -0.17,-0.19 -0.19,-0.33c-0.01,-0.15 0.03,-0.28 0.12,-0.4c0.07,-0.08 0.17,-0.12 0.28,-0.12c0.11,0 0.19,0.01 0.28,0.08c0,0 0.01,0.01 0.01,0.01c0,-0.13 0.01,-0.26 0.01,-0.4zm-0.36,0.57c-0.07,0.08 -0.08,0.14 -0.08,0.24c0.01,0.07 0.03,0.11 0.08,0.16c0.07,0.05 0.12,0.06 0.2,0.05c0.06,-0.02 0.1,-0.06 0.14,-0.11c0.04,-0.08 0.04,-0.16 0.01,-0.25c-0.03,-0.06 -0.06,-0.09 -0.12,-0.12c-0.09,-0.03 -0.16,-0.03 -0.24,0.03z" fill="#000000" id="svg_25"/>
  <path d="m18.28,5.07c0.08,0 0.16,0 0.25,0c0,0.4 0,0.8 0,1.21c-0.08,0 -0.16,0 -0.24,0c0,-0.02 -0.01,-0.04 -0.01,-0.07c-0.01,0.01 -0.01,0.01 -0.02,0.01c-0.01,0 -0.02,0.01 -0.02,0.01c-0.01,0 -0.02,0.01 -0.02,0.01c-0.06,0.03 -0.12,0.04 -0.19,0.04c-0.01,0 -0.02,0 -0.03,0c-0.07,0 -0.13,-0.01 -0.19,-0.05c-0.01,-0.01 -0.02,-0.01 -0.04,-0.02c-0.11,-0.09 -0.17,-0.19 -0.19,-0.33c-0.01,-0.15 0.03,-0.28 0.12,-0.4c0.07,-0.08 0.17,-0.12 0.28,-0.12c0.11,0 0.19,0.01 0.28,0.08c0,0 0.01,0.01 0.01,0.01c0,-0.13 0.01,-0.26 0.01,-0.4zm-0.36,0.57c-0.07,0.08 -0.08,0.14 -0.08,0.24c0.01,0.07 0.03,0.11 0.08,0.16c0.07,0.05 0.12,0.06 0.2,0.05c0.06,-0.02 0.1,-0.06 0.14,-0.11c0.04,-0.08 0.04,-0.16 0.01,-0.25c-0.03,-0.06 -0.06,-0.09 -0.12,-0.12c-0.09,-0.03 -0.16,-0.03 -0.24,0.03z" fill="#000000" id="svg_26"/>
  <path d="m30.42,5.07c0.08,0 0.16,0 0.25,0c0,0.13 0,0.26 0,0.4c0.04,-0.02 0.07,-0.04 0.11,-0.07c0.1,-0.04 0.22,-0.03 0.31,0c0.1,0.04 0.19,0.11 0.23,0.22c0.05,0.15 0.06,0.32 -0.01,0.46c-0.06,0.1 -0.15,0.18 -0.26,0.21c-0.1,0.02 -0.23,0.02 -0.32,-0.03c-0.05,-0.03 -0.05,-0.03 -0.06,-0.05c0,0.02 -0.01,0.04 -0.01,0.07c-0.08,0 -0.16,0 -0.24,0c0,-0.4 0,-0.8 0,-1.21zm0.31,0.58c-0.06,0.07 -0.08,0.14 -0.08,0.23c0.01,0.08 0.05,0.13 0.11,0.19c0.05,0.03 0.11,0.03 0.17,0.02c0.08,-0.02 0.12,-0.07 0.16,-0.13c0.03,-0.07 0.02,-0.17 -0.01,-0.24c-0.04,-0.06 -0.09,-0.1 -0.16,-0.12c-0.07,-0.01 -0.14,0.01 -0.2,0.05z" fill="#000000" id="svg_27"/>
  <path d="m10.04,5.13c0.07,0.05 0.14,0.11 0.16,0.2c0,0.01 0,0.02 0,0.02c-0.03,0.01 -0.06,0.03 -0.09,0.04c-0.01,0.01 -0.01,0.01 -0.03,0.01c-0.01,0 -0.02,0.01 -0.02,0.01c-0.01,0 -0.01,0.01 -0.02,0.01c-0.02,0.01 -0.02,0.01 -0.07,0.01c-0.02,-0.02 -0.03,-0.04 -0.05,-0.07c-0.04,-0.03 -0.07,-0.04 -0.12,-0.05c-0.04,0 -0.06,0.01 -0.1,0.04c-0.02,0.03 -0.02,0.06 -0.01,0.1c0.04,0.05 0.09,0.07 0.14,0.1c0.02,0.01 0.03,0.02 0.05,0.02c0.01,0 0.02,0.01 0.02,0.01c0.19,0.09 0.19,0.09 0.25,0.17c0,0.01 0.01,0.01 0.01,0.02c0.05,0.08 0.05,0.18 0.03,0.28c-0.03,0.1 -0.09,0.15 -0.18,0.2c-0.12,0.05 -0.28,0.06 -0.41,0.02c-0.1,-0.04 -0.18,-0.13 -0.22,-0.23c0,-0.02 0,-0.02 0.01,-0.04c0.02,-0.01 0.02,-0.01 0.05,-0.02c0.01,0 0.02,-0.01 0.03,-0.01c0.01,0 0.02,-0.01 0.03,-0.01c0.01,0 0.02,-0.01 0.03,-0.01c0.02,-0.01 0.05,-0.02 0.07,-0.03c0,0.01 0.01,0.01 0.01,0.02c0.04,0.07 0.04,0.07 0.11,0.11c0.06,0.01 0.1,0.02 0.15,0c0.03,-0.02 0.03,-0.02 0.05,-0.05c0.01,-0.05 0.01,-0.07 -0.02,-0.11c-0.07,-0.05 -0.14,-0.09 -0.22,-0.13c-0.12,-0.06 -0.21,-0.11 -0.26,-0.23c-0.03,-0.09 -0.02,-0.18 0.02,-0.27c0.04,-0.08 0.11,-0.13 0.2,-0.16c0.12,-0.03 0.28,-0.03 0.39,0.03z" fill="#000000" id="svg_31"/>
  <path d="m28.54,5.11c0.58,0 0.58,0 0.7,0.1c0.09,0.09 0.1,0.18 0.1,0.3c-0.01,0.1 -0.04,0.17 -0.12,0.24c-0.1,0.07 -0.19,0.09 -0.32,0.09c-0.04,0 -0.08,0 -0.11,0c0,0.15 0,0.29 0,0.44c-0.08,0 -0.16,0 -0.25,0c0,-0.39 0,-0.77 0,-1.17zm0.25,0.21c0,0.1 0,0.2 0,0.31c0.15,0.01 0.15,0.01 0.26,-0.06c0.03,-0.05 0.03,-0.11 0.01,-0.16c-0.03,-0.04 -0.06,-0.06 -0.1,-0.08c-0.03,0 -0.06,0 -0.09,0c-0.03,0 -0.06,0 -0.08,0z" fill="#000000" id="svg_32"/>
  <path d="m26.72,5.42c0.01,0.01 0.01,0.01 0.03,0.01c0.11,0.06 0.18,0.15 0.22,0.27c0.02,0.11 0.02,0.25 -0.03,0.35c-0.07,0.11 -0.17,0.19 -0.3,0.23c-0.15,0.03 -0.31,0.02 -0.44,-0.06c-0.11,-0.08 -0.18,-0.17 -0.2,-0.31c-0.01,-0.12 0,-0.25 0.08,-0.35c0.16,-0.18 0.43,-0.26 0.66,-0.14zm-0.44,0.27c-0.04,0.06 -0.05,0.12 -0.05,0.19c0.02,0.08 0.06,0.14 0.13,0.19c0.06,0.03 0.13,0.03 0.19,0.01c0.07,-0.03 0.11,-0.07 0.15,-0.13c0.02,-0.07 0.03,-0.16 -0.01,-0.23c-0.03,-0.05 -0.08,-0.09 -0.13,-0.12c-0.12,-0.03 -0.21,0 -0.29,0.09z" fill="#000000" id="svg_34"/>
  <path d="m20.14,5.11c0.21,0 0.42,0 0.64,0c0,0.07 0,0.15 0,0.22c-0.13,0 -0.25,0 -0.39,0c0,0.08 0,0.16 0,0.24c0.11,0 0.22,0 0.33,0c0,0.07 0,0.15 0,0.22c-0.11,0 -0.22,0 -0.33,0c0,0.09 0,0.17 0,0.26c0.13,0 0.26,0 0.4,0c0,0.07 0,0.15 0,0.22c-0.21,0 -0.43,0 -0.65,0c0,-0.39 0,-0.77 0,-1.17z" fill="#000000" id="svg_35"/>
  <path d="m19.39,5.45c0.03,0.03 0.03,0.03 0.06,0.06c0.01,0.01 0.02,0.02 0.02,0.02c0.07,0.1 0.08,0.21 0.09,0.33c0,0.01 -0.01,0.02 -0.01,0.03c-0.21,0 -0.42,0 -0.64,0c0.04,0.11 0.04,0.11 0.12,0.17c0.07,0.02 0.16,0.02 0.23,-0.01c0.03,-0.02 0.06,-0.04 0.08,-0.07c0.05,0.02 0.08,0.04 0.12,0.07c0.01,0.01 0.02,0.02 0.03,0.02c0.01,0.01 0.02,0.01 0.02,0.02c-0.03,0.09 -0.1,0.14 -0.18,0.18c-0.12,0.04 -0.28,0.04 -0.4,0c-0.13,-0.06 -0.22,-0.15 -0.27,-0.28c-0.04,-0.12 -0.03,-0.26 0.02,-0.38c0.06,-0.1 0.14,-0.18 0.25,-0.22c0.01,0 0.01,-0.01 0.02,-0.01c0.14,-0.04 0.3,-0.02 0.42,0.06zm-0.44,0.19c-0.02,0.03 -0.02,0.03 -0.03,0.09c0.12,0 0.25,0 0.37,0c-0.01,-0.07 -0.03,-0.1 -0.08,-0.14c-0.1,-0.05 -0.19,-0.02 -0.27,0.05z" fill="#000000" id="svg_37"/>
  <path d="m13.45,5.45c0.03,0.03 0.03,0.03 0.06,0.06c0.01,0.01 0.02,0.02 0.02,0.02c0.07,0.1 0.08,0.21 0.09,0.33c0,0.01 -0.01,0.02 -0.01,0.03c-0.21,0 -0.42,0 -0.64,0c0.04,0.11 0.04,0.11 0.12,0.17c0.07,0.02 0.16,0.02 0.23,-0.01c0.03,-0.02 0.06,-0.04 0.08,-0.07c0.05,0.02 0.08,0.04 0.12,0.07c0.01,0.01 0.02,0.02 0.03,0.02c0.01,0.01 0.02,0.01 0.02,0.02c-0.03,0.09 -0.1,0.14 -0.18,0.18c-0.12,0.04 -0.28,0.04 -0.4,0c-0.13,-0.06 -0.22,-0.15 -0.27,-0.28c-0.04,-0.12 -0.03,-0.26 0.02,-0.38c0.06,-0.1 0.14,-0.18 0.25,-0.22c0.01,0 0.01,-0.01 0.02,-0.01c0.14,-0.04 0.3,-0.02 0.42,0.06zm-0.44,0.19c-0.02,0.03 -0.02,0.03 -0.03,0.09c0.12,0 0.25,0 0.37,0c-0.01,-0.07 -0.03,-0.1 -0.08,-0.14c-0.1,-0.05 -0.19,-0.02 -0.27,0.05z" fill="#000000" id="svg_38"/>
  <path d="m11.03,5.45c0.03,0.03 0.03,0.03 0.06,0.06c0.01,0.01 0.02,0.02 0.02,0.02c0.07,0.1 0.08,0.21 0.09,0.33c0,0.01 -0.01,0.02 -0.01,0.03c-0.21,0 -0.42,0 -0.64,0c0.04,0.11 0.04,0.11 0.12,0.17c0.07,0.02 0.16,0.02 0.23,-0.01c0.03,-0.02 0.06,-0.04 0.08,-0.07c0.05,0.02 0.08,0.04 0.12,0.07c0.01,0.01 0.02,0.02 0.03,0.02c0.01,0.01 0.02,0.01 0.02,0.02c-0.03,0.09 -0.1,0.14 -0.18,0.18c-0.12,0.04 -0.28,0.04 -0.4,0c-0.13,-0.06 -0.22,-0.15 -0.27,-0.28c-0.04,-0.12 -0.03,-0.26 0.02,-0.38c0.06,-0.1 0.14,-0.18 0.25,-0.22c0.01,0 0.01,-0.01 0.02,-0.01c0.14,-0.04 0.3,-0.02 0.42,0.06zm-0.44,0.19c-0.02,0.03 -0.02,0.03 -0.03,0.09c0.12,0 0.25,0 0.37,0c-0.01,-0.07 -0.03,-0.1 -0.08,-0.14c-0.1,-0.05 -0.19,-0.02 -0.27,0.05z" fill="#000000" id="svg_39"/>
  <path d="m33.82,5.43c0.09,0.07 0.12,0.14 0.13,0.24c0,0.02 0,0.04 0,0.06c0,0.02 0,0.02 0,0.04c0,0.01 0,0.03 0,0.04c0,0.01 0,0.03 0,0.04c0,0.04 0,0.09 0,0.13c0,0.03 0,0.06 0,0.09c0,0.07 0,0.14 0,0.21c-0.07,0 -0.15,0 -0.23,0c-0.01,-0.01 -0.01,-0.03 -0.02,-0.04c-0.01,0.01 -0.02,0.01 -0.03,0.02c-0.08,0.05 -0.19,0.04 -0.29,0.03c-0.08,-0.02 -0.16,-0.07 -0.2,-0.14c-0.04,-0.08 -0.05,-0.16 -0.02,-0.24c0.03,-0.07 0.09,-0.13 0.16,-0.17c0.11,-0.04 0.24,-0.04 0.35,-0.01c0.01,0.01 0.01,0.01 0.02,0.01c-0.01,-0.07 -0.01,-0.07 -0.04,-0.12c-0.1,-0.05 -0.19,-0.02 -0.29,0.01c-0.01,0 -0.02,0.01 -0.03,0.01c-0.01,0 -0.02,0.01 -0.03,0.01c0,-0.01 -0.01,-0.02 -0.01,-0.02c-0.01,-0.01 -0.01,-0.02 -0.02,-0.03c-0.01,-0.01 -0.01,-0.02 -0.02,-0.03c-0.01,-0.02 -0.03,-0.04 -0.04,-0.06c0,-0.02 0,-0.02 0.01,-0.04c0.17,-0.11 0.43,-0.13 0.61,-0.04zm-0.4,0.5c-0.02,0.03 -0.02,0.04 -0.02,0.08c0.01,0.04 0.03,0.06 0.07,0.09c0.04,0.02 0.1,0.01 0.15,0.01c0.04,-0.02 0.07,-0.04 0.09,-0.08c0.01,-0.04 0,-0.06 -0.02,-0.1c-0.04,-0.04 -0.07,-0.05 -0.13,-0.05c-0.06,0 -0.09,0.01 -0.13,0.05z" fill="#000000" id="svg_40"/>
  <path d="m24.47,5.43c0.09,0.07 0.12,0.14 0.13,0.24c0,0.02 0,0.04 0,0.06c0,0.02 0,0.02 0,0.04c0,0.01 0,0.03 0,0.04c0,0.01 0,0.03 0,0.04c0,0.04 0,0.09 0,0.13c0,0.03 0,0.06 0,0.09c0,0.07 0,0.14 0,0.21c-0.07,0 -0.15,0 -0.23,0c-0.01,-0.01 -0.01,-0.03 -0.02,-0.04c-0.01,0.01 -0.02,0.01 -0.03,0.02c-0.08,0.05 -0.19,0.04 -0.29,0.03c-0.08,-0.02 -0.16,-0.07 -0.2,-0.14c-0.04,-0.08 -0.05,-0.16 -0.02,-0.24c0.03,-0.07 0.09,-0.13 0.16,-0.17c0.11,-0.04 0.24,-0.04 0.35,-0.01c0.01,0.01 0.01,0.01 0.02,0.01c-0.01,-0.07 -0.01,-0.07 -0.04,-0.12c-0.1,-0.05 -0.19,-0.02 -0.29,0.01c-0.01,0 -0.02,0.01 -0.03,0.01c-0.01,0 -0.02,0.01 -0.03,0.01c0,-0.01 -0.01,-0.02 -0.01,-0.02c-0.01,-0.01 -0.01,-0.02 -0.02,-0.03c-0.01,-0.01 -0.01,-0.02 -0.02,-0.03c-0.01,-0.02 -0.03,-0.04 -0.04,-0.06c0,-0.02 0,-0.02 0.01,-0.04c0.17,-0.11 0.43,-0.13 0.61,-0.04zm-0.4,0.5c-0.02,0.03 -0.02,0.04 -0.02,0.08c0.01,0.04 0.03,0.06 0.07,0.09c0.04,0.02 0.1,0.01 0.15,0.01c0.04,-0.02 0.07,-0.04 0.09,-0.08c0.01,-0.04 0,-0.06 -0.02,-0.1c-0.04,-0.04 -0.07,-0.05 -0.13,-0.05c-0.06,0 -0.09,0.01 -0.13,0.05z" fill="#000000" id="svg_41"/>
  <path d="m16.91,5.43c0.09,0.07 0.12,0.14 0.13,0.24c0,0.02 0,0.04 0,0.06c0,0.02 0,0.02 0,0.04c0,0.01 0,0.03 0,0.04c0,0.01 0,0.03 0,0.04c0,0.04 0,0.09 0,0.13c0,0.03 0,0.06 0,0.09c0,0.07 0,0.14 0,0.21c-0.07,0 -0.15,0 -0.23,0c-0.01,-0.01 -0.01,-0.03 -0.02,-0.04c-0.01,0.01 -0.02,0.01 -0.03,0.02c-0.08,0.05 -0.19,0.04 -0.29,0.03c-0.08,-0.02 -0.16,-0.07 -0.2,-0.14c-0.04,-0.08 -0.05,-0.16 -0.02,-0.24c0.03,-0.07 0.09,-0.13 0.16,-0.17c0.11,-0.04 0.24,-0.04 0.35,-0.01c0.01,0.01 0.01,0.01 0.02,0.01c-0.01,-0.07 -0.01,-0.07 -0.04,-0.12c-0.1,-0.05 -0.19,-0.02 -0.29,0.01c-0.01,0 -0.02,0.01 -0.03,0.01c-0.01,0 -0.02,0.01 -0.03,0.01c0,-0.01 -0.01,-0.02 -0.01,-0.02c-0.01,-0.01 -0.01,-0.02 -0.02,-0.03c-0.01,-0.01 -0.01,-0.02 -0.02,-0.03c-0.01,-0.02 -0.03,-0.04 -0.04,-0.06c0,-0.02 0,-0.02 0.01,-0.04c0.17,-0.11 0.43,-0.13 0.61,-0.04zm-0.4,0.5c-0.02,0.03 -0.02,0.04 -0.02,0.08c0.01,0.04 0.03,0.06 0.07,0.09c0.04,0.02 0.1,0.01 0.15,0.01c0.04,-0.02 0.07,-0.04 0.09,-0.08c0.01,-0.04 0,-0.06 -0.02,-0.1c-0.04,-0.04 -0.07,-0.05 -0.13,-0.05c-0.06,0 -0.09,0.01 -0.13,0.05z" fill="#000000" id="svg_42"/>
  <path d="m14.93,5.43c0.09,0.07 0.12,0.14 0.13,0.24c0,0.02 0,0.04 0,0.06c0,0.02 0,0.02 0,0.04c0,0.01 0,0.03 0,0.04c0,0.01 0,0.03 0,0.04c0,0.04 0,0.09 0,0.13c0,0.03 0,0.06 0,0.09c0,0.07 0,0.14 0,0.21c-0.07,0 -0.15,0 -0.23,0c-0.01,-0.01 -0.01,-0.03 -0.02,-0.04c-0.01,0.01 -0.02,0.01 -0.03,0.02c-0.08,0.05 -0.19,0.04 -0.29,0.03c-0.08,-0.02 -0.16,-0.07 -0.2,-0.14c-0.04,-0.08 -0.05,-0.16 -0.02,-0.24c0.03,-0.07 0.09,-0.13 0.16,-0.17c0.11,-0.04 0.24,-0.04 0.35,-0.01c0.01,0.01 0.01,0.01 0.02,0.01c-0.01,-0.07 -0.01,-0.07 -0.04,-0.12c-0.1,-0.05 -0.19,-0.02 -0.29,0.01c-0.01,0 -0.02,0.01 -0.03,0.01c-0.01,0 -0.02,0.01 -0.03,0.01c0,-0.01 -0.01,-0.02 -0.01,-0.02c-0.01,-0.01 -0.01,-0.02 -0.02,-0.03c-0.01,-0.01 -0.01,-0.02 -0.02,-0.03c-0.01,-0.02 -0.03,-0.04 -0.04,-0.06c0,-0.02 0,-0.02 0.01,-0.04c0.17,-0.11 0.43,-0.13 0.61,-0.04zm-0.4,0.5c-0.02,0.03 -0.02,0.04 -0.02,0.08c0.01,0.04 0.03,0.06 0.07,0.09c0.04,0.02 0.1,0.01 0.15,0.01c0.04,-0.02 0.07,-0.04 0.09,-0.08c0.01,-0.04 0,-0.06 -0.02,-0.1c-0.04,-0.04 -0.07,-0.05 -0.13,-0.05c-0.06,0 -0.09,0.01 -0.13,0.05z" fill="#000000" id="svg_43"/>
  <path d="m27.75,5.41c0.07,0.05 0.11,0.1 0.14,0.18c0.03,0.15 0.03,0.29 0.02,0.44c0,0.02 0,0.05 0,0.07c0,0.06 0,0.12 0,0.18c-0.09,0 -0.17,0 -0.26,0c0,-0.02 0,-0.04 0,-0.05c0,-0.07 0,-0.13 0,-0.2c0,-0.03 0,-0.06 0,-0.09c0,-0.04 0,-0.08 0,-0.12c0,-0.01 0,-0.03 0,-0.04c0,-0.07 0,-0.07 -0.04,-0.14c-0.04,-0.04 -0.07,-0.04 -0.13,-0.04c-0.04,0 -0.06,0.02 -0.09,0.05c-0.02,0.04 -0.03,0.07 -0.03,0.11c0,0.01 0,0.02 0,0.03c0,0.02 0,0.02 0,0.04c0,0.01 0,0.03 0,0.04c0,0.04 0,0.08 0,0.12c0,0.03 0,0.05 0,0.08c0,0.07 0,0.13 0,0.2c-0.08,0 -0.16,0 -0.25,0c0,-0.29 0,-0.58 0,-0.88c0.08,0 0.16,0 0.24,0c0,0.03 0.01,0.05 0.01,0.08c0,0 0.01,-0.01 0.01,-0.01c0.11,-0.1 0.25,-0.12 0.38,-0.05z" fill="#000000" id="svg_45"/>
  <path d="m22.01,5.4c0.08,0 0.16,0 0.25,0c0,0.04 0,0.08 0,0.12c0,0.04 0,0.08 0,0.12c0,0.03 0,0.05 0,0.08c0,0.04 0,0.08 0,0.12c0,0.01 0,0.02 0,0.04c0,0.07 0.01,0.12 0.06,0.18c0.04,0.02 0.07,0.03 0.12,0.02c0.05,-0.02 0.08,-0.03 0.1,-0.08c0.01,-0.03 0.01,-0.06 0.01,-0.1c0,-0.01 0,-0.02 0,-0.03c0,-0.01 0,-0.02 0,-0.04c0,-0.01 0,-0.02 0,-0.04c0,-0.04 0,-0.08 0,-0.12c0,-0.03 0,-0.05 0,-0.08c0,-0.06 0,-0.13 0,-0.19c0.08,0 0.16,0 0.25,0c0,0.29 0,0.58 0,0.88c-0.08,0 -0.16,0 -0.25,0c0,-0.02 -0.01,-0.04 -0.01,-0.07c-0.01,0.01 -0.01,0.01 -0.02,0.01c-0.01,0.01 -0.02,0.01 -0.03,0.02c-0.01,0.01 -0.01,0.01 -0.03,0.02c-0.07,0.04 -0.19,0.03 -0.27,0.02c-0.07,-0.02 -0.11,-0.07 -0.15,-0.13c-0.05,-0.1 -0.05,-0.2 -0.05,-0.31c0,-0.01 0,-0.03 0,-0.04c0,-0.04 0,-0.08 0,-0.12c0,-0.03 0,-0.06 0,-0.08c0,-0.07 0,-0.14 0,-0.2z" fill="#000000" id="svg_46"/>
  <path d="m29.44,5.4c0.08,0 0.16,0 0.25,0c0,0.04 0,0.08 0,0.12c0,0.04 0,0.08 0,0.11c0,0.03 0,0.05 0,0.08c0,0.04 0,0.08 0,0.11c0,0.01 0,0.02 0,0.04c0,0.06 0.01,0.11 0.04,0.17c0.04,0.04 0.08,0.04 0.13,0.04c0.04,0 0.05,-0.01 0.08,-0.04c0.04,-0.07 0.04,-0.13 0.04,-0.21c0,-0.01 0,-0.02 0,-0.04c0,-0.04 0,-0.08 0,-0.12c0,-0.03 0,-0.05 0,-0.08c0,-0.06 0,-0.13 0,-0.19c0.08,0 0.16,0 0.25,0c0,0.29 0,0.57 0,0.87c-0.08,0 -0.16,0 -0.25,0c0,-0.02 -0.01,-0.04 -0.01,-0.07c-0.01,0 -0.01,0.01 -0.02,0.01c-0.09,0.07 -0.16,0.08 -0.28,0.07c-0.07,-0.01 -0.13,-0.04 -0.17,-0.09c-0.07,-0.11 -0.08,-0.23 -0.08,-0.36c0,-0.01 0,-0.03 0,-0.04c0,-0.04 0,-0.08 0,-0.12c0,-0.03 0,-0.06 0,-0.08c0,-0.07 0,-0.13 0,-0.2z" fill="#000000" id="svg_47"/>
  <path d="m33.05,5.44c0.01,0.01 0.01,0.01 0.02,0.02c-0.01,0.07 -0.04,0.14 -0.07,0.21c-0.01,0 -0.02,-0.01 -0.03,-0.01c-0.09,-0.05 -0.16,-0.08 -0.27,-0.05c-0.07,0.03 -0.11,0.06 -0.14,0.13c-0.03,0.07 -0.02,0.13 0,0.2c0.04,0.07 0.08,0.11 0.16,0.13c0.1,0.02 0.18,-0.02 0.27,-0.07c0.03,0.07 0.05,0.13 0.07,0.2c-0.02,0.01 -0.03,0.02 -0.05,0.03c-0.01,0.01 -0.02,0.01 -0.03,0.02c-0.11,0.06 -0.26,0.05 -0.38,0.03c-0.13,-0.04 -0.23,-0.12 -0.29,-0.23c-0.06,-0.13 -0.06,-0.27 -0.01,-0.4c0.07,-0.14 0.16,-0.21 0.31,-0.26c0.13,-0.04 0.3,-0.02 0.42,0.06z" fill="#000000" id="svg_52"/>
  <path d="m25.46,5.44c0.01,0.01 0.01,0.01 0.02,0.02c-0.01,0.07 -0.04,0.14 -0.07,0.21c-0.01,0 -0.02,-0.01 -0.03,-0.01c-0.09,-0.05 -0.16,-0.08 -0.27,-0.05c-0.07,0.03 -0.11,0.06 -0.14,0.13c-0.03,0.07 -0.02,0.13 0,0.2c0.04,0.07 0.08,0.11 0.16,0.13c0.1,0.02 0.18,-0.02 0.27,-0.07c0.03,0.07 0.05,0.13 0.07,0.2c-0.02,0.01 -0.03,0.02 -0.05,0.03c-0.01,0.01 -0.02,0.01 -0.03,0.02c-0.11,0.06 -0.26,0.05 -0.38,0.03c-0.13,-0.04 -0.23,-0.12 -0.29,-0.23c-0.06,-0.13 -0.06,-0.27 -0.01,-0.4c0.07,-0.14 0.16,-0.21 0.31,-0.26c0.13,-0.04 0.3,-0.02 0.42,0.06z" fill="#000000" id="svg_53"/>
  <path d="m23.7,5.44c0.01,0.01 0.01,0.01 0.02,0.02c-0.01,0.07 -0.04,0.14 -0.07,0.21c-0.01,0 -0.02,-0.01 -0.03,-0.01c-0.09,-0.05 -0.16,-0.08 -0.27,-0.05c-0.07,0.03 -0.11,0.06 -0.14,0.13c-0.03,0.07 -0.02,0.13 0,0.2c0.04,0.07 0.08,0.11 0.16,0.13c0.1,0.02 0.18,-0.02 0.27,-0.07c0.03,0.07 0.05,0.13 0.07,0.2c-0.02,0.01 -0.03,0.02 -0.05,0.03c-0.01,0.01 -0.02,0.01 -0.03,0.02c-0.11,0.06 -0.26,0.05 -0.38,0.03c-0.13,-0.04 -0.23,-0.12 -0.29,-0.23c-0.06,-0.13 -0.06,-0.27 -0.01,-0.4c0.07,-0.14 0.16,-0.21 0.31,-0.26c0.13,-0.04 0.3,-0.02 0.42,0.06z" fill="#000000" id="svg_54"/>
  <path d="m12.02,5.44c0.01,0.01 0.01,0.01 0.02,0.02c-0.01,0.07 -0.04,0.14 -0.07,0.21c-0.01,0 -0.02,-0.01 -0.03,-0.01c-0.09,-0.05 -0.16,-0.08 -0.27,-0.05c-0.07,0.03 -0.11,0.06 -0.14,0.13c-0.03,0.07 -0.02,0.13 0,0.2c0.04,0.07 0.08,0.11 0.16,0.13c0.1,0.02 0.18,-0.02 0.27,-0.07c0.03,0.07 0.05,0.13 0.07,0.2c-0.02,0.01 -0.03,0.02 -0.05,0.03c-0.01,0.01 -0.02,0.01 -0.03,0.02c-0.11,0.06 -0.26,0.05 -0.38,0.03c-0.13,-0.04 -0.23,-0.12 -0.29,-0.23c-0.06,-0.13 -0.06,-0.27 -0.01,-0.4c0.07,-0.14 0.16,-0.21 0.31,-0.26c0.13,-0.04 0.3,-0.02 0.42,0.06z" fill="#000000" id="svg_55"/>
  <path d="m13.76,5.22c0.08,0 0.16,0 0.25,0c0,0.06 0,0.12 0,0.18c0.06,0 0.11,0 0.17,0c0,0.07 0,0.13 0,0.2c-0.06,0 -0.11,0 -0.17,0c0,0.06 0,0.11 0,0.17c0,0.02 0,0.04 0,0.06c0,0.03 0,0.06 0,0.08c0,0.01 0,0.02 0,0.03c0,0.04 0,0.07 0.01,0.11c0.05,0.01 0.1,0.01 0.15,0.02c0,0.07 0,0.14 0,0.21c-0.12,0.02 -0.23,0.02 -0.33,-0.06c-0.07,-0.06 -0.09,-0.14 -0.09,-0.23c0,-0.02 0,-0.04 0,-0.06c0,-0.01 0,-0.02 0,-0.03c0,-0.03 0,-0.06 0,-0.09c0,-0.02 0,-0.04 0,-0.06c0,-0.05 0,-0.1 0,-0.16c-0.03,0 -0.07,0 -0.1,0c0,-0.07 0,-0.13 0,-0.2c0.03,0 0.07,0 0.1,0c0,-0.06 0,-0.12 0,-0.18z" fill="#000000" id="svg_61"/>
  <path d="m26.2,1.59c0.04,0.03 0.07,0.06 0.09,0.11c0.01,0.13 -0.01,0.23 -0.1,0.33c-0.12,0.13 -0.28,0.28 -0.46,0.31c-0.04,0 -0.06,0 -0.1,-0.02c-0.02,-0.02 -0.02,-0.02 -0.03,-0.05c0,-0.04 0.01,-0.07 0.03,-0.1c0.01,-0.01 0.01,-0.03 0.02,-0.04c0.01,-0.01 0.01,-0.03 0.02,-0.04c0.01,-0.03 0.03,-0.06 0.04,-0.09c0,-0.01 0.01,-0.01 0.01,-0.02c0.02,-0.05 0.05,-0.1 0.07,-0.15c0.04,-0.1 0.08,-0.19 0.18,-0.24c0.08,-0.03 0.15,-0.03 0.23,0.01z" fill="#6A0C33" id="svg_68"/>
  <path d="m31.5,5.07c0.08,0 0.16,0 0.25,0c0,0.4 0,0.8 0,1.21c-0.08,0 -0.16,0 -0.25,0c0,-0.4 0,-0.8 0,-1.21z" fill="#000000" id="svg_71"/>
  <path d="m24.25,1.85c0.05,0.03 0.08,0.07 0.11,0.12c0.02,0.09 0.01,0.17 -0.04,0.26c-0.07,0.1 -0.18,0.17 -0.3,0.19c-0.08,0.01 -0.15,0.01 -0.22,-0.03c-0.04,-0.04 -0.08,-0.08 -0.08,-0.13c0,-0.13 0.03,-0.21 0.11,-0.31c0.1,-0.11 0.28,-0.16 0.42,-0.1z" fill="#6A0C33" id="svg_72"/>
  <path d="m15.72,5.38c0,0.08 0,0.16 0,0.24c-0.02,0 -0.04,0.01 -0.06,0.01c-0.07,0.02 -0.11,0.04 -0.14,0.1c-0.03,0.06 -0.03,0.13 -0.03,0.2c0,0.01 0,0.02 0,0.03c0,0.03 0,0.06 0,0.1c0,0.02 0,0.04 0,0.07c0,0.05 0,0.11 0,0.16c-0.08,0 -0.16,0 -0.25,0c0,-0.29 0,-0.58 0,-0.88c0.08,0 0.16,0 0.24,0c0,0.03 0.01,0.06 0.01,0.09c0.01,-0.01 0.02,-0.02 0.03,-0.03c0.07,-0.06 0.12,-0.08 0.21,-0.08z" fill="#000000" id="svg_76"/>
  <path d="m12.66,5.38c0,0.08 0,0.16 0,0.24c-0.02,0 -0.04,0.01 -0.06,0.01c-0.07,0.02 -0.11,0.04 -0.14,0.1c-0.03,0.06 -0.03,0.13 -0.03,0.2c0,0.01 0,0.02 0,0.03c0,0.03 0,0.06 0,0.1c0,0.02 0,0.04 0,0.07c0,0.05 0,0.11 0,0.16c-0.08,0 -0.16,0 -0.25,0c0,-0.29 0,-0.58 0,-0.88c0.08,0 0.16,0 0.24,0c0,0.03 0.01,0.06 0.01,0.09c0.01,-0.01 0.02,-0.02 0.03,-0.03c0.07,-0.06 0.12,-0.08 0.21,-0.08z" fill="#000000" id="svg_77"/>
  <path d="m31.93,5.4c0.08,0 0.16,0 0.25,0c0,0.29 0,0.58 0,0.88c-0.08,0 -0.16,0 -0.25,0c0,-0.29 0,-0.58 0,-0.88z" fill="#000000" id="svg_87"/>
  <path d="m25.61,5.4c0.08,0 0.16,0 0.25,0c0,0.29 0,0.58 0,0.88c-0.08,0 -0.16,0 -0.25,0c0,-0.29 0,-0.58 0,-0.88z" fill="#000000" id="svg_88"/>
  <path d="m15.86,5.4c0.08,0 0.16,0 0.25,0c0,0.29 0,0.57 0,0.87c-0.08,0 -0.16,0 -0.25,0c0,-0.29 0,-0.57 0,-0.87z" fill="#000000" id="svg_90"/>
  <path d="m32.16,5.08c0.03,0.04 0.04,0.08 0.05,0.13c-0.01,0.05 -0.03,0.07 -0.06,0.1c-0.05,0.02 -0.09,0.03 -0.14,0.02c-0.05,-0.02 -0.07,-0.04 -0.09,-0.09c-0.01,-0.04 -0.01,-0.08 0.01,-0.12c0.06,-0.08 0.15,-0.08 0.24,-0.04z" fill="#000000" id="svg_223"/>
  <path d="m25.83,5.08c0.03,0.04 0.04,0.08 0.05,0.13c-0.01,0.05 -0.03,0.07 -0.06,0.1c-0.05,0.02 -0.09,0.03 -0.14,0.02c-0.05,-0.02 -0.07,-0.04 -0.09,-0.09c-0.01,-0.04 -0.01,-0.08 0.01,-0.12c0.06,-0.08 0.15,-0.08 0.24,-0.04z" fill="#000000" id="svg_224"/>
  <path d="m29.83,5.06c0.09,0 0.18,0 0.27,0c-0.02,0.03 -0.04,0.07 -0.06,0.1c-0.01,0.01 -0.02,0.03 -0.02,0.04c-0.02,0.04 -0.05,0.08 -0.09,0.11c-0.07,0.02 -0.14,0.01 -0.22,0c0.02,-0.06 0.04,-0.11 0.07,-0.16c0.01,-0.03 0.03,-0.06 0.04,-0.09z" fill="#000000" id="svg_233"/>
  <path d="m26.46,5.06c0.09,0 0.18,0 0.27,0c-0.02,0.03 -0.04,0.07 -0.06,0.1c-0.01,0.01 -0.02,0.03 -0.02,0.04c-0.02,0.04 -0.05,0.08 -0.09,0.11c-0.07,0.02 -0.14,0.01 -0.22,0c0.02,-0.06 0.04,-0.11 0.07,-0.16c0.01,-0.03 0.03,-0.06 0.04,-0.09z" fill="#000000" id="svg_234"/>
  <path d="m15.96,5.06c0.09,0 0.17,0 0.26,0c-0.04,0.09 -0.08,0.19 -0.16,0.25c-0.07,0.02 -0.14,0.01 -0.22,0c0.01,-0.04 0.02,-0.07 0.03,-0.1c0,-0.01 0.01,-0.02 0.01,-0.02c0.01,-0.01 0.01,-0.02 0.02,-0.03c0.02,-0.03 0.03,-0.06 0.05,-0.1z" fill="#000000" id="svg_235"/>
 </g>
</svg>