<?xml version="1.0"?>
<svg width="25.61" height="10.209999999999999" xmlns="http://www.w3.org/2000/svg" xmlns:svg="http://www.w3.org/2000/svg" version="1.1">
 <g class="layer">
  <title>Layer 1</title>
  <g id="svg_402">
   <path d="m11.68,4.87l1.45,0l0.21,0.02l0.2,0.05l0.21,0.1l0.12,0.1l0.09,0.09l0.09,0.14l0.06,0.15l0.02,0.11l0.01,0.11l0,0.21l-0.02,0.17l-0.06,0.19l-0.09,0.16l-0.14,0.15l-0.09,0.06l-0.02,0l0.1,0.17l0.39,0.63l0.01,0.01l0.24,-0.56l0.25,-0.58l0.24,-0.56l0.2,-0.47l0.19,-0.45l0.01,-0.01l0.92,0l0.06,0.14l0.24,0.58l0.2,0.49l0.25,0.61l0.27,0.67l0.07,0.19l0,0.04l-0.96,0l-0.14,-0.37l-1,0l-0.14,0.36l-0.01,0.01l-1.88,0l-0.1,-0.2l-0.19,-0.4l-0.05,-0.1l-0.31,0l-0.01,0.7l-0.9,0l0,-2.71zm0.9,0.68l0,0.63l0.01,0.01l0.4,0l0.14,-0.02l0.07,-0.05l0.06,-0.07l0.02,-0.07l0,-0.21l-0.05,-0.11l-0.09,-0.07l-0.09,-0.02l-0.49,0zm3.19,0.22l-0.25,0.7l-0.01,0.07l0.55,0l-0.15,-0.44l-0.11,-0.32l-0.02,-0.01z" fill="#D58039" id="svg_1"/>
   <path d="m5.74,4.87l0.75,0l0.35,0.45l0.37,0.49l0.32,0.42l0.01,-1.36l0.81,0l0.01,0.61l0,2.09l-0.01,0.01l-0.75,0l-0.15,-0.19l-0.16,-0.21l-0.17,-0.22l-0.12,-0.16l-0.16,-0.21l-0.12,-0.16l-0.15,-0.2l-0.01,1.36l-0.82,0l0,-2.7l0.01,-0.01z" fill="#B64945" id="svg_2"/>
   <path d="m4,4.81l0.12,0l0.25,0.02l0.24,0.06l0.19,0.07l0.17,0.1l0.16,0.14l0.11,0.11l0.11,0.16l0.1,0.2l0.06,0.19l0.02,0.14l0.01,0.27l-0.02,0.24l-0.05,0.19l-0.06,0.15l-0.09,0.16l-0.12,0.16l-0.12,0.12l-0.17,0.12l-0.2,0.1l-0.16,0.06l-0.25,0.05l-0.12,0.01l-0.22,0l-0.21,-0.02l-0.24,-0.06l-0.22,-0.1l-0.15,-0.1l-0.16,-0.14l-0.11,-0.12l-0.11,-0.17l-0.09,-0.19l-0.06,-0.24l-0.02,-0.24l0.01,-0.25l0.05,-0.24l0.1,-0.24l0.09,-0.14l0.1,-0.12l0.14,-0.14l0.16,-0.11l0.2,-0.1l0.22,-0.07l0.2,-0.04l0.16,-0.01zm-0.02,0.76l-0.14,0.05l-0.11,0.07l-0.09,0.09l-0.1,0.17l-0.04,0.15l0,0.25l0.05,0.17l0.09,0.15l0.11,0.11l0.17,0.09l0.04,0.01l0.22,0l0.15,-0.06l0.11,-0.09l0.09,-0.12l0.06,-0.14l0.02,-0.11l0,-0.27l-0.04,-0.15l-0.07,-0.15l-0.09,-0.1l-0.14,-0.09l-0.11,-0.04l-0.2,0z" fill="#B64945" id="svg_3"/>
   <path d="m9.96,4.81l0.27,0.01l0.26,0.05l0.2,0.07l0.19,0.1l0.15,0.11l0.12,0.11l0.12,0.16l0.1,0.17l0.09,0.24l0.04,0.22l0,0.32l-0.04,0.21l-0.07,0.22l-0.11,0.2l-0.1,0.12l-0.11,0.12l-0.16,0.12l-0.2,0.11l-0.2,0.07l-0.25,0.05l-0.14,0.01l-0.22,0l-0.21,-0.02l-0.19,-0.05l-0.16,-0.06l-0.19,-0.1l-0.16,-0.12l-0.15,-0.15l-0.11,-0.16l-0.1,-0.2l-0.06,-0.19l-0.04,-0.26l0,-0.21l0.02,-0.2l0.05,-0.19l0.06,-0.15l0.12,-0.2l0.14,-0.15l0.09,-0.09l0.16,-0.11l0.19,-0.1l0.19,-0.06l0.25,-0.05l0.16,-0.01zm0.06,0.75l-0.15,0.02l-0.15,0.07l-0.11,0.1l-0.1,0.16l-0.05,0.16l-0.01,0.19l0.02,0.16l0.06,0.15l0.07,0.11l0.1,0.1l0.1,0.06l0.11,0.04l0.22,0l0.15,-0.06l0.12,-0.11l0.09,-0.12l0.06,-0.17l0.01,-0.07l0,-0.24l-0.04,-0.15l-0.09,-0.17l-0.06,-0.07l-0.12,-0.09l-0.12,-0.05l-0.12,-0.01z" fill="#B64945" id="svg_4"/>
   <path d="m1.17,4.81l0.45,0l0.25,0.04l0.24,0.06l0.24,0.09l0.24,0.12l-0.02,0.07l-0.24,0.5l-0.06,0.12l-0.24,-0.11l-0.24,-0.1l-0.24,-0.07l-0.15,-0.02l-0.14,0l-0.07,0.04l-0.01,0.02l0,0.09l0.06,0.07l0.19,0.07l0.5,0.15l0.24,0.1l0.12,0.09l0.1,0.09l0.1,0.14l0.06,0.16l0.01,0.07l0,0.3l-0.05,0.19l-0.07,0.14l-0.14,0.15l-0.12,0.09l-0.19,0.09l-0.24,0.06l-0.2,0.02l-0.27,0l-0.22,-0.02l-0.31,-0.07l-0.27,-0.1l-0.26,-0.14l-0.14,-0.1l0.02,-0.07l0.17,-0.36l0.12,-0.25l0.05,0.02l0.17,0.12l0.34,0.16l0.24,0.07l0.12,0.02l0.17,0l0.11,-0.04l0.04,-0.07l-0.01,-0.07l-0.06,-0.06l-0.1,-0.05l-0.6,-0.17l-0.19,-0.07l-0.14,-0.07l-0.16,-0.15l-0.07,-0.12l-0.05,-0.14l-0.01,-0.07l0,-0.24l0.05,-0.2l0.09,-0.16l0.14,-0.15l0.16,-0.11l0.14,-0.06l0.16,-0.05l0.2,-0.04z" fill="#B64945" id="svg_5"/>
   <path d="m11.68,4.87l1.45,0l0.21,0.02l0.2,0.05l0.21,0.1l0.12,0.1l0.09,0.09l0.09,0.14l0.06,0.15l0.02,0.11l0.01,0.11l0,0.21l-0.02,0.17l-0.06,0.19l-0.09,0.16l-0.14,0.15l-0.11,0.07l-0.46,0l-0.44,-0.02l-0.52,-0.06l-0.51,-0.09l-0.11,-0.02l0,-1.63zm0.9,0.68l0,0.63l0.01,0.01l0.4,0l0.14,-0.02l0.07,-0.05l0.06,-0.07l0.02,-0.07l0,-0.21l-0.05,-0.11l-0.09,-0.07l-0.09,-0.02l-0.49,0z" fill="#D58039" id="svg_6"/>
   <path d="m16.9,6.45l0.05,0.05l0.24,0.58l0.19,0.46l0,0.04l-0.96,0l-0.14,-0.37l-1,0l-0.14,0.36l-0.01,0.01l-1.88,0l-0.1,-0.2l-0.19,-0.4l-0.05,-0.1l-0.31,0l-0.01,0.7l-0.9,0l0,-1.08l0.11,0.01l0.51,0.09l0.52,0.06l0.44,0.02l0.46,0.01l0.12,0.2l0.22,0.37l0.15,0.24l0.11,-0.26l0.54,-0.09l0.46,-0.1l0.44,-0.12l0.32,-0.11l0.3,-0.12l0.36,-0.17l0.14,-0.07z" fill="#910F51" id="svg_7"/>
   <path d="m20.17,0.97l4.84,0l0.01,0.01l0,5.06l-0.04,0.12l-0.07,0.11l-0.12,0.09l-0.12,0.04l-1.86,0.01l-0.1,0.04l-0.11,0.12l-0.05,-0.02l-0.09,-0.1l-0.1,-0.04l-1.86,-0.01l-0.14,-0.05l-0.07,-0.05l-0.1,-0.11l-0.05,-0.16l0,-5.05l0.04,-0.01zm0,0.05l0,2.8l0.04,-0.01l0.11,-0.14l0.14,-0.16l0.11,-0.14l0.14,-0.16l0.11,-0.14l0.14,-0.16l0.11,-0.14l0.15,-0.17l0.06,-0.07l0,-0.02l-0.11,0.01l-0.31,0l-0.02,-0.02l-0.09,0.01l-0.05,0.01l-0.14,0l-0.1,-0.04l-0.11,-0.02l-0.06,-0.06l0.01,-0.1l0.1,-0.2l0.11,-0.2l0.06,-0.09l-0.11,-0.11l-0.02,0l-0.09,0.14l-0.02,0.06l-0.02,0.01l0.02,-0.15l0.06,-0.12l0,-0.05l0.07,-0.02l0.14,-0.07l0.11,-0.02l0,0.04l-0.06,0.01l-0.11,0.09l-0.04,0.05l0.11,0.1l0.09,-0.07l0.12,-0.12l0.1,-0.2l0.1,-0.11l0.05,-0.05l0.11,0l0.12,0.06l0.14,0.1l0.06,0.16l0.04,0.09l0.07,0.05l0.1,0.19l0.04,0.1l0.04,-0.01l0.11,-0.14l0.14,-0.16l0.11,-0.14l0.14,-0.16l0.11,-0.14l0.12,-0.15l0,-0.01l-2.36,0zm2.46,0l0.07,0.1l0.16,0.19l0.11,0.14l0.17,0.21l0.14,0.16l0.11,0.14l0.14,0.16l0.11,0.14l0.14,0.16l0.11,0.14l0.14,0.16l0.11,0.14l0.14,0.16l0.11,0.14l0.14,0.16l0.11,0.14l0.14,0.16l0.11,0.14l0.07,0.09l0.01,0l0,-2.81l-2.36,0zm-0.05,0.01l-0.12,0.14l-0.11,0.14l-0.14,0.16l-0.11,0.14l-0.14,0.16l-0.11,0.14l-0.14,0.16l-0.11,0.14l-0.15,0.17l-0.11,0.14l-0.14,0.16l-0.11,0.14l-0.15,0.17l-0.11,0.14l-0.14,0.16l-0.11,0.14l-0.14,0.16l-0.22,0.27l0,0.02l4.74,0l-0.02,-0.05l-0.15,-0.17l-0.14,-0.17l-0.16,-0.19l-0.11,-0.14l-0.14,-0.16l-0.11,-0.14l-0.14,-0.16l-0.11,-0.14l-0.14,-0.16l-0.11,-0.14l-0.14,-0.16l-0.11,-0.14l-0.14,-0.16l-0.11,-0.14l-0.14,-0.16l-0.11,-0.14l-0.14,-0.16l-0.11,-0.14l-0.04,-0.04zm-1.51,0.19l-0.11,0.14l-0.05,0.06l-0.05,0.16l-0.01,0.2l-0.01,0.07l-0.04,0l-0.01,-0.11l-0.02,-0.04l-0.05,0.01l-0.05,0.04l0.02,0.05l0.09,0.09l0.06,0.05l0.05,-0.02l0.1,-0.09l-0.05,0.06l-0.12,0.11l-0.17,0.15l-0.16,0.15l-0.04,0.02l0,0.04l0.05,-0.01l0.04,-0.02l-0.05,0.05l-0.04,0l-0.01,-0.04l0.06,-0.06l0.17,-0.16l0.1,-0.09l0.02,-0.04l-0.1,-0.1l-0.09,-0.06l-0.06,0.1l-0.07,0.14l-0.07,0.12l-0.05,0.12l0,0.09l0.02,0.02l0.17,0.04l0.02,0.01l0.09,0l0.05,-0.16l0.04,-0.04l0.07,0.01l0.05,0.1l0.01,0.07l0.02,0.01l0.22,0.01l0.1,-0.02l0.1,-0.1l0.01,-0.19l-0.04,-0.05l-0.02,-0.22l-0.02,-0.05l0.01,-0.06l-0.04,-0.06l-0.05,0.02l-0.04,0.02l0.1,-0.09l-0.01,-0.04l-0.07,0.04l0,-0.04l-0.06,-0.06l0.01,-0.05l0.1,-0.06l0.04,-0.01l0.15,0l0.05,0.05l0,0.12l-0.06,0.12l-0.05,0.05l-0.04,0.02l0.04,0.24l0.04,0.09l0,0.22l0.02,0l0.1,-0.12l0.14,-0.16l0,-0.26l-0.06,-0.16l-0.01,0l0,0.27l-0.01,-0.02l-0.01,-0.2l-0.04,-0.04l-0.01,0.01l-0.02,0.21l0.01,0.21l0.01,0.06l-0.02,0l-0.02,-0.04l0,-0.41l0.04,-0.07l0,-0.17l-0.06,-0.07l-0.02,-0.06l-0.06,0.05l-0.04,0.04l-0.01,-0.11l-0.05,-0.04l-0.02,-0.04l-0.02,0.07l0,0.1l-0.02,-0.01l-0.01,-0.1l-0.02,0.01l-0.05,0.11l-0.01,0.1l-0.04,0.09l-0.01,0l0.01,-0.09l0.09,-0.22l0.05,-0.06l-0.01,-0.04l-0.05,0zm0.17,0.4l0,0.05l0.04,-0.04l-0.04,-0.01zm-0.76,0.04l0,0.05l0.16,0.15l0.12,0.11l0.05,0.01l-0.01,-0.05l-0.12,-0.11l-0.15,-0.14l-0.05,-0.02zm-0.31,2.26l0,2.04l0.02,0.15l0.05,0.1l0.05,0.06l0.1,0.06l0.14,0.04l1.86,0.01l0.1,0.05l0.06,0.05l0,-2.56l-2.38,0zm2.43,0l0,2.56l0.1,-0.07l0.06,-0.02l1.86,-0.01l0.14,-0.04l0,-0.02l-0.24,-0.07l-0.02,0.06l-0.07,-0.01l-0.04,-0.07l-0.1,0.01l-0.1,-0.05l-0.02,-0.05l-0.05,-0.02l-0.09,-0.16l-0.09,-0.12l-0.01,-0.04l-0.11,-0.05l-0.06,-0.04l-0.05,-0.02l-0.07,0.01l-0.21,0.07l-0.11,0.04l-0.14,0.04l-0.16,0.01l-0.06,-0.01l0,-0.11l0.07,-0.11l0.15,-0.2l0.19,-0.19l-0.02,-0.05l-0.05,-0.04l-0.01,-0.06l-0.02,0.02l-0.05,0.2l0.01,0.05l-0.09,0l-0.14,-0.06l-0.07,-0.04l0.01,-0.05l0.05,-0.04l0,-0.12l0.02,-0.11l0.05,-0.04l0.11,-0.04l0.02,0l0,0.1l0.07,0.11l0,-0.12l-0.06,-0.16l-0.01,-0.01l-0.11,-0.01l-0.02,-0.01l0,-0.1l0.01,-0.06l-0.05,-0.07l-0.11,-0.15l-0.1,-0.2l-0.07,-0.04l0.01,-0.1l-0.04,-0.09l-0.09,0zm0.12,0l0.02,0.1l-0.01,0.07l0.09,0.05l0.07,0.16l0.09,0.12l0.07,0.1l0.01,0.06l-0.02,0.1l0.01,0.02l0.12,0.01l0.07,0.15l0.01,0.04l0.01,0.16l0.01,0.04l0.05,0.02l0.02,0.04l0.05,-0.02l0.16,-0.1l0.14,-0.07l0.11,-0.19l0.11,-0.1l0.06,-0.01l0.01,0.19l0.01,0.01l0.21,0l0.11,-0.04l0.14,-0.15l0.02,-0.01l0,-0.02l-0.07,-0.06l-0.02,-0.06l0,-0.19l0.02,-0.06l0.06,0.01l0.07,0.12l0.05,0.06l0.02,0.07l0,0.25l-0.04,0.12l-0.07,0.12l-0.07,0.09l-0.04,0.04l0.05,0.02l-0.05,0.06l-0.1,0.05l-0.17,0.05l-0.15,0.11l-0.29,0.16l0.01,0.02l0.06,0.01l0.01,0.02l0.16,0.05l-0.01,0.06l0.05,0.05l0.02,0.05l0.02,0.01l0.05,0.12l0.07,0.06l0.04,0.05l0.05,0.02l0.1,0l0.04,-0.01l0.02,0.09l0.04,0.01l0.04,-0.1l0.04,-0.01l0.01,0.05l0.09,0.04l0.12,0.04l0.05,0.01l0.07,-0.06l0.06,-0.11l0.02,-0.12l0,-2.08l-2.26,0zm1.73,0.45l-0.01,0.11l0.04,0.09l0.01,-0.02l-0.01,-0.02l-0.01,-0.15l-0.01,0zm0.14,0.19l-0.01,0.06l-0.05,-0.01l0.05,0.05l0.02,-0.02l0,-0.07l-0.01,0zm-0.1,0.01l0.01,0.04l0.02,-0.01l-0.04,-0.02zm0.11,0.22l-0.16,0.15l-0.17,0.12l-0.22,0.12l-0.25,0.12l-0.25,0.14l-0.26,0.12l-0.24,0.14l-0.06,0.05l0.01,0.04l0.1,0l0.16,-0.04l0.11,-0.07l0.06,0.01l0.26,-0.1l0.27,-0.16l0.11,-0.07l-0.04,-0.01l-0.16,0l0.19,-0.12l0.19,-0.1l0.17,-0.14l0.06,-0.05l-0.21,0.21l0.01,0.04l0.06,-0.02l0.12,-0.11l0.1,-0.12l0.04,-0.09l-0.01,-0.05zm-0.76,0.05m-0.01,0.01l0.01,0.02l-0.01,-0.02zm-0.72,0.02l-0.09,0.04l-0.04,0.11l0,0.12l-0.05,0.07l0.15,0.07l0.06,0.01l0.06,-0.22l-0.01,-0.06l-0.04,-0.05l-0.01,-0.1l-0.04,0zm0.71,0m-0.01,0.01l-0.05,0.11l0.01,0.04l0.06,-0.01l0.11,-0.06l-0.02,-0.01l-0.14,0.06l0.04,-0.09l-0.01,-0.04zm0.16,0.04m-0.02,0.01m0.02,0.14l-0.19,0.1l-0.21,0.1l-0.19,0.12l-0.09,0.09l0.04,0l0.11,-0.07l0.29,-0.15l0.25,-0.16l-0.01,-0.02zm0.36,0.19m-0.05,0.01l-0.25,0.04l0,0.01l0.2,-0.01l0.1,-0.02l-0.05,-0.01z" fill="#60412D" id="svg_8"/>
   <path d="m9.96,4.81l0.27,0.01l0.26,0.05l0.2,0.07l0.19,0.1l0.15,0.11l0.12,0.11l0.12,0.16l0.1,0.17l0.09,0.24l0.04,0.22l0,0.32l-0.01,0.1l-0.02,-0.04l-0.45,-0.11l-0.37,-0.11l-0.06,-0.01l-0.02,-0.19l-0.06,-0.16l-0.07,-0.11l-0.06,-0.06l-0.11,-0.07l-0.1,-0.04l-0.12,-0.01l-0.15,0.02l-0.15,0.07l-0.1,0.09l-0.06,0.1l-0.26,-0.09l-0.51,-0.15l-0.11,-0.04l0.06,-0.12l0.11,-0.15l0.16,-0.16l0.16,-0.11l0.19,-0.1l0.19,-0.06l0.25,-0.05l0.16,-0.01z" fill="#D68039" id="svg_9"/>
   <path d="m4.8,6.65l0.69,0l-0.01,0.09l-0.11,0.24l-0.15,0.2l-0.12,0.12l-0.17,0.12l-0.2,0.1l-0.16,0.06l-0.25,0.05l-0.12,0.01l-0.22,0l-0.21,-0.02l-0.24,-0.06l-0.22,-0.1l-0.15,-0.1l-0.16,-0.14l-0.11,-0.12l-0.11,-0.17l-0.06,-0.12l0,-0.06l0.51,-0.04l0.47,-0.01l0.09,0.09l0.17,0.09l0.04,0.01l0.22,0l0.15,-0.06l0.1,-0.07l0.06,-0.07l0.3,-0.01z" fill="#911051" id="svg_10"/>
   <path d="m0.39,6.51l0.05,0.02l0.17,0.12l0.34,0.16l0.24,0.07l0.12,0.02l0.17,0l0.22,-0.05l0.54,-0.09l0.31,-0.04l0,0.15l-0.05,0.19l-0.07,0.14l-0.14,0.15l-0.12,0.09l-0.19,0.09l-0.24,0.06l-0.2,0.02l-0.27,0l-0.22,-0.02l-0.31,-0.07l-0.27,-0.1l-0.26,-0.14l-0.14,-0.1l0.02,-0.07l0.17,-0.36l0.12,-0.25z" fill="#911052" id="svg_11"/>
   <path d="m11.68,6.5l0.11,0.01l0.51,0.09l0.52,0.06l0.44,0.02l0.46,0.01l0.12,0.2l0.22,0.37l0,0.01l-0.22,0.02l-0.35,0.02l-0.27,0.01l-0.1,0.01l-0.21,-0.46l-0.01,-0.01l-0.31,0l-0.01,0.7l-0.9,0l0,-1.08z" fill="#B64945" id="svg_12"/>
   <path d="m21.46,4.23l0.11,0l0.22,0.07l0.25,0.04l0.15,0.06l0.11,0.09l0.06,0.06l-0.01,0.06l-0.07,0.06l-0.07,0.02l-0.2,0l0,0.09l-0.04,0.12l0,0.11l0.05,0.09l0,0.12l-0.05,0.12l-0.07,0.06l-0.09,0.04l-0.07,0.17l-0.15,0.3l-0.14,0.19l-0.06,0.05l-0.11,0l-0.09,-0.07l-0.1,-0.14l-0.12,-0.07l-0.09,-0.02l-0.19,0l-0.07,-0.06l-0.09,-0.14l-0.07,-0.16l-0.09,-0.27l-0.01,-0.07l0,-0.15l0.04,-0.12l0.09,-0.14l0.05,-0.07l0.07,-0.2l0.06,-0.06l0.37,-0.12l0.17,0.01l0.17,-0.05l0.07,-0.01zm-0.01,0.07l-0.22,0.05l-0.05,0.04l0.01,0.05l0.06,0.06l-0.01,0.04l-0.07,0.04l0.01,0.05l-0.15,-0.02l-0.1,0.05l-0.02,0.02l0.01,0.06l0.07,0.04l0.07,0l0.07,-0.02l0.01,0.15l0.05,0.07l0.14,0.11l0.06,0.01l0.1,-0.09l0.12,-0.07l0.04,-0.01l0.24,0l0.04,-0.06l0.02,-0.15l0,-0.09l0.01,-0.09l-0.04,-0.05l-0.04,-0.1l-0.25,-0.07l-0.06,-0.01l-0.14,0zm-0.41,0.07l-0.1,0.05l-0.09,0.07l-0.09,0.14l-0.01,0.11l0.04,-0.01l0.09,-0.1l0.11,-0.07l0.17,-0.05l-0.01,-0.07l-0.05,-0.06l-0.06,0zm0.92,0.01l0.01,0.1l0.01,0.01l0.19,0.02l0.12,0.05l-0.02,-0.06l-0.1,-0.07l-0.15,-0.05l-0.06,0zm0.09,0.15l-0.05,0.01l-0.01,0.09l0.02,0.01l0.21,0l0.02,-0.01l-0.02,-0.05l-0.11,-0.05l-0.06,0zm-0.99,0.3l0.01,0.07l0.07,0.1l0.12,0.12l0.09,0.05l-0.02,-0.05l-0.12,-0.1l-0.09,-0.11l-0.04,-0.09l-0.02,0zm-0.11,0.09l0.01,0.05l0.05,0.05l0,0.09l-0.05,0.1l0,0.12l0.05,0.06l0.07,0.05l0.04,0.09l0.02,0.1l0.07,0.11l0.04,0.09l0.07,0.04l0.11,-0.01l0.1,-0.05l0.07,-0.11l0.07,-0.15l0,-0.07l-0.02,-0.02l-0.12,-0.01l-0.12,-0.07l-0.11,-0.04l-0.02,-0.1l-0.14,-0.12l-0.1,-0.09l-0.07,-0.09l-0.02,0zm0.81,0.06l-0.14,0.02l-0.1,0.06l-0.06,0.06l-0.02,0.06l0.02,0.05l-0.01,0.09l0.06,0.01l0.07,-0.05l0.04,-0.01l0.21,0l0.09,0.01l0.04,-0.09l0,-0.07l-0.07,-0.14l-0.12,-0.01zm-0.41,0.25l-0.01,0.05l0.05,0.02l0.01,-0.01l0,-0.06l-0.05,0zm0.3,0.06l-0.09,0.04l0.01,0.02l0.11,0.02l0.11,-0.01l0.07,-0.04l0,-0.02l-0.05,-0.01l-0.17,0z" fill="#5C3F2C" id="svg_13"/>
   <path d="m16.72,6.06l0.05,0.01l0.15,0.36l-0.01,0.02l-0.2,0.1l-0.36,0.17l-0.42,0.16l-0.4,0.12l-0.35,0.09l-0.44,0.09l-0.31,0.05l-0.07,0l0.01,-0.06l0.22,-0.54l0.09,-0.02l0.4,-0.06l0.35,-0.07l0.1,-0.01l-0.01,0.07l0.54,-0.01l-0.06,-0.17l0,-0.02l0.4,-0.14l0.34,-0.14z" fill="#B64945" id="svg_14"/>
   <path d="m8.68,6.85l0.37,0.05l0.59,0.1l0.61,0.11l0.69,0.1l0.15,0.02l-0.01,0.04l-0.16,0.12l-0.2,0.11l-0.2,0.07l-0.25,0.05l-0.14,0.01l-0.22,0l-0.21,-0.02l-0.19,-0.05l-0.16,-0.06l-0.19,-0.1l-0.16,-0.12l-0.15,-0.15l-0.11,-0.16l-0.05,-0.09l0,-0.04z" fill="#911051" id="svg_15"/>
   <path d="m19.59,0.44l5.99,0l0,6.3l-0.05,0.16l-0.07,0.11l-0.1,0.09l-0.14,0.06l-0.11,0.02l-2.27,0.01l-0.1,0.05l-0.06,0.05l-0.07,0.1l-0.04,-0.01l-0.07,-0.1l-0.11,-0.07l-0.04,-0.01l-2.27,-0.01l-0.17,-0.05l-0.14,-0.09l-0.09,-0.11l-0.06,-0.15l-0.01,-0.07l0,-6.27zm0.04,0.04l0,6.17l0.02,0.15l0.05,0.12l0.1,0.11l0.17,0.09l0.16,0.02l2.22,0.01l0.12,0.06l0.09,0.1l0.04,-0.01l0.06,-0.07l0.1,-0.06l0.04,-0.01l2.23,-0.01l0.15,-0.02l0.17,-0.09l0.1,-0.11l0.05,-0.11l0.02,-0.14l0,-6.2l-5.91,0z" fill="#5A3E2C" id="svg_16"/>
   <path d="m6.93,6.68l0.27,0.01l0.52,0.04l0.61,0.06l0.01,0.01l0,0.77l-0.75,0l-0.15,-0.19l-0.16,-0.21l-0.17,-0.22l-0.12,-0.16l-0.06,-0.09l0,-0.02z" fill="#910F51" id="svg_17"/>
   <path d="m5.74,6.65l0.44,0l0.36,0.01l0,0.91l-0.47,0.01l-0.34,0l0,-0.91l0.01,-0.02z" fill="#910F51" id="svg_18"/>
   <path d="m7.87,1.28l0.2,0l0,0.2l-0.19,0l0,0.2l-0.01,0.01l-0.19,0l0,0.19l-0.01,0.01l-0.19,0l0,0.2l-0.2,0l0,0.2l-0.01,0.01l-0.19,0l0,0.2l-0.2,0l0,0.2l0.2,0l0.01,0.2l0.17,0l0.01,0.01l0,0.2l0.2,0l0,0.2l0.19,0l0.01,0.01l0,0.19l0.19,0l0.01,0.01l0,0.2l0.17,-0.01l0.01,-0.2l0.2,0l0,-0.2l0.2,0l0,0.2l-0.19,0l0,0.2l-0.01,0.01l-0.19,0l-0.01,0.2l-0.19,0l-0.01,-0.01l0,-0.19l-0.19,0l-0.01,-0.01l0,-0.2l-0.2,0l0,-0.2l-0.2,0l0,-0.2l-0.19,0l-0.01,-0.01l0,-0.19l-0.19,0l-0.01,-0.01l0,-0.2l-0.19,0l0,-0.2l0.19,0l0,-0.2l0.01,-0.01l0.19,0l0,-0.19l0.01,-0.01l0.19,0l0,-0.2l0.2,0l0,-0.2l0.01,-0.01l0.19,0l0,-0.2l0.2,0l0,-0.2z" fill="#B96F27" id="svg_19"/>
   <path d="m24.58,1.15l0.09,0.04l0.05,-0.01l0.04,0.04l0.04,0l0.06,0.16l-0.02,0.07l-0.17,0.3l-0.07,0.16l0.02,0l0.02,0.07l-0.04,0.05l0.02,0.12l0.04,0.06l0.01,0.1l0.06,0.2l-0.01,0.07l-0.06,0.06l-0.09,0.04l-0.12,-0.02l-0.16,0l-0.07,-0.02l-0.04,0l-0.06,0l-0.02,-0.05l-0.04,-0.05l-0.1,-0.05l-0.04,-0.06l-0.07,-0.06l-0.07,-0.05l0,-0.06l-0.02,-0.04l0.06,-0.1l0.05,-0.14l-0.04,-0.01l-0.01,-0.04l0.04,-0.05l-0.02,-0.07l-0.14,-0.15l-0.05,-0.05l0,-0.1l0.01,-0.04l0,-0.05l0.04,0l0,-0.07l0.09,-0.02l0.01,-0.02l0.07,0.01l0.01,-0.06l0.09,-0.01l0.04,-0.04l0.11,0.02l0.05,-0.01l0.05,0.01l0.02,-0.02l0.12,0.01l0.05,-0.01l0.05,-0.02l0.06,0.01l0.02,0.01l0.05,-0.05zm0,0.09l-0.05,0.11l-0.05,0.25l0.02,-0.17l0,-0.15l-0.01,-0.02l-0.02,0l-0.02,0.1l-0.02,0.16l0,0.07l-0.02,0l0.02,-0.24l0,-0.06l-0.07,-0.02l-0.02,0.04l-0.01,0.32l-0.01,-0.34l-0.09,-0.01l-0.05,0.02l0,0.16l0.01,0.2l0.12,0.04l0.06,0.04l0.05,0.1l0.01,0.07l0.1,0l0.04,-0.05l0.1,-0.2l0.12,-0.24l0.01,-0.06l-0.06,-0.06l-0.05,0.1l-0.02,0.09l0.02,-0.14l0,-0.07l-0.02,0l-0.05,0.16l-0.01,0.04l0.04,-0.17l-0.01,-0.06l-0.04,0zm-0.66,0.06l-0.06,0.05l0.01,0.07l0.09,0.3l0,0.05l-0.06,-0.14l-0.09,-0.26l-0.04,0l-0.04,0.05l0.02,0.07l0.05,0.11l0,0.04l-0.09,-0.11l-0.04,-0.01l0.01,0.06l0.09,0.11l0.05,0.06l0.06,0.11l0.06,0.02l0.05,-0.14l0.07,-0.06l0.07,-0.04l-0.04,-0.15l0,-0.12l0.01,-0.02l-0.02,-0.06l-0.07,0.01l-0.02,-0.01l-0.01,0.07l-0.05,-0.07l-0.02,0zm0.22,0.45l-0.07,0.04l-0.05,0.06l-0.01,0.05l0.01,0.01l0.3,0.01l0.02,-0.01l-0.02,-0.09l-0.07,-0.06l-0.1,-0.01zm-0.29,0.16l-0.02,0.01l0,0.04l0.21,0.05l0.26,0.02l0.01,-0.04l-0.14,-0.01l0.15,0l0,-0.04l-0.32,-0.01l-0.04,0l-0.01,-0.01l-0.1,-0.01zm0.66,0.02l-0.11,0.01l-0.01,0.07l0.11,0l0.09,-0.02l-0.01,-0.06l-0.06,0zm-0.64,0.07l-0.04,0.14l-0.04,0.06l-0.01,0.04l0.05,-0.01l-0.02,0.04l0.01,0.05l0.04,-0.04l0.1,-0.2l0,0.04l-0.06,0.15l-0.02,0.07l0.05,0.02l0.06,-0.16l0.06,-0.14l-0.04,0.14l-0.06,0.19l0.01,0.05l0.05,0l0.05,-0.1l0.02,-0.01l-0.01,0.2l0.02,0l0.02,0.05l0.04,0l0.02,-0.15l0.02,-0.12l0.05,0.05l0.01,0.25l0.05,0l0.06,0.01l0.01,-0.22l0.01,0.2l0.05,0l0,-0.14l-0.02,-0.16l0,-0.07l0.06,0.37l0.01,0.04l0.05,-0.01l0,-0.1l-0.06,-0.25l0.02,0l0.04,0.16l0.01,0.12l0.02,0.04l0.04,-0.01l0.01,-0.02l-0.01,-0.12l-0.06,-0.15l-0.11,-0.11l-0.07,-0.02l-0.02,-0.06l-0.02,-0.02l-0.32,-0.04l-0.14,-0.01zm0.62,0.04l-0.02,0.01l0.02,0.05l0.04,0.01l-0.01,-0.07l-0.02,0zm-0.07,0.01l-0.02,0.06l0.1,0.07l0.06,0.06l0.05,0l0.01,-0.06l-0.14,-0.09l-0.04,-0.05l-0.02,0z" fill="#63432D" id="svg_20"/>
   <path d="m1.17,4.81l0.45,0l0.25,0.04l0.24,0.06l0.24,0.09l0.02,0.02l-0.62,0.07l-0.61,0.1l-0.55,0.11l-0.26,0.06l-0.02,-0.01l0.07,-0.14l0.14,-0.15l0.16,-0.11l0.14,-0.06l0.16,-0.05l0.2,-0.04z" fill="#D58039" id="svg_21"/>
   <path d="m18.48,0.01l0.05,0l0,10.18l-0.05,0l0,-10.18z" fill="#5A3E2C" id="svg_22"/>
   <path d="m22.46,1.33l0.05,0.01l-0.01,0.06l-0.05,0.09l0.06,0.01l0,0.06l0.07,-0.01l0.09,0.02l0,-0.06l0.06,-0.01l-0.07,-0.11l0.01,-0.05l0.09,0.02l0.05,0.01l0.01,0.06l0.04,0.02l-0.02,0.05l-0.04,0.04l-0.01,0.06l0.05,0.02l-0.01,0.06l-0.1,0.05l-0.02,0.12l0.04,0.1l0,0.16l-0.05,0.1l0.04,0.15l-0.06,0.27l-0.01,0.14l0.01,0.04l0,0.24l0.07,0.04l0.05,0.06l0,0.09l-0.04,0.07l-0.07,0.04l-0.09,-0.01l-0.02,0.07l0,0.2l0.05,0.09l0,0.06l-0.05,0.04l-0.07,-0.01l-0.07,-0.06l-0.04,-0.11l-0.01,-0.06l-0.07,-0.01l-0.11,-0.02l-0.06,-0.01l-0.02,-0.04l0,0.12l0.05,0.07l0.04,0.04l-0.01,0.05l-0.06,0.02l-0.09,0l-0.12,-0.11l0,-0.09l-0.01,-0.09l0.02,-0.06l-0.02,-0.2l-0.12,-0.07l-0.01,-0.09l0.01,-0.06l0,-0.15l-0.01,-0.19l0.06,-0.17l0.06,-0.11l0.25,-0.17l0.09,-0.06l0.07,-0.02l0.14,-0.01l-0.01,-0.09l0.04,-0.12l0.01,-0.16l-0.1,-0.06l-0.01,-0.01l0,-0.06l0.06,-0.02l-0.02,-0.06l-0.05,-0.04l0.02,-0.05l0.02,0l-0.01,-0.07l0.06,-0.01l0.04,-0.02zm-0.06,0.06l0.01,0.06l0.04,-0.05l-0.05,-0.01zm0.35,0.01l0,0.04l0.02,0.02l0.01,-0.06l-0.04,0zm-0.35,0.05l-0.02,0.02l0.05,0.07l0.02,0.07l-0.09,0.01l0.02,0.02l0.1,0.02l-0.04,0.02l0.05,0.05l0.05,0.14l0.05,0.02l0.05,-0.05l0.06,-0.16l0,-0.02l0.09,0l0,-0.04l-0.05,-0.01l-0.01,0l0.05,-0.12l0.02,-0.04l-0.04,-0.01l-0.02,0.06l-0.04,0.01l0,0.07l-0.01,0.05l0,-0.05l-0.07,-0.02l-0.09,0l-0.04,0.01l0,0.04l-0.02,-0.07l0,-0.04l-0.04,-0.01l-0.02,-0.06l-0.01,0zm0.04,0.24m0.05,0.09l0,0.11l0.04,0l-0.02,-0.11l-0.01,0zm0.17,0.11l-0.06,0.05l-0.11,-0.02l-0.04,0.06l0,0.04l0.02,0.01l0.07,0l-0.06,-0.06l0.06,0.02l0.05,0.04l-0.01,0.02l0.09,-0.01l0.04,-0.04l-0.01,-0.02l-0.07,0l0.06,-0.02l-0.01,-0.06l-0.01,0zm-0.1,0.14m-0.07,0.01l-0.01,0.02l0,0.07l-0.06,0.01l-0.15,0.02l-0.1,0.06l-0.06,0.06l0.01,0.09l0.05,0.06l0.04,0l0.02,-0.05l-0.05,0.17l-0.02,0.15l-0.04,0.16l-0.01,0.16l-0.01,0.1l0.04,0.04l0.05,-0.01l0.02,-0.02l-0.01,-0.05l0,-0.11l0.06,-0.26l0.1,-0.2l0,0.02l0.09,-0.02l0.06,-0.05l0.01,0.04l0,0.21l0.01,0.21l0.04,0.17l0.07,-0.01l-0.01,-0.41l0.06,-0.25l0,-0.11l-0.02,-0.06l-0.05,0.02l-0.06,0l-0.05,-0.06l0.05,0.05l0.06,0l0.06,-0.07l0.01,-0.05l0,-0.09l-0.02,-0.01l-0.09,0.01l-0.05,-0.02l-0.04,0zm-0.42,0.26l-0.06,0.05l-0.05,0.02l-0.05,0.05l0.02,0.05l0.06,0.05l0.09,0.04l0.05,0.05l0.04,-0.01l0.02,-0.12l-0.07,-0.06l-0.04,-0.11l-0.01,0zm-0.2,0.14l-0.02,0.09l0.14,0.06l0.16,0.1l0.01,-0.05l-0.09,-0.07l-0.11,-0.05l-0.06,-0.06l-0.02,-0.01zm0.61,0.09l-0.1,0.04l-0.05,0.12l-0.04,0.05l0.01,0.09l0.21,0.21l0.01,-0.05l-0.02,-0.09l0,-0.37l-0.02,0zm-0.66,0.01l-0.04,0.14l0.01,0.35l-0.01,0.12l0.11,0.07l0.02,0l0,-0.15l-0.04,-0.19l-0.02,-0.07l0,-0.04l0.06,0.22l0.01,0.29l0.1,0.05l0.14,-0.01l-0.01,-0.11l-0.06,-0.02l0,-0.12l0.02,-0.25l0.02,-0.07l0,-0.05l-0.04,0l0,0.06l-0.1,-0.01l0.01,-0.1l-0.02,-0.01l-0.01,0.07l-0.02,0l0.02,-0.1l-0.04,0l-0.01,0.05l-0.02,0.01l0.02,-0.09l-0.11,-0.04zm0.52,0.02l0.01,0.02l-0.01,-0.02zm-0.01,0.02l0.01,0.02l-0.01,-0.02zm-0.01,0.02l0.01,0.02l-0.01,-0.02zm-0.01,0.02l0.01,0.02l-0.01,-0.02zm-0.26,0.01l0.02,0.05l0.01,-0.04l-0.04,-0.01zm0.25,0.01l0.01,0.02l-0.01,-0.02zm-0.26,0.02l-0.01,0.02l0.02,0l-0.01,-0.02zm0.25,0m-0.02,0.09l-0.06,0.25l0.01,0.09l0.01,0.01l0.12,0.01l0.06,0.06l0.01,0.11l0.1,-0.07l0.02,-0.09l0.01,-0.05l-0.1,-0.1l-0.1,-0.09l-0.06,-0.07l-0.02,-0.06l-0.01,0zm0.36,0.34l-0.06,0.04l-0.01,0.02l0,0.1l0.06,0.06l0.09,0l0.06,-0.05l0.01,-0.09l-0.04,-0.06l-0.04,-0.02l-0.07,0zm-0.37,0.02l-0.06,0.06l-0.01,0.07l0.04,0.06l0.06,0.04l0.07,-0.01l0.06,-0.06l0,-0.1l-0.07,-0.06l-0.09,0zm0.26,0.12l-0.06,0.05l-0.04,0.04l0.01,0.01l0,0.1l-0.01,0.01l0,0.1l0.02,0.01l0.07,0l0.02,-0.02l-0.01,-0.06l0.02,-0.01l-0.01,-0.04l0.04,-0.09l-0.01,-0.05l-0.05,-0.05zm-0.57,0.05l0,0.1l0.01,0.06l-0.02,0.05l0.01,0.06l0,0.09l0.09,0.09l0.07,0.01l0.05,-0.04l-0.05,-0.05l-0.04,-0.06l-0.07,-0.01l0.05,-0.01l0.02,-0.04l0,-0.09l0.02,-0.11l-0.1,-0.04l-0.05,-0.01zm0.49,0.27l0,0.1l0.06,0.07l0.06,0.04l0.04,-0.04l-0.01,-0.06l-0.04,-0.09l-0.1,0l-0.01,-0.02z" fill="#64442E" id="svg_23"/>
   <path d="m7.54,4.87l0.81,0l0.01,0.61l0,2.09l-0.01,0l0,-2.08l-0.21,-0.05l-0.56,-0.12l-0.04,-0.01l0,-0.44z" fill="#D57F39" id="svg_24"/>
   <path d="m4.86,2.37l0.2,0l0,0.2l-0.2,0l0,0.21l0.2,0l0,0.2l0.2,0l0,0.2l0.19,0l0.01,0.01l0,0.2l0.2,0l0,0.2l0.2,0l0,0.2l0.19,0l0.01,0.02l0,0.17l-0.01,0.01l-0.19,0l-0.01,-0.01l0,-0.2l-0.2,0l0,-0.2l-0.19,0l-0.01,-0.01l0,-0.19l-0.19,0l-0.01,-0.2l-0.19,-0.01l-0.01,-0.19l-0.19,-0.01l-0.01,-0.2l-0.19,0l0,-0.21l0.19,0l0,-0.19l0.01,-0.01z" fill="#D68039" id="svg_25"/>
   <path d="m3.49,3.7l0.2,0l0,0.2l-0.2,0l0,0.2l-0.2,0l0,0.19l-0.01,0.01l-0.2,0l0,0.2l-0.2,0l0,0.19l-0.01,0.01l-0.19,0l-0.01,-0.01l0,-0.19l-0.19,0l-0.01,-0.01l0,-0.19l-0.2,0l0,-0.2l0.2,0l0.01,0.19l0.2,0.01l0,0.2l0.19,-0.01l0.01,-0.2l0.2,0l0,-0.19l0.2,-0.01l0,-0.19l0.06,-0.01l0.15,0l0,-0.19z" fill="#97194F" id="svg_26"/>
   <path d="m22.27,8.63l0.16,0l0.17,0.27l0.07,0.12l0.01,0.02l-0.01,-0.11l0,-0.31l0.16,0l0,0.68l-0.17,0l-0.12,-0.2l-0.12,-0.21l0,0.41l-0.15,0l0,-0.68z" fill="#5D3F2C" id="svg_27"/>
   <path d="m12.13,8.26l0.15,0l0.15,0.17l0.11,0.15l0.02,0.01l0,-0.34l0.16,0l0,0.63l-0.01,0.01l-0.12,0l-0.1,-0.11l-0.14,-0.17l-0.04,-0.05l-0.01,0.32l-0.01,0.01l-0.16,0l0,-0.65z" fill="#D68039" id="svg_28"/>
   <path d="m15.21,8.26l0.4,0l0.1,0.05l0.09,0.1l0.02,0.06l0.01,0.14l-0.02,0.11l-0.07,0.11l-0.07,0.05l-0.11,0.02l-0.32,0l-0.01,-0.01l0,-0.63zm0.17,0.16l0,0.32l0.14,0l0.09,-0.04l0.04,-0.05l0.01,-0.11l-0.04,-0.09l-0.06,-0.04l-0.17,0z" fill="#D68039" id="svg_29"/>
   <path d="m9.63,8.26l0.41,0l0.07,0.04l0.06,0.07l0.02,0.07l0,0.1l-0.05,0.1l-0.05,0.05l-0.02,0l0.12,0.19l0,0.02l-0.19,0l-0.1,-0.12l-0.02,-0.04l-0.09,-0.01l0,0.16l-0.01,0.01l-0.15,0l-0.01,-0.01l0,-0.63zm0.17,0.15l0,0.17l0.14,0l0.07,-0.02l0.02,-0.07l-0.02,-0.06l-0.02,-0.01l-0.19,0z" fill="#D68039" id="svg_30"/>
   <path d="m13.49,8.26l0.4,0l0.1,0.05l0.07,0.09l0.04,0.11l0,0.14l-0.04,0.11l-0.09,0.1l-0.09,0.04l-0.07,0.01l-0.32,0l0,-0.65zm0.16,0.16l0,0.31l0.01,0.01l0.12,0l0.1,-0.04l0.04,-0.06l0,-0.12l-0.04,-0.06l-0.05,-0.04l-0.19,0z" fill="#D68039" id="svg_31"/>
   <path d="m7.21,8.25l0.17,0l0.11,0.05l0.07,0.06l0.06,0.11l0.01,0.05l0,0.11l-0.04,0.1l-0.05,0.07l-0.1,0.07l-0.06,0.02l-0.14,0.01l-0.12,-0.04l-0.1,-0.07l-0.07,-0.11l-0.01,-0.05l0,-0.14l0.05,-0.11l0.07,-0.09l0.09,-0.05l0.05,-0.01zm0.02,0.16l-0.07,0.05l-0.04,0.06l0,0.11l0.05,0.07l0.06,0.04l0.07,0.01l0.1,-0.04l0.05,-0.06l0.01,-0.04l0,-0.09l-0.05,-0.09l-0.06,-0.04l-0.12,0z" fill="#D6803A" id="svg_32"/>
   <path d="m8.93,8.25l0.19,0l0.12,0.06l0.1,0.11l0.02,0.06l0,0.19l-0.05,0.1l-0.06,0.06l-0.1,0.06l-0.1,0.02l-0.14,-0.01l-0.11,-0.06l-0.1,-0.11l-0.02,-0.07l0,-0.16l0.06,-0.12l0.1,-0.09l0.09,-0.04zm0.04,0.16l-0.07,0.05l-0.04,0.05l-0.01,0.09l0.04,0.09l0.07,0.06l0.09,0.01l0.09,-0.04l0.05,-0.05l0.02,-0.06l-0.01,-0.1l-0.07,-0.09l-0.04,-0.01l-0.11,0z" fill="#D68039" id="svg_33"/>
   <path d="m23.84,8.61l0.19,0l0.11,0.04l0.07,0.09l0.01,0.14l-0.04,0.1l-0.06,0.06l0.06,0.1l0.07,0.15l0,0.02l-0.19,0l-0.05,-0.1l-0.05,-0.12l-0.01,-0.01l-0.09,-0.01l0,0.24l-0.01,0.01l-0.16,0l0,-0.68l0.14,-0.01zm0.04,0.12l0,0.21l0.11,0l0.06,-0.06l0,-0.1l-0.04,-0.04l-0.02,-0.01l-0.11,0z" fill="#5B3E2C" id="svg_34"/>
   <path d="m23.23,8.61l0.12,0l0.12,0.05l0.07,0.09l0.04,0.11l0,0.19l-0.05,0.14l-0.05,0.06l-0.1,0.05l-0.04,0.01l-0.19,0l-0.1,-0.05l-0.07,-0.09l-0.04,-0.11l0,-0.2l0.05,-0.12l0.1,-0.09l0.12,-0.04zm-0.01,0.14l-0.06,0.06l-0.02,0.07l0,0.15l0.04,0.1l0.06,0.05l0.09,0l0.07,-0.06l0.02,-0.1l0,-0.12l-0.04,-0.11l-0.05,-0.04l-0.11,0z" fill="#5C3F2C" id="svg_35"/>
   <path d="m21.8,8.61l0.12,0l0.1,0.04l0.06,0.06l0.05,0.07l0.02,0.1l0,0.14l-0.04,0.14l-0.09,0.1l-0.11,0.05l-0.19,0l-0.1,-0.05l-0.07,-0.09l-0.04,-0.09l0,-0.22l0.05,-0.12l0.1,-0.09l0.12,-0.04zm-0.01,0.14l-0.06,0.06l-0.02,0.06l0,0.17l0.04,0.09l0.06,0.05l0.09,0l0.06,-0.05l0.02,-0.05l0.01,-0.15l-0.02,-0.11l-0.04,-0.06l-0.02,-0.01l-0.11,0z" fill="#5C3F2C" id="svg_36"/>
   <path d="m16.1,8.26l0.5,0l0,0.16l-0.34,0l0,0.09l0.27,0l0,0.15l-0.27,0l0.01,0.07l0.32,0.01l0,0.15l-0.01,0.01l-0.49,0l0,-0.65z" fill="#D68039" id="svg_37"/>
   <path d="m17.01,8.25l0.2,0l0.1,0.05l0.05,0.06l0.02,0.1l-0.17,0l-0.04,-0.05l-0.09,-0.01l-0.04,0.01l0,0.04l0.21,0.09l0.11,0.1l0.01,0.04l0,0.11l-0.05,0.07l-0.1,0.05l-0.15,0.01l-0.11,-0.02l-0.07,-0.05l-0.05,-0.07l0,-0.06l0.16,0l0.06,0.05l0.1,0l0.01,-0.05l-0.24,-0.1l-0.06,-0.05l-0.04,-0.07l0.01,-0.11l0.05,-0.07l0.1,-0.05z" fill="#D68039" id="svg_38"/>
   <path d="m24.51,8.61l0.2,0l0.21,0.61l0.02,0.09l-0.19,0l-0.04,-0.12l-0.22,0l-0.05,0.12l-0.17,0l0.04,-0.14l0.19,-0.54l0.01,-0.02zm0.09,0.16l-0.07,0.26l0,0.02l0.16,0l-0.02,-0.12l-0.05,-0.16l-0.01,0z" fill="#5D402C" id="svg_39"/>
   <path d="m14.54,8.26l0.17,0l0.11,0.26l0.15,0.36l-0.01,0.02l-0.17,0l-0.04,-0.09l-0.25,0l-0.04,0.07l-0.01,0.01l-0.17,0l0.04,-0.11l0.19,-0.46l0.04,-0.07zm0.07,0.22l-0.05,0.14l0,0.04l0.12,0l-0.01,-0.06l-0.04,-0.11l-0.02,0z" fill="#D68039" id="svg_40"/>
   <path d="m11.68,7.29l0.89,0.04l0.01,0.01l0,0.24l-0.9,0l0,-0.29z" fill="#910F52" id="svg_41"/>
   <path d="m7.91,8.26l0.37,0l0.1,0.05l0.06,0.1l0.01,0.14l-0.04,0.1l-0.05,0.06l-0.07,0.04l-0.05,0.01l-0.16,0.01l-0.01,0.14l-0.16,0l0,-0.65zm0.17,0.15l-0.01,0.01l0,0.17l0.01,0.01l0.11,0l0.06,-0.02l0.02,-0.05l-0.01,-0.09l-0.04,-0.04l-0.15,0z" fill="#D68039" id="svg_42"/>
   <path d="m11.25,8.26l0.16,0l0.01,0.32l0.02,0.12l0.09,0.04l0.1,-0.02l0.04,-0.09l0.01,-0.37l0.16,0l0,0.45l-0.05,0.1l-0.09,0.07l-0.12,0.04l-0.15,-0.01l-0.1,-0.06l-0.06,-0.07l-0.02,-0.07l0,-0.44z" fill="#D68039" id="svg_43"/>
   <path d="m19.59,9.73l5.99,0l0,0.04l-5.99,0l0,-0.04z" fill="#9D502A" id="svg_44"/>
   <path d="m5.86,1.35l0.19,0l0.01,0.02l-0.01,0.19l-0.19,0l0,0.2l-0.2,0l0,0.2l-0.2,0l0,0.21l-0.2,0l0,0.2l-0.2,0l0,-0.2l0.19,0l0,-0.2l0.01,-0.01l0.19,0l0,-0.2l0.2,0l0,-0.2l0.2,0l0,-0.2l0.01,-0.01z" fill="#9B204F" id="svg_45"/>
   <path d="m7.87,1.28l0.2,0l0,0.2l-0.19,0l0,0.2l-0.01,0.01l-0.19,0l0,0.19l-0.01,0.01l-0.19,0l0,0.2l-0.2,0l0,0.2l-0.2,0l0,-0.2l0.19,0l0,-0.2l0.2,0l0,-0.2l0.01,-0.01l0.19,0l0,-0.2l0.2,0l0,-0.2z" fill="#97194F" id="svg_46"/>
   <path d="m8.67,3.31l0.2,0l0,0.2l0.2,0l0.01,0.2l0.17,0l0.01,-0.2l0.2,0l0,-0.2l0.2,0l0,0.2l-0.19,0.01l-0.01,0.2l-0.2,0l0,0.2l-0.2,0l0,-0.2l-0.2,0l-0.01,-0.2l-0.19,-0.01l0,-0.2z" fill="#931351" id="svg_47"/>
   <path d="m21.16,8.61l0.14,0l0.11,0.04l-0.01,0.11l-0.04,0.01l-0.09,-0.02l-0.07,0l-0.05,0.01l0.01,0.07l0.22,0.12l0.05,0.06l0.01,0.04l0,0.1l-0.04,0.07l-0.06,0.05l-0.06,0.02l-0.2,0l-0.11,-0.04l0.02,-0.14l0.16,0.04l0.09,-0.01l0.01,-0.06l-0.1,-0.06l-0.12,-0.07l-0.06,-0.1l0,-0.11l0.05,-0.07l0.07,-0.05l0.06,-0.01z" fill="#5C3F2C" id="svg_48"/>
   <path d="m7.07,2.11l0.01,0l0,0.19l0.19,0l0,0.01l-0.19,0l0,0.2l-0.2,0l0,0.2l0.2,0l0.01,0.2l0.17,0l0.01,0.01l0.01,0.4l-0.02,0l0,-0.2l-0.19,0l-0.01,-0.01l0,-0.19l-0.19,0l-0.01,-0.01l0,-0.2l-0.19,0l0,-0.2l0.19,0l0,-0.2l0.01,-0.01l0.19,0l0,-0.19z" fill="#D1783A" id="svg_49"/>
   <path d="m10.42,8.26l0.57,0l0,0.16l-0.2,0l0,0.47l-0.01,0.01l-0.15,0l-0.01,-0.01l0,-0.46l-0.19,-0.01l-0.01,-0.01l0,-0.15z" fill="#D68039" id="svg_50"/>
   <path d="m5.74,4.87l0.75,0l0.17,0.22l0.02,0.05l-0.15,-0.01l-0.55,-0.07l-0.26,-0.02l0,-0.15l0.01,-0.01z" fill="#D58039" id="svg_51"/>
   <path d="m15.77,3.3l0.21,0l0,0.19l-0.01,0.01l-0.2,0l0,0.2l-0.2,0l0,0.19l-0.01,0.01l-0.19,0l0,0.19l-0.01,0.01l-0.2,0l0,-0.2l0.05,-0.01l0.15,0l0,-0.19l0.2,-0.01l0,-0.19l0.2,-0.01l0.01,-0.19z" fill="#971A53" id="svg_52"/>
   <path d="m1.86,2.5l0.21,0l0,0.2l0.2,0l0,0.2l-0.2,0l0,0.2l-0.2,0l-0.01,0.2l-0.2,0l0,-0.2l0.2,0l0,-0.2l0.2,0l0,-0.2l-0.2,0l0,-0.2z" fill="#BF712D" id="svg_53"/>
   <path d="m3.49,2.9l0.2,0l0.01,0.19l0.2,0.01l0,0.2l0.2,0l0,0.2l-0.2,0l0,0.19l-0.01,0.01l-0.2,0l0,-0.2l0.2,0l0,-0.2l-0.2,0l0,-0.2l-0.2,0l0,-0.2z" fill="#C3722F" id="svg_54"/>
   <path d="m11.94,3.18l0.2,0l0,0.21l-0.2,0l0,0.2l-0.19,0.01l-0.01,0.19l-0.19,0.01l-0.01,0.19l-0.2,0l0,-0.2l0.2,0l0,-0.2l0.2,0l0,-0.2l0.01,-0.01l0.19,0l0,-0.2z" fill="#C3752D" id="svg_55"/>
   <path d="m21.6,7.77l0.29,0l0.1,0.05l0.04,0.07l-0.01,0.11l-0.04,0.06l-0.02,0.02l0.06,0.04l0.05,0.06l0,0.14l-0.04,0.06l-0.06,0.05l-0.1,0.02l-0.19,0l-0.07,-0.01l0,-0.68zm0.12,0.05l-0.05,0.01l0,0.25l0.17,0l0.06,-0.04l0.02,-0.04l0,-0.12l-0.06,-0.05l-0.06,-0.01l-0.09,0zm-0.04,0.31l-0.01,0.01l0,0.25l0.01,0.01l0.2,0l0.07,-0.05l0.02,-0.04l0,-0.1l-0.05,-0.06l-0.07,-0.02l-0.17,0z" fill="#A3552D" id="svg_56"/>
   <path d="m23.72,7.77l0.09,0.01l0.29,0.44l0.06,0.1l0.01,-0.55l0.06,0.01l0,0.67l-0.07,0l-0.3,-0.45l-0.05,-0.09l-0.01,0.54l-0.07,0l0,-0.68z" fill="#A5552E" id="svg_57"/>
   <path d="m23.09,7.77l0.29,0l0.09,0.04l0.05,0.06l0.01,0.04l0,0.1l-0.05,0.1l-0.06,0.05l0.07,0.12l0.07,0.15l0,0.02l-0.09,0l-0.1,-0.21l-0.05,-0.06l-0.02,-0.01l-0.14,-0.01l0,0.3l-0.09,0l0,-0.67l0.01,-0.01zm0.16,0.05l-0.09,0.01l0,0.27l0.19,0l0.06,-0.04l0.02,-0.04l0.01,-0.07l-0.02,-0.09l-0.06,-0.04l-0.11,-0.01z" fill="#A95A2E" id="svg_58"/>
   <path d="m21.06,7.77l0.16,0l0.1,0.05l0.06,0.07l0.04,0.07l0.01,0.06l0,0.14l-0.02,0.11l-0.07,0.11l-0.07,0.05l-0.09,0.02l-0.11,0l-0.1,-0.04l-0.1,-0.11l-0.04,-0.11l0,-0.16l0.04,-0.12l0.09,-0.1l0.11,-0.05zm0,0.06l-0.07,0.05l-0.05,0.06l-0.02,0.06l-0.01,0.14l0.04,0.15l0.07,0.09l0.06,0.02l0.1,0l0.1,-0.05l0.06,-0.09l0.02,-0.12l-0.01,-0.14l-0.06,-0.12l-0.07,-0.05l-0.15,0z" fill="#A6572E" id="svg_59"/>
   <path d="m24.63,7.77l0.16,0l0.1,0.05l0.06,0.07l0.04,0.09l0.01,0.06l0,0.12l-0.05,0.16l-0.05,0.06l-0.07,0.05l-0.09,0.02l-0.11,0l-0.1,-0.04l-0.09,-0.09l-0.05,-0.14l0,-0.17l0.04,-0.11l0.09,-0.1l0.11,-0.05zm0,0.06l-0.07,0.05l-0.05,0.06l-0.04,0.12l0.01,0.16l0.05,0.1l0.07,0.06l0.04,0.01l0.1,0l0.1,-0.05l0.05,-0.06l0.02,-0.07l0.01,-0.11l-0.02,-0.14l-0.06,-0.1l-0.06,-0.04l-0.15,0z" fill="#A6562E" id="svg_60"/>
   <path d="m1.66,3.5l0.2,0l0.01,0.19l0.2,0.01l0.01,0.19l0.19,0l0,0.21l-0.2,0l-0.01,-0.01l0,-0.19l-0.2,0l0,-0.2l-0.2,0l0,-0.2z" fill="#BC7129" id="svg_61"/>
   <path d="m13.53,3.1l0.21,0l0,0.2l-0.2,0l0,0.2l0.2,0l0,0.2l-0.2,0l-0.01,-0.01l0,-0.19l-0.2,0l0,-0.2l0.2,0l0,-0.2z" fill="#BA7028" id="svg_62"/>
   <path d="m14.14,2.5l0.21,0l0,0.2l-0.2,0l0,0.2l0.2,0l0,0.2l-0.2,0l-0.01,-0.01l0,-0.19l-0.2,0l0,-0.2l0.2,0l0,-0.2z" fill="#C1722D" id="svg_63"/>
   <path d="m13.53,1.91l0.21,0l0,0.2l-0.2,0l0,0.2l0.2,0l0,0.2l-0.2,0l-0.01,-0.01l0,-0.19l-0.2,0l0,-0.2l0.2,0l0,-0.2z" fill="#C3732F" id="svg_64"/>
   <path d="m3.69,1.91l0.2,0l0.01,0.01l0,0.19l0.2,0l0,0.2l-0.2,0l0,0.2l-0.21,0l0,-0.2l0.2,0l0,-0.2l-0.2,0l0,-0.2z" fill="#C1712E" id="svg_65"/>
   <path d="m14.96,4.1l0.2,0l0,0.2l-0.2,0l0,0.2l-0.2,0l0,0.19l-0.01,0.01l-0.19,0l-0.01,-0.01l0,-0.19l0.2,0l0,-0.2l0.06,-0.01l0.15,0l0,-0.19z" fill="#9F2750" id="svg_66"/>
   <path d="m13.74,3.7l0.2,0l0.01,0.19l0.19,0l0.01,0.01l0,0.2l0.2,0l0,0.2l-0.2,0l-0.01,-0.01l0,-0.19l-0.19,0l-0.01,-0.01l0,-0.19l-0.2,0l0,-0.2z" fill="#BA7028" id="svg_67"/>
   <path d="m11.36,1.35l0.19,0l0,0.2l0.2,0l0.01,0.01l0,0.19l0.19,0.01l0,0.2l-0.2,0l0,-0.2l-0.2,0l0,-0.2l-0.19,0l-0.01,-0.01l0,-0.19l0.01,-0.01z" fill="#971B56" id="svg_68"/>
   <path d="m3.08,2.5l0.21,0l0,0.2l0.2,0l0,0.2l-0.2,0l0,0.2l-0.21,0l0,-0.2l0.2,-0.01l0,-0.17l-0.2,-0.01l0,-0.2z" fill="#C1732C" id="svg_69"/>
   <path d="m8.27,2.09l0.2,0l0,0.21l-0.2,0l0,0.2l-0.19,0l-0.01,0.2l-0.2,0l0,-0.2l0.2,0l0,-0.2l0.01,-0.01l0.19,0l0,-0.2z" fill="#971A4F" id="svg_70"/>
   <path d="m2.68,2.11l0.2,0l0,0.2l-0.2,0l0,0.2l-0.2,0l-0.01,0.2l-0.2,0l0,-0.2l0.2,0l0,-0.2l0.2,0l0,-0.19l0.01,-0.01z" fill="#991E51" id="svg_71"/>
   <path d="m20.39,7.77l0.2,0l0.07,0.02l0,0.06l-0.09,-0.01l-0.17,0l-0.09,0.05l-0.06,0.12l0,0.17l0.04,0.11l0.02,0.05l0.06,0.02l0.04,0.01l0.12,0l0.09,-0.01l0,-0.2l-0.14,0l-0.01,-0.05l0.01,-0.01l0.21,0l0,0.3l-0.16,0.05l-0.14,0l-0.1,-0.04l-0.07,-0.06l-0.06,-0.12l-0.01,-0.06l0,-0.11l0.02,-0.11l0.06,-0.1l0.06,-0.05l0.09,-0.04z" fill="#A6572E" id="svg_72"/>
   <path d="m2.07,1.51l0.2,0l0,0.2l-0.2,0l0,0.2l-0.2,0.01l-0.01,0.19l-0.2,0l0,-0.2l0.2,0l0,-0.2l0.2,0l0,-0.19l0.01,-0.01z" fill="#931351" id="svg_73"/>
   <path d="m2.68,0.91l0.2,0l0,0.2l-0.2,0l0,0.2l-0.2,0.01l-0.01,0.19l-0.2,0l0,-0.2l0.2,0l0,-0.2l0.2,0l0,-0.19l0.01,-0.01z" fill="#9B204E" id="svg_74"/>
   <path d="m14.55,0.91l0.21,0l0,0.2l0.2,0l0,0.2l-0.2,0l-0.01,-0.02l0,-0.16l-0.19,0l-0.01,0.19l-0.2,0l0,-0.2l0.2,0l0,-0.2z" fill="#931351" id="svg_75"/>
   <path d="m3.49,3.7l0.2,0l0,0.2l-0.2,0l0,0.2l-0.2,0l0,0.19l-0.21,0l0,-0.19l0.2,-0.01l0,-0.19l0.06,-0.01l0.15,0l0,-0.19z" fill="#9E2654" id="svg_76"/>
   <path d="m8.27,3.31l0.2,0l0,0.2l-0.19,0l0,0.2l-0.01,0.01l-0.19,0l-0.01,0.2l-0.19,0l0,-0.2l0.17,-0.01l0.01,-0.2l0.2,0l0,-0.2z" fill="#911052" id="svg_77"/>
   <path d="m4,4.81l0.12,0l0.25,0.02l0.24,0.06l0.1,0.04l0,0.01l-1.3,0l0.02,-0.02l0.25,-0.07l0.15,-0.02l0.16,-0.01z" fill="#D58039" id="svg_78"/>
   <path d="m4.95,8.26l0.35,0l0.12,0.06l0.07,0.11l0.01,0.05l0,0.2l-0.06,0.12l-0.1,0.07l-0.14,0.02l-0.25,0l-0.01,-0.01l0,-0.63zm0.06,0.05l-0.01,0.54l0.01,0.01l0.22,0l0.11,-0.04l0.06,-0.06l0.04,-0.06l0.01,-0.04l0,-0.16l-0.05,-0.1l-0.09,-0.07l-0.04,-0.01l-0.27,0z" fill="#D68039" id="svg_79"/>
   <path d="m2.02,8.26l0.37,0l0.1,0.06l0.04,0.06l0.01,0.09l-0.04,0.11l-0.06,0.06l-0.05,0.01l0.12,0.17l0.04,0.05l0,0.02l-0.06,-0.01l-0.1,-0.12l-0.06,-0.09l-0.25,-0.01l0,0.22l-0.05,0.01l-0.01,-0.01l0,-0.63zm0.06,0.04l0,0.32l0.3,0l0.07,-0.05l0.02,-0.05l0,-0.11l-0.05,-0.07l-0.05,-0.02l-0.11,-0.01l-0.19,0z" fill="#D6813A" id="svg_80"/>
   <path d="m13.03,8.26l0.16,0l0,0.65l-0.16,0l0,-0.65z" fill="#D6813A" id="svg_81"/>
   <path d="m22.53,7.77l0.37,0l0.01,0.06l-0.31,0l0,0.25l0.22,0l0,0.05l-0.22,0l0,0.26l0.34,0l0,0.06l-0.41,0l0,-0.68z" fill="#A6572C" id="svg_82"/>
   <path d="m2.86,8.26l0.37,0l0.1,0.06l0.04,0.07l0,0.14l-0.05,0.07l-0.06,0.05l-0.02,0l0.15,0.21l0.01,0.04l-0.07,-0.01l-0.15,-0.21l-0.25,0l-0.01,0.22l-0.05,-0.01l0,-0.63zm0.06,0.04l-0.01,0.01l0,0.31l0.31,0l0.07,-0.05l0.02,-0.05l0,-0.11l-0.05,-0.07l-0.05,-0.02l-0.1,-0.01l-0.2,0z" fill="#D68039" id="svg_83"/>
   <path d="m5.82,8.26l0.46,0l-0.01,0.05l-0.39,0l0,0.25l0.34,0l0,0.05l-0.34,0l0,0.25l0.4,0l-0.01,0.05l-0.44,0l-0.01,-0.01l0,-0.63z" fill="#D68039" id="svg_84"/>
   <path d="m24.33,6.61l0.19,0l0.06,0.04l0.01,0.07l-0.04,0.06l-0.02,0l0.09,0.12l0.06,-0.01l0.12,-0.27l0.04,-0.01l0.14,0.29l0,0.02l0.04,0.01l0,0.01l-0.15,0l0,-0.02l0.04,0l-0.02,-0.07l-0.15,0l0,0.1l-0.19,0l-0.09,-0.14l-0.02,-0.01l0,0.12l0.02,0l0,0.02l-0.12,0l0,-0.02l0.02,0l0,-0.29l-0.02,0l0,-0.02zm0.1,0.02l0,0.14l0.06,-0.01l0.02,-0.02l0,-0.06l-0.04,-0.04l-0.05,0zm0.36,0.07l-0.04,0.11l0.1,0l-0.04,-0.11l-0.02,0z" fill="#66442D" id="svg_85"/>
   <path d="m21.26,6.61l0.05,0.02l0.12,0.27l0.04,0.01l0.02,-0.01l0,-0.26l-0.02,-0.01l0,-0.02l0.2,0l0.09,0.04l0.04,0.05l0.01,0.11l-0.04,0.09l-0.05,0.04l-0.04,0.01l-0.36,0l0,-0.02l0.02,0l-0.02,-0.06l-0.14,0l-0.02,0.06l0.02,0l0,0.02l-0.09,0l0,-0.02l0.04,-0.04l0.12,-0.27zm0.32,0.02l-0.01,0.01l0,0.25l0.01,0.02l0.07,0l0.06,-0.06l0.01,-0.11l-0.04,-0.09l-0.06,-0.02l-0.05,0zm-0.34,0.07l-0.05,0.11l0.11,0l-0.02,-0.07l-0.04,-0.04z" fill="#65442D" id="svg_86"/>
   <path d="m3.9,8.26l0.06,0l0.1,0.2l0.2,0.42l0,0.02l-0.06,-0.01l-0.06,-0.12l-0.41,-0.01l-0.02,0.07l-0.04,0.07l-0.05,0l0.01,-0.06l0.2,-0.42l0.07,-0.16zm0.02,0.06l-0.16,0.35l0,0.04l0.35,0l-0.02,-0.07l-0.14,-0.3l-0.02,-0.01z" fill="#D6803A" id="svg_87"/>
   <path d="m4.86,2.37l0.2,0l0,0.2l-0.2,0l0.01,0.21l0,0.19l0.14,0l0,0.01l-0.15,0l-0.01,-0.2l-0.19,0l0,-0.21l0.19,0l0,-0.19l0.01,-0.01z" fill="#C47832" id="svg_88"/>
   <path d="m1.26,8.26l0.45,0l0,0.05l-0.4,0l0,0.25l0.34,0l0,0.05l-0.34,0l0.01,0.24l0.39,0.01l0,0.04l-0.05,0.01l-0.39,0l-0.01,-0.01l0,-0.63z" fill="#D68039" id="svg_89"/>
   <path d="m5.86,1.35l0.19,0l0.01,0.02l-0.01,0.19l-0.19,0l0,0.2l-0.2,0l0,0.2l-0.01,0l0,-0.4l0.2,0l0,-0.2l0.01,-0.01z" fill="#9C224D" id="svg_90"/>
   <path d="m8.07,1.48l0.2,0l0.01,0.01l0,0.19l0.19,0l0,0.21l-0.2,0l0,-0.2l-0.19,0l-0.01,-0.01l0,-0.2z" fill="#B96F27" id="svg_91"/>
   <path d="m8.07,2.7l0.2,0l0.01,0.01l0,0.2l0.02,-0.01l0.16,0l0,0.21l-0.2,0l0,-0.2l-0.19,0l-0.01,-0.01l0,-0.2z" fill="#C3752D" id="svg_92"/>
   <path d="m22.69,2.38l0.01,0l-0.01,0.14l-0.04,0.15l-0.01,0.14l0.01,0.04l0,0.24l0.07,0.04l0.05,0.06l0,0.09l-0.04,0.01l-0.01,-0.11l-0.05,-0.04l-0.07,0l-0.05,0.02l-0.02,0.06l-0.02,0l0.01,-0.06l0.01,-0.05l-0.09,-0.09l-0.1,-0.09l-0.07,-0.09l-0.01,-0.04l-0.06,0.22l0,0.09l-0.02,-0.01l0,-0.11l0.06,-0.26l0.1,-0.2l0.02,-0.02l0.01,0.04l0.07,-0.04l0.02,0l0.02,-0.05l0.02,0.01l0,0.05l0,0.21l0.01,0.21l0.02,0.09l0,0.09l0.07,-0.01l-0.01,-0.02l-0.01,-0.39l0.07,-0.3l0.01,-0.01zm-0.22,0.15l-0.1,0.04l-0.05,0.12l-0.04,0.05l0.01,0.09l0.21,0.21l0.01,-0.05l-0.02,-0.09l0,-0.37l-0.02,0zm-0.14,0.04l0.01,0.02l-0.01,-0.02zm-0.01,0.02l0.01,0.02l-0.01,-0.02zm-0.01,0.02l0.01,0.02l-0.01,-0.02zm-0.01,0.02l0.01,0.02l-0.01,-0.02zm-0.01,0.02l0.01,0.02l-0.01,-0.02z" fill="#61422C" id="svg_93"/>
   <path d="m14.75,3.1l0.21,0l0,0.2l-0.2,0l0,0.2l-0.21,0l0,-0.2l0.2,0l0,-0.2z" fill="#981B50" id="svg_94"/>
   <path d="m10.06,2.7l0.2,0l0,0.21l-0.2,0l0,0.2l-0.2,0l0,-0.21l0.2,0l0,-0.2z" fill="#971A4F" id="svg_95"/>
   <path d="m9.26,1.48l0.2,0l0,0.2l0.2,0l0,0.21l-0.2,0l0,-0.2l-0.2,0l0,-0.21z" fill="#C4752E" id="svg_96"/>
   <path d="m2.27,4.1l0.2,0l0.01,0.19l0.2,0.01l0,0.39l-0.01,0l0,-0.19l-0.19,0l-0.01,-0.01l0,-0.19l-0.2,0l0,-0.2z" fill="#C47630" id="svg_97"/>
   <path d="m8.87,2.7l0.2,0l0,0.21l-0.2,0l0,0.2l-0.2,0l0,-0.2l0.01,-0.01l0.19,0l0,-0.2z" fill="#991C4E" id="svg_98"/>
   <path d="m9.86,2.09l0.2,0l0,0.2l0.2,0l0,0.21l-0.2,0l0,-0.2l-0.19,0l-0.01,-0.01l0,-0.2z" fill="#C4762E" id="svg_99"/>
   <path d="m8.67,2.09l0.2,0l0,0.2l0.2,0l0,0.21l-0.2,0l0,-0.2l-0.19,0l-0.01,-0.01l0,-0.2z" fill="#C2742C" id="svg_100"/>
   <path d="m14.15,1.31l0.2,0l0,0.2l-0.2,0l0,0.2l-0.21,0l0,-0.2l0.2,0l0,-0.19l0.01,-0.01z" fill="#981A4F" id="svg_101"/>
   <path d="m8.87,1.48l0.2,0l0,0.2l-0.01,0.01l-0.17,0l-0.01,0.2l-0.2,0l0,-0.21l0.2,0l0,-0.2z" fill="#961850" id="svg_102"/>
   <path d="m15.36,2.5l0.21,0l0,0.2l-0.2,0l0,0.14l-0.01,0.06l-0.2,0l0,-0.2l0.2,0l0,-0.2z" fill="#BF702C" id="svg_103"/>
   <path d="m14.55,2.11l0.21,0l0,0.2l0.2,0l0,0.2l-0.2,0l-0.01,-0.04l0,-0.15l-0.2,-0.01l0,-0.2z" fill="#C0712D" id="svg_104"/>
   <path d="m2.27,2.9l0.2,0l0.01,0.15l0,0.05l0.2,0l0,0.2l-0.21,0l0,-0.2l-0.2,0l0,-0.2z" fill="#C3752D" id="svg_105"/>
   <path d="m8.67,3.31l0.2,0l0,0.2l0.2,0l0.01,0.21l-0.21,0l-0.01,-0.2l-0.19,-0.01l0,-0.2z" fill="#C0732B" id="svg_106"/>
   <path d="m12.52,2.57l0.2,0l0,0.2l-0.19,0.01l-0.01,0.2l-0.2,0l0,-0.2l0.01,-0.01l0.19,0l0,-0.2z" fill="#BF702C" id="svg_107"/>
   <path d="m3.08,1.31l0.21,0l0,0.2l0.2,0l0,0.2l-0.2,0l-0.01,-0.19l-0.2,-0.01l0,-0.2z" fill="#C2742C" id="svg_108"/>
   <path d="m1.86,2.9l0.2,0l0,0.2l-0.19,0l-0.01,0.2l-0.2,0l0,-0.2l0.2,0l0,-0.2z" fill="#951751" id="svg_109"/>
   <path d="m7.27,1.89l0.2,0l0,0.2l-0.19,0l0,0.2l-0.2,0l0,-0.2l0.19,0l0,-0.2z" fill="#981B4F" id="svg_110"/>
   <path d="m21.65,4.41l0.06,0.01l0.06,0.06l0,0.02l0.02,0.07l0,0.04l0,0.02l0.02,0.01l-0.01,0.05l0.01,0.05l-0.02,0l0.01,0.07l-0.04,0.04l-0.07,-0.01l-0.04,-0.11l-0.05,-0.02l-0.04,-0.07l0.01,-0.12l0.02,-0.07l0.04,-0.04z" fill="#5E402C" id="svg_111"/>
   <path d="m21.2,5.33l0.05,0.02l0.05,0.07l0.01,0.01l0.07,0l0.05,0.05l0.09,0.02l0.01,0.11l-0.01,0.09l-0.05,0.01l-0.06,-0.01l-0.04,-0.06l0,-0.02l-0.06,0.01l-0.06,-0.06l-0.06,-0.11l-0.01,-0.1l0.02,-0.04z" fill="#5E402C" id="svg_112"/>
   <path d="m21.07,1.87l0.02,0.01l0.01,0.04l0.04,0.02l0.01,0.15l0.05,0.07l0.05,0.06l0.02,0.11l-0.01,0.05l-0.05,0l-0.3,-0.27l-0.06,-0.05l-0.05,0.02l-0.04,0l0.09,-0.09l0.1,-0.09l0.04,0l-0.07,0.09l0.09,0.09l0.1,0.09l0.04,0.02l-0.05,-0.11l-0.04,-0.01l-0.02,-0.05l-0.04,0l0.01,-0.09l0.06,-0.07zm-0.2,0.15l0.01,0.05l0.25,0.22l0.1,0.09l0.04,-0.01l-0.07,-0.09l-0.16,-0.15l-0.12,-0.11l-0.04,0zm0.3,0.21l0.05,0.05l-0.02,-0.05l-0.02,0z" fill="#5E412E" id="svg_113"/>
   <path d="m22.24,7.77l0.06,0l0.01,0.01l0,0.67l-0.09,0l0,-0.67l0.01,-0.01z" fill="#AD5E2E" id="svg_114"/>
   <path d="m0.05,8.26l0.52,0l0,0.05l-0.24,0l0,0.58l-0.05,0l0,-0.58l-0.24,0l0,-0.05z" fill="#D68039" id="svg_115"/>
   <path d="m20.16,8.89l0.19,0l0.07,0.04l0.04,0.05l0.01,0.04l0,0.16l-0.05,0.09l-0.05,0.04l-0.04,0.01l-0.17,0l-0.01,-0.01l0,-0.4l0.01,-0.01zm0.04,0.04l0,0.35l0.14,0l0.06,-0.05l0.02,-0.05l0,-0.16l-0.04,-0.06l-0.05,-0.02l-0.14,0z" fill="#68462E" id="svg_116"/>
   <path d="m23.33,6.61l0.14,0l0.06,0.04l0.04,0.07l0,0.11l-0.04,0.07l-0.05,0.04l-0.11,0.01l-0.09,-0.04l-0.04,-0.05l-0.01,-0.04l0,-0.11l0.04,-0.07l0.06,-0.04zm0.02,0.02l-0.05,0.07l0,0.14l0.04,0.06l0.04,0.02l0.06,-0.01l0.04,-0.04l0.01,-0.04l0,-0.14l-0.04,-0.06l-0.01,-0.01l-0.09,0z" fill="#63422C" id="svg_117"/>
   <path d="m21.93,6.61l0.14,0l0.06,0.04l0.04,0.05l0.01,0.11l-0.04,0.09l-0.06,0.05l-0.11,0.01l-0.07,-0.04l-0.05,-0.06l-0.01,-0.1l0.04,-0.1l0.06,-0.05zm0.04,0.02l-0.04,0.04l-0.01,0.02l0,0.17l0.06,0.06l0.07,-0.01l0.04,-0.05l0,-0.19l-0.04,-0.05l-0.09,0z" fill="#68452D" id="svg_118"/>
   <path d="m24.06,6.61l0.14,0l0.07,0.06l0.02,0.07l-0.01,0.11l-0.06,0.07l-0.07,0.02l-0.1,-0.01l-0.07,-0.06l-0.02,-0.12l0.04,-0.1l0.04,-0.04l0.04,-0.01zm0.02,0.02l-0.04,0.04l-0.01,0.02l0,0.17l0.06,0.06l0.07,-0.01l0.04,-0.05l0.01,-0.1l-0.02,-0.11l-0.04,-0.02l-0.07,0z" fill="#65442D" id="svg_119"/>
   <path d="m23.6,6.61l0.07,0l0.15,0.2l0.01,0.02l0,-0.19l-0.02,-0.02l0.09,-0.01l0.02,0.02l-0.02,0.01l-0.01,0.3l-0.06,-0.01l-0.12,-0.16l-0.02,-0.04l-0.01,0.19l0.02,0l0,0.02l-0.1,0l0,-0.02l0.04,0l-0.01,-0.27l-0.02,-0.02l0.01,-0.01z" fill="#66442D" id="svg_120"/>
   <path d="m15.36,3.7l0.01,0l0,0.19l0.19,0l0,0.01l-0.19,0l0,0.19l-0.01,0.01l-0.2,0l0,-0.2l0.05,-0.01l0.15,0l0,-0.19z" fill="#961752" id="svg_121"/>
   <path d="m23.14,4.83l0.04,0.01l0.02,0.12l0.04,0.05l0,0.04l0.02,0.01l-0.06,0.21l0,0.06l-0.09,0.01l-0.14,-0.06l-0.09,-0.05l0.01,-0.05l0.05,-0.04l0,-0.12l0.02,-0.11l0.06,-0.05l0.1,-0.04zm-0.02,0.05l-0.09,0.04l-0.04,0.11l0,0.12l-0.05,0.07l0.15,0.07l0.06,0.01l0.06,-0.22l-0.01,-0.06l-0.04,-0.05l-0.01,-0.1l-0.04,0z" fill="#684730" id="svg_122"/>
   <path d="m20.65,1.46l0.06,0l0,0.04l-0.1,0.05l-0.1,0.09l0.04,0.05l-0.06,-0.01l0.02,0.05l0.05,0.05l-0.05,-0.01l-0.07,-0.06l-0.02,0.05l-0.09,0.16l-0.02,0l0,-0.1l0.05,-0.12l0.02,-0.05l0,-0.05l0.02,-0.02l0.06,-0.01l0.14,-0.07l0.05,-0.01z" fill="#62422D" id="svg_123"/>
   <path d="m11.36,1.35l0.19,0l0,0.2l0.2,0l0,0.01l-0.19,0l0,0.2l-0.01,0l0,-0.2l-0.19,0l-0.01,-0.01l0,-0.19l0.01,-0.01z" fill="#9E244D" id="svg_124"/>
   <path d="m14.55,0.91l0.21,0l0,0.2l0.2,0l0,0.2l-0.2,0l-0.01,-0.02l0,-0.36l-0.2,0l0,-0.01z" fill="#BE6F2E" id="svg_125"/>
   <path d="m8.07,2.3l0.01,0l0,0.19l0.19,0l0,0.01l-0.19,0l-0.01,0.2l-0.2,0l0,-0.2l0.2,0l0,-0.2z" fill="#B96A2B" id="svg_126"/>
   <path d="m2.07,1.51l0.2,0l0,0.2l-0.2,0l0,0.2l-0.01,0l0,-0.39l0.01,-0.01z" fill="#981A4F" id="svg_127"/>
   <path d="m9.46,3.31l0.2,0l0,0.2l-0.19,0.01l-0.21,0l0,-0.01l0.2,0l0,-0.2z" fill="#931351" id="svg_128"/>
   <path d="m2.88,4.28l0.4,0l0,0.01l-0.2,0l0,0.19l-0.2,0l0,-0.2z" fill="#991C51" id="svg_129"/>
   <path d="m15.77,3.3l0.21,0l0,0.19l-0.01,0.01l-0.21,0l0.01,-0.2z" fill="#951651" id="svg_130"/>
   <path d="m12.14,2.16l0.2,0l0,0.21l-0.2,0l0,-0.21z" fill="#951650" id="svg_131"/>
   <path d="m15.36,1.71l0.21,0l0,0.2l-0.21,0l0,-0.2z" fill="#BF722B" id="svg_132"/>
   <path d="m7.87,1.28l0.2,0l0,0.2l-0.19,0l0,0.2l-0.01,0l0,-0.4z" fill="#B96F27" id="svg_133"/>
   <path d="m15.36,2.9l0.21,0l0,0.2l-0.2,0l-0.01,-0.01l0,-0.19z" fill="#C0732B" id="svg_134"/>
   <path d="m3.08,2.9l0.2,0l0.01,0.01l0,0.19l-0.21,0l0,-0.2z" fill="#921151" id="svg_135"/>
   <path d="m15.77,2.11l0.21,0l0,0.19l-0.01,0.01l-0.2,0l0,-0.2z" fill="#951550" id="svg_136"/>
   <path d="m15.16,1.51l0.2,0l0.01,0.01l0,0.16l-0.01,0.02l-0.2,0l0,-0.2z" fill="#B96F27" id="svg_137"/>
   <path d="m20.56,8.89l0.22,0l0,0.04l-0.17,0.01l-0.01,0.14l0.14,0l0,0.04l-0.14,0l0.01,0.15l0.2,0.01l-0.01,0.04l-0.24,0l-0.01,-0.01l0,-0.4l0.01,-0.01z" fill="#5A3E2C" id="svg_138"/>
   <path d="m20.22,6.61l0.22,0l0.01,0.06l-0.04,0l-0.01,-0.02l-0.09,-0.01l0,0.12l0.07,0l0,-0.02l0.02,0l0,0.07l-0.02,0l0,-0.02l-0.07,0l0,0.14l0.1,-0.01l0.01,-0.02l0.04,0l0,0.06l-0.26,0l0,-0.02l0.04,0l-0.01,-0.27l-0.02,-0.02l0.01,-0.01z" fill="#69462D" id="svg_139"/>
   <path d="m15.57,2.3l0.2,0l0,0.2l-0.2,0l-0.01,-0.19l0.01,-0.01z" fill="#911053" id="svg_140"/>
   <path d="m11.94,1.96l0.2,0l0.01,0.04l-0.01,0.16l-0.2,0l0,-0.2z" fill="#941452" id="svg_141"/>
   <path d="m14.35,4.3l0.2,0l0,0.2l-0.2,0l0,-0.2z" fill="#BD7129" id="svg_142"/>
   <path d="m9.06,3.72l0.2,0l0,0.2l-0.2,0l0,-0.2z" fill="#910F52" id="svg_143"/>
   <path d="m3.69,3.5l0.2,0l0,0.2l-0.2,0l0,-0.2z" fill="#931251" id="svg_144"/>
   <path d="m3.9,3.3l0.2,0l0,0.2l-0.2,0l0,-0.2z" fill="#910F51" id="svg_145"/>
   <path d="m2.68,3.3l0.2,0l0,0.2l-0.2,0l0,-0.2z" fill="#921051" id="svg_146"/>
   <path d="m1.46,3.3l0.2,0l0,0.2l-0.2,0l0,-0.2z" fill="#BD712A" id="svg_147"/>
   <path d="m9.66,3.11l0.2,0l0,0.2l-0.2,0l0,-0.2z" fill="#910F52" id="svg_148"/>
   <path d="m8.47,3.11l0.2,0l0,0.2l-0.2,0l0,-0.2z" fill="#BC7029" id="svg_149"/>
   <path d="m15.57,3.1l0.2,0l0,0.2l-0.2,0l0,-0.2z" fill="#BD712A" id="svg_150"/>
   <path d="m14.35,3.1l0.2,0l0,0.2l-0.2,0l0,-0.2z" fill="#BD712A" id="svg_151"/>
   <path d="m2.88,3.1l0.2,0l0,0.2l-0.2,0l0,-0.2z" fill="#931251" id="svg_152"/>
   <path d="m12.14,2.98l0.2,0l0,0.2l-0.2,0l0,-0.2z" fill="#BF722A" id="svg_153"/>
   <path d="m14.96,2.9l0.2,0l0,0.2l-0.2,0l0,-0.2z" fill="#910F52" id="svg_154"/>
   <path d="m13.74,2.9l0.2,0l0,0.2l-0.2,0l0,-0.2z" fill="#910F52" id="svg_155"/>
   <path d="m13.94,2.7l0.2,0l0,0.2l-0.2,0l0,-0.2z" fill="#910F51" id="svg_156"/>
   <path d="m10.06,2.7l0.2,0l0,0.2l-0.2,0l0,-0.2z" fill="#910F52" id="svg_157"/>
   <path d="m8.87,2.7l0.2,0l0,0.2l-0.2,0l0,-0.2z" fill="#910F52" id="svg_158"/>
   <path d="m2.07,2.7l0.2,0l0,0.2l-0.2,0l0,-0.2z" fill="#910F52" id="svg_159"/>
   <path d="m14.96,2.5l0.2,0l0,0.2l-0.2,0l0,-0.2z" fill="#BC7129" id="svg_160"/>
   <path d="m13.74,2.5l0.2,0l0,0.2l-0.2,0l0,-0.2z" fill="#BE722A" id="svg_161"/>
   <path d="m15.37,2.5l0.2,0l0,0.2l-0.2,0l0,-0.2z" fill="#931251" id="svg_162"/>
   <path d="m14.15,2.5l0.2,0l0,0.2l-0.2,0l0,-0.2z" fill="#910F52" id="svg_163"/>
   <path d="m10.26,2.5l0.2,0l0,0.2l-0.2,0l0,-0.2z" fill="#BE722A" id="svg_164"/>
   <path d="m9.06,2.5l0.2,0l0,0.2l-0.2,0l0,-0.2z" fill="#BE722A" id="svg_165"/>
   <path d="m3.49,2.5l0.2,0l0,0.2l-0.2,0l0,-0.2z" fill="#910F52" id="svg_166"/>
   <path d="m2.27,2.5l0.2,0l0,0.2l-0.2,0l0,-0.2z" fill="#910F52" id="svg_167"/>
   <path d="m12.34,2.37l0.2,0l0,0.2l-0.2,0l0,-0.2z" fill="#921151" id="svg_168"/>
   <path d="m4.86,2.37l0.2,0l0,0.2l-0.2,0l0,-0.2z" fill="#931251" id="svg_169"/>
   <path d="m1.66,2.3l0.2,0l0,0.2l-0.2,0l0,-0.2z" fill="#BF722A" id="svg_170"/>
   <path d="m14.35,2.3l0.2,0l0,0.2l-0.2,0l0,-0.2z" fill="#910F52" id="svg_171"/>
   <path d="m3.69,2.3l0.2,0l0,0.2l-0.2,0l0,-0.2z" fill="#910F51" id="svg_172"/>
   <path d="m2.88,2.3l0.2,0l0,0.2l-0.2,0l0,-0.2z" fill="#BD7129" id="svg_173"/>
   <path d="m14.55,2.11l0.2,0l0,0.2l-0.2,0l0,-0.2z" fill="#910F52" id="svg_174"/>
   <path d="m3.9,2.11l0.2,0l0,0.2l-0.2,0l0,-0.2z" fill="#910F51" id="svg_175"/>
   <path d="m2.68,2.11l0.2,0l0,0.2l-0.2,0l0,-0.2z" fill="#910F51" id="svg_176"/>
   <path d="m1.46,2.11l0.2,0l0,0.2l-0.2,0l0,-0.2z" fill="#BE712A" id="svg_177"/>
   <path d="m15.57,1.91l0.2,0l0,0.2l-0.2,0l0,-0.2z" fill="#BF722B" id="svg_178"/>
   <path d="m13.54,1.91l0.2,0l0,0.2l-0.2,0l0,-0.2z" fill="#910F52" id="svg_179"/>
   <path d="m9.66,1.89l0.2,0l0,0.2l-0.2,0l0,-0.2z" fill="#BE722A" id="svg_180"/>
   <path d="m8.47,1.89l0.2,0l0,0.2l-0.2,0l0,-0.2z" fill="#911051" id="svg_181"/>
   <path d="m13.74,1.71l0.2,0l0,0.2l-0.2,0l0,-0.2z" fill="#910F52" id="svg_182"/>
   <path d="m3.49,1.71l0.2,0l0,0.2l-0.2,0l0,-0.2z" fill="#BD7129" id="svg_183"/>
   <path d="m8.67,1.69l0.2,0l0,0.2l-0.2,0l0,-0.2z" fill="#910F51" id="svg_184"/>
   <path d="m14.96,1.31l0.2,0l0,0.2l-0.2,0l0,-0.2z" fill="#BD7129" id="svg_185"/>
   <path d="m14.15,1.31l0.2,0l0,0.2l-0.2,0l0,-0.2z" fill="#910F51" id="svg_186"/>
   <path d="m2.27,1.31l0.2,0l0,0.2l-0.2,0l0,-0.2z" fill="#910F51" id="svg_187"/>
   <path d="m9.06,1.28l0.2,0l0,0.2l-0.2,0l0,-0.2z" fill="#BF732B" id="svg_188"/>
   <path d="m2.88,1.11l0.2,0l0,0.2l-0.2,0l0,-0.2z" fill="#BC7129" id="svg_189"/>
   <path d="m14.55,4.49l0.2,0l0,0.2l-0.19,0l-0.01,-0.01l0,-0.19z" fill="#951550" id="svg_190"/>
   <path d="m21.26,6.61l0.05,0.02l0.12,0.27l0.04,0.04l-0.15,0l0,-0.02l0.02,0l-0.02,-0.06l-0.14,0l-0.02,0.06l0.02,0l0,0.02l-0.09,0l0,-0.02l0.04,-0.04l0.12,-0.27zm-0.01,0.1l-0.05,0.11l0.11,0l-0.02,-0.07l-0.04,-0.04z" fill="#62432E" id="svg_191"/>
   <path d="m12.52,2.57l0.17,0l0,0.2l-0.16,0.01l-0.02,-0.01l0,-0.19l0.01,-0.01z" fill="#921153" id="svg_192"/>
   <path d="m5.86,1.35l0.19,0l0.01,0.02l-0.01,0.17l-0.19,0l0,-0.2z" fill="#951751" id="svg_193"/>
   <path d="m14.96,4.1l0.2,0l0,0.19l-0.2,0l0,-0.19z" fill="#910F52" id="svg_194"/>
   <path d="m3.08,4.1l0.2,0l0,0.19l-0.2,0l0,-0.19z" fill="#910F52" id="svg_195"/>
   <path d="m7.88,3.72l0.19,0l0,0.2l-0.19,0l0,-0.2z" fill="#910F52" id="svg_196"/>
   <path d="m3.49,3.7l0.2,0l0,0.19l-0.2,0l0,-0.19z" fill="#910F52" id="svg_197"/>
   <path d="m8.28,3.31l0.19,0l0,0.2l-0.19,0l0,-0.2z" fill="#910F52" id="svg_198"/>
   <path d="m14.76,3.1l0.2,0l0,0.19l-0.2,0l0,-0.19z" fill="#910F52" id="svg_199"/>
   <path d="m13.54,3.1l0.2,0l0,0.19l-0.2,0l0,-0.19z" fill="#910F52" id="svg_200"/>
   <path d="m1.87,2.9l0.19,0l0,0.2l-0.19,0l0,-0.2z" fill="#910F52" id="svg_201"/>
   <path d="m22.49,2.45l0.02,0.01l0,0.05l0,0.21l0.01,0.26l-0.02,0l-0.02,-0.09l0,-0.31l0.01,-0.06l-0.09,0.04l-0.04,0l-0.04,0.12l-0.06,0.09l-0.02,0l-0.01,0.11l-0.04,0.14l0,0.09l-0.02,-0.01l0,-0.11l0.06,-0.26l0.1,-0.2l0.02,-0.02l0.01,0.04l0.07,-0.04l0.02,0l0.02,-0.05zm-0.16,0.11l0.01,0.02l-0.01,-0.02zm-0.01,0.02l0.01,0.02l-0.01,-0.02zm-0.01,0.02l0.01,0.02l-0.01,-0.02zm-0.01,0.02l0.01,0.02l-0.01,-0.02zm-0.01,0.02l0.01,0.02l-0.01,-0.02z" fill="#69462D" id="svg_202"/>
   <path d="m5.06,2.17l0.19,0l0,0.2l-0.19,0l0,-0.2z" fill="#910F52" id="svg_203"/>
   <path d="m7.28,1.89l0.19,0l0,0.2l-0.19,0l0,-0.2z" fill="#910F52" id="svg_204"/>
   <path d="m11.76,1.76l0.19,0l0,0.2l-0.19,0l0,-0.2z" fill="#910F52" id="svg_205"/>
   <path d="m5.46,1.76l0.19,0l0,0.2l-0.19,0l0,-0.2z" fill="#910F52" id="svg_206"/>
   <path d="m1.87,1.71l0.19,0l0,0.2l-0.19,0l0,-0.2z" fill="#910F52" id="svg_207"/>
   <path d="m7.68,1.48l0.19,0l0,0.2l-0.19,0l0,-0.2z" fill="#910F52" id="svg_208"/>
   <path d="m14.35,1.12l0.2,0l0,0.19l-0.2,0l0,-0.19z" fill="#910F52" id="svg_209"/>
   <path d="m23.03,6.61l0.14,0l0.01,0.01l0,0.06l-0.04,0l-0.01,-0.04l-0.06,0l-0.01,0.05l0.12,0.09l0.02,0.05l-0.01,0.07l-0.05,0.04l-0.1,0.01l-0.06,-0.01l0,-0.07l0.04,0l0.01,0.04l0.09,0.01l0,-0.07l-0.11,-0.09l-0.02,-0.02l0,-0.07l0.05,-0.05z" fill="#64432D" id="svg_210"/>
   <path d="m20.57,6.61l0.14,0l0.01,0.07l-0.04,0l-0.02,-0.04l-0.06,0l0,0.06l0.12,0.09l0.01,0.02l0,0.07l-0.05,0.05l-0.1,0.01l-0.07,-0.02l0,-0.06l0.04,0l0.01,0.05l0.07,0l0.02,-0.06l-0.04,-0.04l-0.1,-0.07l-0.01,-0.06l0.04,-0.06l0.02,-0.01z" fill="#60412C" id="svg_211"/>
   <path d="m20.79,6.61l0.3,0l0,0.07l-0.04,-0.01l0,-0.04l-0.07,0l0,0.29l0.04,0l0,0.02l-0.15,0l0,-0.02l0.04,0l0,-0.29l-0.07,0.01l-0.01,0.04l-0.04,0l0,-0.06l0.01,-0.01z" fill="#68452D" id="svg_212"/>
   <path d="m15.37,3.7l0.19,0l0,0.19l-0.19,0l0,-0.19z" fill="#910F52" id="svg_213"/>
   <path d="m8.08,2.3l0.19,0l0,0.19l-0.19,0l0,-0.19z" fill="#910F52" id="svg_214"/>
   <path d="m6.88,2.3l0.19,0l0,0.19l-0.19,0l0,-0.19z" fill="#910F52" id="svg_215"/>
   <path d="m2.48,1.12l0.19,0l0,0.19l-0.19,0l0,-0.19z" fill="#910F52" id="svg_216"/>
   <path d="m8.88,2.3l0.17,0l0.01,0.01l0,0.17l-0.19,0l0,-0.19z" fill="#B96F27" id="svg_217"/>
   <path d="m8.88,3.52l0.17,0l0.01,0.01l0,0.17l-0.17,0l-0.01,-0.01l0,-0.17z" fill="#B96F27" id="svg_218"/>
   <path d="m13.35,3.3l0.17,0l0,0.19l-0.17,0l-0.01,-0.01l0,-0.16l0.01,-0.01z" fill="#B96F27" id="svg_219"/>
   <path d="m8.28,1.69l0.17,0l0.01,0.01l0,0.17l-0.17,0l-0.01,-0.06l0,-0.12z" fill="#B96F27" id="svg_220"/>
   <path d="m24.81,6.61l0.02,0l0.14,0.29l0,0.02l0.04,0.01l0,0.01l-0.15,0l0,-0.02l0.04,0l-0.02,-0.07l-0.17,0.01l0.02,-0.07l0.09,-0.17zm-0.02,0.1l-0.04,0.11l0.1,0l-0.04,-0.11l-0.02,0z" fill="#60412C" id="svg_221"/>
   <path d="m1.87,3.7l0.17,0l0.01,0.01l0,0.16l-0.01,0.01l-0.15,0l-0.02,-0.02l0,-0.16z" fill="#B96F27" id="svg_222"/>
   <path d="m2.48,4.3l0.19,0l0,0.17l-0.05,0.01l-0.11,0l-0.02,-0.01l0,-0.17z" fill="#B96F27" id="svg_223"/>
   <path d="m1.66,3.5l0.2,0l0,0.17l-0.04,0.01l-0.15,-0.01l-0.01,-0.17z" fill="#BA7028" id="svg_224"/>
   <path d="m9.46,1.69l0.17,0l0.01,0.01l0,0.17l-0.17,0l-0.01,-0.19z" fill="#B96F27" id="svg_225"/>
   <path d="m3.3,2.7l0.19,0l-0.01,0.19l-0.17,0l0,-0.19z" fill="#BA6F27" id="svg_226"/>
   <path d="m13.95,3.9l0.17,0l0.01,0.01l0,0.16l-0.04,0.01l-0.15,-0.01l0,-0.17z" fill="#B96F27" id="svg_227"/>
   <path d="m7.48,3.32l0.17,0l0.01,0.01l0,0.16l-0.01,0.01l-0.1,0l-0.06,-0.01l-0.01,-0.17z" fill="#B96F27" id="svg_228"/>
   <path d="m2.48,3.1l0.19,0.01l0,0.16l-0.01,0.01l-0.16,0l-0.01,-0.01l0,-0.17z" fill="#B96F27" id="svg_229"/>
   <path d="m10.06,2.3l0.17,0l0.01,0.01l0,0.17l-0.16,0l-0.01,-0.01l-0.01,-0.17z" fill="#B96F27" id="svg_230"/>
   <path d="m7.69,3.52l0.16,0l0.01,0.01l0,0.16l-0.01,0.01l-0.15,0l-0.01,-0.01l-0.01,-0.16l0.01,-0.01z" fill="#B96F27" id="svg_231"/>
   <path d="m0.86,8.26l0.05,0l0,0.63l-0.05,0.01l0,-0.65z" fill="#D68039" id="svg_232"/>
   <path d="m3.7,3.1l0.17,0l0,0.19l-0.16,0l-0.01,-0.01l0,-0.17z" fill="#B96F27" id="svg_233"/>
   <path d="m11.78,3.39l0.16,0l0,0.16l-0.02,0.02l-0.15,0l0,-0.17l0.01,-0.01z" fill="#B96F27" id="svg_234"/>
   <path d="m8.08,2.7l0.17,0.01l0.01,0.17l-0.01,0.01l-0.17,-0.01l0,-0.19z" fill="#B96F27" id="svg_235"/>
   <path d="m14.15,4.1l0.17,0l0.01,0.01l0,0.17l-0.17,-0.01l-0.01,-0.17z" fill="#B96F27" id="svg_236"/>
   <path d="m4.88,2.78l0.17,0.01l0,0.19l-0.17,-0.01l0,-0.19z" fill="#B96F27" id="svg_237"/>
   <path d="m7.08,2.91l0.16,0l0.01,0.01l0,0.17l-0.16,0l-0.01,-0.19z" fill="#B96F27" id="svg_238"/>
   <path d="m13.54,2.32l0.19,0l0,0.17l-0.17,0l-0.01,-0.17z" fill="#B96F27" id="svg_239"/>
   <path d="m7.32,3.11l0.16,0l0,0.2l0.19,0l0.01,0.01l0,0.19l0.19,0l0.01,0.01l0,0.39l-0.01,0l0,-0.19l-0.19,0l-0.01,-0.01l-0.01,-0.21l0,-0.16l-0.17,-0.01l0.01,0.17l0.06,0l0,0.01l-0.09,0l-0.01,-0.2l0,-0.19l-0.14,0l0,-0.01zm0.37,0.41l-0.01,0.02l0.01,0.15l0.01,0.01l0.15,0l0.01,-0.01l0,-0.16l-0.01,-0.01l-0.16,0z" fill="#D47E39" id="svg_240"/>
   <path d="m5.27,3.19l0.16,0l0,0.19l-0.15,0l-0.01,-0.01l-0.01,-0.16l0.01,-0.01z" fill="#B96F27" id="svg_241"/>
   <path d="m5.46,3.39l0.17,0.01l0,0.17l-0.16,0l-0.01,-0.05l0,-0.14z" fill="#B96F27" id="svg_242"/>
   <path d="m5.07,2.99l0.17,0l0,0.17l-0.17,0l0,-0.17z" fill="#B96F27" id="svg_243"/>
   <path d="m3.3,1.52l0.16,0l0.01,0.01l0,0.16l-0.16,0l-0.01,-0.01l-0.01,-0.15l0.01,-0.01z" fill="#B96F27" id="svg_244"/>
   <path d="m5.66,3.6l0.17,0l0,0.19l-0.16,-0.01l-0.01,-0.04l0,-0.14z" fill="#B96F27" id="svg_245"/>
   <path d="m11.97,3.19l0.17,0l0,0.15l-0.01,0.02l-0.16,0l0,-0.17z" fill="#B96F27" id="svg_246"/>
   <path d="m22.43,6.7l0.11,0.01l0.05,0.05l0.01,0.09l-0.04,0.09l-0.07,0.02l-0.14,0l0.01,-0.04l0,-0.19l-0.01,-0.02l0.07,-0.01zm0,0.02l0,0.21l0.07,0l0.04,-0.05l0,-0.11l-0.05,-0.05l-0.06,0z" fill="#6D482E" id="svg_247"/>
   <path d="m6.88,2.71l0.17,0l0.01,0.04l-0.01,0.15l-0.16,-0.01l-0.01,-0.07l0,-0.1z" fill="#B96F27" id="svg_248"/>
   <path d="m5.86,3.8l0.17,0l0,0.17l-0.16,0l-0.01,-0.07l0,-0.1z" fill="#B96F27" id="svg_249"/>
   <path d="m6.85,2.5l0.02,0.01l-0.01,0.17l-0.16,0l0,-0.17l0.15,-0.01z" fill="#B96F27" id="svg_250"/>
   <path d="m11.37,3.8l0.16,0l0,0.17l-0.16,0l0,-0.17z" fill="#B96F27" id="svg_251"/>
   <path d="m7.07,2.75l0.01,0l0.01,0.35l0.16,0l-0.01,-0.17l-0.15,-0.01l0,-0.01l0.17,0l0.01,0.01l0.01,0.4l-0.02,0l0,-0.2l-0.19,0l-0.01,-0.01l0,-0.19l-0.19,0l-0.01,-0.01l0,-0.09l0.02,0l0,0.07l0.15,0l0.01,-0.12l0.01,-0.01z" fill="#D68039" id="svg_252"/>
   <path d="m13.74,3.77l0.01,0l0.01,0.1l0.19,0.01l0,0.19l0.17,0l0,-0.16l-0.16,-0.01l0,-0.01l0.17,0l0.01,0.01l0.01,0.37l0.11,0l0.06,0.01l-0.01,-0.19l0.02,0l0,0.2l-0.2,0l-0.01,-0.01l0,-0.19l-0.19,0l-0.01,-0.01l0,-0.19l-0.2,0l0,-0.12z" fill="#D68039" id="svg_253"/>
   <path d="m22.23,2.35l0.01,0.02l-0.05,0.14l-0.04,0.21l-0.04,0.16l-0.01,0.16l-0.01,0.1l0.02,0.02l0.05,-0.01l0.04,-0.05l0.12,0.01l0.06,0.05l-0.01,0.02l-0.06,-0.05l-0.09,0l-0.05,0.05l-0.02,0.09l-0.02,-0.05l0,-0.02l-0.05,-0.02l-0.01,-0.02l0.01,-0.24l0.02,-0.15l0.02,-0.09l-0.01,-0.07l0.02,-0.01l0.02,-0.12l-0.01,-0.02l0.04,0l0.02,-0.09l0.01,-0.01z" fill="#6C482F" id="svg_254"/>
   <path d="m21.27,4.56l0.11,0.04l0.05,0.06l-0.01,0.04l-0.04,0.01l0.07,0.06l0.01,0.05l-0.02,0.04l0.02,0.02l-0.01,0.11l-0.04,-0.01l-0.01,-0.05l0.01,-0.04l-0.04,-0.04l0.01,-0.05l0,-0.02l-0.07,-0.06l0.01,-0.06l0.04,-0.01l-0.09,-0.04l-0.01,-0.05z" fill="#6A4730" id="svg_255"/>
   <path d="m22.67,6.7l0.14,0l0,0.05l-0.1,-0.02l0,0.09l0.07,-0.01l0,0.05l-0.07,-0.01l0,0.1l0.07,-0.01l0.02,-0.02l0.01,0.05l-0.01,0.01l-0.17,0l0.01,-0.24l-0.02,-0.01l0.05,-0.01z" fill="#744D31" id="svg_256"/>
   <path d="m23.33,6.61l0.09,0l0,0.02l-0.07,0.02l-0.02,0.05l0,0.14l0.04,0.06l0.02,0.01l-0.01,0.04l-0.09,-0.04l-0.04,-0.05l-0.01,-0.04l0,-0.11l0.04,-0.07l0.06,-0.04z" fill="#65442E" id="svg_257"/>
   <path d="m22.02,6.61l0.09,0.01l0.06,0.07l0.01,0.11l-0.04,0.09l-0.06,0.05l-0.06,0l0.06,-0.07l0,-0.19l-0.02,-0.04l-0.04,-0.01l0,-0.02z" fill="#65432D" id="svg_258"/>
   <path d="m1.66,3.52l0.01,0l0,0.15l0.19,0l0.01,0.01l0.01,0.17l0.06,0.01l0.1,0l0,-0.17l0.02,0l0.01,0.2l0,0.17l0.15,0l0.04,0.02l-0.2,0l-0.01,-0.01l0,-0.19l-0.2,0l0,-0.2l-0.2,0l0,-0.17z" fill="#D68039" id="svg_259"/>
   <path d="m11.94,3.18l0.2,0l0,0.01l-0.17,0l0,0.17l0.16,0l0.01,-0.02l0,0.05l-0.36,0.01l-0.01,0.17l0.15,-0.01l0.02,-0.01l0,0.04l-0.21,0.01l0.01,-0.21l0.01,-0.01l0.19,0l0,-0.2z" fill="#D68039" id="svg_260"/>
   <path d="m8.07,1.48l0.2,0l0.01,0.01l0,0.19l0.19,0l-0.01,0.02l-0.17,-0.01l0.01,0.17l0.17,0.01l0,0.01l-0.2,0l0,-0.2l-0.19,0l-0.01,-0.01l0,-0.2zm0.01,0.01l0,0.15l0.01,0.02l0.16,0l0,-0.17l-0.17,0z" fill="#D68039" id="svg_261"/>
   <path d="m13.53,3.1l0.01,0l0,0.19l0.2,0l0,0.01l-0.2,0l0.01,0.37l0.12,0l0.06,0.01l0,0.01l-0.2,0l-0.01,-0.01l0,-0.19l-0.2,0l0,-0.2l0.02,0.01l0,0.16l0.17,0.01l0,-0.39z" fill="#CA6C3D" id="svg_262"/>
   <path d="m20.97,1.91l0.02,0.01l-0.07,0.09l0.09,0.09l0.1,0.09l0.07,0.06l-0.02,0.01l-0.1,-0.09l-0.15,-0.14l-0.04,-0.01l0.02,0.05l0.1,0.09l0.15,0.14l0.05,0.05l-0.04,0l-0.11,-0.11l-0.1,-0.09l-0.09,-0.07l-0.05,0.02l-0.04,0l0.09,-0.09l0.1,-0.09l0.01,-0.01z" fill="#6D4930" id="svg_263"/>
   <path d="m16.52,9.16l0.09,0l0.02,0.04l0,0.06l-0.04,0.04l-0.07,0l-0.04,-0.05l0.01,-0.06l0.02,-0.02z" fill="#971951" id="svg_264"/>
   <path d="m10.82,9.15l0.06,0.02l0.02,0.04l-0.01,0.06l-0.02,0.02l-0.07,0l-0.04,-0.05l0.01,-0.07l0.05,-0.02z" fill="#981D55" id="svg_265"/>
   <path d="m9.08,9.15l0.07,0.02l0.01,0.07l-0.04,0.05l-0.07,0l-0.04,-0.05l0.01,-0.06l0.05,-0.04z" fill="#981B53" id="svg_266"/>
   <path d="m8.83,9.15l0.07,0.02l0.01,0.07l-0.04,0.05l-0.07,0l-0.04,-0.05l0.01,-0.06l0.05,-0.04z" fill="#981D55" id="svg_267"/>
   <path d="m16.27,9.16l0.09,0l0.02,0.04l0,0.06l-0.04,0.04l-0.07,0l-0.04,-0.06l0.02,-0.06l0.01,-0.01z" fill="#971A53" id="svg_268"/>
   <path d="m16.02,9.16l0.09,0l0.02,0.04l0,0.06l-0.04,0.04l-0.07,0l-0.04,-0.06l0.02,-0.06l0.01,-0.01z" fill="#961851" id="svg_269"/>
   <path d="m10.29,9.16l0.09,0l0.04,0.05l-0.01,0.06l-0.02,0.02l-0.07,0l-0.04,-0.05l0.01,-0.07l0.01,-0.01z" fill="#96184F" id="svg_270"/>
   <path d="m9.55,9.16l0.07,0l0.04,0.04l-0.01,0.07l-0.02,0.02l-0.07,0l-0.04,-0.05l0.01,-0.07l0.02,-0.01z" fill="#971A53" id="svg_271"/>
   <path d="m9.3,9.16l0.07,0l0.02,0.01l0.01,0.07l-0.04,0.05l-0.07,0l-0.04,-0.05l0.01,-0.07l0.02,-0.01z" fill="#971A53" id="svg_272"/>
   <path d="m8.55,9.16l0.09,0l0.02,0.04l-0.01,0.07l-0.02,0.02l-0.07,0l-0.04,-0.05l0.01,-0.06l0.02,-0.02z" fill="#971951" id="svg_273"/>
   <path d="m8.34,9.15l0.06,0.02l0.01,0.09l-0.04,0.04l-0.07,0l-0.04,-0.06l0.02,-0.06l0.05,-0.02z" fill="#961851" id="svg_274"/>
   <path d="m8.09,9.15l0.06,0.02l0.01,0.09l-0.04,0.04l-0.09,-0.01l-0.02,-0.07l0.04,-0.05l0.04,-0.01z" fill="#961851" id="svg_275"/>
   <path d="m0.34,9.16l0.07,0l0.04,0.04l0,0.06l-0.04,0.04l-0.07,0l-0.04,-0.05l0.01,-0.06l0.02,-0.02z" fill="#96184F" id="svg_276"/>
   <path d="m0.09,9.16l0.09,0l0.02,0.04l0,0.06l-0.04,0.04l-0.09,-0.01l-0.02,-0.04l0.01,-0.06l0.02,-0.02z" fill="#971951" id="svg_277"/>
   <path d="m22.51,3.21l0.02,0l0.02,0.09l0.04,0.02l0.09,0l0.09,-0.06l-0.01,0.05l-0.05,0.05l-0.1,0.01l-0.02,-0.01l-0.02,0.07l-0.01,0.02l-0.04,-0.01l0.04,-0.09l-0.01,-0.05l-0.04,-0.04l-0.06,0.05l-0.02,-0.01l0.09,-0.07l0.01,-0.02z" fill="#6D4B33" id="svg_278"/>
   <path d="m17.27,9.16l0.07,0l0.04,0.04l-0.01,0.07l-0.02,0.02l-0.07,0l-0.04,-0.05l0.01,-0.06l0.02,-0.02z" fill="#961850" id="svg_279"/>
   <path d="m17.02,9.16l0.07,0l0.04,0.04l-0.01,0.07l-0.02,0.02l-0.07,0l-0.04,-0.05l0.01,-0.06l0.02,-0.02z" fill="#961750" id="svg_280"/>
   <path d="m16.77,9.16l0.09,0l0.02,0.04l-0.01,0.07l-0.02,0.02l-0.07,0l-0.04,-0.06l0.02,-0.06l0.01,-0.01z" fill="#971A51" id="svg_281"/>
   <path d="m15.77,9.16l0.09,0l0.02,0.04l0,0.06l-0.04,0.04l-0.07,0l-0.04,-0.06l0.02,-0.06l0.01,-0.01z" fill="#961953" id="svg_282"/>
   <path d="m14.81,9.15l0.06,0.02l0.01,0.01l0,0.07l-0.04,0.04l-0.09,-0.01l-0.01,-0.01l0,-0.09l0.06,-0.04z" fill="#961A55" id="svg_283"/>
   <path d="m14.06,9.15l0.06,0.02l0.01,0.01l0,0.07l-0.04,0.04l-0.09,-0.01l-0.01,-0.02l0,-0.07l0.06,-0.04z" fill="#961752" id="svg_284"/>
   <path d="m13.57,9.15l0.06,0.02l0.01,0.01l0,0.07l-0.04,0.04l-0.09,-0.01l-0.01,-0.02l0,-0.07l0.06,-0.04z" fill="#961953" id="svg_285"/>
   <path d="m11.07,9.15l0.06,0.02l0.02,0.06l-0.02,0.05l-0.09,0.01l-0.04,-0.04l0.01,-0.09l0.05,-0.02z" fill="#961852" id="svg_286"/>
   <path d="m10.55,9.16l0.07,0l0.04,0.05l-0.01,0.06l-0.02,0.02l-0.07,0l-0.04,-0.05l0.01,-0.07l0.02,-0.01z" fill="#971951" id="svg_287"/>
   <path d="m10.05,9.16l0.07,0l0.04,0.05l-0.01,0.06l-0.02,0.02l-0.07,0l-0.04,-0.05l0.01,-0.07l0.02,-0.01z" fill="#951650" id="svg_288"/>
   <path d="m9.8,9.16l0.07,0l0.04,0.05l-0.01,0.06l-0.02,0.02l-0.07,0l-0.04,-0.05l0.01,-0.07l0.02,-0.01z" fill="#961850" id="svg_289"/>
   <path d="m7.84,9.15l0.06,0.02l0.01,0.09l-0.04,0.04l-0.07,0l-0.02,-0.02l0,-0.09l0.06,-0.04z" fill="#961854" id="svg_290"/>
   <path d="m7.59,9.15l0.06,0.02l0.01,0.09l-0.04,0.04l-0.09,-0.01l-0.02,-0.06l0.04,-0.06l0.04,-0.01z" fill="#961854" id="svg_291"/>
   <path d="m7.09,9.15l0.06,0.02l0.01,0.09l-0.04,0.04l-0.09,-0.01l-0.02,-0.06l0.04,-0.06l0.04,-0.01z" fill="#961953" id="svg_292"/>
   <path d="m5.35,9.15l0.06,0.02l0.01,0.01l0,0.07l-0.04,0.04l-0.09,-0.01l-0.01,-0.02l0,-0.07l0.06,-0.04z" fill="#961752" id="svg_293"/>
   <path d="m5.1,9.15l0.06,0.02l0.01,0.01l0,0.07l-0.04,0.04l-0.09,-0.01l-0.01,-0.02l0,-0.07l0.06,-0.04z" fill="#951752" id="svg_294"/>
   <path d="m3.07,9.16l0.09,0l0.04,0.05l-0.02,0.07l-0.09,0.01l-0.04,-0.04l0.01,-0.09l0.01,-0.01z" fill="#961852" id="svg_295"/>
   <path d="m2.57,9.16l0.09,0l0.04,0.05l-0.02,0.07l-0.09,0.01l-0.04,-0.04l0.01,-0.09l0.01,-0.01z" fill="#961752" id="svg_296"/>
   <path d="m2.32,9.16l0.09,0l0.04,0.05l-0.01,0.06l-0.04,0.02l-0.06,0l-0.04,-0.05l0.01,-0.07l0.01,-0.01z" fill="#961854" id="svg_297"/>
   <path d="m2.08,9.16l0.07,0l0.04,0.05l-0.01,0.06l-0.02,0.02l-0.07,0l-0.04,-0.05l0.01,-0.07l0.02,-0.01z" fill="#961852" id="svg_298"/>
   <path d="m1.83,9.16l0.07,0l0.04,0.05l-0.01,0.06l-0.02,0.02l-0.07,0l-0.04,-0.05l0.01,-0.07l0.02,-0.01z" fill="#961850" id="svg_299"/>
   <path d="m1.58,9.16l0.07,0l0.04,0.05l-0.01,0.06l-0.02,0.02l-0.07,0l-0.04,-0.05l0.01,-0.07l0.02,-0.01z" fill="#961852" id="svg_300"/>
   <path d="m1.33,9.16l0.07,0l0.04,0.05l-0.01,0.06l-0.02,0.02l-0.07,0l-0.04,-0.05l0.01,-0.07l0.02,-0.01z" fill="#961850" id="svg_301"/>
   <path d="m0.84,9.16l0.07,0l0.04,0.04l-0.01,0.07l-0.02,0.02l-0.07,0l-0.04,-0.05l0.01,-0.06l0.02,-0.02z" fill="#971953" id="svg_302"/>
   <path d="m0.59,9.16l0.07,0l0.04,0.04l-0.01,0.07l-0.02,0.02l-0.07,0l-0.04,-0.05l0.01,-0.06l0.02,-0.02z" fill="#961852" id="svg_303"/>
   <path d="m15.56,9.15l0.06,0.02l0.01,0.09l-0.04,0.04l-0.09,-0.01l-0.01,-0.01l0,-0.09l0.06,-0.04z" fill="#951752" id="svg_304"/>
   <path d="m15.06,9.15l0.06,0.02l0.01,0.09l-0.04,0.04l-0.09,-0.01l-0.01,-0.01l0,-0.09l0.06,-0.04z" fill="#961854" id="svg_305"/>
   <path d="m14.56,9.15l0.06,0.02l0.01,0.01l0,0.07l-0.04,0.04l-0.09,-0.01l-0.01,-0.02l0,-0.07l0.06,-0.04z" fill="#951652" id="svg_306"/>
   <path d="m14.31,9.15l0.06,0.02l0.01,0.01l0,0.07l-0.04,0.04l-0.09,-0.01l-0.01,-0.02l0,-0.07l0.06,-0.04z" fill="#951652" id="svg_307"/>
   <path d="m13.78,9.16l0.09,0l0.02,0.02l0,0.07l-0.04,0.04l-0.09,-0.01l-0.01,-0.02l0,-0.07l0.02,-0.02z" fill="#951652" id="svg_308"/>
   <path d="m13.32,9.15l0.06,0.02l0.01,0.01l0,0.07l-0.04,0.04l-0.09,-0.01l-0.01,-0.02l0,-0.07l0.06,-0.04z" fill="#951752" id="svg_309"/>
   <path d="m12.82,9.15l0.06,0.02l0.01,0.01l0,0.07l-0.04,0.04l-0.06,0l-0.04,-0.04l0,-0.07l0.06,-0.04z" fill="#951652" id="svg_310"/>
   <path d="m12.52,9.15l0.06,0.02l0.01,0.01l0,0.07l-0.04,0.04l-0.06,0l-0.04,-0.04l0,-0.07l0.06,-0.04z" fill="#961752" id="svg_311"/>
   <path d="m12.32,9.15l0.06,0.02l0.01,0.01l0,0.09l-0.04,0.02l-0.06,0l-0.04,-0.04l0.01,-0.09l0.05,-0.02z" fill="#951650" id="svg_312"/>
   <path d="m12.07,9.15l0.06,0.02l0.01,0.01l0,0.09l-0.04,0.02l-0.06,0l-0.04,-0.04l0.01,-0.09l0.05,-0.02z" fill="#961752" id="svg_313"/>
   <path d="m11.82,9.15l0.06,0.02l0.01,0.01l0,0.09l-0.04,0.02l-0.06,0l-0.04,-0.04l0.01,-0.09l0.05,-0.02z" fill="#961752" id="svg_314"/>
   <path d="m11.57,9.15l0.06,0.02l0.01,0.01l0,0.09l-0.04,0.02l-0.06,0l-0.04,-0.04l0.01,-0.09l0.05,-0.02z" fill="#951650" id="svg_315"/>
   <path d="m11.28,9.16l0.09,0l0.04,0.06l-0.02,0.06l-0.09,0.01l-0.04,-0.04l0.01,-0.09l0.01,-0.01z" fill="#951652" id="svg_316"/>
   <path d="m7.34,9.15l0.06,0.02l0.01,0.09l-0.04,0.04l-0.09,-0.01l-0.01,-0.01l0,-0.09l0.06,-0.04z" fill="#951550" id="svg_317"/>
   <path d="m6.85,9.15l0.06,0.02l0.01,0.09l-0.04,0.04l-0.09,-0.01l-0.01,-0.01l0,-0.09l0.06,-0.04z" fill="#951752" id="svg_318"/>
   <path d="m5.81,9.16l0.09,0l0.02,0.02l0,0.07l-0.04,0.04l-0.09,-0.01l-0.01,-0.02l0,-0.07l0.02,-0.02z" fill="#951752" id="svg_319"/>
   <path d="m5.6,9.15l0.06,0.02l0.01,0.01l0,0.07l-0.04,0.04l-0.09,-0.01l-0.01,-0.02l0,-0.07l0.06,-0.04z" fill="#951652" id="svg_320"/>
   <path d="m4.85,9.15l0.06,0.02l0.01,0.01l0,0.07l-0.04,0.04l-0.06,0l-0.04,-0.04l0,-0.07l0.06,-0.04z" fill="#951652" id="svg_321"/>
   <path d="m4.6,9.15l0.06,0.02l0.01,0.01l0,0.07l-0.04,0.04l-0.06,0l-0.04,-0.04l0,-0.07l0.06,-0.04z" fill="#951550" id="svg_322"/>
   <path d="m4.35,9.15l0.06,0.02l0.01,0.01l0,0.07l-0.04,0.04l-0.06,0l-0.04,-0.04l0,-0.07l0.06,-0.04z" fill="#951754" id="svg_323"/>
   <path d="m4.1,9.15l0.06,0.02l0.01,0.01l0,0.07l-0.04,0.04l-0.06,0l-0.04,-0.04l0,-0.07l0.06,-0.04z" fill="#951752" id="svg_324"/>
   <path d="m3.57,9.16l0.09,0l0.04,0.06l-0.02,0.06l-0.09,0.01l-0.04,-0.04l0.01,-0.09l0.01,-0.01z" fill="#961953" id="svg_325"/>
   <path d="m2.82,9.16l0.09,0l0.04,0.06l-0.02,0.06l-0.09,0.01l-0.04,-0.04l0.01,-0.09l0.01,-0.01z" fill="#951650" id="svg_326"/>
   <path d="m1.08,9.16l0.07,0l0.04,0.04l-0.01,0.07l-0.02,0.02l-0.07,0l-0.04,-0.05l0.01,-0.06l0.02,-0.02z" fill="#961752" id="svg_327"/>
   <path d="m15.27,9.16l0.09,0l0.02,0.04l0,0.06l-0.04,0.04l-0.09,-0.01l-0.01,-0.01l0,-0.09l0.02,-0.02z" fill="#941550" id="svg_328"/>
   <path d="m13.03,9.16l0.09,0l0.02,0.02l0,0.07l-0.04,0.04l-0.06,0l-0.04,-0.04l0,-0.07l0.02,-0.02z" fill="#941450" id="svg_329"/>
   <path d="m6.56,9.16l0.09,0l0.02,0.04l0,0.06l-0.04,0.04l-0.09,-0.01l-0.01,-0.01l0,-0.09l0.02,-0.02z" fill="#951652" id="svg_330"/>
   <path d="m6.35,9.15l0.06,0.02l0.01,0.09l-0.04,0.04l-0.09,-0.01l-0.01,-0.02l0,-0.07l0.06,-0.04z" fill="#951652" id="svg_331"/>
   <path d="m6.06,9.16l0.09,0l0.02,0.02l0,0.07l-0.04,0.04l-0.09,-0.01l-0.01,-0.02l0,-0.07l0.02,-0.02z" fill="#941552" id="svg_332"/>
   <path d="m3.82,9.16l0.09,0l0.02,0.02l0,0.09l-0.04,0.02l-0.06,0l-0.04,-0.04l0.01,-0.09l0.01,-0.01z" fill="#941550" id="svg_333"/>
   <path d="m3.32,9.16l0.09,0l0.02,0.02l0,0.09l-0.04,0.02l-0.06,0l-0.04,-0.04l0.01,-0.09l0.01,-0.01z" fill="#951550" id="svg_334"/>
   <path d="m22.27,2.76l0.02,0.04l0.09,0.1l0.12,0.12l0.01,-0.04l0.02,0l0.01,0.04l0,0.09l-0.09,-0.07l-0.15,-0.14l-0.05,-0.06l-0.01,-0.06l0.01,-0.01z" fill="#65432D" id="svg_335"/>
   <path d="m21.96,2.58l0.17,0.1l-0.04,0.01l0,0.06l-0.04,0.01l0,-0.02l-0.04,0.01l-0.02,-0.01l0,-0.1l-0.02,0.07l-0.04,-0.01l0.02,-0.12zm0.07,0.07l0.02,0.05l0.01,-0.04l-0.04,-0.01zm-0.01,0.04l-0.01,0.02l0.02,0l-0.01,-0.02z" fill="#734D32" id="svg_336"/>
   <path d="m22.43,6.7l0.06,0.01l0,0.01l-0.06,0l0.01,0.22l-0.09,0l0.01,-0.02l0,-0.19l-0.01,-0.02l0.07,-0.01z" fill="#5F422E" id="svg_337"/>
   <path d="m8.27,3.31l0.01,0l0,0.32l-0.01,0l0,-0.11l-0.19,0l0,0.19l0.19,0l0,0.01l-0.19,0l0,0.06l-0.01,0l-0.01,-0.07l0.01,-0.2l0.2,0l0,-0.2z" fill="#BE5A4D" id="svg_338"/>
   <path d="m7.07,2.11l0.01,0l0,0.19l0.19,0l0,0.01l-0.19,0l0,0.2l-0.2,0l0,-0.01l0.19,0l0,-0.19l-0.19,0l0,-0.01l0.19,0l0,-0.19z" fill="#C96A40" id="svg_339"/>
   <path d="m15.16,1.51l0.2,0l0.01,0.01l0,0.16l-0.01,0.02l-0.2,0l0,-0.2zm0.01,0.01l0,0.16l0.01,0.01l0.16,0l0,-0.16l-0.01,-0.01l-0.16,0z" fill="#D68039" id="svg_340"/>
   <path d="m7.87,1.28l0.2,0l0,0.16l-0.01,0l0,-0.15l-0.15,0.01l-0.02,0.37l-0.01,0l0,-0.4z" fill="#CF743B" id="svg_341"/>
   <path d="m21.23,4.76l0.09,0l0.05,0.05l-0.02,0.05l-0.07,-0.01l-0.02,-0.04l-0.04,0l0.02,-0.05zm0.05,0.04l0.04,0.02l0,-0.02l-0.04,0z" fill="#694830" id="svg_342"/>
   <path d="m22.33,3.25l0.04,0.01l-0.01,0.05l-0.05,0.04l-0.09,-0.01l-0.04,-0.04l0,-0.02l0.11,0.01l0.04,-0.04z" fill="#5E412F" id="svg_343"/>
   <path d="m22.71,3.21l0.02,0l0,0.06l-0.05,0.04l-0.07,0l-0.05,-0.05l0,-0.02l0.11,0.01l0.04,-0.04z" fill="#67452D" id="svg_344"/>
   <path d="m22.47,2.2l0.07,0.06l0.06,0l0.06,-0.06l0.01,0.05l0.04,0.11l-0.01,0.02l-0.02,0l-0.04,-0.11l-0.04,0.02l-0.06,0l-0.07,-0.07l0,-0.02z" fill="#6F492E" id="svg_345"/>
   <path d="m20.67,1.79l0.09,0.07l0.07,0.06l0.05,-0.02l0.1,-0.09l0.02,0.01l-0.09,0.09l-0.1,0.09l-0.01,-0.02l-0.01,-0.05l-0.1,-0.09l-0.02,-0.05z" fill="#754C2E" id="svg_346"/>
   <path d="m7.67,1.48l0.01,0l0,0.2l0.19,0l0,0.01l-0.19,0l0,0.14l-0.01,0l0,-0.14l-0.19,0l0,-0.01l0.19,0l0,-0.2z" fill="#C9715B" id="svg_347"/>
   <path d="m7.87,2.5l0.17,0l0,0.01l-0.14,0.01l-0.01,0.16l0.14,0l0,0.01l-0.16,0l0,-0.2z" fill="#D68039" id="svg_348"/>
   <path d="m24.5,2.27l0.02,0l0.04,0.1l0.01,0.06l0,0.09l-0.02,0l-0.05,-0.21l0,-0.04z" fill="#68452D" id="svg_349"/>
   <path d="m15.36,3.7l0.01,0l0,0.19l0.19,0l0,0.01l-0.19,0l0,0.11l-0.01,0l0,-0.11l-0.12,0l0,-0.01l0.12,0l0,-0.19z" fill="#CF7F61" id="svg_350"/>
   <path d="m13.53,3.55l0.02,0l0,0.12l0.12,0l0.06,0.01l0,0.01l-0.2,0l-0.01,-0.01l0,-0.14z" fill="#D68039" id="svg_351"/>
   <path d="m21.03,1.45l0.01,0l0,0.1l-0.05,0.1l-0.02,-0.01l0.01,-0.09l0.05,-0.1z" fill="#5D4230" id="svg_352"/>
   <path d="m5.85,3.9l0.02,0l0,0.07l0.17,-0.01l0,0.04l-0.19,0l-0.01,-0.01l0,-0.09z" fill="#D6823D" id="svg_353"/>
   <path d="m20.91,2.09l0.05,0.02l0.2,0.19l0.04,0.04l-0.04,0l-0.11,-0.11l-0.1,-0.09l-0.04,-0.05z" fill="#724B2E" id="svg_354"/>
   <path d="m22.33,2.63l0.01,0.04l-0.07,0.11l-0.02,0l-0.01,-0.05l0.02,-0.06l0.04,0l0.04,-0.04z" fill="#744E33" id="svg_355"/>
   <path d="m22.78,1.42l0.01,0.02l0.06,0.02l-0.02,0.05l-0.06,0.05l-0.01,-0.02l0.04,-0.05l-0.02,-0.02l0.01,-0.05z" fill="#68452D" id="svg_356"/>
   <path d="m22.06,2.65l0.07,0.02l-0.04,0.01l0,0.06l-0.04,0.01l0,-0.02l-0.04,0.01l-0.02,-0.01l0.01,-0.05l0,0.02l0.05,-0.02l0,-0.04z" fill="#6C472D" id="svg_357"/>
   <path d="m24.43,2.19l0.02,0.02l0.02,0.15l0,0.1l-0.02,-0.01l-0.02,-0.16l0,-0.1z" fill="#69462D" id="svg_358"/>
   <path d="m7.67,3.55l0.02,0l0.01,0.15l0.14,0.01l0,0.01l-0.16,0l-0.01,-0.01l0,-0.16z" fill="#D68039" id="svg_359"/>
   <path d="m21.62,5.13l0.05,0.01l0.01,0.05l-0.02,0.04l-0.05,-0.01l0.01,-0.02l-0.02,-0.01l0,-0.04l0.02,-0.01z" fill="#64432D" id="svg_360"/>
   <path d="m22.48,1.96l0.06,0.02l0.06,0.06l-0.02,0l-0.01,0.04l-0.09,-0.04l0.05,-0.02l-0.06,-0.05l0.01,-0.01z" fill="#754C2E" id="svg_361"/>
   <path d="m21.85,5.14l0.05,0l0.01,0.04l-0.04,0l0.01,0.06l-0.05,-0.01l-0.01,-0.06l0.02,-0.02z" fill="#774D2F" id="svg_362"/>
   <path d="m20.51,6.87l0.04,0l0.01,0.05l0.07,0.02l-0.05,0.01l-0.07,-0.02l0,-0.06z" fill="#794E2F" id="svg_363"/>
   <path d="m22.88,5.38l0.06,0.01l-0.01,0.06l-0.04,0.01l-0.02,-0.01l0,-0.06l0.01,-0.01z" fill="#714A2E" id="svg_364"/>
   <path d="m22.23,2.35l0.01,0.02l-0.05,0.14l-0.01,0.06l-0.02,0l0.01,-0.1l-0.01,-0.02l0.04,0l0.02,-0.09l0.01,-0.01z" fill="#754C2E" id="svg_365"/>
   <path d="m22.16,2.58l0.01,0l0,0.1l-0.04,0.1l-0.01,-0.04l0.01,-0.1l-0.01,-0.02l0.04,-0.04z" fill="#62422C" id="svg_366"/>
   <path d="m22.98,6.87l0.04,0l0.01,0.04l0.06,0.02l0,0.01l-0.11,0l0,-0.07z" fill="#5E402C" id="svg_367"/>
   <path d="m21.88,2.55l0.07,0.01l0,0.04l-0.02,0l-0.01,0.06l-0.02,0l0.01,-0.06l0.01,-0.02l-0.04,0l0,-0.02z" fill="#67452D" id="svg_368"/>
   <path d="m20.65,6.61l0.06,0l0.01,0.07l-0.04,0l-0.02,-0.04l-0.04,-0.02l0.02,-0.01z" fill="#7B4F2F" id="svg_369"/>
   <path d="m21.82,2.9l0.02,0.02l0.01,0.1l-0.01,0.14l-0.02,-0.05l0,-0.21z" fill="#704E36" id="svg_370"/>
   <path d="m22.59,2.37l0.02,0.01l-0.06,0.1l-0.05,0.02l0,-0.02l0.05,-0.05l0.04,-0.06z" fill="#744C2E" id="svg_371"/>
   <path d="m22.31,2.23l0.06,0.01l0.04,0.04l-0.01,0.05l-0.02,-0.06l-0.09,-0.01l0.02,-0.02z" fill="#6A472D" id="svg_372"/>
   <path d="m22.02,2.52l0.06,0l0.05,0.05l-0.01,0.02l-0.06,-0.05l-0.04,-0.02z" fill="#68452D" id="svg_373"/>
   <path d="m20.64,2.2l0.02,0.01l-0.09,0.09l-0.02,-0.01l0.09,-0.09z" fill="#69462D" id="svg_374"/>
   <path d="m20.75,2.11l0.02,0.01l-0.09,0.09l-0.02,-0.01l0.09,-0.09z" fill="#69462D" id="svg_375"/>
   <path d="m21.1,1.72l0.02,0.01l-0.09,0.09l-0.02,-0.01l0.09,-0.09z" fill="#69462D" id="svg_376"/>
   <path d="m21.95,2.4l0.05,0.02l0.02,0.04l-0.05,-0.01l-0.02,-0.05z" fill="#744C2E" id="svg_377"/>
   <path d="m21.08,1.81l0.02,0.01l-0.07,0.07l-0.02,-0.01l0.07,-0.07z" fill="#6B472D" id="svg_378"/>
   <path d="m22.01,2.37l0.02,0l0.05,0.05l0,0.02l-0.05,-0.02l-0.02,-0.05z" fill="#64432D" id="svg_379"/>
   <path d="m22.57,2.32l0.01,0.02l-0.04,0.05l-0.02,-0.01l0.05,-0.06z" fill="#6E492E" id="svg_380"/>
   <path d="m22.57,2.22l0.06,0l-0.02,0.04l-0.04,-0.01l0,-0.02z" fill="#65442D" id="svg_381"/>
   <path d="m22.56,1.86l0.05,0l-0.01,0.04l-0.04,-0.01l0,-0.02z" fill="#66442D" id="svg_382"/>
   <path d="m22.49,1.72l0.05,0l-0.01,0.04l-0.04,-0.04z" fill="#794E2F" id="svg_383"/>
   <path d="m23.42,5.58l0.04,0l-0.01,0.04l-0.02,-0.01l0,-0.02z" fill="#7D502F" id="svg_384"/>
   <path d="m22.42,3.46l0.09,0l0,0.01l-0.09,0l0,-0.01z" fill="#6B472D" id="svg_385"/>
   <path d="m22.62,1.73l0.05,0.01l-0.05,0.01l0,-0.02z" fill="#6B472D" id="svg_386"/>
   <path d="m22.52,2.11l0.05,0l0,0.02l-0.05,-0.02z" fill="#6E492E" id="svg_387"/>
   <path d="m21.96,3.49l0.06,0l0,0.01l-0.06,0l0,-0.01z" fill="#5A3E2C" id="svg_388"/>
   <path d="m22.64,2.11l0.01,0.04l-0.02,0l0.01,-0.04z" fill="#A46533" id="svg_389"/>
   <path d="m22.61,2.16l0.01,0.05l-0.01,-0.05z" fill="#5A3E2C" id="svg_390"/>
   <path d="m22.36,2.48" fill="#985F32" id="svg_391"/>
   <path d="m22.46,1.64l0.02,0.01l-0.02,-0.01z" fill="#5A3E2C" id="svg_392"/>
   <path d="m24.51,4.92" fill="#5A3E2C" id="svg_393"/>
   <path d="m24.53,4.91" fill="#5A3E2C" id="svg_394"/>
   <path d="m24.54,4.89" fill="#5A3E2C" id="svg_395"/>
   <path d="m24.55,4.88" fill="#D68039" id="svg_396"/>
   <path d="m22.13,2.59" fill="#5A3E2C" id="svg_397"/>
   <path d="m22.46,2.19" fill="#5A3E2C" id="svg_398"/>
   <path d="m21,1.89" fill="#5A3E2C" id="svg_399"/>
   <path d="m22.77,1.67" fill="#D68039" id="svg_400"/>
   <path d="m22.48,1.66" fill="#D68039" id="svg_401"/>
  </g>
 </g>
</svg>