<?xml version="1.0"?>
<svg width="18.11" height="9.21" xmlns="http://www.w3.org/2000/svg" xmlns:svg="http://www.w3.org/2000/svg" version="1.1">
 <g class="layer">
  <title>Layer 1</title>
  <g id="svg_50">
   <g id="svg_51">
    <g id="svg_52">
     <path d="m1.4,0.02l0.73,0l0.04,0.04l0.04,0.12l0.05,0.25l0.09,0.46l0.04,0.04l0.32,0.11l0.05,0.01l0.15,-0.16l0.11,-0.12l0.09,-0.09l0.11,-0.11l0.08,-0.06l0.06,-0.01l0.14,0.08l0.16,0.13l0.18,0.14l0.16,0.13l0.17,0.13l0.13,0.12l0.04,0.06l0,0.08l-0.07,0.21l-0.15,0.4l-0.04,0.12l0.01,0.06l0.09,0.13l0.11,0.19l0.03,0.02l0.14,-0.01l0.5,-0.06l0.11,0l0.05,0.07l0.07,0.22l0.2,0.71l0.07,0.28l0.01,0.08l-0.04,0.06l-0.14,0.1l-0.28,0.2l-0.18,0.12l-0.01,0.01l0,0.44l0.02,0.04l0.16,0.1l0.21,0.14l0.14,0.09l0.08,0.07l0.05,0.07l-0.01,0.1l-0.08,0.31l-0.17,0.62l-0.06,0.2l-0.05,0.1l-0.02,0.02l-0.14,0l-0.61,-0.06l-0.02,0l-0.02,0.05l-0.08,0.12l-0.1,0.16l-0.02,0.03l0.01,0.07l0.08,0.2l0.1,0.26l0.07,0.19l0.01,0.03l0,0.1l-0.06,0.1l-0.11,0.1l-0.15,0.12l-0.19,0.16l-0.12,0.1l-0.16,0.13l-0.11,0.08l-0.05,0.02l-0.07,-0.02l-0.1,-0.08l-0.1,-0.1l-0.1,-0.09l-0.14,-0.15l-0.11,-0.09l-0.06,0.01l-0.24,0.09l-0.09,0.03l-0.05,0.29l-0.07,0.39l-0.04,0.12l-0.05,0.08l-0.02,0.02l-0.04,0.01l-0.5,0.01l-0.57,0l-0.09,-0.01l-0.04,-0.04l-0.04,-0.09l-0.04,-0.12l-0.11,-0.6l-0.02,-0.04l-0.2,-0.06l-0.19,-0.08l-0.17,-0.1l-0.02,-0.07l0,-0.21l0.01,-0.13l0.05,0.02l0.14,0.08l0.13,0.06l0.19,0.06l0.12,0.02l0.19,0.01l0.12,-0.01l0.06,0.02l0.05,0.03l0.13,0.03l0.07,0.01l0.3,0l0.21,-0.04l0.2,-0.07l0.19,-0.09l0.14,-0.1l0.11,-0.11l0.07,-0.09l0.07,-0.14l0.04,-0.12l0.02,-0.09l0.01,-0.12l0.01,-0.03l0.17,-0.02l0.11,-0.05l0.1,-0.07l0.06,-0.07l0.05,-0.1l0.04,-0.08l0.04,-0.15l0.02,-0.15l0,-0.19l-0.03,-0.19l-0.02,-0.07l0,-0.05l0.06,-0.06l0.15,-0.08l0.11,-0.03l0.18,0l0.17,0.03l0.12,0.05l0.08,-0.34l0.04,-0.23l0.03,-0.29l0,-0.31l-0.04,-0.35l-0.05,-0.28l-0.1,-0.34l-0.07,-0.19l-0.07,-0.16l-0.08,-0.16l-0.11,-0.2l-0.08,-0.11l-0.11,-0.14l-0.19,-0.22l-0.1,-0.09l-0.13,-0.12l-0.18,-0.13l-0.16,-0.1l-0.22,-0.12l-0.22,-0.09l-0.25,-0.07l-0.23,-0.04l-0.19,-0.02l-0.29,0l-0.23,0.03l-0.16,0.03l0.04,0.02l0.35,0.06l0.23,0.06l0.26,0.09l0.22,0.1l0.17,0.09l0.16,0.1l0.19,0.13l0.15,0.12l0.05,0.08l0.07,0.21l0.04,0.16l0.04,0.22l-0.01,0.04l-0.05,-0.02l-0.21,-0.14l-0.18,-0.11l-0.25,-0.13l-0.23,-0.1l-0.21,-0.08l-0.2,-0.06l-0.33,-0.07l-0.34,-0.05l-0.34,-0.03l-0.41,-0.02l-0.06,-0.01l-0.01,-0.01l0,-1l0.14,-0.07l0.22,-0.09l0.21,-0.07l0.03,-0.09l0.11,-0.58l0.04,-0.13l0.04,-0.06l0.04,-0.03l0.42,-0.01z" fill="#2A205A" id="svg_1"/>
     <path d="m1.59,4.65l0.09,0.01l0.11,0.03l0.07,0.07l0.1,0.28l0.07,0.15l0.09,0.14l0.08,0.1l0.07,0.07l0.12,0.11l0.11,0.08l0.15,0.07l0.16,0.04l0.16,0l0.14,-0.03l0.09,-0.04l0.04,0.01l0.02,0.07l0.01,0.1l0,0.09l-0.03,0.18l-0.04,0.15l-0.08,0.18l-0.1,0.12l-0.07,0.05l-0.07,0.02l-0.19,-0.07l-0.14,-0.09l-0.08,-0.07l-0.09,-0.09l-0.11,-0.13l-0.11,-0.16l-0.08,-0.15l-0.07,-0.15l-0.08,-0.24l-0.05,-0.23l-0.04,-0.25l-0.04,-0.32l-0.02,-0.02l-0.01,0.05l0,0.31l0.02,0.27l0.04,0.25l0.04,0.21l0.06,0.2l0.07,0.16l0.06,0.12l0.09,0.14l0.08,0.1l0.09,0.1l0.15,0.13l0.14,0.1l0.02,0.05l-0.06,0.22l-0.08,0.14l-0.07,0.09l-0.11,0.09l-0.12,0.07l-0.16,0.06l-0.18,0.04l-0.07,0.01l-0.33,0l-0.11,-0.02l-0.03,-0.02l-0.01,-0.04l-0.01,-0.14l0,-0.96l0.02,-0.35l0.04,-0.5l0.05,-0.35l0.06,-0.28l0.09,-0.31l0.03,-0.05z" fill="#2A205A" id="svg_2"/>
     <path d="m1.37,4.61l0.1,0l0.02,0.01l0,0.06l-0.06,0.18l-0.11,0.37l-0.07,0.3l-0.08,0.43l-0.05,0.38l-0.04,0.43l-0.04,0.71l-0.01,0.07l-0.04,0.01l-0.27,-0.01l-0.18,-0.03l-0.13,-0.04l-0.14,-0.07l-0.09,-0.08l-0.07,-0.08l-0.04,-0.07l0,-0.07l0.11,-0.29l0.22,-0.52l0.11,-0.25l0.12,-0.25l0.11,-0.22l0.16,-0.28l0.06,-0.11l0.11,-0.19l0.08,-0.12l0.09,-0.13l0.1,-0.14z" fill="#2B215A" id="svg_3"/>
     <path d="m1.82,4.73l0.04,0.03l0.1,0.28l0.07,0.15l0.09,0.14l0.08,0.1l0.07,0.07l0.12,0.11l0.11,0.08l0.15,0.07l0.16,0.04l0.16,0l0.14,-0.03l0.09,-0.04l0.04,0.01l0.02,0.07l0.01,0.1l0,0.09l-0.03,0.18l-0.04,0.15l-0.08,0.18l-0.1,0.12l-0.07,0.05l-0.07,0.02l-0.19,-0.07l-0.14,-0.09l-0.08,-0.07l-0.09,-0.09l-0.11,-0.13l-0.11,-0.16l-0.08,-0.15l-0.07,-0.15l-0.08,-0.24l-0.05,-0.23l-0.04,-0.25l-0.04,-0.34l0.01,-0.01z" fill="#2C225B" id="svg_4"/>
     <path d="m3.04,3.62l0.07,0.01l0.11,0.05l0.05,0.04l0.01,0.01l-0.01,0.11l-0.05,0.13l-0.04,0.03l-0.14,0.01l-0.03,0.02l0.07,0.2l0.06,0.19l0.04,0.15l0,0.18l-0.04,0.04l-0.07,0.02l-0.11,0.01l-0.02,0.01l0,0.15l-0.07,0.07l0.02,0.08l-0.04,0.05l-0.11,0.05l-0.09,0l-0.1,-0.04l-0.09,-0.06l-0.09,-0.1l-0.07,-0.16l-0.03,-0.14l0,-0.18l0.04,-0.16l0.06,-0.13l0.08,-0.11l0.1,-0.09l0.04,-0.01l0.02,0.02l0.03,0.08l0.04,0.04l0.04,0.02l0.07,0l0.04,-0.05l0.05,-0.1l-0.1,0.01l-0.11,-0.01l-0.04,-0.03l0.03,-0.05l0.12,-0.06l0.06,-0.02l0.09,0l0.02,-0.02l0.05,-0.23l0.02,-0.02z" fill="#2C225B" id="svg_5"/>
     <path d="m3,2.5l0.08,0.03l0.18,0.08l0.19,0.11l0.11,0.08l0.1,0.09l0.11,0.13l0.09,0.14l0.07,0.16l0.04,0.13l0.04,0.22l0,0.19l-0.03,0.15l-0.04,0.09l-0.06,0.11l-0.08,0.08l-0.05,0.03l-0.04,-0.01l0.01,-0.06l0.04,-0.09l0.01,-0.04l0,-0.12l-0.04,-0.09l-0.04,-0.06l-0.07,-0.08l-0.11,-0.08l-0.14,-0.08l-0.12,-0.06l-0.16,-0.06l-0.01,-0.01l0,-0.07l0.02,-0.08l0.01,-0.1l0,-0.21l-0.03,-0.21l-0.04,-0.2l-0.03,-0.08l0,-0.04z" fill="#2B215B" id="svg_6"/>
     <path d="m1.21,4.55l0.04,0.02l-0.03,0.05l-0.11,0.13l-0.1,0.14l-0.09,0.13l-0.09,0.14l-0.12,0.21l-0.14,0.26l-0.11,0.2l-0.05,0.1l-0.12,0.23l-0.08,0.14l-0.03,0.02l-0.03,-0.03l-0.04,-0.11l-0.04,-0.16l-0.01,-0.11l0,-0.3l0.02,-0.13l0.04,-0.13l0.08,-0.1l0.1,-0.08l0.21,-0.15l0.17,-0.12l0.11,-0.08l0.17,-0.12l0.13,-0.09l0.04,-0.02l0.05,-0.01z" fill="#2C225B" id="svg_7"/>
     <path d="m1.03,4.03l0.35,0l0.34,0.02l-0.02,0.05l-0.04,0.05l-0.04,0.1l-0.01,0.09l0.04,0.15l0,0.05l-0.17,-0.03l-0.35,-0.06l-0.32,-0.03l-0.24,-0.01l-0.4,-0.01l-0.04,-0.04l-0.01,-0.06l0,-0.1l0.02,-0.07l0.04,-0.03l0.19,-0.03l0.39,-0.03l0.26,-0.01z" fill="#2D235C" id="svg_8"/>
     <path d="m2.43,2.85l0.1,0.04l0.24,0.12l0.2,0.11l0.03,0.03l0,0.13l-0.04,0.26l-0.04,0.1l-0.08,-0.02l-0.07,-0.03l-0.21,-0.04l-0.21,-0.02l-0.12,0l-0.21,0.02l-0.16,0.03l-0.05,-0.01l-0.09,-0.09l-0.08,-0.1l-0.05,-0.12l-0.04,-0.18l-0.01,-0.13l0.01,-0.03l0.06,-0.01l0.03,0.05l0.04,0.13l0.06,0.11l0.08,0.08l0.1,0.05l0.04,0.01l0.16,0l0.09,-0.03l0.07,-0.04l0.09,-0.09l0.06,-0.12l0.02,-0.09l0.01,-0.1l0.01,-0.02z" fill="#2D235C" id="svg_9"/>
     <path d="m0.17,2.98l0.19,0.03l0.4,0.08l0.35,0.08l0.3,0.08l0.05,0.03l0.05,0.09l0.06,0.12l0.11,0.13l-0.04,0.03l-0.05,0.01l-0.08,0l-0.24,-0.04l-0.27,-0.07l-0.32,-0.1l-0.4,-0.14l-0.11,-0.05l-0.03,-0.07l0,-0.13l0.02,-0.08z" fill="#2D245C" id="svg_10"/>
     <path d="m13.89,4.88l0.04,0.02l0.15,0.36l0.07,0.19l0.04,0.07l0.07,-0.16l0.08,-0.21l0.09,-0.23l0.04,-0.04l0.03,0.02l0.05,0.41l0.08,0.61l-0.01,0.03l-0.14,0l-0.02,-0.02l-0.04,-0.28l-0.02,-0.14l-0.04,0.04l-0.07,0.18l-0.07,0.19l-0.02,0.03l-0.04,-0.01l-0.04,-0.08l-0.12,-0.31l-0.03,-0.05l-0.02,0.09l-0.03,0.21l-0.03,0.13l-0.02,0.02l-0.05,0.01l-0.08,-0.01l0.01,-0.13l0.07,-0.52l0.04,-0.28l0.02,-0.12l0.01,-0.01z" fill="#2F265E" id="svg_11"/>
     <path d="m17.36,4.85l0.12,0l0.09,0.03l0.09,0.07l0.07,0.1l0.05,0.13l0.02,0.09l0.01,0.14l-0.02,0.19l-0.04,0.12l-0.06,0.11l-0.07,0.07l-0.07,0.04l-0.07,0.02l-0.11,0l-0.1,-0.04l-0.07,-0.06l-0.05,-0.07l-0.07,-0.16l-0.03,-0.14l0,-0.15l0.04,-0.16l0.07,-0.16l0.06,-0.08l0.09,-0.06l0.06,-0.02zm0.04,0.23l-0.06,0.02l-0.06,0.08l-0.04,0.1l-0.01,0.04l0,0.19l0.03,0.1l0.05,0.08l0.07,0.05l0.1,0l0.05,-0.04l0.05,-0.07l0.04,-0.11l0,-0.22l-0.04,-0.11l-0.04,-0.06l-0.06,-0.04l-0.07,-0.01z" fill="#2F255D" id="svg_12"/>
     <path d="m9.02,4.84l0.13,0l0.09,0.03l0.07,0.06l0.06,0.08l0.05,0.12l0.03,0.12l0.01,0.08l0,0.14l-0.03,0.14l-0.04,0.09l-0.07,0.11l-0.07,0.07l-0.08,0.04l-0.04,0.01l-0.1,0l-0.08,-0.02l-0.09,-0.06l-0.08,-0.1l-0.06,-0.14l-0.03,-0.16l0,-0.15l0.03,-0.14l0.06,-0.14l0.09,-0.11l0.07,-0.05l0.07,-0.02zm0.02,0.23l-0.06,0.04l-0.05,0.08l-0.04,0.11l-0.01,0.06l0,0.08l0.02,0.1l0.05,0.1l0.07,0.06l0.04,0.02l0.07,-0.01l0.05,-0.04l0.05,-0.07l0.03,-0.08l0.01,-0.05l0,-0.18l-0.03,-0.1l-0.06,-0.09l-0.07,-0.04l-0.08,0z" fill="#2E255D" id="svg_13"/>
     <path d="m12.66,3.17l0.16,0l0.08,0.04l0.07,0.07l0.06,0.09l0.04,0.11l0.02,0.11l0,0.25l-0.02,0.11l-0.04,0.09l-0.05,0.1l-0.08,0.09l-0.07,0.04l-0.04,0.01l-0.12,0l-0.1,-0.04l-0.06,-0.06l-0.08,-0.14l-0.05,-0.15l-0.01,-0.05l0,-0.24l0.03,-0.12l0.05,-0.12l0.07,-0.1l0.07,-0.06l0.07,-0.03zm0.04,0.23l-0.06,0.04l-0.06,0.1l-0.03,0.1l0,0.16l0.03,0.11l0.04,0.07l0.07,0.06l0.02,0.01l0.08,0l0.05,-0.04l0.06,-0.08l0.04,-0.16l0,-0.11l-0.03,-0.12l-0.05,-0.08l-0.06,-0.06l-0.09,0z" fill="#2E245D" id="svg_14"/>
     <path d="m15.18,3.16l0.11,0l0.1,0.04l0.08,0.07l0.07,0.11l0.04,0.11l0.02,0.1l0,0.26l-0.03,0.12l-0.06,0.14l-0.08,0.1l-0.07,0.05l-0.06,0.02l-0.12,0l-0.09,-0.04l-0.07,-0.06l-0.05,-0.08l-0.06,-0.15l-0.03,-0.13l0,-0.2l0.04,-0.15l0.07,-0.16l0.04,-0.06l0.1,-0.07l0.05,-0.02zm0.02,0.24l-0.05,0.04l-0.05,0.08l-0.04,0.1l-0.01,0.06l0,0.1l0.03,0.12l0.04,0.08l0.07,0.06l0.02,0.01l0.08,0l0.07,-0.06l0.04,-0.05l0.03,-0.08l0.01,-0.06l0,-0.19l-0.04,-0.11l-0.06,-0.08l-0.04,-0.03l-0.09,0z" fill="#2E255D" id="svg_15"/>
     <path d="m11.41,3.16l0.11,0l0.1,0.04l0.07,0.06l0.05,0.07l0.05,0.12l0.03,0.13l0.01,0.19l-0.02,0.16l-0.04,0.12l-0.06,0.1l-0.04,0.05l-0.08,0.06l-0.06,0.02l-0.11,0l-0.09,-0.03l-0.08,-0.07l-0.07,-0.11l-0.04,-0.1l-0.03,-0.14l0,-0.21l0.03,-0.14l0.04,-0.09l0.06,-0.11l0.09,-0.08l0.09,-0.04zm0.01,0.24l-0.07,0.07l-0.05,0.12l-0.02,0.08l0,0.13l0.03,0.1l0.04,0.08l0.07,0.06l0.04,0.02l0.05,-0.01l0.05,-0.04l0.05,-0.07l0.03,-0.09l0.01,-0.08l0,-0.11l-0.02,-0.11l-0.04,-0.08l-0.06,-0.06l-0.03,-0.01l-0.09,0z" fill="#2E245D" id="svg_16"/>
     <path d="m12.08,4.87l0.27,0l0.1,0.02l0.11,0.06l0.07,0.08l0.05,0.1l0.03,0.1l0.01,0.08l0,0.16l-0.03,0.14l-0.06,0.12l-0.07,0.08l-0.11,0.06l-0.09,0.02l-0.1,0.01l-0.17,0l-0.02,-0.02l-0.01,-0.22l0,-0.81l0.01,-0.01zm0.19,0.22l-0.02,0.02l0,0.61l0.09,0l0.08,-0.04l0.07,-0.06l0.04,-0.06l0.02,-0.09l0,-0.12l-0.03,-0.1l-0.05,-0.08l-0.09,-0.05l-0.11,-0.01z" fill="#2E245D" id="svg_17"/>
     <path d="m13.53,3.15l0.11,0.01l0.09,0.04l0.04,0.06l0.02,0.13l0,0.07l-0.01,0.02l-0.04,-0.02l-0.09,-0.06l-0.11,-0.02l-0.06,0.02l-0.06,0.06l-0.05,0.12l-0.02,0.09l0,0.1l0.04,0.14l0.04,0.06l0,0.02l0.04,0.02l0.05,0.03l0.05,0.01l0.05,-0.03l0.02,0l0.02,-0.09l-0.01,-0.03l-0.11,-0.04l-0.02,-0.01l-0.01,-0.03l0,-0.13l0.03,-0.03l0.27,0l0.02,0.04l0.01,0.28l-0.01,0.14l-0.03,0.07l-0.03,0.03l-0.12,0.05l-0.04,0.01l-0.11,0l-0.09,-0.03l-0.08,-0.07l-0.07,-0.1l-0.06,-0.15l-0.01,-0.04l0,-0.3l0.04,-0.16l0.08,-0.14l0.08,-0.08l0.1,-0.05l0.06,-0.01z" fill="#2F255E" id="svg_18"/>
     <path d="m0.18,3.43l0.11,0.02l0.57,0.18l0.27,0.07l0.24,0.04l0.07,0.01l0,0.03l-0.06,0.06l-0.1,0.08l-0.03,0.01l-0.59,0.02l-0.38,0.03l-0.09,0l-0.03,-0.1l-0.02,-0.13l0,-0.2l0.02,-0.09l0.02,-0.03z" fill="#2D235C" id="svg_19"/>
     <path d="m6.24,4.86l0.04,0.01l0.08,0.09l0.06,0.08l0.11,0.13l0.06,0.08l0.11,0.14l0.03,0.03l0,-0.57l0.15,0l0.01,0.01l0,1.03l-0.01,0.02l-0.04,-0.01l-0.08,-0.1l-0.06,-0.08l-0.09,-0.11l-0.08,-0.11l-0.11,-0.14l-0.02,-0.01l0.01,0.11l0,0.43l-0.01,0.03l-0.14,0l-0.01,-0.03l-0.01,-0.27l0,-0.3l0.01,-0.47z" fill="#2E245D" id="svg_20"/>
     <path d="m9.54,4.86l0.06,0.03l0.11,0.15l0.07,0.08l0.06,0.08l0.11,0.15l0.05,0.07l0,-0.57l0.03,-0.01l0.13,0.01l0.01,1.02l-0.02,0.04l-0.04,-0.02l-0.1,-0.12l-0.06,-0.08l-0.1,-0.12l-0.08,-0.11l-0.09,-0.11l0,0.56l-0.02,0.02l-0.11,0l-0.02,-0.02l-0.01,-0.21l-0.01,-0.82l0.01,-0.02z" fill="#2F255E" id="svg_21"/>
     <path d="m10.4,3.19l0.04,0.02l0.05,0.05l0.08,0.11l0.09,0.11l0.08,0.11l0.1,0.13l0.02,0.05l0.02,0l-0.01,-0.02l0,-0.57l0.15,0l0,1.06l-0.03,0.01l-0.07,-0.07l-0.05,-0.08l-0.11,-0.14l-0.08,-0.11l-0.11,-0.14l-0.02,-0.01l0,0.56l-0.01,0.01l-0.11,0l-0.02,-0.01l-0.01,-0.06l-0.01,-0.98l0.01,-0.03z" fill="#2E245D" id="svg_22"/>
     <path d="m15.29,4.88l0.14,0l0.04,0.03l0.11,0.21l0.04,0.05l0.11,-0.23l0.03,-0.05l0.02,-0.01l0.18,0l-0.01,0.05l-0.06,0.11l-0.11,0.25l-0.04,0.07l0.02,0.06l0.07,0.14l0.14,0.27l0.04,0.08l0,0.03l-0.18,0l-0.05,-0.05l-0.11,-0.21l-0.04,-0.08l-0.03,0.03l-0.09,0.19l-0.06,0.1l-0.04,0.02l-0.14,0l0.03,-0.09l0.12,-0.27l0.08,-0.16l0,-0.06l-0.07,-0.18l-0.07,-0.16l-0.05,-0.13l0,-0.01z" fill="#2E245C" id="svg_23"/>
     <path d="m0.19,2.3l0.22,0.01l0.38,0.03l0.3,0.04l0.27,0.05l0.27,0.07l0.1,0.04l0.01,0.02l-0.06,0.1l-0.05,0.11l-0.02,0.02l-0.04,-0.01l-0.14,-0.05l-0.34,-0.09l-0.43,-0.08l-0.44,-0.06l-0.04,-0.02l-0.01,-0.07l0.01,-0.08l0.03,-0.03z" fill="#2E255D" id="svg_24"/>
     <path d="m2.18,3.65l0.17,0l0.19,0.02l0.2,0.04l0.08,0.03l0,0.03l-0.11,0.03l-0.1,0.03l-0.14,0.09l-0.11,0.12l-0.05,0.07l-0.08,0.15l-0.03,-0.01l-0.04,-0.12l-0.06,-0.08l-0.07,-0.05l-0.14,-0.04l-0.11,-0.02l-0.34,-0.01l-0.04,-0.01l0.04,-0.04l0.22,-0.12l0.19,-0.06l0.23,-0.04l0.12,-0.01z" fill="#2F255D" id="svg_25"/>
     <path d="m16.68,4.85l0.16,0l0.09,0.04l0.04,0.06l0.02,0.07l0,0.14l-0.01,0.05l-0.07,-0.06l-0.08,-0.06l-0.02,-0.01l-0.11,0l-0.06,0.04l-0.06,0.11l-0.03,0.09l0,0.16l0.04,0.13l0.04,0.05l0.07,0.05l0.04,0.01l0.06,0l0.07,-0.04l0.1,-0.09l0.02,0.03l0.01,0.05l0,0.11l-0.04,0.1l-0.07,0.05l-0.06,0.02l-0.14,0l-0.09,-0.04l-0.09,-0.08l-0.06,-0.1l-0.05,-0.13l-0.02,-0.1l0,-0.19l0.03,-0.14l0.04,-0.09l0.05,-0.1l0.09,-0.09l0.08,-0.04l0.04,-0.01z" fill="#2F255D" id="svg_26"/>
     <path d="m7.97,4.84l0.16,0l0.1,0.03l0.04,0.05l0.01,0.03l0.01,0.11l0,0.1l-0.02,0.03l-0.1,-0.09l-0.08,-0.04l-0.07,0l-0.07,0.04l-0.05,0.07l-0.04,0.1l-0.01,0.04l0,0.16l0.04,0.11l0.06,0.08l0.09,0.04l0.08,-0.01l0.08,-0.05l0.06,-0.06l0.03,0.01l0,0.15l-0.02,0.09l-0.04,0.05l-0.07,0.04l-0.04,0.01l-0.11,0l-0.09,-0.02l-0.08,-0.06l-0.07,-0.1l-0.06,-0.14l-0.03,-0.13l0,-0.22l0.03,-0.12l0.06,-0.14l0.08,-0.1l0.1,-0.06l0.04,-0.01z" fill="#2E255D" id="svg_27"/>
     <path d="m0.17,2.61l0.14,0.01l0.33,0.05l0.38,0.07l0.33,0.08l0.08,0.03l0.01,0.01l0.01,0.27l-0.01,0.02l-0.13,-0.03l-0.33,-0.09l-0.42,-0.1l-0.36,-0.08l-0.03,-0.02l0,-0.2l0.01,-0.02z" fill="#2D245C" id="svg_28"/>
     <path d="m14.6,3.15l0.1,0.01l0.09,0.05l0.04,0.08l0,0.22l-0.02,0.01l-0.12,-0.1l-0.04,-0.02l-0.09,0l-0.05,0.04l-0.04,0.06l-0.04,0.11l-0.01,0.06l0,0.12l0.02,0.09l0.05,0.1l0.06,0.05l0.05,0.02l0.07,-0.01l0.09,-0.07l0.06,-0.05l0.01,0.02l0.01,0.19l-0.04,0.07l-0.07,0.07l-0.05,0.02l-0.15,0l-0.09,-0.05l-0.09,-0.09l-0.06,-0.11l-0.04,-0.11l-0.02,-0.11l0,-0.19l0.04,-0.16l0.05,-0.12l0.08,-0.1l0.08,-0.06l0.05,-0.02l0.06,-0.01z" fill="#2E245D" id="svg_29"/>
     <path d="m9.99,3.16l0.14,0l0.1,0.03l0.04,0.04l0.02,0.06l0.01,0.11l0,0.11l-0.04,-0.02l-0.09,-0.07l-0.07,-0.03l-0.06,0l-0.06,0.04l-0.05,0.09l-0.04,0.12l0,0.15l0.03,0.1l0.04,0.08l0.04,0.04l0.04,0.02l0.09,0l0.09,-0.05l0.06,-0.06l0.02,0l0.01,0.02l-0.01,0.16l-0.03,0.08l-0.06,0.06l-0.04,0.02l-0.05,0.01l-0.11,0l-0.1,-0.04l-0.08,-0.08l-0.06,-0.11l-0.04,-0.08l-0.03,-0.14l0,-0.21l0.03,-0.14l0.04,-0.1l0.07,-0.11l0.06,-0.06l0.07,-0.04l0.03,-0.01z" fill="#2E245D" id="svg_30"/>
     <path d="m14.71,4.88l0.45,0l0.01,0.01l-0.01,0.2l-0.02,0.01l-0.27,0.01l0,0.19l0.12,0l0.04,0.02l0.01,0.01l0,0.16l-0.02,0.02l-0.16,0l0,0.22l0.29,0.01l0.01,0.07l-0.01,0.13l-0.01,0.01l-0.43,0l-0.01,-0.01l-0.01,-0.08l0,-0.98z" fill="#30265E" id="svg_31"/>
     <path d="m12.82,4.87l0.44,0l0.01,0.01l0,0.15l-0.03,0.05l-0.26,0l0,0.2l0.19,0l0,0.2l-0.02,0.02l-0.16,0l0,0.21l0.26,0l0.03,0.01l0,0.19l-0.01,0.02l-0.17,0.01l-0.26,0l-0.03,-0.02l0,-1.04z" fill="#2E245D" id="svg_32"/>
     <path d="m10.61,4.87l0.04,0.01l0.1,0.3l0.15,0.44l0.09,0.27l0,0.04l-0.13,0l-0.04,-0.02l-0.03,-0.07l-0.02,-0.05l-0.3,0l-0.04,0.12l-0.06,0.02l-0.1,0l-0.01,-0.04l0.15,-0.45l0.11,-0.33l0.08,-0.23l0.01,-0.01zm0,0.39l-0.08,0.26l-0.01,0.07l0.04,0.01l0.15,0l-0.01,-0.07l-0.05,-0.22l-0.04,-0.05z" fill="#2F265E" id="svg_33"/>
     <path d="m7.31,4.87l0.04,0.01l0.04,0.09l0.13,0.39l0.11,0.36l0.06,0.15l0.01,0.04l-0.04,0.01l-0.11,0l-0.04,-0.04l-0.04,-0.1l-0.01,-0.01l-0.28,0.01l-0.04,0.1l-0.03,0.03l-0.04,0.01l-0.11,0l-0.01,-0.04l0.08,-0.25l0.11,-0.35l0.11,-0.29l0.04,-0.12l0.01,-0.01zm0,0.4l-0.04,0.08l-0.06,0.22l0,0.02l0.04,0.01l0.1,0l0.05,-0.01l-0.02,-0.09l-0.04,-0.18l-0.03,-0.05l-0.01,0z" fill="#2F255E" id="svg_34"/>
     <path d="m9.16,3.2l0.43,0l0,0.21l-0.27,0l0,0.2l0.14,0.01l0.02,0.01l0,0.2l-0.03,0.01l-0.13,0l0,0.22l0.27,0l0.02,0.04l0,0.18l-0.02,0.01l-0.42,0l-0.01,-0.01l0,-1.06z" fill="#2D245C" id="svg_35"/>
     <path d="m0.27,4.51l0.43,0l0.34,0.02l0.03,0.02l-0.18,0.1l-0.19,0.12l-0.24,0.15l-0.13,0.09l-0.12,0.08l-0.04,0.01l-0.01,-0.04l0,-0.49l0.03,-0.05l0.08,-0.02z" fill="#2F255D" id="svg_36"/>
     <path d="m8.46,3.2l0.59,0l0.01,0.2l-0.01,0.01l-0.11,0.01l-0.11,0l0,0.85l-0.01,0.01l-0.15,0l-0.01,-0.01l-0.01,-0.44l0,-0.4l-0.22,-0.01l-0.01,-0.06l0,-0.11l0.01,-0.02l0.03,-0.01z" fill="#30275E" id="svg_37"/>
     <path d="m1.94,4.7l0.04,0.02l0.09,0.2l0.07,0.11l0.1,0.12l0.11,0.09l0.1,0.05l0.15,0.04l0.15,0.01l0.06,0.03l0.07,0.06l0.11,0.05l0.11,0.01l0.04,0.02l-0.02,0.04l-0.1,0.07l-0.11,0.04l-0.13,0.01l-0.12,-0.02l-0.1,-0.04l-0.11,-0.06l-0.12,-0.1l-0.14,-0.15l-0.1,-0.15l-0.11,-0.21l-0.06,-0.15l-0.01,-0.07l0.03,-0.02z" fill="#31275F" id="svg_38"/>
     <path d="m11.07,4.87l0.16,0l0.01,0.01l0,0.38l-0.01,0.44l0.27,0l0.02,0.01l0.01,0.19l-0.02,0.02l-0.27,0.01l-0.15,0l-0.02,-0.02l-0.01,-0.23l0,-0.8l0.01,-0.01z" fill="#352B62" id="svg_39"/>
     <path d="m1.95,2.62l0.11,0l0.11,0.04l0.08,0.08l0.04,0.08l0,0.19l-0.05,0.12l-0.07,0.07l-0.07,0.03l-0.14,0l-0.09,-0.04l-0.06,-0.07l-0.04,-0.1l-0.01,-0.09l0.02,-0.1l0.04,-0.08l0.08,-0.08l0.08,-0.04zm0.13,0.13l-0.05,0.05l0.01,0.08l0.04,0.05l0.05,0.01l0.04,-0.03l0.02,-0.04l-0.01,-0.08l-0.03,-0.03l-0.08,-0.01z" fill="#2C235B" id="svg_40"/>
     <path d="m11.93,3.2l0.15,0l0.01,0.01l0,0.83l0.25,-0.01l0.03,0.04l0.01,0.04l0,0.13l-0.05,0.02l-0.37,0l-0.02,-0.02l-0.01,-0.28l0,-0.76l0.01,-0.01z" fill="#322960" id="svg_41"/>
     <path d="m8.42,4.87l0.17,0l0.01,0.01l0,1.02l-0.03,0.03l-0.11,0l-0.03,-0.02l-0.01,-0.54l0,-0.5z" fill="#2C235B" id="svg_42"/>
     <path d="m16.11,4.88l0.13,0l0.03,0.01l0,1.05l-0.04,0.01l-0.11,0l-0.02,-0.05l0,-1.01l0.01,-0.01z" fill="#2D245C" id="svg_43"/>
     <path d="m13.97,3.2l0.14,0l0.02,0.02l0,1.03l-0.02,0.02l-0.13,0l-0.01,-0.01l-0.01,-1.02l0.01,-0.04z" fill="#2A2059" id="svg_44"/>
     <path d="m1.86,4.11l0.1,0l0.07,0.04l0.06,0.09l0.02,0.11l-0.04,0.09l-0.06,0.08l-0.05,0.03l-0.06,0.01l-0.07,-0.02l-0.07,-0.07l-0.04,-0.08l-0.01,-0.04l0,-0.07l0.04,-0.07l0.04,-0.05l0.04,-0.04l0.03,-0.01zm0.01,0.11l-0.05,0.04l-0.01,0.02l0,0.09l0.04,0.06l0.04,0.02l0.06,-0.01l0.04,-0.02l0.02,-0.03l0,-0.1l-0.03,-0.05l-0.03,-0.02l-0.07,0z" fill="#342A61" id="svg_45"/>
     <path d="m2.14,4.52l0.02,0l0.03,0.25l0.04,0.12l0.1,0.2l0,0.02l-0.04,-0.01l-0.13,-0.15l-0.09,-0.16l-0.06,-0.09l0.04,-0.05l0.09,-0.09l0.02,-0.02z" fill="#352C62" id="svg_46"/>
     <path d="m12.73,2.95l0.05,0.01l0.01,0.05l-0.03,0.06l-0.04,0.01l-0.03,-0.02l0.02,-0.09l0.02,-0.02z" fill="#3F366A" id="svg_47"/>
     <path d="m14.93,4.72l0.04,0.01l0.02,0.02l-0.01,0.05l-0.01,0.01l-0.06,-0.01l-0.01,-0.03l0.03,-0.05z" fill="#322860" id="svg_48"/>
     <path d="m1.89,4.3l0.04,0.01l0.02,0.04l-0.02,0.02l-0.04,0.01l-0.04,-0.02l0.01,-0.04l0.03,-0.02z" fill="#4C4474" id="svg_49"/>
    </g>
   </g>
  </g>
 </g>
</svg>